999
dxflib 3.12.2.0
  0
SECTION
  2
HEADER
  9
$ACADVER
  1
AC1015
  9
$HANDSEED
  5
FFFF
  9
$DIMADEC
 70
0
  9
$DIMASZ
 40
2.5
  9
$DIMAUNIT
 70
0
  9
$DIMAZIN
 70
2
  9
$DIMDEC
 70
4
  9
$DIMEXE
 40
1.25
  9
$DIMEXO
 40
0.625
  9
$DIMGAP
 40
0.625
  9
$DIMLUNIT
 70
2
  9
$DIMSCALE
 40
1.0
  9
$DIMTSZ
 40
0.0
  9
$DIMTXT
 40
2.5
  9
$DIMZIN
 70
8
  9
$DWGCODEPAGE
  3
ANSI_1252
  9
$INSUNITS
 70
4
  9
$LTSCALE
 40
1.0
  9
$MAXACTVP
 70
32
  9
$MEASUREMENT
 70
1
  9
$PDMODE
 70
0
  9
$PDSIZE
 40
0
  0
ENDSEC
  0
SECTION
  2
TABLES
  0
TABLE
  2
VPORT
  5
8
100
AcDbSymbolTable
 70
1
  0
VPORT
  5
30
100
AcDbSymbolTableRecord
100
AcDbViewportTableRecord
  2
*Active
 70
0
 10
0.0
 20
0.0
 11
1.0
 21
1.0
 12
286.3055555555554861
 22
148.5
 13
0.0
 23
0.0
 14
10.0
 24
10.0
 15
10.0
 25
10.0
 16
0.0
 26
0.0
 36
1.0
 17
0.0
 27
0.0
 37
0.0
 40
297.0
 41
1.92798353909465
 42
50.0
 43
0.0
 44
0.0
 50
0.0
 51
0.0
 71
0
 72
100
 73
1
 74
3
 75
1
 76
1
 77
0
 78
0
281
0
 65
1
110
0.0
120
0.0
130
0.0
111
1.0
121
0.0
131
0.0
112
0.0
122
1.0
132
0.0
 79
0
146
0.0
  0
ENDTAB
  0
TABLE
  2
LTYPE
  5
5
100
AcDbSymbolTable
 70
41
  0
LTYPE
  5
16
100
AcDbSymbolTableRecord
100
AcDbLinetypeTableRecord
  2
Continuous
 70
0
  3
Solid line
 72
65
 73
0
 40
0.0
  0
LTYPE
  5
31
100
AcDbSymbolTableRecord
100
AcDbLinetypeTableRecord
  2
ACAD_ISO15W100
 70
0
  3
ISO double-dash triple-dot __ __ . . . __ __ . .
 72
65
 73
10
 40
39.0000000000000071
 49
12.0
 74
0
 49
-3.0
 74
0
 49
12.0
 74
0
 49
-2.9500000000000002
 74
0
 49
0.1
 74
0
 49
-2.9000000000000004
 74
0
 49
0.1
 74
0
 49
-2.9000000000000004
 74
0
 49
0.1
 74
0
 49
-2.9500000000000002
 74
0
  0
LTYPE
  5
32
100
AcDbSymbolTableRecord
100
AcDbLinetypeTableRecord
  2
DIVIDE
 70
0
  3
Divide ____ . . ____ . . ____ . . ____ . . ____
 72
65
 73
6
 40
31.7500000000000036
 49
12.6999999999999993
 74
0
 49
-6.2999999999999998
 74
0
 49
0.1
 74
0
 49
-6.25
 74
0
 49
0.1
 74
0
 49
-6.2999999999999998
 74
0
  0
LTYPE
  5
33
100
AcDbSymbolTableRecord
100
AcDbLinetypeTableRecord
  2
ACAD_ISO10W100
 70
0
  3
ISO dash dot __ . __ . __ . __ . __ . __ . __ . 
 72
65
 73
4
 40
18.0
 49
12.0
 74
0
 49
-2.9500000000000002
 74
0
 49
0.1
 74
0
 49
-2.9500000000000002
 74
0
  0
LTYPE
  5
34
100
AcDbSymbolTableRecord
100
AcDbLinetypeTableRecord
  2
ACAD_ISO04W100
 70
0
  3
ISO long-dash dot ____ . ____ . ____ . ____ . _
 72
65
 73
4
 40
30.0
 49
24.0
 74
0
 49
-2.9500000000000002
 74
0
 49
0.1
 74
0
 49
-2.9500000000000002
 74
0
  0
LTYPE
  5
35
100
AcDbSymbolTableRecord
100
AcDbLinetypeTableRecord
  2
CENTER2
 70
0
  3
Center (.5x) ___ _ ___ _ ___ _ ___ _ ___ _ ___
 72
65
 73
4
 40
28.5750000000000028
 49
19.0500000000000007
 74
0
 49
-3.1749999999999998
 74
0
 49
3.1749999999999998
 74
0
 49
-3.1749999999999998
 74
0
  0
LTYPE
  5
36
100
AcDbSymbolTableRecord
100
AcDbLinetypeTableRecord
  2
ACAD_ISO11W100
 70
0
  3
ISO double-dash dot __ __ . __ __ . __ __ . __ _
 72
65
 73
6
 40
33.0
 49
12.0
 74
0
 49
-3.0
 74
0
 49
12.0
 74
0
 49
-2.9500000000000002
 74
0
 49
0.1
 74
0
 49
-2.9500000000000002
 74
0
  0
LTYPE
  5
37
100
AcDbSymbolTableRecord
100
AcDbLinetypeTableRecord
  2
HIDDEN2
 70
0
  3
Hidden (.5x) _ _ _ _ _ _ _ _ _ _ _ _ _ _ _ _ _ 
 72
65
 73
2
 40
4.7624999999999993
 49
3.1749999999999998
 74
0
 49
-1.5874999999999999
 74
0
  0
LTYPE
  5
38
100
AcDbSymbolTableRecord
100
AcDbLinetypeTableRecord
  2
BORDERX2
 70
0
  3
Border (2x) ____  ____  .  ____  ____  .  ___
 72
65
 73
6
 40
88.8999999999999773
 49
25.3999999999999986
 74
0
 49
-12.6999999999999993
 74
0
 49
25.3999999999999986
 74
0
 49
-12.6499999999999986
 74
0
 49
0.1
 74
0
 49
-12.6499999999999986
 74
0
  0
LTYPE
  5
39
100
AcDbSymbolTableRecord
100
AcDbLinetypeTableRecord
  2
ACAD_ISO05W100
 70
0
  3
ISO long-dash double-dot ____ .. ____ .. ____ . 
 72
65
 73
6
 40
33.0000000000000071
 49
24.0
 74
0
 49
-2.9500000000000002
 74
0
 49
0.1
 74
0
 49
-2.9000000000000004
 74
0
 49
0.1
 74
0
 49
-2.9500000000000002
 74
0
  0
LTYPE
  5
3A
100
AcDbSymbolTableRecord
100
AcDbLinetypeTableRecord
  2
DASHDOTX2
 70
0
  3
Dash dot (2x) ____  .  ____  .  ____  .  ___
 72
65
 73
4
 40
50.7999999999999972
 49
25.3999999999999986
 74
0
 49
-12.6499999999999986
 74
0
 49
0.1
 74
0
 49
-12.6499999999999986
 74
0
  0
LTYPE
  5
3B
100
AcDbSymbolTableRecord
100
AcDbLinetypeTableRecord
  2
HIDDENX2
 70
0
  3
Hidden (2x) ____ ____ ____ ____ ____ ____ ____ 
 72
65
 73
2
 40
19.0499999999999972
 49
12.6999999999999993
 74
0
 49
-6.3499999999999996
 74
0
  0
LTYPE
  5
3C
100
AcDbSymbolTableRecord
100
AcDbLinetypeTableRecord
  2
CENTERX2
 70
0
  3
Center (2x) ________  __  ________  __  _____
 72
65
 73
4
 40
101.6000000000000085
 49
63.5
 74
0
 49
-12.6999999999999993
 74
0
 49
12.6999999999999993
 74
0
 49
-12.6999999999999993
 74
0
  0
LTYPE
  5
3D
100
AcDbSymbolTableRecord
100
AcDbLinetypeTableRecord
  2
BORDER2
 70
0
  3
Border (.5x) __.__.__.__.__.__.__.__.__.__.__.
 72
65
 73
6
 40
22.2250000000000014
 49
6.3499999999999996
 74
0
 49
-3.1749999999999998
 74
0
 49
6.3499999999999996
 74
0
 49
-3.125
 74
0
 49
0.1
 74
0
 49
-3.125
 74
0
  0
LTYPE
  5
3E
100
AcDbSymbolTableRecord
100
AcDbLinetypeTableRecord
  2
DASHDOT2
 70
0
  3
Dash dot (.5x) _._._._._._._._._._._._._._._.
 72
65
 73
4
 40
12.6999999999999993
 49
6.3499999999999996
 74
0
 49
-3.125
 74
0
 49
0.1
 74
0
 49
-3.125
 74
0
  0
LTYPE
  5
3F
100
AcDbSymbolTableRecord
100
AcDbLinetypeTableRecord
  2
ACAD_ISO12W100
 70
0
  3
ISO dash double-dot __ . . __ . . __ . . __ . . 
 72
65
 73
6
 40
21.0
 49
12.0
 74
0
 49
-2.9500000000000002
 74
0
 49
0.1
 74
0
 49
-2.9000000000000004
 74
0
 49
0.1
 74
0
 49
-2.9500000000000002
 74
0
  0
LTYPE
  5
40
100
AcDbSymbolTableRecord
100
AcDbLinetypeTableRecord
  2
ACAD_ISO07W100
 70
0
  3
ISO dot . . . . . . . . . . . . . . . . . . . . 
 72
65
 73
2
 40
3.0
 49
0.1
 74
0
 49
-2.8999999999999999
 74
0
  0
LTYPE
  5
41
100
AcDbSymbolTableRecord
100
AcDbLinetypeTableRecord
  2
HIDDEN
 70
0
  3
Hidden __ __ __ __ __ __ __ __ __ __ __ __ __ __
 72
65
 73
2
 40
9.5249999999999986
 49
6.3499999999999996
 74
0
 49
-3.1749999999999998
 74
0
  0
LTYPE
  5
42
100
AcDbSymbolTableRecord
100
AcDbLinetypeTableRecord
  2
ACAD_ISO06W100
 70
0
  3
ISO long-dash triple-dot ____ ... ____ ... ____
 72
65
 73
8
 40
36.0000000000000071
 49
24.0
 74
0
 49
-2.9500000000000002
 74
0
 49
0.1
 74
0
 49
-2.9000000000000004
 74
0
 49
0.1
 74
0
 49
-2.9000000000000004
 74
0
 49
0.1
 74
0
 49
-2.9500000000000002
 74
0
  0
LTYPE
  5
43
100
AcDbSymbolTableRecord
100
AcDbLinetypeTableRecord
  2
CENTER
 70
0
  3
Center ____ _ ____ _ ____ _ ____ _ ____ _ ____
 72
65
 73
4
 40
50.8000000000000043
 49
31.75
 74
0
 49
-6.3499999999999996
 74
0
 49
6.3499999999999996
 74
0
 49
-6.3499999999999996
 74
0
  0
LTYPE
  5
44
100
AcDbSymbolTableRecord
100
AcDbLinetypeTableRecord
  2
DOTX2
 70
0
  3
Dot (2x) .  .  .  .  .  .  .  .  .  .  .  .  .  .
 72
65
 73
2
 40
12.6999999999999993
 49
0.1
 74
0
 49
-12.5999999999999996
 74
0
  0
LTYPE
  5
45
100
AcDbSymbolTableRecord
100
AcDbLinetypeTableRecord
  2
PHANTOM
 70
0
  3
Phantom ______  __  __  ______  __  __  ______ 
 72
65
 73
6
 40
63.5000000000000071
 49
31.75
 74
0
 49
-6.3499999999999996
 74
0
 49
6.3499999999999996
 74
0
 49
-6.3499999999999996
 74
0
 49
6.3499999999999996
 74
0
 49
-6.3499999999999996
 74
0
  0
LTYPE
  5
46
100
AcDbSymbolTableRecord
100
AcDbLinetypeTableRecord
  2
ACAD_ISO08W100
 70
0
  3
ISO long-dash short-dash ____ __ ____ __ ____ _
 72
65
 73
4
 40
36.0
 49
24.0
 74
0
 49
-3.0
 74
0
 49
6.0
 74
0
 49
-3.0
 74
0
  0
LTYPE
  5
47
100
AcDbSymbolTableRecord
100
AcDbLinetypeTableRecord
  2
DASHEDX2
 70
0
  3
Dashed (2x) ____  ____  ____  ____  ____  ___
 72
65
 73
2
 40
38.0999999999999943
 49
25.3999999999999986
 74
0
 49
-12.6999999999999993
 74
0
  0
LTYPE
  5
48
100
AcDbSymbolTableRecord
100
AcDbLinetypeTableRecord
  2
ACAD_ISO02W100
 70
0
  3
ISO dash __ __ __ __ __ __ __ __ __ __ __ __ __
 72
65
 73
2
 40
15.0
 49
12.0
 74
0
 49
-3.0
 74
0
  0
LTYPE
  5
49
100
AcDbSymbolTableRecord
100
AcDbLinetypeTableRecord
  2
PHANTOM2
 70
0
  3
Phantom (.5x) ___ _ _ ___ _ _ ___ _ _ ___ _ _
 72
65
 73
6
 40
31.7500000000000036
 49
15.875
 74
0
 49
-3.1749999999999998
 74
0
 49
3.1749999999999998
 74
0
 49
-3.1749999999999998
 74
0
 49
3.1749999999999998
 74
0
 49
-3.1749999999999998
 74
0
  0
LTYPE
  5
4A
100
AcDbSymbolTableRecord
100
AcDbLinetypeTableRecord
  2
DASHED2
 70
0
  3
Dashed (.5x) _ _ _ _ _ _ _ _ _ _ _ _ _ _ _ _ _ 
 72
65
 73
2
 40
9.5249999999999986
 49
6.3499999999999996
 74
0
 49
-3.1749999999999998
 74
0
  0
LTYPE
  5
4B
100
AcDbSymbolTableRecord
100
AcDbLinetypeTableRecord
  2
ACAD_ISO09W100
 70
0
  3
ISO long-dash double-short-dash ____ __ __ ____
 72
65
 73
6
 40
45.0
 49
24.0
 74
0
 49
-3.0
 74
0
 49
6.0
 74
0
 49
-3.0
 74
0
 49
6.0
 74
0
 49
-3.0
 74
0
  0
LTYPE
  5
4C
100
AcDbSymbolTableRecord
100
AcDbLinetypeTableRecord
  2
ACAD_ISO13W100
 70
0
  3
ISO double-dash double-dot __ __ . . __ __ . . _
 72
65
 73
8
 40
36.0000000000000071
 49
12.0
 74
0
 49
-3.0
 74
0
 49
12.0
 74
0
 49
-2.9500000000000002
 74
0
 49
0.1
 74
0
 49
-2.9000000000000004
 74
0
 49
0.1
 74
0
 49
-2.9500000000000002
 74
0
  0
LTYPE
  5
4D
100
AcDbSymbolTableRecord
100
AcDbLinetypeTableRecord
  2
DOT2
 70
0
  3
Dot (.5x) ........................................
 72
65
 73
2
 40
3.1749999999999998
 49
0.1
 74
0
 49
-3.0749999999999997
 74
0
  0
LTYPE
  5
4E
100
AcDbSymbolTableRecord
100
AcDbLinetypeTableRecord
  2
DASHED
 70
0
  3
Dashed __ __ __ __ __ __ __ __ __ __ __ __ __ _
 72
65
 73
2
 40
19.0499999999999972
 49
12.6999999999999993
 74
0
 49
-6.3499999999999996
 74
0
  0
LTYPE
  5
4F
100
AcDbSymbolTableRecord
100
AcDbLinetypeTableRecord
  2
ACAD_ISO14W100
 70
0
  3
ISO dash triple-dot __ . . . __ . . . __ . . . _
 72
65
 73
8
 40
24.0000000000000036
 49
12.0
 74
0
 49
-2.9500000000000002
 74
0
 49
0.1
 74
0
 49
-2.9000000000000004
 74
0
 49
0.1
 74
0
 49
-2.9000000000000004
 74
0
 49
0.1
 74
0
 49
-2.9500000000000002
 74
0
  0
LTYPE
  5
15
100
AcDbSymbolTableRecord
100
AcDbLinetypeTableRecord
  2
BYLAYER
 70
0
  3

 72
65
 73
0
 40
0.0
  0
LTYPE
  5
50
100
AcDbSymbolTableRecord
100
AcDbLinetypeTableRecord
  2
PHANTOMX2
 70
0
  3
Phantom (2x) ____________    ____    ____   _
 72
65
 73
6
 40
127.0000000000000142
 49
63.5
 74
0
 49
-12.6999999999999993
 74
0
 49
12.6999999999999993
 74
0
 49
-12.6999999999999993
 74
0
 49
12.6999999999999993
 74
0
 49
-12.6999999999999993
 74
0
  0
LTYPE
  5
14
100
AcDbSymbolTableRecord
100
AcDbLinetypeTableRecord
  2
BYBLOCK
 70
0
  3

 72
65
 73
0
 40
0.0
  0
LTYPE
  5
51
100
AcDbSymbolTableRecord
100
AcDbLinetypeTableRecord
  2
DIVIDEX2
 70
0
  3
Divide (2x) ________  .  .  ________  .  .  _
 72
65
 73
6
 40
63.5
 49
25.3999999999999986
 74
0
 49
-12.6499999999999986
 74
0
 49
0.1
 74
0
 49
-12.5999999999999979
 74
0
 49
0.1
 74
0
 49
-12.6499999999999986
 74
0
  0
LTYPE
  5
52
100
AcDbSymbolTableRecord
100
AcDbLinetypeTableRecord
  2
BORDER
 70
0
  3
Border __ __ . __ __ . __ __ . __ __ . __ __ .
 72
65
 73
6
 40
44.4499999999999957
 49
12.6999999999999993
 74
0
 49
-6.3499999999999996
 74
0
 49
12.6999999999999993
 74
0
 49
-6.2999999999999998
 74
0
 49
0.1
 74
0
 49
-6.2999999999999998
 74
0
  0
LTYPE
  5
53
100
AcDbSymbolTableRecord
100
AcDbLinetypeTableRecord
  2
DIVIDE2
 70
0
  3
Divide (.5x) __..__..__..__..__..__..__..__.._
 72
65
 73
6
 40
15.8749999999999982
 49
6.3499999999999996
 74
0
 49
-3.125
 74
0
 49
0.1
 74
0
 49
-3.0750000000000002
 74
0
 49
0.1
 74
0
 49
-3.125
 74
0
  0
LTYPE
  5
54
100
AcDbSymbolTableRecord
100
AcDbLinetypeTableRecord
  2
DOT
 70
0
  3
Dot . . . . . . . . . . . . . . . . . . . . . . . .
 72
65
 73
2
 40
6.3499999999999996
 49
0.1
 74
0
 49
-6.25
 74
0
  0
LTYPE
  5
55
100
AcDbSymbolTableRecord
100
AcDbLinetypeTableRecord
  2
DASHDOT
 70
0
  3
Dash dot __ . __ . __ . __ . __ . __ . __ . __
 72
65
 73
4
 40
25.4000000000000021
 49
12.6999999999999993
 74
0
 49
-6.2999999999999998
 74
0
 49
0.1
 74
0
 49
-6.2999999999999998
 74
0
  0
LTYPE
  5
56
100
AcDbSymbolTableRecord
100
AcDbLinetypeTableRecord
  2
ACAD_ISO03W100
 70
0
  3
ISO dash space __    __    __    __    __    __
 72
65
 73
2
 40
30.0
 49
12.0
 74
0
 49
-18.0
 74
0
  0
ENDTAB
  0
TABLE
  2
LAYER
  5
2
100
AcDbSymbolTable
 70
4
  0
LAYER
  5
57
100
AcDbSymbolTableRecord
100
AcDbLayerTableRecord
  2
axes
 70
0
 62
252
420
10526884
  6
ACAD_ISO04W100
370
18
390
F
  0
LAYER
  5
58
100
AcDbSymbolTableRecord
100
AcDbLayerTableRecord
  2
dimensions
 70
0
 62
7
420
0
  6
Continuous
370
13
390
F
  0
LAYER
  5
59
100
AcDbSymbolTableRecord
100
AcDbLayerTableRecord
  2
invisible
 70
0
 62
7
420
0
  6
HIDDEN
370
13
390
F
  0
LAYER
  5
10
100
AcDbSymbolTableRecord
100
AcDbLayerTableRecord
  2
0
 70
0
 62
7
420
16777215
  6
Continuous
370
25
390
F
  0
ENDTAB
  0
TABLE
  2
STYLE
  5
3
100
AcDbSymbolTable
 70
8
  0
STYLE
  5
5A
100
AcDbSymbolTableRecord
100
AcDbTextStyleTableRecord
  2
Standard
 70
0
 40
0.0
 41
1.0
 50
0.0
 71
0
 42
2.5
  3

  4

1001
ACAD
1000
txt
1071
0
  0
STYLE
  5
5B
100
AcDbSymbolTableRecord
100
AcDbTextStyleTableRecord
  2
textstyle0
 70
0
 40
0.0
 41
1.0
 50
0.0
 71
0
 42
2.5
  3

  4

1001
ACAD
1000
Standard
1071
0
  0
STYLE
  5
5C
100
AcDbSymbolTableRecord
100
AcDbTextStyleTableRecord
  2
textstyle1
 70
0
 40
0.0
 41
1.0
 50
0.0
 71
0
 42
2.5
  3

  4

1001
ACAD
1000
Standard
1071
0
  0
STYLE
  5
5D
100
AcDbSymbolTableRecord
100
AcDbTextStyleTableRecord
  2
textstyle2
 70
0
 40
0.0
 41
1.0
 50
0.0
 71
0
 42
2.5
  3

  4

1001
ACAD
1000
Standard
1071
0
  0
STYLE
  5
5E
100
AcDbSymbolTableRecord
100
AcDbTextStyleTableRecord
  2
textstyle3
 70
0
 40
0.0
 41
1.0
 50
0.0
 71
0
 42
2.5
  3

  4

1001
ACAD
1000
Standard
1071
0
  0
STYLE
  5
5F
100
AcDbSymbolTableRecord
100
AcDbTextStyleTableRecord
  2
textstyle4
 70
0
 40
0.0
 41
1.0
 50
0.0
 71
0
 42
2.5
  3

  4

1001
ACAD
1000
Standard
1071
0
  0
STYLE
  5
60
100
AcDbSymbolTableRecord
100
AcDbTextStyleTableRecord
  2
textstyle5
 70
0
 40
0.0
 41
1.0
 50
0.0
 71
0
 42
2.5
  3

  4

1001
ACAD
1000
Standard
1071
0
  0
STYLE
  5
61
100
AcDbSymbolTableRecord
100
AcDbTextStyleTableRecord
  2
textstyle6
 70
0
 40
0.0
 41
1.0
 50
0.0
 71
0
 42
2.5
  3

  4

1001
ACAD
1000
Standard
1071
0
  0
ENDTAB
  0
TABLE
  2
VIEW
  5
6
100
AcDbSymbolTable
 70
0
  0
ENDTAB
  0
TABLE
  2
UCS
  5
7
100
AcDbSymbolTable
 70
0
  0
ENDTAB
  0
TABLE
  2
APPID
  5
9
100
AcDbSymbolTable
 70
1
  0
APPID
  5
12
100
AcDbSymbolTableRecord
100
AcDbRegAppTableRecord
  2
ACAD
 70
0
  0
APPID
  5
62
100
AcDbSymbolTableRecord
100
AcDbRegAppTableRecord
  2
QCAD
 70
0
  0
ENDTAB
  0
TABLE
  2
DIMSTYLE
  5
A
100
AcDbSymbolTable
 70
1
100
AcDbDimStyleTable
 71
0
  0
DIMSTYLE
105
27
100
AcDbSymbolTableRecord
100
AcDbDimStyleTableRecord
  2
Standard
 41
2.5
 42
0.625
 43
3.75
 44
1.25
 70
0
 73
0
 74
0
 77
1
 78
8
140
2.5
141
2.5
143
0.03937007874016
147
0.625
171
3
172
1
271
2
272
2
274
3
278
44
283
0
284
8
340
5A
  0
ENDTAB
  0
TABLE
  2
BLOCK_RECORD
  5
1
100
AcDbSymbolTable
 70
1
  0
BLOCK_RECORD
  5
1F
100
AcDbSymbolTableRecord
100
AcDbBlockTableRecord
  2
*Model_Space
340
22
  0
BLOCK_RECORD
  5
1B
100
AcDbSymbolTableRecord
100
AcDbBlockTableRecord
  2
*Paper_Space
340
1E
  0
BLOCK_RECORD
  5
23
100
AcDbSymbolTableRecord
100
AcDbBlockTableRecord
  2
*Paper_Space0
340
26
  0
BLOCK_RECORD
  5
63
100
AcDbSymbolTableRecord
100
AcDbBlockTableRecord
  2
blok 1
340
0
  0
BLOCK_RECORD
  5
64
100
AcDbSymbolTableRecord
100
AcDbBlockTableRecord
  2
Ortho1
340
0
  0
BLOCK_RECORD
  5
65
100
AcDbSymbolTableRecord
100
AcDbBlockTableRecord
  2
Ortho0021
340
0
  0
BLOCK_RECORD
  5
66
100
AcDbSymbolTableRecord
100
AcDbBlockTableRecord
  2
Ortho0041
340
0
  0
ENDTAB
  0
ENDSEC
  0
SECTION
  2
BLOCKS
  0
BLOCK
  5
20
100
AcDbEntity
  8
0
100
AcDbBlockBegin
  2
*Model_Space
 70
0
 10
0.0
 20
0.0
 30
0.0
  3
*Model_Space
  1

  0
ENDBLK
  5
21
100
AcDbEntity
  8
0
100
AcDbBlockEnd
  0
BLOCK
  5
1C
100
AcDbEntity
 67
1
  8
0
100
AcDbBlockBegin
  2
*Paper_Space
 70
0
 10
0.0
 20
0.0
 30
0.0
  3
*Paper_Space
  1

  0
ENDBLK
  5
1D
100
AcDbEntity
 67
1
  8
0
100
AcDbBlockEnd
  0
BLOCK
  5
24
100
AcDbEntity
  8
0
100
AcDbBlockBegin
  2
*Paper_Space0
 70
0
 10
0.0
 20
0.0
 30
0.0
  3
*Paper_Space0
  1

  0
ENDBLK
  5
25
100
AcDbEntity
  8
0
100
AcDbBlockEnd
  0
BLOCK
  5
67
100
AcDbEntity
  8
0
100
AcDbBlockBegin
  2
blok 1
 70
0
 10
0.0
 20
0.0
 30
0.0
  3
blok 1
  1

  0
LINE
  5
68
100
AcDbEntity
  8
0
 62
0
370
-1
 48
1.0
  6
BYBLOCK
100
AcDbLine
 10
44.5000007823448698
 20
-22.4999977746633277
 30
0.0
 11
44.5000006664419132
 21
-19.9999977746633277
 31
0.0
  0
LINE
  5
69
100
AcDbEntity
  8
0
 62
0
370
-1
 48
1.0
  6
BYBLOCK
100
AcDbLine
 10
-3.4999992176550734
 20
-22.4999999999999858
 30
0.0
 11
-3.4999993335580299
 21
-19.9999999999999716
 31
0.0
  0
LINE
  5
6A
100
AcDbEntity
  8
0
 62
0
370
-1
 48
1.0
  6
BYBLOCK
100
AcDbLine
 10
40.5000006664419132
 20
-19.9999979601080753
 30
0.0
 11
40.5000006316711207
 21
-19.2499999768193817
 31
0.0
  0
LINE
  5
6B
100
AcDbEntity
  8
0
 62
0
370
-1
 48
1.0
  6
BYBLOCK
100
AcDbLine
 10
0.5000006664419701
 20
-19.9999998145552809
 30
0.0
 11
0.5000006316711755
 21
-19.2500018312667365
 31
0.0
  0
LINE
  5
6C
100
AcDbEntity
  8
0
 62
0
370
-1
 48
1.0
  6
BYBLOCK
100
AcDbLine
 10
40.4999998898922513
 20
-3.2499999768194181
 30
0.0
 11
40.4999998551212741
 21
-2.4999979601080824
 31
0.0
  0
LINE
  5
6D
100
AcDbEntity
  8
0
 62
0
370
-1
 48
1.0
  6
BYBLOCK
100
AcDbLine
 10
0.4999998898922894
 20
-3.2500018312664931
 30
0.0
 11
0.4999998551213132
 21
-2.499999814555288
 31
0.0
  0
LINE
  5
6E
100
AcDbEntity
  8
0
 62
0
370
-1
 48
1.0
  6
BYBLOCK
100
AcDbLine
 10
44.4999998551212599
 20
-2.4999977746633562
 30
0.0
 11
44.4999997392183033
 21
0.0000022253366438
 31
0.0
  0
LINE
  5
6F
100
AcDbEntity
  8
0
 62
0
370
-1
 48
1.0
  6
BYBLOCK
100
AcDbLine
 10
-3.5000001448786868
 20
-2.5000000000000142
 30
0.0
 11
-3.5000002607816221
 21
0.0
 31
0.0
  0
LINE
  5
70
100
AcDbEntity
  8
0
 62
256
370
-1
 48
1.0
  6
BYLAYER
100
AcDbLine
 10
-3.5000002607816221
 20
0.0
 30
0.0
 11
1.0000003535039852
 21
0.0
 31
0.0
  0
LINE
  5
71
100
AcDbEntity
  8
0
 62
256
370
-1
 48
1.0
  6
BYLAYER
100
AcDbLine
 10
44.4999997392183033
 20
0.0000022253366438
 30
0.0
 11
40.0
 21
0.0000022253366438
 31
0.0
  0
LINE
  5
72
100
AcDbEntity
  8
0
 62
256
370
-1
 48
1.0
  6
BYLAYER
100
AcDbLine
 10
-3.5000001448786868
 20
-2.5000000000000142
 30
0.0
 11
0.4999998551213132
 21
-2.499999814555288
 31
0.0
  0
LINE
  5
73
100
AcDbEntity
  8
0
 62
256
370
-1
 48
1.0
  6
BYLAYER
100
AcDbLine
 10
-3.4999993335580299
 20
-19.9999999999999716
 30
0.0
 11
0.5000006664419701
 21
-19.9999998145552809
 31
0.0
  0
LINE
  5
74
100
AcDbEntity
  8
0
 62
256
370
-1
 48
1.0
  6
BYLAYER
100
AcDbLine
 10
44.5000006664419132
 20
-19.9999977746633277
 30
0.0
 11
40.5000006664419132
 21
-19.9999979601080753
 31
0.0
  0
LINE
  5
75
100
AcDbEntity
  8
0
 62
256
370
-1
 48
1.0
  6
BYLAYER
100
AcDbLine
 10
40.4999998551212741
 20
-2.4999979601080824
 30
0.0
 11
44.4999998551212599
 21
-2.4999977746633562
 31
0.0
  0
LINE
  5
76
100
AcDbEntity
  8
0
 62
256
370
-1
 48
1.0
  6
BYLAYER
100
AcDbLine
 10
40.0
 20
-19.5
 30
0.0
 11
40.0
 21
-19.5
 31
0.0
  0
LINE
  5
77
100
AcDbEntity
  8
0
 62
256
370
-1
 48
1.0
  6
BYLAYER
100
AcDbLine
 10
40.0
 20
-3.25
 30
0.0
 11
40.4999998898922513
 21
-3.2499999768194181
 31
0.0
  0
LINE
  5
78
100
AcDbEntity
  8
0
 62
256
370
-1
 48
1.0
  6
BYLAYER
100
AcDbLine
 10
40.0
 20
-3.25
 30
0.0
 11
40.0
 21
-3.25
 31
0.0
  0
LINE
  5
79
100
AcDbEntity
  8
0
 62
256
370
-1
 48
1.0
  6
BYLAYER
100
AcDbLine
 10
40.0
 20
-19.25
 30
0.0
 11
40.0
 21
-19.25
 31
0.0
  0
LINE
  5
7A
100
AcDbEntity
  8
0
 62
256
370
-1
 48
1.0
  6
BYLAYER
100
AcDbLine
 10
40.0
 20
-19.25
 30
0.0
 11
40.5000006316711207
 21
-19.2499999768193817
 31
0.0
  0
LINE
  5
7B
100
AcDbEntity
  8
0
 62
256
370
-1
 48
1.0
  6
BYLAYER
100
AcDbLine
 10
37.5000002607816185
 20
-6.2499977746633304
 30
0.0
 11
40.0
 21
-6.2499977746633313
 31
0.0
  0
LINE
  5
7C
100
AcDbEntity
  8
0
 62
256
370
-1
 48
1.0
  6
BYLAYER
100
AcDbLine
 10
40.0
 20
-16.2499977746633313
 30
0.0
 11
37.5
 21
-16.2499977746633313
 31
0.0
  0
LINE
  5
7D
100
AcDbEntity
  8
0
 62
256
370
-1
 48
1.0
  6
BYLAYER
100
AcDbLine
 10
0.9999992577576435
 20
-3.2500018080859348
 30
0.0
 11
0.4999998898922868
 21
-3.250001831266494
 31
0.0
  0
LINE
  5
7E
100
AcDbEntity
  8
0
 62
256
370
-1
 48
1.0
  6
BYLAYER
100
AcDbLine
 10
0.9999999995364703
 20
-19.250001808086175
 30
0.0
 11
0.5000006316711776
 21
-19.2500018312667365
 31
0.0
  0
LINE
  5
7F
100
AcDbEntity
  8
0
 62
256
370
-1
 48
1.0
  6
BYLAYER
100
AcDbLine
 10
0.9999996286468695
 20
-15.2978904289759612
 30
0.0
 11
3.5000002607816239
 21
-15.2978904289759647
 31
0.0
  0
LINE
  5
80
100
AcDbEntity
  8
0
 62
256
370
-1
 48
1.0
  6
BYLAYER
100
AcDbLine
 10
0.999999628646871
 20
-7.2499977746633242
 30
0.0
 11
3.5000002607816225
 21
-7.2499977746633242
 31
0.0
  0
LINE
  5
81
100
AcDbEntity
  8
0
 62
256
370
-1
 48
1.0
  6
BYLAYER
100
AcDbLine
 10
37.5000000317167093
 20
-16.2499977746633313
 30
0.0
 11
37.5
 21
-18.5
 31
0.0
  0
LINE
  5
82
100
AcDbEntity
  8
0
 62
256
370
-1
 48
1.0
  6
BYLAYER
100
AcDbLine
 10
37.5000001726797336
 20
-6.2499977746633313
 30
0.0
 11
37.5000000317167093
 21
-16.2499977746633313
 31
0.0
  0
LINE
  5
83
100
AcDbEntity
  8
0
 62
256
370
-1
 48
1.0
  6
BYLAYER
100
AcDbLine
 10
37.5000002607816185
 20
0.0000022253366438
 30
0.0
 11
37.5000001726797336
 21
-6.2499977746633313
 31
0.0
  0
LINE
  5
84
100
AcDbEntity
  8
0
 62
256
370
-1
 48
1.0
  6
BYLAYER
100
AcDbLine
 10
40.0
 20
-6.2499977746633304
 30
0.0
 11
40.0
 21
-16.2499977746633313
 31
0.0
  0
LINE
  5
85
100
AcDbEntity
  8
0
 62
256
370
-1
 48
1.0
  6
BYLAYER
100
AcDbLine
 10
40.0
 20
-3.25
 30
0.0
 11
40.0
 21
-6.2499977746633304
 31
0.0
  0
LINE
  5
86
100
AcDbEntity
  8
0
 62
256
370
-1
 48
1.0
  6
BYLAYER
100
AcDbLine
 10
40.0
 20
-16.2499977746633313
 30
0.0
 11
40.0
 21
-19.25
 31
0.0
  0
LINE
  5
87
100
AcDbEntity
  8
0
 62
256
370
-1
 48
1.0
  6
BYLAYER
100
AcDbLine
 10
0.9999994432021633
 20
-7.249997774663326
 30
0.0
 11
0.9999998163119365
 21
-15.2978904289759594
 31
0.0
  0
LINE
  5
88
100
AcDbEntity
  8
0
 62
256
370
-1
 48
1.0
  6
BYLAYER
100
AcDbLine
 10
0.9999992577576435
 20
-3.2500018080859348
 30
0.0
 11
0.9999994432021633
 21
-7.249997774663326
 31
0.0
  0
LINE
  5
89
100
AcDbEntity
  8
0
 62
256
370
-1
 48
1.0
  6
BYLAYER
100
AcDbLine
 10
0.9999998163119365
 20
-15.2978904289759594
 30
0.0
 11
0.9999999995364703
 21
-19.250001808086175
 31
0.0
  0
LINE
  5
8A
100
AcDbEntity
  8
0
 62
256
370
-1
 48
1.0
  6
BYLAYER
100
AcDbLine
 10
3.5000002607816221
 20
-15.2978904289759665
 30
0.0
 11
3.5000002607816203
 21
-7.2499977746633242
 31
0.0
  0
LINE
  5
8B
100
AcDbEntity
  8
0
 62
256
370
-1
 48
1.0
  6
BYLAYER
100
AcDbLine
 10
3.500000260781623
 20
-18.5
 30
0.0
 11
3.5000002607816221
 21
-15.2978904289759665
 31
0.0
  0
LINE
  5
8C
100
AcDbEntity
  8
0
 62
256
370
-1
 48
1.0
  6
BYLAYER
100
AcDbLine
 10
3.5000002607816203
 20
-7.2499977746633242
 30
0.0
 11
3.5000002607816185
 21
0.0
 31
0.0
  0
LINE
  5
8D
100
AcDbEntity
  8
axes
 62
256
370
-1
 48
1.0
  6
BYLAYER
100
AcDbLine
 10
36.1999999999999957
 20
-11.2499977746633313
 30
0.0
 11
41.5000001021982214
 21
-11.2499977746633313
 31
0.0
  0
LINE
  5
8E
100
AcDbEntity
  8
axes
 62
256
370
-1
 48
1.0
  6
BYLAYER
100
AcDbLine
 10
-1.1298092399334092
 20
-11.2739441018196427
 30
0.0
 11
6.0
 21
-11.2739441018196427
 31
0.0
  0
LINE
  5
8F
100
AcDbEntity
  8
0
 62
256
370
-1
 48
1.0
  6
BYLAYER
100
AcDbLine
 10
24.5000003535039568
 20
-18.5
 30
0.0
 11
16.5000003535039568
 21
-18.5
 31
0.0
  0
LINE
  5
90
100
AcDbEntity
  8
0
 62
256
370
-1
 48
1.0
  6
BYLAYER
100
AcDbLine
 10
24.5000004462262915
 20
-22.4999988873316674
 30
0.0
 11
16.5000004462262915
 21
-22.4999988873316674
 31
0.0
  0
LINE
  5
91
100
AcDbEntity
  8
0
 62
256
370
-1
 48
1.0
  6
BYLAYER
100
AcDbLine
 10
16.5000003535039568
 20
-18.5
 30
0.0
 11
16.5000004462262915
 21
-22.4999988873316674
 31
0.0
  0
LINE
  5
92
100
AcDbEntity
  8
0
 62
256
370
-1
 48
1.0
  6
BYLAYER
100
AcDbLine
 10
24.5000003535039568
 20
-18.5
 30
0.0
 11
24.5000004462262915
 21
-22.4999988873316674
 31
0.0
  0
LINE
  5
93
100
AcDbEntity
  8
0
 62
256
370
-1
 48
1.0
  6
BYLAYER
100
AcDbLine
 10
24.5000003535039568
 20
-18.5
 30
0.0
 11
37.5
 21
-18.5
 31
0.0
  0
LINE
  5
94
100
AcDbEntity
  8
0
 62
256
370
-1
 48
1.0
  6
BYLAYER
100
AcDbLine
 10
24.5000004462262915
 20
-22.4999988873316674
 30
0.0
 11
44.5000007823448627
 21
-22.4999977746633242
 31
0.0
  0
LINE
  5
95
100
AcDbEntity
  8
0
 62
256
370
-1
 48
1.0
  6
BYLAYER
100
AcDbLine
 10
16.5000003535039568
 20
-18.5
 30
0.0
 11
3.500000260781623
 21
-18.5
 31
0.0
  0
LINE
  5
96
100
AcDbEntity
  8
0
 62
256
370
-1
 48
1.0
  6
BYLAYER
100
AcDbLine
 10
16.5000004462262915
 20
-22.4999988873316674
 30
0.0
 11
-3.4999992176550738
 21
-22.4999999999999893
 31
0.0
  0
HATCH
  5
97
100
AcDbEntity
  8
0
 62
256
370
-1
 48
1.0
  6
BYLAYER
100
AcDbHatch
 10
0.0
 20
0.0
 30
0.0
210
0.0
220
0.0
230
1.0
  2
ANSI31
 70
0
 71
0
 91
1
 92
1
 93
10
 72
1
 10
24.5000004462262915
 20
-22.4999988873316674
 11
44.5000007823448627
 21
-22.4999977746633242
 72
1
 10
44.5000007823448698
 20
-22.4999977746633277
 11
44.5000006664419132
 21
-19.9999977746633277
 72
1
 10
44.5000006664419132
 20
-19.9999977746633277
 11
40.5000006664419132
 21
-19.9999979601080753
 72
1
 10
40.5000006664419132
 20
-19.9999979601080753
 11
40.5000006316711207
 21
-19.2499999768193817
 72
1
 10
40.5000006316711207
 20
-19.2499999768193817
 11
40.0
 21
-19.25
 72
1
 10
40.0
 20
-19.25
 11
40.0
 21
-16.2499977746633313
 72
1
 10
40.0
 20
-16.2499977746633313
 11
37.5
 21
-16.2499977746633313
 72
1
 10
37.5000000317167093
 20
-16.2499977746633313
 11
37.5
 21
-18.5
 72
1
 10
37.5
 20
-18.5
 11
24.5000003535039568
 21
-18.5
 72
1
 10
24.5000003535039568
 20
-18.5
 11
24.5000004462262915
 21
-22.4999988873316674
 97
0
 75
0
 76
1
 52
180.0
 41
0.9
 77
0
 78
1
 53
45.0
 43
0.0
 44
0.0
 45
-0.0883883476483184
 46
0.0883883476483185
 79
0
 98
0
1001
ACAD
1010
0.0
1020
0.0
1030
0
  0
LINE
  5
98
100
AcDbEntity
  8
0
 62
256
370
-1
 48
1.0
  6
BYLAYER
100
AcDbLine
 10
40.0
 20
0.0000022253366438
 30
0.0
 11
40.0
 21
-0.9999999999999999
 31
0.0
  0
LINE
  5
99
100
AcDbEntity
  8
0
 62
256
370
-1
 48
1.0
  6
BYLAYER
100
AcDbLine
 10
40.0
 20
-0.9999999999999999
 30
0.0
 11
38.5000003535039212
 21
-0.9999999999999999
 31
0.0
  0
LINE
  5
9A
100
AcDbEntity
  8
0
 62
256
370
-1
 48
1.0
  6
BYLAYER
100
AcDbLine
 10
38.5000003535039212
 20
-0.9999999999999999
 30
0.0
 11
38.5000003535039212
 21
0.0000022253366438
 31
0.0
  0
LINE
  5
9B
100
AcDbEntity
  8
0
 62
256
370
-1
 48
1.0
  6
BYLAYER
100
AcDbLine
 10
2.5
 20
0.0
 30
0.0
 11
2.5
 21
-0.9999999999999999
 31
0.0
  0
LINE
  5
9C
100
AcDbEntity
  8
0
 62
256
370
-1
 48
1.0
  6
BYLAYER
100
AcDbLine
 10
2.5
 20
-0.9999999999999999
 30
0.0
 11
1.0000003535039852
 21
-0.9999999999999999
 31
0.0
  0
LINE
  5
9D
100
AcDbEntity
  8
0
 62
256
370
-1
 48
1.0
  6
BYLAYER
100
AcDbLine
 10
1.0000003535039852
 20
-0.9999999999999999
 30
0.0
 11
1.0000003535039852
 21
0.0
 31
0.0
  0
LINE
  5
9E
100
AcDbEntity
  8
0
 62
256
370
-1
 48
1.0
  6
BYLAYER
100
AcDbLine
 10
2.5
 20
0.0
 30
0.0
 11
3.5000002607816181
 21
0.0
 31
0.0
  0
LINE
  5
9F
100
AcDbEntity
  8
0
 62
256
370
-1
 48
1.0
  6
BYLAYER
100
AcDbLine
 10
38.5000003535039212
 20
0.0000022253366438
 30
0.0
 11
37.5000002607816185
 21
0.0000022253366438
 31
0.0
  0
HATCH
  5
A0
100
AcDbEntity
  8
0
 62
256
370
-1
 48
1.0
  6
BYLAYER
100
AcDbHatch
 10
0.0
 20
0.0
 30
0.0
210
0.0
220
0.0
230
1.0
  2
ANSI31
 70
0
 71
0
 91
3
 92
1
 93
12
 72
1
 10
-3.5000002607816221
 20
0.0
 11
1.0000003535039852
 21
0.0
 72
1
 10
1.0000003535039852
 20
0.0
 11
1.0000003535039852
 21
-0.9999999999999999
 72
1
 10
1.0000003535039852
 20
-0.9999999999999999
 11
2.5
 21
-0.9999999999999999
 72
1
 10
2.5
 20
-0.9999999999999999
 11
2.5
 21
0.0
 72
1
 10
2.5
 20
0.0
 11
3.5000002607816181
 21
0.0
 72
1
 10
3.5000002607816185
 20
0.0
 11
3.5000002607816203
 21
-7.2499977746633242
 72
1
 10
3.5000002607816225
 20
-7.2499977746633242
 11
0.999999628646871
 21
-7.2499977746633242
 72
1
 10
0.9999994432021633
 20
-7.249997774663326
 11
0.9999992577576435
 21
-3.2500018080859348
 72
1
 10
0.9999992577576435
 20
-3.2500018080859348
 11
0.4999998898922868
 21
-3.250001831266494
 72
1
 10
0.4999998898922894
 20
-3.2500018312664931
 11
0.4999998551213132
 21
-2.499999814555288
 72
1
 10
0.4999998551213132
 20
-2.499999814555288
 11
-3.5000001448786868
 21
-2.5000000000000142
 72
1
 10
-3.5000001448786868
 20
-2.5000000000000142
 11
-3.5000002607816221
 21
0.0
 97
0
 92
1
 93
12
 72
1
 10
44.4999997392183033
 20
0.0000022253366438
 11
40.0
 21
0.0000022253366438
 72
1
 10
40.0
 20
0.0000022253366438
 11
40.0
 21
-0.9999999999999999
 72
1
 10
40.0
 20
-0.9999999999999999
 11
38.5000003535039212
 21
-0.9999999999999999
 72
1
 10
38.5000003535039212
 20
-0.9999999999999999
 11
38.5000003535039212
 21
0.0000022253366438
 72
1
 10
38.5000003535039212
 20
0.0000022253366438
 11
37.5000002607816185
 21
0.0000022253366438
 72
1
 10
37.5000002607816185
 20
0.0000022253366438
 11
37.5000001726797336
 21
-6.2499977746633313
 72
1
 10
37.5000002607816185
 20
-6.2499977746633304
 11
40.0
 21
-6.2499977746633313
 72
1
 10
40.0
 20
-6.2499977746633304
 11
40.0
 21
-3.25
 72
1
 10
40.0
 20
-3.25
 11
40.4999998898922513
 21
-3.2499999768194181
 72
1
 10
40.4999998898922513
 20
-3.2499999768194181
 11
40.4999998551212741
 21
-2.4999979601080824
 72
1
 10
40.4999998551212741
 20
-2.4999979601080824
 11
44.4999998551212599
 21
-2.4999977746633562
 72
1
 10
44.4999998551212599
 20
-2.4999977746633562
 11
44.4999997392183033
 21
0.0000022253366438
 97
0
 92
1
 93
10
 72
1
 10
16.5000003535039568
 20
-18.5
 11
16.5000004462262915
 21
-22.4999988873316674
 72
1
 10
16.5000004462262915
 20
-22.4999988873316674
 11
-3.4999992176550738
 21
-22.4999999999999893
 72
1
 10
-3.4999992176550734
 20
-22.4999999999999858
 11
-3.4999993335580299
 21
-19.9999999999999716
 72
1
 10
-3.4999993335580299
 20
-19.9999999999999716
 11
0.5000006664419701
 21
-19.9999998145552809
 72
1
 10
0.5000006664419701
 20
-19.9999998145552809
 11
0.5000006316711755
 21
-19.2500018312667365
 72
1
 10
0.5000006316711776
 20
-19.2500018312667365
 11
0.9999999995364703
 21
-19.250001808086175
 72
1
 10
0.9999999995364703
 20
-19.250001808086175
 11
0.9999998163119365
 21
-15.2978904289759594
 72
1
 10
0.9999996286468695
 20
-15.2978904289759612
 11
3.5000002607816239
 21
-15.2978904289759647
 72
1
 10
3.5000002607816221
 20
-15.2978904289759665
 11
3.500000260781623
 21
-18.5
 72
1
 10
3.500000260781623
 20
-18.5
 11
16.5000003535039568
 21
-18.5
 97
0
 75
0
 76
1
 52
180.0
 41
0.9
 77
0
 78
1
 53
45.0
 43
0.0
 44
0.0
 45
-0.0883883476483184
 46
0.0883883476483185
 79
0
 98
0
1001
ACAD
1010
0.0
1020
0.0
1030
0
  0
LINE
  5
A1
100
AcDbEntity
  8
axes
 62
256
370
-1
 48
1.0
  6
BYLAYER
100
AcDbLine
 10
20.5000003535039532
 20
-24.499999443665839
 30
0.0
 11
20.5000003535039532
 21
3.0
 31
0.0
  0
ENDBLK
  5
A2
100
AcDbEntity
  8
0
100
AcDbBlockEnd
  0
BLOCK
  5
A3
100
AcDbEntity
  8
0
100
AcDbBlockBegin
  2
Ortho1
 70
0
 10
0.0
 20
0.0
 30
0.0
  3
Ortho1
  1

  0
CIRCLE
  5
A4
100
AcDbEntity
  8
0
 62
0
370
-1
 48
1.0
  6
BYBLOCK
100
AcDbCircle
 10
0.0
 20
0.0
 30
0.0
 40
3.2000000000000002
  0
CIRCLE
  5
A5
100
AcDbEntity
  8
0
 62
0
370
-1
 48
1.0
  6
BYBLOCK
100
AcDbCircle
 10
0.0
 20
0.0
 30
0.0
 40
17.0
  0
SPLINE
  5
A6
100
AcDbEntity
  8
0
 62
0
370
-1
 48
1.0
  6
BYBLOCK
100
AcDbSpline
 70
8
 71
3
 72
11
 73
7
 74
0
 40
0.0
 40
0.0
 40
0.0
 40
0.0
 40
0.14874
 40
0.14874
 40
0.14874
 40
0.274633
 40
0.274633
 40
0.274633
 40
0.274633
 10
-0.0000000000000021
 20
17.0
 30
0.0
 10
0.472446
 20
17.0001999999999995
 30
0.0
 10
0.928482
 20
16.9793999999999983
 30
0.0
 10
1.31752
 20
16.9488999999999983
 30
0.0
 10
1.6478600000000001
 20
16.9222999999999999
 30
0.0
 10
1.94381
 20
16.8914000000000009
 30
0.0
 10
2.2053600000000002
 20
16.8563000000000009
 30
0.0
  0
SPLINE
  5
A7
100
AcDbEntity
  8
0
 62
0
370
-1
 48
1.0
  6
BYBLOCK
100
AcDbSpline
 70
8
 71
3
 72
14
 73
10
 74
0
 40
0.49558
 40
0.49558
 40
0.49558
 40
0.49558
 40
0.549513
 40
0.549513
 40
0.549513
 40
0.596925
 40
0.596925
 40
0.596925
 40
0.742554
 40
0.742554
 40
0.742554
 40
0.742554
 10
-3.2000000000000002
 20
16.6961000000000013
 30
0.0
 10
-3.2008399999999999
 20
16.6959000000000017
 30
0.0
 10
-3.1543299999999999
 20
16.7048999999999985
 30
0.0
 10
-3.0924700000000001
 20
16.7164000000000001
 30
0.0
 10
-3.0375999999999999
 20
16.7266000000000012
 30
0.0
 10
-2.9736400000000001
 20
16.7379999999999995
 30
0.0
 10
-2.9005700000000001
 20
16.7506999999999984
 30
0.0
 10
-2.6769500000000002
 20
16.7895000000000003
 30
0.0
 10
-2.4015900000000001
 20
16.8324999999999996
 30
0.0
 10
-2.08962
 20
16.8710999999999984
 30
0.0
  0
SPLINE
  5
A8
100
AcDbEntity
  8
0
 62
0
370
-1
 48
1.0
  6
BYBLOCK
100
AcDbSpline
 70
8
 71
1
 72
4
 73
2
 74
0
 40
0.0360079
 40
0.0360079
 40
0.0411046
 40
0.0411046
 10
-1.0763199999999999
 20
-16.9659000000000013
 30
0.0
 10
-1.20438
 20
-16.9573
 30
0.0
  0
SPLINE
  5
A9
100
AcDbEntity
  8
0
 62
0
370
-1
 48
1.0
  6
BYBLOCK
100
AcDbSpline
 70
8
 71
1
 72
4
 73
2
 74
0
 40
0.0439543
 40
0.0439543
 40
0.0500715
 40
0.0500715
 10
-1.27356
 20
-16.9522000000000013
 30
0.0
 10
-1.4165700000000001
 20
-16.9408999999999992
 30
0.0
  0
SPLINE
  5
AA
100
AcDbEntity
  8
0
 62
0
370
-1
 48
1.0
  6
BYBLOCK
100
AcDbSpline
 70
8
 71
1
 72
4
 73
2
 74
0
 40
0.0566986
 40
0.0566986
 40
0.0619931
 40
0.0619931
 10
-1.5637399999999999
 20
-16.9279000000000011
 30
0.0
 10
-1.6760600000000001
 20
-16.9172000000000011
 30
0.0
  0
SPLINE
  5
AB
100
AcDbEntity
  8
0
 62
0
370
-1
 48
1.0
  6
BYBLOCK
100
AcDbSpline
 70
8
 71
1
 72
4
 73
2
 74
0
 40
0.0678554
 40
0.0678554
 40
0.0726764
 40
0.0726764
 10
-1.7954600000000001
 20
-16.9049000000000014
 30
0.0
 10
-1.89005
 20
-16.8946000000000005
 30
0.0
  0
SPLINE
  5
AC
100
AcDbEntity
  8
0
 62
0
370
-1
 48
1.0
  6
BYBLOCK
100
AcDbSpline
 70
8
 71
1
 72
4
 73
2
 74
0
 40
0.0782193
 40
0.0782193
 40
0.084965
 40
0.084965
 10
-1.9951000000000001
 20
-16.8825000000000003
 30
0.0
 10
-2.1180099999999999
 20
-16.8674999999999997
 30
0.0
  0
SPLINE
  5
AD
100
AcDbEntity
  8
0
 62
0
370
-1
 48
1.0
  6
BYBLOCK
100
AcDbSpline
 70
8
 71
1
 72
4
 73
2
 74
0
 40
0.0931344
 40
0.0931344
 40
0.101278
 40
0.101278
 10
-2.2602199999999999
 20
-16.8491
 30
0.0
 10
-2.3954
 20
-16.8304000000000009
 30
0.0
  0
SPLINE
  5
AE
100
AcDbEntity
  8
0
 62
0
370
-1
 48
1.0
  6
BYBLOCK
100
AcDbSpline
 70
8
 71
1
 72
4
 73
2
 74
0
 40
0.110712
 40
0.110712
 40
0.118437
 40
0.118437
 10
-2.5445600000000002
 20
-16.8084999999999987
 30
0.0
 10
-2.6612100000000001
 20
-16.7904000000000018
 30
0.0
  0
SPLINE
  5
AF
100
AcDbEntity
  8
0
 62
0
370
-1
 48
1.0
  6
BYBLOCK
100
AcDbSpline
 70
8
 71
1
 72
4
 73
2
 74
0
 40
0.126161
 40
0.126161
 40
0.133885
 40
0.133885
 10
-2.7732899999999998
 20
-16.7723000000000013
 30
0.0
 10
-2.8810699999999998
 20
-16.7541000000000011
 30
0.0
  0
SPLINE
  5
B0
100
AcDbEntity
  8
0
 62
0
370
-1
 48
1.0
  6
BYBLOCK
100
AcDbSpline
 70
8
 71
1
 72
4
 73
2
 74
0
 40
0.141609
 40
0.141609
 40
0.151951
 40
0.151951
 10
-2.9847600000000001
 20
-16.7359000000000009
 30
0.0
 10
-3.11747
 20
-16.7117000000000004
 30
0.0
  0
SPLINE
  5
B1
100
AcDbEntity
  8
0
 62
0
370
-1
 48
1.0
  6
BYBLOCK
100
AcDbSpline
 70
8
 71
3
 72
41
 73
37
 74
0
 40
0.260067
 40
0.260067
 40
0.260067
 40
0.260067
 40
0.313654
 40
0.313654
 40
0.313654
 40
0.333355
 40
0.333355
 40
0.333355
 40
0.389563
 40
0.389563
 40
0.389563
 40
0.455175
 40
0.455175
 40
0.455175
 40
0.48303
 40
0.48303
 40
0.48303
 40
0.513392
 40
0.513392
 40
0.513392
 40
0.533631
 40
0.533631
 40
0.533631
 40
0.5770420000000001
 40
0.5770420000000001
 40
0.5770420000000001
 40
0.63836
 40
0.63836
 40
0.63836
 40
0.699333
 40
0.699333
 40
0.699333
 40
0.732609
 40
0.732609
 40
0.732609
 40
0.755973
 40
0.755973
 40
0.755973
 40
0.755973
 10
-4.0
 20
-16.5227000000000004
 30
0.0
 10
-3.9998300000000002
 20
-16.5227000000000004
 30
0.0
 10
-3.85826
 20
-16.5573000000000015
 30
0.0
 10
-3.6922899999999998
 20
-16.5942000000000007
 30
0.0
 10
-3.6298699999999999
 20
-16.6081000000000003
 30
0.0
 10
-3.56237
 20
-16.6226999999999983
 30
0.0
 10
-3.4897800000000001
 20
-16.6380000000000017
 30
0.0
 10
-3.2832499999999998
 20
-16.6820999999999984
 30
0.0
 10
-3.0394199999999998
 20
-16.7276999999999987
 30
0.0
 10
-2.7582900000000001
 20
-16.7746999999999993
 30
0.0
 10
-2.4268299999999998
 20
-16.8288000000000011
 30
0.0
 10
-2.0470899999999999
 20
-16.8831999999999987
 30
0.0
 10
-1.5477700000000001
 20
-16.9294000000000011
 30
0.0
 10
-1.3369599999999999
 20
-16.9493000000000009
 30
0.0
 10
-1.09582
 20
-16.9662000000000006
 30
0.0
 10
-0.824345
 20
-16.9800000000000004
 30
0.0
 10
-0.528574
 20
-16.9945999999999984
 30
0.0
 10
-0.173984
 20
-17.0030000000000001
 30
0.0
 10
0.1767
 20
-16.9990999999999985
 30
0.0
 10
0.41023
 20
-16.9963000000000015
 30
0.0
 10
0.627092
 20
-16.9898999999999987
 30
0.0
 10
0.827288
 20
-16.9799000000000007
 30
0.0
 10
1.25254
 20
-16.9588000000000001
 30
0.0
 10
1.58985
 20
-16.9278000000000013
 30
0.0
 10
1.88503
 20
-16.8951999999999991
 30
0.0
 10
2.3000699999999998
 20
-16.8486000000000011
 30
0.0
 10
2.6323799999999999
 20
-16.7972999999999999
 30
0.0
 10
2.9234900000000001
 20
-16.7467000000000006
 30
0.0
 10
3.21183
 20
-16.6953999999999994
 30
0.0
 10
3.4563100000000002
 20
-16.6470999999999982
 30
0.0
 10
3.65693
 20
-16.6020000000000003
 30
0.0
 10
3.7676500000000002
 20
-16.5774000000000008
 30
0.0
 10
3.8569300000000002
 20
-16.5569999999999986
 30
0.0
 10
3.9247700000000001
 20
-16.5407000000000011
 30
0.0
 10
3.9730599999999998
 20
-16.5291999999999994
 30
0.0
 10
3.9981399999999998
 20
-16.5231999999999992
 30
0.0
 10
4.0
 20
-16.5227000000000004
 30
0.0
  0
SPLINE
  5
B2
100
AcDbEntity
  8
0
 62
0
370
-1
 48
1.0
  6
BYBLOCK
100
AcDbSpline
 70
8
 71
3
 72
8
 73
4
 74
0
 40
0.000000200309
 40
0.000000200309
 40
0.000000200309
 40
0.000000200309
 40
1.0
 40
1.0
 40
1.0
 40
1.0
 10
4.9937500000000004
 20
23.4746999999999986
 30
0.0
 10
5.8258299999999998
 20
23.2978999999999985
 30
0.0
 10
6.5337899999999998
 20
23.1003000000000007
 30
0.0
 10
7.0666500000000001
 20
22.9360999999999997
 30
0.0
  0
SPLINE
  5
B3
100
AcDbEntity
  8
0
 62
0
370
-1
 48
1.0
  6
BYBLOCK
100
AcDbSpline
 70
8
 71
3
 72
8
 73
4
 74
0
 40
0.000000133113
 40
0.000000133113
 40
0.000000133113
 40
0.000000133113
 40
1.0
 40
1.0
 40
1.0
 40
1.0
 10
7.0666500000000001
 20
-22.9360999999999997
 30
0.0
 10
6.5337899999999998
 20
-23.1003000000000007
 30
0.0
 10
5.8258299999999998
 20
-23.2978999999999985
 30
0.0
 10
4.9937500000000004
 20
-23.4746999999999986
 30
0.0
  0
SPLINE
  5
B4
100
AcDbEntity
  8
0
 62
0
370
-1
 48
1.0
  6
BYBLOCK
100
AcDbSpline
 70
8
 71
3
 72
8
 73
4
 74
0
 40
0.000000200309
 40
0.000000200309
 40
0.000000200309
 40
0.000000200309
 40
1.0
 40
1.0
 40
1.0
 40
1.0
 10
-4.9937500000000004
 20
-23.4746999999999986
 30
0.0
 10
-5.8258299999999998
 20
-23.2978999999999985
 30
0.0
 10
-6.5337899999999998
 20
-23.1003000000000007
 30
0.0
 10
-7.0666500000000001
 20
-22.9360999999999997
 30
0.0
  0
CIRCLE
  5
B5
100
AcDbEntity
  8
0
 62
0
370
-1
 48
1.0
  6
BYBLOCK
100
AcDbCircle
 10
0.0
 20
0.0
 30
0.0
 40
18.0
  0
SPLINE
  5
B6
100
AcDbEntity
  8
0
 62
0
370
-1
 48
1.0
  6
BYBLOCK
100
AcDbSpline
 70
8
 71
3
 72
11
 73
7
 74
0
 40
0.500128
 40
0.500128
 40
0.500128
 40
0.500128
 40
0.745858
 40
0.745858
 40
0.745858
 40
1.0
 40
1.0
 40
1.0
 40
1.0
 10
-8.0
 20
22.6274000000000015
 30
0.0
 10
-7.9986499999999996
 20
22.6279000000000003
 30
0.0
 10
-7.9796100000000001
 20
22.6345999999999989
 30
0.0
 10
-7.9626099999999997
 20
22.6405999999999992
 30
0.0
 10
-7.9437600000000002
 20
22.6472000000000016
 30
0.0
 10
-7.92347
 20
22.6542999999999992
 30
0.0
 10
-7.9017400000000002
 20
22.6618999999999993
 30
0.0
  0
SPLINE
  5
B7
100
AcDbEntity
  8
0
 62
0
370
-1
 48
1.0
  6
BYBLOCK
100
AcDbSpline
 70
8
 71
2
 72
6
 73
3
 74
0
 40
0.491649
 40
0.491649
 40
0.491649
 40
0.593319
 40
0.593319
 40
0.593319
 10
8.0
 20
22.6274000000000015
 30
0.0
 10
7.99918
 20
22.6277000000000008
 30
0.0
 10
7.9906800000000002
 20
22.6307000000000009
 30
0.0
  0
SPLINE
  5
B8
100
AcDbEntity
  8
0
 62
0
370
-1
 48
1.0
  6
BYBLOCK
100
AcDbSpline
 70
8
 71
1
 72
4
 73
2
 74
0
 40
0.916851
 40
0.916851
 40
1.0
 40
1.0
 10
7.9221700000000004
 20
22.6548000000000016
 30
0.0
 10
7.9017400000000002
 20
22.6618999999999993
 30
0.0
  0
SPLINE
  5
B9
100
AcDbEntity
  8
0
 62
0
370
-1
 48
1.0
  6
BYBLOCK
100
AcDbSpline
 70
8
 71
1
 72
4
 73
2
 74
0
 40
0.000000249224
 40
0.000000249224
 40
0.0285638
 40
0.0285638
 10
-7.9017400000000002
 20
-22.6618999999999993
 30
0.0
 10
-7.9089600000000004
 20
-22.6594000000000015
 30
0.0
  0
SPLINE
  5
BA
100
AcDbEntity
  8
0
 62
0
370
-1
 48
1.0
  6
BYBLOCK
100
AcDbSpline
 70
8
 71
2
 72
6
 73
3
 74
0
 40
0.395912
 40
0.395912
 40
0.395912
 40
0.499869
 40
0.499869
 40
0.499869
 10
-7.9901400000000002
 20
-22.6309000000000005
 30
0.0
 10
-7.9991199999999996
 20
-22.6277000000000008
 30
0.0
 10
-8.0
 20
-22.6274000000000015
 30
0.0
  0
SPLINE
  5
BB
100
AcDbEntity
  8
0
 62
0
370
-1
 48
1.0
  6
BYBLOCK
100
AcDbSpline
 70
8
 71
3
 72
11
 73
7
 74
0
 40
0.499869
 40
0.499869
 40
0.499869
 40
0.499869
 40
0.751745
 40
0.751745
 40
0.751745
 40
1.0
 40
1.0
 40
1.0
 40
1.0
 10
-8.0
 20
-22.6274000000000015
 30
0.0
 10
-7.9985400000000002
 20
-22.6279000000000003
 30
0.0
 10
-7.9787999999999997
 20
-22.6348999999999982
 30
0.0
 10
-7.96129
 20
-22.6411000000000016
 30
0.0
 10
-7.9427899999999996
 20
-22.6476000000000006
 30
0.0
 10
-7.9229399999999996
 20
-22.6544999999999987
 30
0.0
 10
-7.9017400000000002
 20
-22.6618999999999993
 30
0.0
  0
CIRCLE
  5
BC
100
AcDbEntity
  8
0
 62
0
370
-1
 48
1.0
  6
BYBLOCK
100
AcDbCircle
 10
0.0
 20
0.0
 30
0.0
 40
19.5
  0
LINE
  5
BD
100
AcDbEntity
  8
0
 62
0
370
-1
 48
1.0
  6
BYBLOCK
100
AcDbLine
 10
0.05
 20
23.9999000000000002
 30
0.0
 11
-0.05
 21
23.9999000000000002
 31
0.0
  0
ARC
  5
BE
100
AcDbEntity
  8
0
 62
0
370
-1
 48
1.0
  6
BYBLOCK
100
AcDbCircle
 10
0.0
 20
0.0
 30
0.0
 40
24.0
100
AcDbArc
 50
-89.4031999999999982
 51
89.8806000000000012
  0
ARC
  5
BF
100
AcDbEntity
  8
0
 62
0
370
-1
 48
1.0
  6
BYBLOCK
100
AcDbCircle
 10
0.0
 20
0.0
 30
0.0
 40
24.0
100
AcDbArc
 50
90.1193999999999988
 51
-90.5967999999999876
  0
LINE
  5
C0
100
AcDbEntity
  8
0
 62
0
370
-1
 48
1.0
  6
BYBLOCK
100
AcDbLine
 10
-0.25
 20
-23.9986999999999995
 30
0.0
 11
0.25
 21
-23.9986999999999995
 31
0.0
  0
CIRCLE
  5
C1
100
AcDbEntity
  8
0
 62
0
370
-1
 48
1.0
  6
BYBLOCK
100
AcDbCircle
 10
10.75
 20
18.6194999999999986
 30
0.0
 40
1.2
  0
CIRCLE
  5
C2
100
AcDbEntity
  8
0
 62
0
370
-1
 48
1.0
  6
BYBLOCK
100
AcDbCircle
 10
-10.75
 20
18.6194999999999986
 30
0.0
 40
1.2
  0
CIRCLE
  5
C3
100
AcDbEntity
  8
0
 62
0
370
-1
 48
1.0
  6
BYBLOCK
100
AcDbCircle
 10
10.75
 20
-18.6194999999999986
 30
0.0
 40
1.2
  0
CIRCLE
  5
C4
100
AcDbEntity
  8
0
 62
0
370
-1
 48
1.0
  6
BYBLOCK
100
AcDbCircle
 10
-10.75
 20
-18.6194999999999986
 30
0.0
 40
1.2
  0
CIRCLE
  5
C5
100
AcDbEntity
  8
0
 62
0
370
-1
 48
1.0
  6
BYBLOCK
100
AcDbCircle
 10
-21.5
 20
0.0000000000000026
 30
0.0
 40
1.2
  0
CIRCLE
  5
C6
100
AcDbEntity
  8
0
 62
0
370
-1
 48
1.0
  6
BYBLOCK
100
AcDbCircle
 10
21.5
 20
0.0
 30
0.0
 40
1.2
  0
CIRCLE
  5
C7
100
AcDbEntity
  8
0
 62
256
370
-1
 48
1.0
  6
BYLAYER
100
AcDbCircle
 10
-3.0
 20
-5.5
 30
0.0
 40
1.5
  0
CIRCLE
  5
C8
100
AcDbEntity
  8
0
 62
256
370
-1
 48
1.0
  6
BYLAYER
100
AcDbCircle
 10
9.5
 20
10.5
 30
0.0
 40
1.5
  0
ENDBLK
  5
C9
100
AcDbEntity
  8
0
100
AcDbBlockEnd
  0
BLOCK
  5
CA
100
AcDbEntity
  8
0
100
AcDbBlockBegin
  2
Ortho0021
 70
0
 10
0.0
 20
0.0
 30
0.0
  3
Ortho0021
  1

  0
LINE
  5
CB
100
AcDbEntity
  8
0
 62
0
370
-1
 48
1.0
  6
BYBLOCK
100
AcDbLine
 10
-24.0
 20
0.0
 30
0.0
 11
-24.0
 21
-2.5
 31
0.0
  0
LINE
  5
CC
100
AcDbEntity
  8
0
 62
0
370
-1
 48
1.0
  6
BYBLOCK
100
AcDbLine
 10
24.0
 20
0.0
 30
0.0
 11
24.0
 21
-2.5
 31
0.0
  0
LINE
  5
CD
100
AcDbEntity
  8
0
 62
0
370
-1
 48
1.0
  6
BYBLOCK
100
AcDbLine
 10
-20.0
 20
-2.5
 30
0.0
 11
-20.0
 21
-5.0
 31
0.0
  0
LINE
  5
CE
100
AcDbEntity
  8
0
 62
0
370
-1
 48
1.0
  6
BYBLOCK
100
AcDbLine
 10
20.0
 20
-2.5
 30
0.0
 11
20.0
 21
-5.0
 31
0.0
  0
LINE
  5
CF
100
AcDbEntity
  8
0
 62
0
370
-1
 48
1.0
  6
BYBLOCK
100
AcDbLine
 10
-24.0
 20
-5.0
 30
0.0
 11
-24.0
 21
-7.5
 31
0.0
  0
LINE
  5
D0
100
AcDbEntity
  8
0
 62
0
370
-1
 48
1.0
  6
BYBLOCK
100
AcDbLine
 10
24.0
 20
-5.0
 30
0.0
 11
24.0
 21
-7.5
 31
0.0
  0
LINE
  5
D1
100
AcDbEntity
  8
0
 62
0
370
-1
 48
1.0
  6
BYBLOCK
100
AcDbLine
 10
-20.0
 20
-7.5
 30
0.0
 11
-20.0
 21
-10.0
 31
0.0
  0
LINE
  5
D2
100
AcDbEntity
  8
0
 62
0
370
-1
 48
1.0
  6
BYBLOCK
100
AcDbLine
 10
20.0
 20
-7.5
 30
0.0
 11
20.0
 21
-10.0
 31
0.0
  0
LINE
  5
D3
100
AcDbEntity
  8
0
 62
0
370
-1
 48
1.0
  6
BYBLOCK
100
AcDbLine
 10
20.0
 20
-12.5
 30
0.0
 11
20.0
 21
-15.0
 31
0.0
  0
LINE
  5
D4
100
AcDbEntity
  8
0
 62
0
370
-1
 48
1.0
  6
BYBLOCK
100
AcDbLine
 10
-20.0
 20
-12.5
 30
0.0
 11
-20.0
 21
-15.0
 31
0.0
  0
LINE
  5
D5
100
AcDbEntity
  8
0
 62
0
370
-1
 48
1.0
  6
BYBLOCK
100
AcDbLine
 10
24.0
 20
-15.0
 30
0.0
 11
24.0
 21
-17.5
 31
0.0
  0
LINE
  5
D6
100
AcDbEntity
  8
0
 62
0
370
-1
 48
1.0
  6
BYBLOCK
100
AcDbLine
 10
-20.0
 20
-17.5
 30
0.0
 11
-20.0
 21
-20.0
 31
0.0
  0
LINE
  5
D7
100
AcDbEntity
  8
0
 62
0
370
-1
 48
1.0
  6
BYBLOCK
100
AcDbLine
 10
20.0
 20
-17.5
 30
0.0
 11
20.0
 21
-20.0
 31
0.0
  0
LINE
  5
D8
100
AcDbEntity
  8
0
 62
0
370
-1
 48
1.0
  6
BYBLOCK
100
AcDbLine
 10
-24.0
 20
-15.0
 30
0.0
 11
-24.0
 21
-17.5
 31
0.0
  0
LINE
  5
D9
100
AcDbEntity
  8
0
 62
0
370
-1
 48
1.0
  6
BYBLOCK
100
AcDbLine
 10
24.0
 20
-10.0
 30
0.0
 11
24.0
 21
-12.5
 31
0.0
  0
LINE
  5
DA
100
AcDbEntity
  8
0
 62
0
370
-1
 48
1.0
  6
BYBLOCK
100
AcDbLine
 10
-24.0
 20
-10.0
 30
0.0
 11
-24.0
 21
-12.5
 31
0.0
  0
LINE
  5
DB
100
AcDbEntity
  8
0
 62
0
370
-1
 48
1.0
  6
BYBLOCK
100
AcDbLine
 10
-24.0
 20
-20.0
 30
0.0
 11
-24.0
 21
-22.5
 31
0.0
  0
LINE
  5
DC
100
AcDbEntity
  8
0
 62
0
370
-1
 48
1.0
  6
BYBLOCK
100
AcDbLine
 10
24.0
 20
-20.0
 30
0.0
 11
24.0
 21
-22.5
 31
0.0
  0
SPLINE
  5
DD
100
AcDbEntity
  8
0
 62
0
370
-1
 48
1.0
  6
BYBLOCK
100
AcDbSpline
 70
8
 71
1
 72
17
 73
15
 74
0
 40
1.5708
 40
1.5708
 40
1.68225
 40
1.7937099999999999
 40
1.90516
 40
2.0166200000000001
 40
2.1280700000000001
 40
2.2395299999999998
 40
2.3509899999999999
 40
2.46244
 40
2.5739000000000001
 40
2.6853500000000001
 40
2.7968099999999998
 40
2.9082599999999998
 40
3.01972
 40
3.1311800000000001
 40
3.1311800000000001
 10
-24.0
 20
0.0
 30
0.0
 10
-23.8510999999999989
 20
0.0
 30
0.0
 10
-23.4061999999999983
 20
0.0
 30
0.0
 10
-22.6707999999999998
 20
0.0
 30
0.0
 10
-21.6540999999999997
 20
0.0
 30
0.0
 10
-20.3687000000000005
 20
0.0
 30
0.0
 10
-18.8306000000000004
 20
0.0
 30
0.0
 10
-17.0587000000000018
 20
0.0
 30
0.0
 10
-15.0752000000000006
 20
0.0
 30
0.0
 10
-12.9046000000000003
 20
0.0
 30
0.0
 10
-10.5738000000000003
 20
0.0
 30
0.0
 10
-8.1118400000000008
 20
0.0
 30
0.0
 10
-5.5491999999999999
 20
0.0
 30
0.0
 10
-2.91771
 20
0.0
 30
0.0
 10
-0.25
 20
0.0
 30
0.0
  0
LINE
  5
DE
100
AcDbEntity
  8
0
 62
0
370
-1
 48
1.0
  6
BYBLOCK
100
AcDbLine
 10
0.25
 20
0.0
 30
0.0
 11
-0.25
 21
0.0
 31
0.0
  0
SPLINE
  5
DF
100
AcDbEntity
  8
0
 62
0
370
-1
 48
1.0
  6
BYBLOCK
100
AcDbSpline
 70
8
 71
1
 72
17
 73
15
 74
0
 40
3.1520100000000002
 40
3.1520100000000002
 40
3.2634699999999999
 40
3.3749199999999999
 40
3.48638
 40
3.5978300000000001
 40
3.7092900000000002
 40
3.8207399999999998
 40
3.9321999999999999
 40
4.0436500000000004
 40
4.1551099999999996
 40
4.2665699999999998
 40
4.3780200000000002
 40
4.4894800000000004
 40
4.60093
 40
4.7123900000000001
 40
4.7123900000000001
 10
0.25
 20
0.0
 30
0.0
 10
2.91771
 20
0.0
 30
0.0
 10
5.5491999999999999
 20
0.0
 30
0.0
 10
8.1118400000000008
 20
0.0
 30
0.0
 10
10.5738000000000003
 20
0.0
 30
0.0
 10
12.9046000000000003
 20
0.0
 30
0.0
 10
15.0752000000000006
 20
0.0
 30
0.0
 10
17.0587000000000018
 20
0.0
 30
0.0
 10
18.8306000000000004
 20
0.0
 30
0.0
 10
20.3687000000000005
 20
0.0
 30
0.0
 10
21.6540999999999997
 20
0.0
 30
0.0
 10
22.6707999999999998
 20
0.0
 30
0.0
 10
23.4061999999999983
 20
0.0
 30
0.0
 10
23.8510999999999989
 20
0.0
 30
0.0
 10
24.0
 20
0.0
 30
0.0
  0
SPLINE
  5
E0
100
AcDbEntity
  8
0
 62
0
370
-1
 48
1.0
  6
BYBLOCK
100
AcDbSpline
 70
8
 71
1
 72
17
 73
15
 74
0
 40
1.5708
 40
1.5708
 40
1.68225
 40
1.7937099999999999
 40
1.90516
 40
2.0166200000000001
 40
2.1280700000000001
 40
2.2395299999999998
 40
2.3509899999999999
 40
2.46244
 40
2.5739000000000001
 40
2.6853500000000001
 40
2.7968099999999998
 40
2.9082599999999998
 40
3.01972
 40
3.1311800000000001
 40
3.1311800000000001
 10
-24.0
 20
-2.5
 30
0.0
 10
-23.8510999999999989
 20
-2.5
 30
0.0
 10
-23.4061999999999983
 20
-2.5
 30
0.0
 10
-22.6707999999999998
 20
-2.5
 30
0.0
 10
-21.6540999999999997
 20
-2.5
 30
0.0
 10
-20.3687000000000005
 20
-2.5
 30
0.0
 10
-18.8306000000000004
 20
-2.5
 30
0.0
 10
-17.0587000000000018
 20
-2.5
 30
0.0
 10
-15.0752000000000006
 20
-2.5
 30
0.0
 10
-12.9046000000000003
 20
-2.5
 30
0.0
 10
-10.5738000000000003
 20
-2.5
 30
0.0
 10
-8.1118400000000008
 20
-2.5
 30
0.0
 10
-5.5491999999999999
 20
-2.5
 30
0.0
 10
-2.91771
 20
-2.5
 30
0.0
 10
-0.25
 20
-2.5
 30
0.0
  0
LINE
  5
E1
100
AcDbEntity
  8
0
 62
0
370
-1
 48
1.0
  6
BYBLOCK
100
AcDbLine
 10
-0.25
 20
-2.5
 30
0.0
 11
0.25
 21
-2.5
 31
0.0
  0
SPLINE
  5
E2
100
AcDbEntity
  8
0
 62
0
370
-1
 48
1.0
  6
BYBLOCK
100
AcDbSpline
 70
8
 71
1
 72
17
 73
15
 74
0
 40
3.1520100000000002
 40
3.1520100000000002
 40
3.2634699999999999
 40
3.3749199999999999
 40
3.48638
 40
3.5978300000000001
 40
3.7092900000000002
 40
3.8207399999999998
 40
3.9321999999999999
 40
4.0436500000000004
 40
4.1551099999999996
 40
4.2665699999999998
 40
4.3780200000000002
 40
4.4894800000000004
 40
4.60093
 40
4.7123900000000001
 40
4.7123900000000001
 10
0.25
 20
-2.5
 30
0.0
 10
2.91771
 20
-2.5
 30
0.0
 10
5.5491999999999999
 20
-2.5
 30
0.0
 10
8.1118400000000008
 20
-2.5
 30
0.0
 10
10.5738000000000003
 20
-2.5
 30
0.0
 10
12.9046000000000003
 20
-2.5
 30
0.0
 10
15.0752000000000006
 20
-2.5
 30
0.0
 10
17.0587000000000018
 20
-2.5
 30
0.0
 10
18.8306000000000004
 20
-2.5
 30
0.0
 10
20.3687000000000005
 20
-2.5
 30
0.0
 10
21.6540999999999997
 20
-2.5
 30
0.0
 10
22.6707999999999998
 20
-2.5
 30
0.0
 10
23.4061999999999983
 20
-2.5
 30
0.0
 10
23.8510999999999989
 20
-2.5
 30
0.0
 10
24.0
 20
-2.5
 30
0.0
  0
SPLINE
  5
E3
100
AcDbEntity
  8
0
 62
0
370
-1
 48
1.0
  6
BYBLOCK
100
AcDbSpline
 70
8
 71
2
 72
6
 73
3
 74
0
 40
0.0
 40
0.0
 40
0.0
 40
0.0772419
 40
0.0772419
 40
0.0772419
 10
0.000000000000002
 20
-3.25
 30
0.0
 10
-0.287652
 20
-3.25013
 30
0.0
 10
-0.567532
 20
-3.2701600000000002
 30
0.0
  0
SPLINE
  5
E4
100
AcDbEntity
  8
0
 62
0
370
-1
 48
1.0
  6
BYBLOCK
100
AcDbSpline
 70
8
 71
1
 72
4
 73
2
 74
0
 40
0.0780149
 40
0.0780149
 40
0.0780221
 40
0.0780221
 10
-0.573119
 20
-3.2705600000000001
 30
0.0
 10
-0.573171
 20
-3.2705600000000001
 30
0.0
  0
SPLINE
  5
E5
100
AcDbEntity
  8
0
 62
0
370
-1
 48
1.0
  6
BYBLOCK
100
AcDbSpline
 70
8
 71
1
 72
4
 73
2
 74
0
 40
0.0787955
 40
0.0787955
 40
0.0788023
 40
0.0788023
 10
-0.578759
 20
-3.2709600000000001
 30
0.0
 10
-0.578808
 20
-3.2709700000000002
 30
0.0
  0
SPLINE
  5
E6
100
AcDbEntity
  8
0
 62
0
370
-1
 48
1.0
  6
BYBLOCK
100
AcDbSpline
 70
8
 71
1
 72
4
 73
2
 74
0
 40
0.0795762
 40
0.0795762
 40
0.0795825
 40
0.0795825
 10
-0.5843970000000001
 20
-3.2713700000000001
 30
0.0
 10
-0.584443
 20
-3.2713800000000002
 30
0.0
  0
SPLINE
  5
E7
100
AcDbEntity
  8
0
 62
0
370
-1
 48
1.0
  6
BYBLOCK
100
AcDbSpline
 70
8
 71
1
 72
4
 73
2
 74
0
 40
0.0803568
 40
0.0803568
 40
0.0803628
 40
0.0803628
 10
-0.590032
 20
-3.2717900000000002
 30
0.0
 10
-0.590075
 20
-3.2717900000000002
 30
0.0
  0
SPLINE
  5
E8
100
AcDbEntity
  8
0
 62
0
370
-1
 48
1.0
  6
BYBLOCK
100
AcDbSpline
 70
8
 71
1
 72
4
 73
2
 74
0
 40
0.0811375
 40
0.0811375
 40
0.081143
 40
0.081143
 10
-0.595664
 20
-3.2722099999999998
 30
0.0
 10
-0.595704
 20
-3.2722099999999998
 30
0.0
  0
SPLINE
  5
E9
100
AcDbEntity
  8
0
 62
0
370
-1
 48
1.0
  6
BYBLOCK
100
AcDbSpline
 70
8
 71
1
 72
4
 73
2
 74
0
 40
0.0819181
 40
0.0819181
 40
0.0819232
 40
0.0819232
 10
-0.601294
 20
-3.2726299999999999
 30
0.0
 10
-0.6013309999999999
 20
-3.2726299999999999
 30
0.0
  0
SPLINE
  5
EA
100
AcDbEntity
  8
0
 62
0
370
-1
 48
1.0
  6
BYBLOCK
100
AcDbSpline
 70
8
 71
1
 72
4
 73
2
 74
0
 40
0.0826987
 40
0.0826987
 40
0.0827034
 40
0.0827034
 10
-0.606922
 20
-3.2730600000000001
 30
0.0
 10
-0.6069560000000001
 20
-3.2730600000000001
 30
0.0
  0
SPLINE
  5
EB
100
AcDbEntity
  8
0
 62
0
370
-1
 48
1.0
  6
BYBLOCK
100
AcDbSpline
 70
8
 71
1
 72
4
 73
2
 74
0
 40
0.0834794
 40
0.0834794
 40
0.0834836
 40
0.0834836
 10
-0.612547
 20
-3.2734899999999998
 30
0.0
 10
-0.612578
 20
-3.2734899999999998
 30
0.0
  0
SPLINE
  5
EC
100
AcDbEntity
  8
0
 62
0
370
-1
 48
1.0
  6
BYBLOCK
100
AcDbSpline
 70
8
 71
3
 72
8
 73
4
 74
0
 40
0.112504
 40
0.112504
 40
0.112504
 40
0.112504
 40
0.383064
 40
0.383064
 40
0.383064
 40
0.383064
 10
-0.819733
 20
-3.2921100000000001
 30
0.0
 10
-1.46007
 20
-3.35853
 30
0.0
 10
-2.0139300000000002
 20
-3.4915400000000001
 30
0.0
 10
-2.4936199999999999
 20
-3.6485599999999998
 30
0.0
  0
SPLINE
  5
ED
100
AcDbEntity
  8
0
 62
0
370
-1
 48
1.0
  6
BYBLOCK
100
AcDbSpline
 70
8
 71
1
 72
4
 73
2
 74
0
 40
0.41129
 40
0.41129
 40
0.431452
 40
0.431452
 10
-2.6418599999999999
 20
-3.6987999999999999
 30
0.0
 10
-2.7450999999999999
 20
-3.7357200000000002
 30
0.0
  0
SPLINE
  5
EE
100
AcDbEntity
  8
0
 62
0
370
-1
 48
1.0
  6
BYBLOCK
100
AcDbSpline
 70
8
 71
1
 72
4
 73
2
 74
0
 40
0.46371
 40
0.46371
 40
0.483871
 40
0.483871
 10
-2.9059200000000001
 20
-3.79643
 30
0.0
 10
-3.0038
 20
-3.83534
 30
0.0
  0
SPLINE
  5
EF
100
AcDbEntity
  8
0
 62
0
370
-1
 48
1.0
  6
BYBLOCK
100
AcDbSpline
 70
8
 71
3
 72
14
 73
10
 74
0
 40
0.000000160941
 40
0.000000160941
 40
0.000000160941
 40
0.000000160941
 40
0.486826
 40
0.486826
 40
0.486826
 40
0.759628
 40
0.759628
 40
0.759628
 40
1.0
 40
1.0
 40
1.0
 40
1.0
 10
-4.9937500000000004
 20
-5.0
 30
0.0
 10
-4.4873399999999997
 20
-4.5975299999999999
 30
0.0
 10
-3.8984299999999998
 20
-4.2179599999999997
 30
0.0
 10
-3.1423999999999999
 20
-3.8930099999999999
 30
0.0
 10
-2.7176200000000001
 20
-3.7121
 30
0.0
 10
-2.2370199999999998
 20
-3.5478999999999998
 30
0.0
 10
-1.67066
 20
-3.42639
 30
0.0
 10
-1.17536
 20
-3.3197199999999998
 30
0.0
 10
-0.596512
 20
-3.2492399999999999
 30
0.0
 10
-0.0000000000000012
 20
-3.25
 30
0.0
  0
SPLINE
  5
F0
100
AcDbEntity
  8
0
 62
0
370
-1
 48
1.0
  6
BYBLOCK
100
AcDbSpline
 70
8
 71
3
 72
14
 73
10
 74
0
 40
0.0
 40
0.0
 40
0.0
 40
0.0
 40
0.25738
 40
0.25738
 40
0.25738
 40
0.485712
 40
0.485712
 40
0.485712
 40
1.0
 40
1.0
 40
1.0
 40
1.0
 10
0.0
 20
-3.25
 30
0.0
 10
0.6397699999999999
 20
-3.2491300000000001
 30
0.0
 10
1.2561
 20
-3.3302100000000001
 30
0.0
 10
1.7760199999999999
 20
-3.44963
 30
0.0
 10
2.24119
 20
-3.5558299999999998
 30
0.0
 10
2.6474799999999998
 20
-3.69075
 30
0.0
 10
3.0126400000000002
 20
-3.83893
 30
0.0
 10
3.83256
 20
-4.1748700000000003
 30
0.0
 10
4.45845
 20
-4.5750900000000003
 30
0.0
 10
4.9937500000000004
 20
-5.0
 30
0.0
  0
SPLINE
  5
F1
100
AcDbEntity
  8
0
 62
0
370
-1
 48
1.0
  6
BYBLOCK
100
AcDbSpline
 70
8
 71
3
 72
77
 73
73
 74
0
 40
0.0
 40
0.0
 40
0.0
 40
0.0
 40
0.018491
 40
0.018491
 40
0.018491
 40
0.0373403
 40
0.0373403
 40
0.0373403
 40
0.0628024
 40
0.0628024
 40
0.0628024
 40
0.118923
 40
0.118923
 40
0.118923
 40
0.175203
 40
0.175203
 40
0.175203
 40
0.226449
 40
0.226449
 40
0.226449
 40
0.252207
 40
0.252207
 40
0.252207
 40
0.277965
 40
0.277965
 40
0.277965
 40
0.313654
 40
0.313654
 40
0.313654
 40
0.355969
 40
0.355969
 40
0.355969
 40
0.434803
 40
0.434803
 40
0.434803
 40
0.467275
 40
0.467275
 40
0.467275
 40
0.501445
 40
0.501445
 40
0.501445
 40
0.533631
 40
0.533631
 40
0.533631
 40
0.55762
 40
0.55762
 40
0.55762
 40
0.61008
 40
0.61008
 40
0.61008
 40
0.679868
 40
0.679868
 40
0.679868
 40
0.732609
 40
0.732609
 40
0.732609
 40
0.76944
 40
0.76944
 40
0.76944
 40
0.805091
 40
0.805091
 40
0.805091
 40
0.869435
 40
0.869435
 40
0.869435
 40
0.928806
 40
0.928806
 40
0.928806
 40
0.969702
 40
0.969702
 40
0.969702
 40
1.0
 40
1.0
 40
1.0
 40
1.0
 10
-0.0000000000000004
 20
-7.25
 30
0.0
 10
0.20521
 20
-7.2506300000000001
 30
0.0
 10
0.401521
 20
-7.2651599999999998
 30
0.0
 10
0.588931
 20
-7.29359
 30
0.0
 10
0.777273
 20
-7.3224799999999997
 30
0.0
 10
0.951082
 20
-7.3603500000000004
 30
0.0
 10
1.11036
 20
-7.4071999999999996
 30
0.0
 10
1.3244800000000001
 20
-7.4703299999999997
 30
0.0
 10
1.51864
 20
-7.5432300000000003
 30
0.0
 10
1.6928399999999999
 20
-7.6258800000000004
 30
0.0
 10
2.0787100000000001
 20
-7.8071700000000002
 30
0.0
 10
2.3914499999999999
 20
-8.0233299999999996
 30
0.0
 10
2.66839
 20
-8.2701200000000004
 30
0.0
 10
2.94495
 20
-8.5186299999999999
 30
0.0
 10
3.1835300000000002
 20
-8.7979199999999995
 30
0.0
 10
3.39133
 20
-9.1289400000000001
 30
0.0
 10
3.5792999999999999
 20
-9.4319000000000006
 30
0.0
 10
3.7441300000000002
 20
-9.7746999999999993
 30
0.0
 10
3.86328
 20
-10.2131000000000007
 30
0.0
 10
3.9230999999999998
 20
-10.4341000000000008
 30
0.0
 10
3.9735499999999999
 20
-10.7065999999999999
 30
0.0
 10
3.9914800000000001
 20
-10.9891000000000005
 30
0.0
 10
4.0104300000000004
 20
-11.2718000000000007
 30
0.0
 10
3.99729
 20
-11.5657999999999994
 30
0.0
 10
3.9569299999999998
 20
-11.8353999999999999
 30
0.0
 10
3.9009800000000001
 20
-12.2091999999999992
 30
0.0
 10
3.8042699999999998
 20
-12.5183999999999997
 30
0.0
 10
3.6922899999999998
 20
-12.7885000000000009
 30
0.0
 10
3.5583399999999998
 20
-13.1087000000000007
 30
0.0
 10
3.39988
 20
-13.3778000000000006
 30
0.0
 10
3.2222400000000002
 20
-13.6201000000000008
 30
0.0
 10
2.8885399999999999
 20
-14.0686999999999998
 30
0.0
 10
2.49573
 20
-14.4281000000000006
 30
0.0
 10
1.9804200000000001
 20
-14.7253000000000007
 30
0.0
 10
1.7695799999999999
 20
-14.8478999999999992
 30
0.0
 10
1.5280100000000001
 20
-14.9553999999999991
 30
0.0
 10
1.2556799999999999
 20
-15.0478000000000005
 30
0.0
 10
0.968108
 20
-15.1428999999999991
 30
0.0
 10
0.62669
 20
-15.2197999999999993
 30
0.0
 10
0.235612
 20
-15.2431000000000001
 30
0.0
 10
-0.133825
 20
-15.2660999999999998
 30
0.0
 10
-0.514447
 20
-15.2310999999999996
 30
0.0
 10
-0.827288
 20
-15.1635000000000009
 30
0.0
 10
-1.06107
 20
-15.1125000000000007
 30
0.0
 10
-1.27176
 20
-15.0494000000000003
 30
0.0
 10
-1.4593700000000001
 20
-14.9742999999999995
 30
0.0
 10
-1.8716999999999999
 20
-14.8115000000000006
 30
0.0
 10
-2.20004
 20
-14.6097999999999999
 30
0.0
 10
-2.4902299999999999
 20
-14.3803000000000001
 30
0.0
 10
-2.8738000000000001
 20
-14.0728000000000009
 30
0.0
 10
-3.1880099999999998
 20
-13.7178000000000004
 30
0.0
 10
-3.45153
 20
-13.2715999999999994
 30
0.0
 10
-3.6481699999999999
 20
-12.9318000000000008
 30
0.0
 10
-3.8199900000000002
 20
-12.5420999999999996
 30
0.0
 10
-3.9247700000000001
 20
-12.0221
 30
0.0
 10
-3.9994999999999998
 20
-11.6578999999999997
 30
0.0
 10
-4.0235599999999998
 20
-11.1953999999999994
 30
0.0
 10
-3.9734600000000002
 20
-10.7899999999999991
 30
0.0
 10
-3.9272999999999998
 20
-10.3970000000000002
 30
0.0
 10
-3.8336299999999999
 20
-10.0708000000000002
 30
0.0
 10
-3.7237100000000001
 20
-9.78918
 30
0.0
 10
-3.5224500000000001
 20
-9.2826500000000003
 30
0.0
 10
-3.2644700000000002
 20
-8.8979400000000002
 30
0.0
 10
-2.9605700000000001
 20
-8.5602
 30
0.0
 10
-2.6781600000000001
 20
-8.2510300000000001
 30
0.0
 10
-2.3560699999999999
 20
-7.9867499999999998
 30
0.0
 10
-1.9577599999999999
 20
-7.7618499999999999
 30
0.0
 10
-1.68214
 20
-7.60806
 30
0.0
 10
-1.3703000000000001
 20
-7.4718799999999996
 30
0.0
 10
-0.984074
 20
-7.3729399999999998
 30
0.0
 10
-0.698836
 20
-7.3000499999999997
 30
0.0
 10
-0.359806
 20
-7.2496299999999998
 30
0.0
 10
-0.0000000000000009
 20
-7.25
 30
0.0
  0
SPLINE
  5
F2
100
AcDbEntity
  8
0
 62
0
370
-1
 48
1.0
  6
BYBLOCK
100
AcDbSpline
 70
8
 71
1
 72
17
 73
15
 74
0
 40
1.5708
 40
1.5708
 40
1.6680200000000001
 40
1.76525
 40
1.8624799999999999
 40
1.9597100000000001
 40
2.05694
 40
2.1541600000000001
 40
2.2513899999999998
 40
2.3486199999999999
 40
2.4458500000000001
 40
2.5430799999999998
 40
2.6402999999999999
 40
2.73753
 40
2.8347600000000002
 40
2.9319899999999999
 40
2.9319899999999999
 10
-24.0
 20
-5.0
 30
0.0
 10
-23.8866000000000014
 20
-5.0
 30
0.0
 10
-23.547699999999999
 20
-5.0
 30
0.0
 10
-22.9863
 20
-5.0
 30
0.0
 10
-22.2076999999999991
 20
-5.0
 30
0.0
 10
-21.2194000000000003
 20
-5.0
 30
0.0
 10
-20.0306999999999995
 20
-5.0
 30
0.0
 10
-18.6526999999999994
 20
-5.0
 30
0.0
 10
-17.0986000000000011
 20
-5.0
 30
0.0
 10
-15.3829999999999991
 20
-5.0
 30
0.0
 10
-13.5220000000000002
 20
-5.0
 30
0.0
 10
-11.5333000000000006
 20
-5.0
 30
0.0
 10
-9.4357199999999999
 20
-5.0
 30
0.0
 10
-7.2489699999999999
 20
-5.0
 30
0.0
 10
-4.9937500000000004
 20
-5.0
 30
0.0
  0
SPLINE
  5
F3
100
AcDbEntity
  8
0
 62
0
370
-1
 48
1.0
  6
BYBLOCK
100
AcDbSpline
 70
8
 71
3
 72
8
 73
4
 74
0
 40
0.000000133113
 40
0.000000133113
 40
0.000000133113
 40
0.000000133113
 40
1.0
 40
1.0
 40
1.0
 40
1.0
 10
-7.0666500000000001
 20
-7.5
 30
0.0
 10
-6.5337899999999998
 20
-6.4985400000000002
 30
0.0
 10
-5.8258299999999998
 20
-5.6661700000000002
 30
0.0
 10
-4.9937500000000004
 20
-5.0
 30
0.0
  0
ARC
  5
F4
100
AcDbEntity
  8
0
 62
0
370
-1
 48
1.0
  6
BYBLOCK
100
AcDbCircle
 10
0.0
 20
-11.25
 30
0.0
 40
8.0
100
AcDbArc
 50
151.460000000000008
 51
152.046999999999997
  0
ARC
  5
F5
100
AcDbEntity
  8
0
 62
0
370
-1
 48
1.0
  6
BYBLOCK
100
AcDbCircle
 10
0.0
 20
-11.25
 30
0.0
 40
8.0
100
AcDbArc
 50
27.9531999999999989
 51
28.5398999999999994
  0
ARC
  5
F6
100
AcDbEntity
  8
0
 62
0
370
-1
 48
1.0
  6
BYBLOCK
100
AcDbCircle
 10
0.0
 20
-11.25
 30
0.0
 40
8.0
100
AcDbArc
 50
88.8265999999999991
 51
90.0
  0
SPLINE
  5
F7
100
AcDbEntity
  8
0
 62
0
370
-1
 48
1.0
  6
BYBLOCK
100
AcDbSpline
 70
8
 71
3
 72
8
 73
4
 74
0
 40
0.000000200309
 40
0.000000200309
 40
0.000000200309
 40
0.000000200309
 40
1.0
 40
1.0
 40
1.0
 40
1.0
 10
4.9937500000000004
 20
-5.0
 30
0.0
 10
5.8258299999999998
 20
-5.6661700000000002
 30
0.0
 10
6.5337899999999998
 20
-6.4985400000000002
 30
0.0
 10
7.0666500000000001
 20
-7.5
 30
0.0
  0
SPLINE
  5
F8
100
AcDbEntity
  8
0
 62
0
370
-1
 48
1.0
  6
BYBLOCK
100
AcDbSpline
 70
8
 71
1
 72
17
 73
15
 74
0
 40
3.3512
 40
3.3512
 40
3.44842
 40
3.5456500000000002
 40
3.6428799999999999
 40
3.74011
 40
3.8373400000000002
 40
3.9345599999999998
 40
4.03179
 40
4.1290199999999997
 40
4.2262500000000003
 40
4.32348
 40
4.4207000000000001
 40
4.5179299999999998
 40
4.6151600000000004
 40
4.7123900000000001
 40
4.7123900000000001
 10
4.9937500000000004
 20
-5.0
 30
0.0
 10
7.2489699999999999
 20
-5.0
 30
0.0
 10
9.4357199999999999
 20
-5.0
 30
0.0
 10
11.5333000000000006
 20
-5.0
 30
0.0
 10
13.5220000000000002
 20
-5.0
 30
0.0
 10
15.3829999999999991
 20
-5.0
 30
0.0
 10
17.0986000000000011
 20
-5.0
 30
0.0
 10
18.6526999999999994
 20
-5.0
 30
0.0
 10
20.0306999999999995
 20
-5.0
 30
0.0
 10
21.2194000000000003
 20
-5.0
 30
0.0
 10
22.2076999999999991
 20
-5.0
 30
0.0
 10
22.9863
 20
-5.0
 30
0.0
 10
23.547699999999999
 20
-5.0
 30
0.0
 10
23.8866000000000014
 20
-5.0
 30
0.0
 10
24.0
 20
-5.0
 30
0.0
  0
CIRCLE
  5
F9
100
AcDbEntity
  8
0
 62
0
370
-1
 48
1.0
  6
BYBLOCK
100
AcDbCircle
 10
0.0
 20
-11.25
 30
0.0
 40
4.0
  0
SPLINE
  5
FA
100
AcDbEntity
  8
0
 62
0
370
-1
 48
1.0
  6
BYBLOCK
100
AcDbSpline
 70
8
 71
1
 72
17
 73
15
 74
0
 40
1.5708
 40
1.5708
 40
1.6616500000000001
 40
1.7524999999999999
 40
1.84335
 40
1.9341999999999999
 40
2.0250499999999998
 40
2.11591
 40
2.2067600000000001
 40
2.2976100000000002
 40
2.3884599999999998
 40
2.4793099999999999
 40
2.57016
 40
2.6610200000000002
 40
2.7518699999999998
 40
2.8427199999999999
 40
2.8427199999999999
 10
-24.0
 20
-7.5
 30
0.0
 10
-23.9009999999999998
 20
-7.5
 30
0.0
 10
-23.6049000000000007
 20
-7.5
 30
0.0
 10
-23.1141000000000005
 20
-7.5
 30
0.0
 10
-22.4326000000000008
 20
-7.5
 30
0.0
 10
-21.5660999999999987
 20
-7.5
 30
0.0
 10
-20.5216999999999992
 20
-7.5
 30
0.0
 10
-19.3079999999999998
 20
-7.5
 30
0.0
 10
-17.9350999999999985
 20
-7.5
 30
0.0
 10
-16.414200000000001
 20
-7.5
 30
0.0
 10
-14.7579999999999991
 20
-7.5
 30
0.0
 10
-12.9800000000000004
 20
-7.5
 30
0.0
 10
-11.0950000000000006
 20
-7.5
 30
0.0
 10
-9.1184200000000004
 20
-7.5
 30
0.0
 10
-7.0666500000000001
 20
-7.5
 30
0.0
  0
LINE
  5
FB
100
AcDbEntity
  8
0
 62
0
370
-1
 48
1.0
  6
BYBLOCK
100
AcDbLine
 10
-7.0666500000000001
 20
-7.5
 30
0.0
 11
-6.2489600000000003
 21
-7.5
 31
0.0
  0
SPLINE
  5
FC
100
AcDbEntity
  8
0
 62
0
370
-1
 48
1.0
  6
BYBLOCK
100
AcDbSpline
 70
8
 71
1
 72
17
 73
15
 74
0
 40
3.4404699999999999
 40
3.4404699999999999
 40
3.53132
 40
3.6221700000000001
 40
3.7130200000000002
 40
3.8038699999999999
 40
3.89472
 40
3.9855800000000001
 40
4.0764300000000002
 40
4.1672799999999999
 40
4.2581300000000004
 40
4.3489800000000001
 40
4.4398299999999997
 40
4.5306899999999999
 40
4.6215400000000004
 40
4.7123900000000001
 40
4.7123900000000001
 10
7.0666500000000001
 20
-7.5
 30
0.0
 10
9.1184200000000004
 20
-7.5
 30
0.0
 10
11.0950000000000006
 20
-7.5
 30
0.0
 10
12.9800000000000004
 20
-7.5
 30
0.0
 10
14.7579999999999991
 20
-7.5
 30
0.0
 10
16.414200000000001
 20
-7.5
 30
0.0
 10
17.9350999999999985
 20
-7.5
 30
0.0
 10
19.3079999999999998
 20
-7.5
 30
0.0
 10
20.5216999999999992
 20
-7.5
 30
0.0
 10
21.5660999999999987
 20
-7.5
 30
0.0
 10
22.4326000000000008
 20
-7.5
 30
0.0
 10
23.1141000000000005
 20
-7.5
 30
0.0
 10
23.6049000000000007
 20
-7.5
 30
0.0
 10
23.9009999999999998
 20
-7.5
 30
0.0
 10
24.0
 20
-7.5
 30
0.0
  0
LINE
  5
FD
100
AcDbEntity
  8
0
 62
0
370
-1
 48
1.0
  6
BYBLOCK
100
AcDbLine
 10
6.2489600000000003
 20
-7.5
 30
0.0
 11
7.0666500000000001
 21
-7.5
 31
0.0
  0
LINE
  5
FE
100
AcDbEntity
  8
0
 62
0
370
-1
 48
1.0
  6
BYBLOCK
100
AcDbLine
 10
6.2489600000000003
 20
-7.5
 30
0.0
 11
6.2489600000000003
 21
-10.0
 31
0.0
  0
LINE
  5
FF
100
AcDbEntity
  8
0
 62
0
370
-1
 48
1.0
  6
BYBLOCK
100
AcDbLine
 10
7.9017400000000002
 20
-10.0
 30
0.0
 11
6.2489600000000003
 21
-10.0
 31
0.0
  0
LINE
  5
100
100
AcDbEntity
  8
0
 62
0
370
-1
 48
1.0
  6
BYBLOCK
100
AcDbLine
 10
-6.2489600000000003
 20
-7.5
 30
0.0
 11
-6.2489600000000003
 21
-10.0
 31
0.0
  0
LINE
  5
101
100
AcDbEntity
  8
0
 62
0
370
-1
 48
1.0
  6
BYBLOCK
100
AcDbLine
 10
-6.2489600000000003
 20
-10.0
 30
0.0
 11
-7.9017400000000002
 21
-10.0
 31
0.0
  0
LINE
  5
102
100
AcDbEntity
  8
0
 62
0
370
-1
 48
1.0
  6
BYBLOCK
100
AcDbLine
 10
6.2489600000000003
 20
-12.5
 30
0.0
 11
7.9017400000000002
 21
-12.5
 31
0.0
  0
LINE
  5
103
100
AcDbEntity
  8
0
 62
0
370
-1
 48
1.0
  6
BYBLOCK
100
AcDbLine
 10
6.2489600000000003
 20
-12.5
 30
0.0
 11
6.2489600000000003
 21
-15.0
 31
0.0
  0
LINE
  5
104
100
AcDbEntity
  8
0
 62
0
370
-1
 48
1.0
  6
BYBLOCK
100
AcDbLine
 10
-7.9017400000000002
 20
-12.5
 30
0.0
 11
-6.2489600000000003
 21
-12.5
 31
0.0
  0
LINE
  5
105
100
AcDbEntity
  8
0
 62
0
370
-1
 48
1.0
  6
BYBLOCK
100
AcDbLine
 10
7.0666500000000001
 20
-15.0
 30
0.0
 11
6.2489600000000003
 21
-15.0
 31
0.0
  0
LINE
  5
106
100
AcDbEntity
  8
0
 62
0
370
-1
 48
1.0
  6
BYBLOCK
100
AcDbLine
 10
-6.2489600000000003
 20
-12.5
 30
0.0
 11
-6.2489600000000003
 21
-15.0
 31
0.0
  0
ARC
  5
107
100
AcDbEntity
  8
0
 62
0
370
-1
 48
1.0
  6
BYBLOCK
100
AcDbCircle
 10
0.0
 20
-11.25
 30
0.0
 40
8.0
100
AcDbArc
 50
-152.046999999999997
 51
-151.460000000000008
  0
ARC
  5
108
100
AcDbEntity
  8
0
 62
0
370
-1
 48
1.0
  6
BYBLOCK
100
AcDbCircle
 10
0.0
 20
-11.25
 30
0.0
 40
8.0
100
AcDbArc
 50
-28.5398999999999994
 51
-27.9531999999999989
  0
LINE
  5
109
100
AcDbEntity
  8
0
 62
0
370
-1
 48
1.0
  6
BYBLOCK
100
AcDbLine
 10
-6.2489600000000003
 20
-15.0
 30
0.0
 11
-7.0666500000000001
 21
-15.0
 31
0.0
  0
SPLINE
  5
10A
100
AcDbEntity
  8
0
 62
0
370
-1
 48
1.0
  6
BYBLOCK
100
AcDbSpline
 70
8
 71
1
 72
17
 73
15
 74
0
 40
3.4404699999999999
 40
3.4404699999999999
 40
3.53132
 40
3.6221700000000001
 40
3.7130200000000002
 40
3.8038699999999999
 40
3.89472
 40
3.9855800000000001
 40
4.0764300000000002
 40
4.1672799999999999
 40
4.2581300000000004
 40
4.3489800000000001
 40
4.4398299999999997
 40
4.5306899999999999
 40
4.6215400000000004
 40
4.7123900000000001
 40
4.7123900000000001
 10
7.0666500000000001
 20
-15.0
 30
0.0
 10
9.1184200000000004
 20
-15.0
 30
0.0
 10
11.0950000000000006
 20
-15.0
 30
0.0
 10
12.9800000000000004
 20
-15.0
 30
0.0
 10
14.7579999999999991
 20
-15.0
 30
0.0
 10
16.414200000000001
 20
-15.0
 30
0.0
 10
17.9350999999999985
 20
-15.0
 30
0.0
 10
19.3079999999999998
 20
-15.0
 30
0.0
 10
20.5216999999999992
 20
-15.0
 30
0.0
 10
21.5660999999999987
 20
-15.0
 30
0.0
 10
22.4326000000000008
 20
-15.0
 30
0.0
 10
23.1141000000000005
 20
-15.0
 30
0.0
 10
23.6049000000000007
 20
-15.0
 30
0.0
 10
23.9009999999999998
 20
-15.0
 30
0.0
 10
24.0
 20
-15.0
 30
0.0
  0
SPLINE
  5
10B
100
AcDbEntity
  8
0
 62
0
370
-1
 48
1.0
  6
BYBLOCK
100
AcDbSpline
 70
8
 71
1
 72
17
 73
15
 74
0
 40
1.5708
 40
1.5708
 40
1.6616500000000001
 40
1.7524999999999999
 40
1.84335
 40
1.9341999999999999
 40
2.0250499999999998
 40
2.11591
 40
2.2067600000000001
 40
2.2976100000000002
 40
2.3884599999999998
 40
2.4793099999999999
 40
2.57016
 40
2.6610200000000002
 40
2.7518699999999998
 40
2.8427199999999999
 40
2.8427199999999999
 10
-24.0
 20
-15.0
 30
0.0
 10
-23.9009999999999998
 20
-15.0
 30
0.0
 10
-23.6049000000000007
 20
-15.0
 30
0.0
 10
-23.1141000000000005
 20
-15.0
 30
0.0
 10
-22.4326000000000008
 20
-15.0
 30
0.0
 10
-21.5660999999999987
 20
-15.0
 30
0.0
 10
-20.5216999999999992
 20
-15.0
 30
0.0
 10
-19.3079999999999998
 20
-15.0
 30
0.0
 10
-17.9350999999999985
 20
-15.0
 30
0.0
 10
-16.414200000000001
 20
-15.0
 30
0.0
 10
-14.7579999999999991
 20
-15.0
 30
0.0
 10
-12.9800000000000004
 20
-15.0
 30
0.0
 10
-11.0950000000000006
 20
-15.0
 30
0.0
 10
-9.1184200000000004
 20
-15.0
 30
0.0
 10
-7.0666500000000001
 20
-15.0
 30
0.0
  0
SPLINE
  5
10C
100
AcDbEntity
  8
0
 62
0
370
-1
 48
1.0
  6
BYBLOCK
100
AcDbSpline
 70
8
 71
1
 72
17
 73
15
 74
0
 40
3.47709
 40
3.47709
 40
3.5653299999999999
 40
3.6535600000000001
 40
3.7418
 40
3.8300299999999998
 40
3.9182700000000001
 40
4.0065
 40
4.0947399999999998
 40
4.1829799999999997
 40
4.27121
 40
4.3594499999999998
 40
4.4476800000000001
 40
4.53592
 40
4.6241500000000002
 40
4.7123900000000001
 40
4.7123900000000001
 10
7.9017400000000002
 20
-12.5
 30
0.0
 10
9.8680000000000003
 20
-12.5
 30
0.0
 10
11.7575000000000003
 20
-12.5
 30
0.0
 10
13.5555000000000003
 20
-12.5
 30
0.0
 10
15.2479999999999993
 20
-12.5
 30
0.0
 10
16.8218999999999994
 20
-12.5
 30
0.0
 10
18.2649000000000008
 20
-12.5
 30
0.0
 10
19.5657999999999994
 20
-12.5
 30
0.0
 10
20.714500000000001
 20
-12.5
 30
0.0
 10
21.7020000000000017
 20
-12.5
 30
0.0
 10
22.5206000000000017
 20
-12.5
 30
0.0
 10
23.1641000000000012
 20
-12.5
 30
0.0
 10
23.6273000000000017
 20
-12.5
 30
0.0
 10
23.906600000000001
 20
-12.5
 30
0.0
 10
24.0
 20
-12.5
 30
0.0
  0
SPLINE
  5
10D
100
AcDbEntity
  8
0
 62
0
370
-1
 48
1.0
  6
BYBLOCK
100
AcDbSpline
 70
8
 71
1
 72
17
 73
15
 74
0
 40
1.5708
 40
1.5708
 40
1.65903
 40
1.7472700000000001
 40
1.8354999999999999
 40
1.92374
 40
2.0119699999999998
 40
2.1002100000000001
 40
2.18845
 40
2.2766799999999998
 40
2.3649200000000001
 40
2.4531499999999999
 40
2.5413899999999998
 40
2.6296200000000001
 40
2.7178599999999999
 40
2.8060900000000002
 40
2.8060900000000002
 10
-24.0
 20
-12.5
 30
0.0
 10
-23.906600000000001
 20
-12.5
 30
0.0
 10
-23.6273000000000017
 20
-12.5
 30
0.0
 10
-23.1641000000000012
 20
-12.5
 30
0.0
 10
-22.5206000000000017
 20
-12.5
 30
0.0
 10
-21.7020000000000017
 20
-12.5
 30
0.0
 10
-20.714500000000001
 20
-12.5
 30
0.0
 10
-19.5657999999999994
 20
-12.5
 30
0.0
 10
-18.2649000000000008
 20
-12.5
 30
0.0
 10
-16.8218999999999994
 20
-12.5
 30
0.0
 10
-15.2479999999999993
 20
-12.5
 30
0.0
 10
-13.5555000000000003
 20
-12.5
 30
0.0
 10
-11.7575000000000003
 20
-12.5
 30
0.0
 10
-9.8680000000000003
 20
-12.5
 30
0.0
 10
-7.9017400000000002
 20
-12.5
 30
0.0
  0
SPLINE
  5
10E
100
AcDbEntity
  8
0
 62
0
370
-1
 48
1.0
  6
BYBLOCK
100
AcDbSpline
 70
8
 71
1
 72
17
 73
15
 74
0
 40
3.47709
 40
3.47709
 40
3.5653299999999999
 40
3.6535600000000001
 40
3.7418
 40
3.8300299999999998
 40
3.9182700000000001
 40
4.0065
 40
4.0947399999999998
 40
4.1829799999999997
 40
4.27121
 40
4.3594499999999998
 40
4.4476800000000001
 40
4.53592
 40
4.6241500000000002
 40
4.7123900000000001
 40
4.7123900000000001
 10
7.9017400000000002
 20
-10.0
 30
0.0
 10
9.8680000000000003
 20
-10.0
 30
0.0
 10
11.7575000000000003
 20
-10.0
 30
0.0
 10
13.5555000000000003
 20
-10.0
 30
0.0
 10
15.2479999999999993
 20
-10.0
 30
0.0
 10
16.8218999999999994
 20
-10.0
 30
0.0
 10
18.2649000000000008
 20
-10.0
 30
0.0
 10
19.5657999999999994
 20
-10.0
 30
0.0
 10
20.714500000000001
 20
-10.0
 30
0.0
 10
21.7020000000000017
 20
-10.0
 30
0.0
 10
22.5206000000000017
 20
-10.0
 30
0.0
 10
23.1641000000000012
 20
-10.0
 30
0.0
 10
23.6273000000000017
 20
-10.0
 30
0.0
 10
23.906600000000001
 20
-10.0
 30
0.0
 10
24.0
 20
-10.0
 30
0.0
  0
SPLINE
  5
10F
100
AcDbEntity
  8
0
 62
0
370
-1
 48
1.0
  6
BYBLOCK
100
AcDbSpline
 70
8
 71
1
 72
17
 73
15
 74
0
 40
1.5708
 40
1.5708
 40
1.65903
 40
1.7472700000000001
 40
1.8354999999999999
 40
1.92374
 40
2.0119699999999998
 40
2.1002100000000001
 40
2.18845
 40
2.2766799999999998
 40
2.3649200000000001
 40
2.4531499999999999
 40
2.5413899999999998
 40
2.6296200000000001
 40
2.7178599999999999
 40
2.8060900000000002
 40
2.8060900000000002
 10
-24.0
 20
-10.0
 30
0.0
 10
-23.906600000000001
 20
-10.0
 30
0.0
 10
-23.6273000000000017
 20
-10.0
 30
0.0
 10
-23.1641000000000012
 20
-10.0
 30
0.0
 10
-22.5206000000000017
 20
-10.0
 30
0.0
 10
-21.7020000000000017
 20
-10.0
 30
0.0
 10
-20.714500000000001
 20
-10.0
 30
0.0
 10
-19.5657999999999994
 20
-10.0
 30
0.0
 10
-18.2649000000000008
 20
-10.0
 30
0.0
 10
-16.8218999999999994
 20
-10.0
 30
0.0
 10
-15.2479999999999993
 20
-10.0
 30
0.0
 10
-13.5555000000000003
 20
-10.0
 30
0.0
 10
-11.7575000000000003
 20
-10.0
 30
0.0
 10
-9.8680000000000003
 20
-10.0
 30
0.0
 10
-7.9017400000000002
 20
-10.0
 30
0.0
  0
SPLINE
  5
110
100
AcDbEntity
  8
0
 62
0
370
-1
 48
1.0
  6
BYBLOCK
100
AcDbSpline
 70
8
 71
3
 72
23
 73
19
 74
0
 40
0.000000249224
 40
0.000000249224
 40
0.000000249224
 40
0.000000249224
 40
0.245773
 40
0.245773
 40
0.245773
 40
0.369594
 40
0.369594
 40
0.369594
 40
0.497853
 40
0.497853
 40
0.497853
 40
0.628428
 40
0.628428
 40
0.628428
 40
0.751745
 40
0.751745
 40
0.751745
 40
1.0
 40
1.0
 40
1.0
 40
1.0
 10
7.9017400000000002
 20
-10.0
 30
0.0
 10
7.9225099999999999
 20
-10.1319999999999997
 30
0.0
 10
7.9426399999999999
 20
-10.2774999999999999
 30
0.0
 10
7.9607700000000001
 20
-10.4587000000000003
 30
0.0
 10
7.9699999999999998
 20
-10.5487000000000002
 30
0.0
 10
7.9783200000000001
 20
-10.6532999999999998
 30
0.0
 10
7.9857399999999998
 20
-10.7725000000000009
 30
0.0
 10
7.9931000000000001
 20
-10.8964999999999996
 30
0.0
 10
7.9996900000000002
 20
-11.0501000000000005
 30
0.0
 10
8.0
 20
-11.2411999999999992
 30
0.0
 10
8.0001200000000008
 20
-11.4366000000000003
 30
0.0
 10
7.9934900000000004
 20
-11.5959000000000003
 30
0.0
 10
7.9860499999999996
 20
-11.7222000000000008
 30
0.0
 10
7.9787100000000004
 20
-11.8414999999999999
 30
0.0
 10
7.9704499999999996
 20
-11.9460999999999995
 30
0.0
 10
7.96129
 20
-12.0360999999999994
 30
0.0
 10
7.9430199999999997
 20
-12.2197999999999993
 30
0.0
 10
7.9226999999999999
 20
-12.3666999999999998
 30
0.0
 10
7.9017400000000002
 20
-12.5
 30
0.0
  0
SPLINE
  5
111
100
AcDbEntity
  8
0
 62
0
370
-1
 48
1.0
  6
BYBLOCK
100
AcDbSpline
 70
8
 71
3
 72
23
 73
19
 74
0
 40
0.000000249348
 40
0.000000249348
 40
0.000000249348
 40
0.000000249348
 40
0.249649
 40
0.249649
 40
0.249649
 40
0.371717
 40
0.371717
 40
0.371717
 40
0.497265
 40
0.497265
 40
0.497265
 40
0.621538
 40
0.621538
 40
0.621538
 40
0.745858
 40
0.745858
 40
0.745858
 40
1.0
 40
1.0
 40
1.0
 40
1.0
 10
-7.9017400000000002
 20
-12.5
 30
0.0
 10
-7.9228199999999998
 20
-12.3659999999999997
 30
0.0
 10
-7.9432600000000004
 20
-12.2180999999999997
 30
0.0
 10
-7.9615999999999998
 20
-12.0328999999999997
 30
0.0
 10
-7.9706599999999996
 20
-11.9436
 30
0.0
 10
-7.9788199999999998
 20
-11.8399000000000001
 30
0.0
 10
-7.9860800000000003
 20
-11.7218
 30
0.0
 10
-7.9932400000000001
 20
-11.5997000000000003
 30
0.0
 10
-7.9996099999999997
 20
-11.4489999999999998
 30
0.0
 10
-7.9999900000000004
 20
-11.2624999999999993
 30
0.0
 10
-7.9993299999999996
 20
-11.0764999999999993
 30
0.0
 10
-7.9950900000000003
 20
-10.9220000000000006
 30
0.0
 10
-7.9872699999999996
 20
-10.7988999999999997
 30
0.0
 10
-7.9800300000000002
 20
-10.6762999999999995
 30
0.0
 10
-7.9718099999999996
 20
-10.5691000000000006
 30
0.0
 10
-7.9626099999999997
 20
-10.4773999999999994
 30
0.0
 10
-7.9440200000000001
 20
-10.2873000000000001
 30
0.0
 10
-7.9232100000000001
 20
-10.1365999999999996
 30
0.0
 10
-7.9017400000000002
 20
-10.0
 30
0.0
  0
SPLINE
  5
112
100
AcDbEntity
  8
0
 62
0
370
-1
 48
1.0
  6
BYBLOCK
100
AcDbSpline
 70
8
 71
3
 72
8
 73
4
 74
0
 40
0.000000133113
 40
0.000000133113
 40
0.000000133113
 40
0.000000133113
 40
1.0
 40
1.0
 40
1.0
 40
1.0
 10
-7.0666500000000001
 20
-15.0
 30
0.0
 10
-6.5337899999999998
 20
-16.0015000000000001
 30
0.0
 10
-5.8258299999999998
 20
-16.8338000000000001
 30
0.0
 10
-4.9937500000000004
 20
-17.5
 30
0.0
  0
SPLINE
  5
113
100
AcDbEntity
  8
0
 62
0
370
-1
 48
1.0
  6
BYBLOCK
100
AcDbSpline
 70
8
 71
3
 72
29
 73
25
 74
0
 40
0.0000000940589
 40
0.0000000940589
 40
0.0000000940589
 40
0.0000000940589
 40
0.249083
 40
0.249083
 40
0.249083
 40
0.378375
 40
0.378375
 40
0.378375
 40
0.441344
 40
0.441344
 40
0.441344
 40
0.498678
 40
0.498678
 40
0.498678
 40
0.562118
 40
0.562118
 40
0.562118
 40
0.625139
 40
0.625139
 40
0.625139
 40
0.755224
 40
0.755224
 40
0.755224
 40
1.0
 40
1.0
 40
1.0
 40
1.0
 10
-4.9937500000000004
 20
-17.5
 30
0.0
 10
-4.54901
 20
-17.8526999999999987
 30
0.0
 10
-4.0389600000000003
 20
-18.1944000000000017
 30
0.0
 10
-3.3528899999999999
 20
-18.5135000000000005
 30
0.0
 10
-2.9927600000000001
 20
-18.6784999999999997
 30
0.0
 10
-2.5882000000000001
 20
-18.8383000000000003
 30
0.0
 10
-2.0588099999999998
 20
-18.9804999999999993
 30
0.0
 10
-1.79924
 20
-19.0492999999999988
 30
0.0
 10
-1.5089600000000001
 20
-19.1142000000000003
 30
0.0
 10
-1.1549400000000001
 20
-19.1661999999999999
 30
0.0
 10
-0.831969
 20
-19.2134999999999998
 30
0.0
 10
-0.435545
 20
-19.2501999999999995
 30
0.0
 10
-0.0000000000000017
 20
-19.25
 30
0.0
 10
0.48202
 20
-19.2500999999999998
 30
0.0
 10
0.908003
 20
-19.2059999999999995
 30
0.0
 10
1.25146
 20
-19.1514999999999986
 30
0.0
 10
1.59205
 20
-19.0973000000000006
 30
0.0
 10
1.87355
 20
-19.031600000000001
 30
0.0
 10
2.1262300000000001
 20
-18.962299999999999
 30
0.0
 10
2.64446
 20
-18.8182000000000009
 30
0.0
 10
3.0436999999999999
 20
-18.6575999999999986
 30
0.0
 10
3.3992900000000001
 20
-18.4919000000000011
 30
0.0
 10
4.0614999999999997
 20
-18.1788999999999987
 30
0.0
 10
4.5592800000000002
 20
-17.8447999999999993
 30
0.0
 10
4.9937500000000004
 20
-17.5
 30
0.0
  0
SPLINE
  5
114
100
AcDbEntity
  8
0
 62
0
370
-1
 48
1.0
  6
BYBLOCK
100
AcDbSpline
 70
8
 71
3
 72
8
 73
4
 74
0
 40
0.000000200309
 40
0.000000200309
 40
0.000000200309
 40
0.000000200309
 40
1.0
 40
1.0
 40
1.0
 40
1.0
 10
4.9937500000000004
 20
-17.5
 30
0.0
 10
5.8258299999999998
 20
-16.8338000000000001
 30
0.0
 10
6.5337899999999998
 20
-16.0015000000000001
 30
0.0
 10
7.0666500000000001
 20
-15.0
 30
0.0
  0
SPLINE
  5
115
100
AcDbEntity
  8
0
 62
0
370
-1
 48
1.0
  6
BYBLOCK
100
AcDbSpline
 70
8
 71
1
 72
17
 73
15
 74
0
 40
3.3512
 40
3.3512
 40
3.44842
 40
3.5456500000000002
 40
3.6428799999999999
 40
3.74011
 40
3.8373400000000002
 40
3.9345599999999998
 40
4.03179
 40
4.1290199999999997
 40
4.2262500000000003
 40
4.32348
 40
4.4207000000000001
 40
4.5179299999999998
 40
4.6151600000000004
 40
4.7123900000000001
 40
4.7123900000000001
 10
4.9937500000000004
 20
-17.5
 30
0.0
 10
7.2489699999999999
 20
-17.5
 30
0.0
 10
9.4357199999999999
 20
-17.5
 30
0.0
 10
11.5333000000000006
 20
-17.5
 30
0.0
 10
13.5220000000000002
 20
-17.5
 30
0.0
 10
15.3829999999999991
 20
-17.5
 30
0.0
 10
17.0986000000000011
 20
-17.5
 30
0.0
 10
18.6526999999999994
 20
-17.5
 30
0.0
 10
20.0306999999999995
 20
-17.5
 30
0.0
 10
21.2194000000000003
 20
-17.5
 30
0.0
 10
22.2076999999999991
 20
-17.5
 30
0.0
 10
22.9863
 20
-17.5
 30
0.0
 10
23.547699999999999
 20
-17.5
 30
0.0
 10
23.8866000000000014
 20
-17.5
 30
0.0
 10
24.0
 20
-17.5
 30
0.0
  0
SPLINE
  5
116
100
AcDbEntity
  8
0
 62
0
370
-1
 48
1.0
  6
BYBLOCK
100
AcDbSpline
 70
8
 71
1
 72
17
 73
15
 74
0
 40
1.5708
 40
1.5708
 40
1.6680200000000001
 40
1.76525
 40
1.8624799999999999
 40
1.9597100000000001
 40
2.05694
 40
2.1541600000000001
 40
2.2513899999999998
 40
2.3486199999999999
 40
2.4458500000000001
 40
2.5430799999999998
 40
2.6402999999999999
 40
2.73753
 40
2.8347600000000002
 40
2.9319899999999999
 40
2.9319899999999999
 10
-24.0
 20
-17.5
 30
0.0
 10
-23.8866000000000014
 20
-17.5
 30
0.0
 10
-23.547699999999999
 20
-17.5
 30
0.0
 10
-22.9863
 20
-17.5
 30
0.0
 10
-22.2076999999999991
 20
-17.5
 30
0.0
 10
-21.2194000000000003
 20
-17.5
 30
0.0
 10
-20.0306999999999995
 20
-17.5
 30
0.0
 10
-18.6526999999999994
 20
-17.5
 30
0.0
 10
-17.0986000000000011
 20
-17.5
 30
0.0
 10
-15.3829999999999991
 20
-17.5
 30
0.0
 10
-13.5220000000000002
 20
-17.5
 30
0.0
 10
-11.5333000000000006
 20
-17.5
 30
0.0
 10
-9.4357199999999999
 20
-17.5
 30
0.0
 10
-7.2489699999999999
 20
-17.5
 30
0.0
 10
-4.9937500000000004
 20
-17.5
 30
0.0
  0
SPLINE
  5
117
100
AcDbEntity
  8
0
 62
0
370
-1
 48
1.0
  6
BYBLOCK
100
AcDbSpline
 70
8
 71
1
 72
17
 73
15
 74
0
 40
1.5708
 40
1.5708
 40
1.68225
 40
1.7937099999999999
 40
1.90516
 40
2.0166200000000001
 40
2.1280700000000001
 40
2.2395299999999998
 40
2.3509899999999999
 40
2.46244
 40
2.5739000000000001
 40
2.6853500000000001
 40
2.7968099999999998
 40
2.9082599999999998
 40
3.01972
 40
3.1311800000000001
 40
3.1311800000000001
 10
-24.0
 20
-20.0
 30
0.0
 10
-23.8510999999999989
 20
-20.0
 30
0.0
 10
-23.4061999999999983
 20
-20.0
 30
0.0
 10
-22.6707999999999998
 20
-20.0
 30
0.0
 10
-21.6540999999999997
 20
-20.0
 30
0.0
 10
-20.3687000000000005
 20
-20.0
 30
0.0
 10
-18.8306000000000004
 20
-20.0
 30
0.0
 10
-17.0587000000000018
 20
-20.0
 30
0.0
 10
-15.0752000000000006
 20
-20.0
 30
0.0
 10
-12.9046000000000003
 20
-20.0
 30
0.0
 10
-10.5738000000000003
 20
-20.0
 30
0.0
 10
-8.1118400000000008
 20
-20.0
 30
0.0
 10
-5.5491999999999999
 20
-20.0
 30
0.0
 10
-2.91771
 20
-20.0
 30
0.0
 10
-0.25
 20
-20.0
 30
0.0
  0
LINE
  5
118
100
AcDbEntity
  8
0
 62
0
370
-1
 48
1.0
  6
BYBLOCK
100
AcDbLine
 10
0.25
 20
-20.0
 30
0.0
 11
-0.25
 21
-20.0
 31
0.0
  0
SPLINE
  5
119
100
AcDbEntity
  8
0
 62
0
370
-1
 48
1.0
  6
BYBLOCK
100
AcDbSpline
 70
8
 71
1
 72
17
 73
15
 74
0
 40
3.1520100000000002
 40
3.1520100000000002
 40
3.2634699999999999
 40
3.3749199999999999
 40
3.48638
 40
3.5978300000000001
 40
3.7092900000000002
 40
3.8207399999999998
 40
3.9321999999999999
 40
4.0436500000000004
 40
4.1551099999999996
 40
4.2665699999999998
 40
4.3780200000000002
 40
4.4894800000000004
 40
4.60093
 40
4.7123900000000001
 40
4.7123900000000001
 10
0.25
 20
-20.0
 30
0.0
 10
2.91771
 20
-20.0
 30
0.0
 10
5.5491999999999999
 20
-20.0
 30
0.0
 10
8.1118400000000008
 20
-20.0
 30
0.0
 10
10.5738000000000003
 20
-20.0
 30
0.0
 10
12.9046000000000003
 20
-20.0
 30
0.0
 10
15.0752000000000006
 20
-20.0
 30
0.0
 10
17.0587000000000018
 20
-20.0
 30
0.0
 10
18.8306000000000004
 20
-20.0
 30
0.0
 10
20.3687000000000005
 20
-20.0
 30
0.0
 10
21.6540999999999997
 20
-20.0
 30
0.0
 10
22.6707999999999998
 20
-20.0
 30
0.0
 10
23.4061999999999983
 20
-20.0
 30
0.0
 10
23.8510999999999989
 20
-20.0
 30
0.0
 10
24.0
 20
-20.0
 30
0.0
  0
SPLINE
  5
11A
100
AcDbEntity
  8
0
 62
0
370
-1
 48
1.0
  6
BYBLOCK
100
AcDbSpline
 70
8
 71
1
 72
17
 73
15
 74
0
 40
1.5708
 40
1.5708
 40
1.68225
 40
1.7937099999999999
 40
1.90516
 40
2.0166200000000001
 40
2.1280700000000001
 40
2.2395299999999998
 40
2.3509899999999999
 40
2.46244
 40
2.5739000000000001
 40
2.6853500000000001
 40
2.7968099999999998
 40
2.9082599999999998
 40
3.01972
 40
3.1311800000000001
 40
3.1311800000000001
 10
-24.0
 20
-22.5
 30
0.0
 10
-23.8510999999999989
 20
-22.5
 30
0.0
 10
-23.4061999999999983
 20
-22.5
 30
0.0
 10
-22.6707999999999998
 20
-22.5
 30
0.0
 10
-21.6540999999999997
 20
-22.5
 30
0.0
 10
-20.3687000000000005
 20
-22.5
 30
0.0
 10
-18.8306000000000004
 20
-22.5
 30
0.0
 10
-17.0587000000000018
 20
-22.5
 30
0.0
 10
-15.0752000000000006
 20
-22.5
 30
0.0
 10
-12.9046000000000003
 20
-22.5
 30
0.0
 10
-10.5738000000000003
 20
-22.5
 30
0.0
 10
-8.1118400000000008
 20
-22.5
 30
0.0
 10
-5.5491999999999999
 20
-22.5
 30
0.0
 10
-2.91771
 20
-22.5
 30
0.0
 10
-0.25
 20
-22.5
 30
0.0
  0
SPLINE
  5
11B
100
AcDbEntity
  8
0
 62
0
370
-1
 48
1.0
  6
BYBLOCK
100
AcDbSpline
 70
8
 71
1
 72
17
 73
15
 74
0
 40
3.1520100000000002
 40
3.1520100000000002
 40
3.2634699999999999
 40
3.3749199999999999
 40
3.48638
 40
3.5978300000000001
 40
3.7092900000000002
 40
3.8207399999999998
 40
3.9321999999999999
 40
4.0436500000000004
 40
4.1551099999999996
 40
4.2665699999999998
 40
4.3780200000000002
 40
4.4894800000000004
 40
4.60093
 40
4.7123900000000001
 40
4.7123900000000001
 10
0.25
 20
-22.5
 30
0.0
 10
2.91771
 20
-22.5
 30
0.0
 10
5.5491999999999999
 20
-22.5
 30
0.0
 10
8.1118400000000008
 20
-22.5
 30
0.0
 10
10.5738000000000003
 20
-22.5
 30
0.0
 10
12.9046000000000003
 20
-22.5
 30
0.0
 10
15.0752000000000006
 20
-22.5
 30
0.0
 10
17.0587000000000018
 20
-22.5
 30
0.0
 10
18.8306000000000004
 20
-22.5
 30
0.0
 10
20.3687000000000005
 20
-22.5
 30
0.0
 10
21.6540999999999997
 20
-22.5
 30
0.0
 10
22.6707999999999998
 20
-22.5
 30
0.0
 10
23.4061999999999983
 20
-22.5
 30
0.0
 10
23.8510999999999989
 20
-22.5
 30
0.0
 10
24.0
 20
-22.5
 30
0.0
  0
LINE
  5
11C
100
AcDbEntity
  8
0
 62
0
370
-1
 48
1.0
  6
BYBLOCK
100
AcDbLine
 10
0.25
 20
-22.5
 30
0.0
 11
-0.25
 21
-22.5
 31
0.0
  0
ENDBLK
  5
11D
100
AcDbEntity
  8
0
100
AcDbBlockEnd
  0
BLOCK
  5
11E
100
AcDbEntity
  8
0
100
AcDbBlockBegin
  2
Ortho0041
 70
0
 10
0.0
 20
0.0
 30
0.0
  3
Ortho0041
  1

  0
ARC
  5
11F
100
AcDbEntity
  8
0
 62
0
370
-1
 48
1.0
  6
BYBLOCK
100
AcDbCircle
 10
0.0
 20
0.0
 30
0.0
 40
24.0
100
AcDbArc
 50
90.1193999999999988
 51
-90.5967999999999876
  0
LINE
  5
120
100
AcDbEntity
  8
0
 62
0
370
-1
 48
1.0
  6
BYBLOCK
100
AcDbLine
 10
-0.05
 20
23.9999000000000002
 30
0.0
 11
0.05
 21
23.9999000000000002
 31
0.0
  0
LINE
  5
121
100
AcDbEntity
  8
0
 62
0
370
-1
 48
1.0
  6
BYBLOCK
100
AcDbLine
 10
0.25
 20
-23.9986999999999995
 30
0.0
 11
-0.25
 21
-23.9986999999999995
 31
0.0
  0
ARC
  5
122
100
AcDbEntity
  8
0
 62
0
370
-1
 48
1.0
  6
BYBLOCK
100
AcDbCircle
 10
0.0
 20
0.0
 30
0.0
 40
24.0
100
AcDbArc
 50
-89.4031999999999982
 51
89.8806000000000012
  0
CIRCLE
  5
123
100
AcDbEntity
  8
0
 62
0
370
-1
 48
1.0
  6
BYBLOCK
100
AcDbCircle
 10
-19.0
 20
-10.0
 30
0.0
 40
1.2
  0
CIRCLE
  5
124
100
AcDbEntity
  8
0
 62
0
370
-1
 48
1.0
  6
BYBLOCK
100
AcDbCircle
 10
19.0
 20
-10.0
 30
0.0
 40
1.2
  0
CIRCLE
  5
125
100
AcDbEntity
  8
0
 62
0
370
-1
 48
1.0
  6
BYBLOCK
100
AcDbCircle
 10
-0.0000000000000009
 20
0.0
 30
0.0
 40
3.2000000000000002
  0
CIRCLE
  5
126
100
AcDbEntity
  8
0
 62
0
370
-1
 48
1.0
  6
BYBLOCK
100
AcDbCircle
 10
19.0
 20
10.0
 30
0.0
 40
1.2
  0
CIRCLE
  5
127
100
AcDbEntity
  8
0
 62
0
370
-1
 48
1.0
  6
BYBLOCK
100
AcDbCircle
 10
-19.0
 20
10.0
 30
0.0
 40
1.2
  0
SPLINE
  5
128
100
AcDbEntity
  8
0
 62
0
370
-1
 48
1.0
  6
BYBLOCK
100
AcDbSpline
 70
8
 71
3
 72
8
 73
4
 74
0
 40
0.000000200309
 40
0.000000200309
 40
0.000000200309
 40
0.000000200309
 40
1.0
 40
1.0
 40
1.0
 40
1.0
 10
-4.9937500000000004
 20
23.4746999999999986
 30
0.0
 10
-5.8258299999999998
 20
23.2978999999999985
 30
0.0
 10
-6.5337899999999998
 20
23.1003000000000007
 30
0.0
 10
-7.0666500000000001
 20
22.9360999999999997
 30
0.0
  0
SPLINE
  5
129
100
AcDbEntity
  8
0
 62
0
370
-1
 48
1.0
  6
BYBLOCK
100
AcDbSpline
 70
8
 71
1
 72
4
 73
2
 74
0
 40
0.000000245024
 40
0.000000245024
 40
0.00400634
 40
0.00400634
 10
-7.9017400000000002
 20
22.6618999999999993
 30
0.0
 10
-7.9027700000000003
 20
22.6616
 30
0.0
  0
SPLINE
  5
12A
100
AcDbEntity
  8
0
 62
0
370
-1
 48
1.0
  6
BYBLOCK
100
AcDbSpline
 70
8
 71
1
 72
4
 73
2
 74
0
 40
0.921392
 40
0.921392
 40
1.0
 40
1.0
 10
-7.9210799999999999
 20
22.6552000000000007
 30
0.0
 10
-7.9017400000000002
 20
22.6618999999999993
 30
0.0
  0
SPLINE
  5
12B
100
AcDbEntity
  8
0
 62
0
370
-1
 48
1.0
  6
BYBLOCK
100
AcDbSpline
 70
8
 71
3
 72
8
 73
4
 74
0
 40
0.0771868
 40
0.0771868
 40
0.0771868
 40
0.0771868
 40
0.499869
 40
0.499869
 40
0.499869
 40
0.499869
 10
7.9210799999999999
 20
-22.6552000000000007
 30
0.0
 10
7.9533300000000002
 20
-22.6438999999999986
 30
0.0
 10
7.9940800000000003
 20
-22.6295000000000002
 30
0.0
 10
8.0
 20
-22.6274000000000015
 30
0.0
  0
SPLINE
  5
12C
100
AcDbEntity
  8
0
 62
0
370
-1
 48
1.0
  6
BYBLOCK
100
AcDbSpline
 70
8
 71
3
 72
8
 73
4
 74
0
 40
0.549882
 40
0.549882
 40
0.549882
 40
0.549882
 40
1.0
 40
1.0
 40
1.0
 40
1.0
 10
7.9972899999999996
 20
-22.6283999999999992
 30
0.0
 10
7.9787999999999997
 20
-22.6348999999999982
 30
0.0
 10
7.9384600000000001
 20
-22.6491000000000007
 30
0.0
 10
7.9017400000000002
 20
-22.6618999999999993
 30
0.0
  0
SPLINE
  5
12D
100
AcDbEntity
  8
0
 62
0
370
-1
 48
1.0
  6
BYBLOCK
100
AcDbSpline
 70
8
 71
3
 72
11
 73
7
 74
0
 40
0.500128
 40
0.500128
 40
0.500128
 40
0.500128
 40
0.745858
 40
0.745858
 40
0.745858
 40
1.0
 40
1.0
 40
1.0
 40
1.0
 10
-8.0
 20
-22.6274000000000015
 30
0.0
 10
-7.9986499999999996
 20
-22.6279000000000003
 30
0.0
 10
-7.9796100000000001
 20
-22.6345999999999989
 30
0.0
 10
-7.9626099999999997
 20
-22.6405999999999992
 30
0.0
 10
-7.9437600000000002
 20
-22.6472000000000016
 30
0.0
 10
-7.92347
 20
-22.6542999999999992
 30
0.0
 10
-7.9017400000000002
 20
-22.6618999999999993
 30
0.0
  0
SPLINE
  5
12E
100
AcDbEntity
  8
0
 62
0
370
-1
 48
1.0
  6
BYBLOCK
100
AcDbSpline
 70
8
 71
3
 72
8
 73
4
 74
0
 40
0.000000133113
 40
0.000000133113
 40
0.000000133113
 40
0.000000133113
 40
1.0
 40
1.0
 40
1.0
 40
1.0
 10
-7.0666500000000001
 20
-22.9360999999999997
 30
0.0
 10
-6.5337899999999998
 20
-23.1003000000000007
 30
0.0
 10
-5.8258299999999998
 20
-23.2978999999999985
 30
0.0
 10
-4.9937500000000004
 20
-23.4746999999999986
 30
0.0
  0
SPLINE
  5
12F
100
AcDbEntity
  8
0
 62
0
370
-1
 48
1.0
  6
BYBLOCK
100
AcDbSpline
 70
8
 71
3
 72
8
 73
4
 74
0
 40
0.000000200309
 40
0.000000200309
 40
0.000000200309
 40
0.000000200309
 40
1.0
 40
1.0
 40
1.0
 40
1.0
 10
4.9937500000000004
 20
-23.4746999999999986
 30
0.0
 10
5.8258299999999998
 20
-23.2978999999999985
 30
0.0
 10
6.5337899999999998
 20
-23.1003000000000007
 30
0.0
 10
7.0666500000000001
 20
-22.9360999999999997
 30
0.0
  0
ENDBLK
  5
130
100
AcDbEntity
  8
0
100
AcDbBlockEnd
  0
ENDSEC
  0
SECTION
  2
ENTITIES
  0
INSERT
  5
131
100
AcDbEntity
  8
0
 62
256
370
-1
 48
1.0
  6
BYLAYER
100
AcDbBlockReference
  2
Ortho1
 10
0.0
 20
0.0
 30
0.0
 50
-90.0000026562999977
  0
INSERT
  5
132
100
AcDbEntity
  8
0
 62
256
370
-1
 48
1.0
  6
BYLAYER
100
AcDbBlockReference
  2
Ortho0021
 10
50.0
 20
0.0
 30
0.0
 50
90.0000026562999977
  0
INSERT
  5
133
100
AcDbEntity
  8
0
 62
256
370
-1
 48
1.0
  6
BYLAYER
100
AcDbBlockReference
  2
Ortho0041
 10
130.6228959297964138
 20
0.0000010431265576
 30
0.0
 50
90.0000026562999977
  0
DIMENSION
  5
134
100
AcDbEntity
  8
dimensions
 62
256
370
-1
 48
1.0
  6
BYLAYER
100
AcDbDimension
 10
49.9999988873316568
 20
28.8825454616390545
 30
0.0
 11
61.2499988873316497
 21
30.7575454616390545
 31
0.0
 70
128
 71
8
 72
2
 41
1.0
 42
0.0
  1

  3
Standard
100
AcDbAlignedDimension
 13
49.9999988873316568
 23
23.9999999999999716
 33
0.0
 14
72.4999988873316568
 24
24.0000010431265238
 34
0.0
 50
0.0
100
AcDbRotatedDimension
1001
ACAD
1000
DSTYLE
1002
{
1070
144
1040
1.0
1070
40
1040
1.0
1002
}
  0
DIMENSION
  5
135
100
AcDbEntity
  8
dimensions
 62
256
370
-1
 48
1.0
  6
BYLAYER
100
AcDbDimension
 10
50.000001112668329
 20
-28.1174545383609455
 30
0.0
 11
55.0694467652426667
 21
-26.2424545383609455
 31
0.0
 70
128
 71
8
 72
2
 41
1.0
 42
0.0
  1

  3
Standard
100
AcDbAlignedDimension
 13
50.000001112668329
 23
-23.9999999999999716
 33
0.0
 14
52.5000011126683432
 24
-23.9999998840970257
 34
0.0
 50
0.0
100
AcDbRotatedDimension
1001
ACAD
1000
DSTYLE
1002
{
1070
144
1040
1.0
1070
40
1040
1.0
1002
}
  0
DIMENSION
  5
136
100
AcDbEntity
  8
dimensions
 62
256
370
-1
 48
1.0
  6
BYLAYER
100
AcDbDimension
 10
67.5000011126683148
 20
-28.1174545383609455
 30
0.0
 11
72.5694467652426454
 21
-26.2424545383609455
 31
0.0
 70
128
 71
8
 72
2
 41
1.0
 42
0.0
  1

  3
Standard
100
AcDbAlignedDimension
 13
67.5000011126683148
 23
-23.9999991886793183
 33
0.0
 14
70.0000011126683148
 24
-23.9999990727763688
 34
0.0
 50
0.0
100
AcDbRotatedDimension
1001
ACAD
1000
DSTYLE
1002
{
1070
144
1040
1.0
1070
40
1040
1.0
1002
}
  0
MTEXT
  5
137
100
AcDbEntity
  8
dimensions
 62
256
370
-1
 48
1.0
  6
BYLAYER
100
AcDbMText
 10
6.8227205761990461
 20
32.2763954820756211
 30
0.0
 40
2.5
 41
0.0
 71
1
 72
1
  1
6x M3
  7
textstyle0
 50
0.0
 73
2
 44
1.0
  0
DIMENSION
  5
138
100
AcDbEntity
  8
dimensions
 62
256
370
-1
 48
1.0
  6
BYLAYER
100
AcDbDimension
 10
144.6228959297964138
 20
0.0000010431265576
 30
0.0
 11
142.7478959297964138
 21
9.5000012749324494
 31
0.0
 70
128
 71
8
 72
2
 41
1.0
 42
0.0
  1

  3
Standard
100
AcDbAlignedDimension
 13
130.6228959297964138
 23
0.0000010431265576
 33
0.0
 14
140.6228950489339979
 24
19.000001506738343
 34
0.0
 50
90.0
100
AcDbRotatedDimension
1001
ACAD
1000
DSTYLE
1002
{
1070
144
1040
1.0
1070
40
1040
1.0
1002
}
  0
DIMENSION
  5
139
100
AcDbEntity
  8
dimensions
 62
256
370
-1
 48
1.0
  6
BYLAYER
100
AcDbDimension
 10
130.6228959297964138
 20
27.0000010431265594
 30
0.0
 11
135.6228954893651917
 21
28.8750010431265594
 31
0.0
 70
128
 71
8
 72
2
 41
1.0
 42
0.0
  1

  3
Standard
100
AcDbAlignedDimension
 13
130.6228959297964138
 23
0.0000010431265576
 33
0.0
 14
140.6228950489339979
 24
19.000001506738343
 34
0.0
 50
0.0
100
AcDbRotatedDimension
1001
ACAD
1000
DSTYLE
1002
{
1070
144
1040
1.0
1070
40
1040
1.0
1002
}
  0
LEADER
  5
13A
100
AcDbEntity
  8
dimensions
 62
256
370
-1
 48
1.0
  6
BYLAYER
100
AcDbLeader
  3
Standard
 71
1
 72
0
 73
3
 74
0
 75
0
 40
1.0
 41
10.0
 76
4
 10
140.6228950489339979
 20
20.2000015067383423
 10
144.6228959297964138
 20
25.0000010431265594
 10
154.6228959297964138
 20
25.0000010431265594
 10
154.6228959297964138
 20
25.0000010431265594
  0
MTEXT
  5
13B
100
AcDbEntity
  8
dimensions
 62
256
370
-1
 48
1.0
  6
BYLAYER
100
AcDbMText
 10
144.6228959297964138
 20
28.0000010431265594
 30
0.0
 40
2.5
 41
0.0
 71
1
 72
1
  1
4x M3
  7
textstyle1
 50
0.0
 73
2
 44
1.0
  0
DIMENSION
  5
13C
100
AcDbEntity
  8
dimensions
 62
256
370
-1
 48
1.0
  6
BYLAYER
100
AcDbDimension
 10
77.5662512590126596
 20
24.0000009272235886
 30
0.0
 11
75.6912512590126596
 21
22.000000927223585
 31
0.0
 70
128
 71
8
 72
2
 41
1.0
 42
0.0
  1

  3
Standard
100
AcDbAlignedDimension
 13
69.9999988873316283
 23
24.0000009272235886
 33
0.0
 14
69.9999990727763759
 24
20.000000927223585
 34
0.0
 50
90.0
100
AcDbRotatedDimension
1001
ACAD
1000
DSTYLE
1002
{
1070
144
1040
1.0
1070
40
1040
1.0
1002
}
  0
LEADER
  5
13D
100
AcDbEntity
  8
dimensions
 62
256
370
-1
 48
1.0
  6
BYLAYER
100
AcDbLeader
  3
Standard
 71
1
 72
0
 73
3
 74
0
 75
0
 40
1.0
 41
10.0
 76
4
 10
0.0000009967653905
 20
22.6999999999999744
 10
7.0
 20
29.0
 10
17.0
 20
29.0
 10
17.0
 20
29.0
  0
CIRCLE
  5
13E
100
AcDbEntity
  8
axes
 62
256
370
-1
 48
1.0
  6
BYLAYER
100
AcDbCircle
 10
-0.0000000000000163
 20
-0.0000000000000034
 30
0.0
 40
21.5
  0
DIMENSION
  5
13F
100
AcDbEntity
  8
dimensions
 62
256
370
-1
 48
1.0
  6
BYLAYER
100
AcDbDimension
 10
80.6228959297964138
 20
24.0000010431265238
 30
0.0
 11
78.7478959297964138
 21
0.0000010431265598
 31
0.0
 70
128
 71
8
 72
2
 41
1.0
 42
0.0
  1
\U+00f8<>
  3
Standard
100
AcDbAlignedDimension
 13
72.4999988873316568
 23
24.0000010431265238
 33
0.0
 14
72.5000011126683148
 24
-23.9999989568734016
 34
0.0
 50
90.0
100
AcDbRotatedDimension
1001
ACAD
1000
DSTYLE
1002
{
1070
144
1040
1.0
1070
40
1040
1.0
1002
}
  0
LEADER
  5
140
100
AcDbEntity
  8
dimensions
 62
256
370
-1
 48
1.0
  6
BYLAYER
100
AcDbLeader
  3
Standard
 71
1
 72
0
 73
3
 74
0
 75
0
 40
1.0
 41
10.0
 76
3
 10
-8.0
 20
20.0
 10
-13.0
 20
25.0
 10
-24.0
 20
25.0
  0
TEXT
  5
141
100
AcDbEntity
  8
dimensions
 62
256
370
-1
 48
1.0
  6
BYLAYER
100
AcDbText
 10
0.0
 20
0.0
 30
0.0
 40
2.5
  1
\U+00d8 43
 50
0.0
 41
1.0
  7
textstyle2
 71
0
 72
1
 11
-19.0
 21
26.0
 31
0.0
100
AcDbText
 73
0
  0
LINE
  5
142
100
AcDbEntity
  8
dimensions
 62
256
370
-1
 48
1.0
  6
BYLAYER
100
AcDbLine
 10
-26.0
 20
0.0
 30
0.0
 11
-34.0
 21
0.0
 31
0.0
  0
LINE
  5
143
100
AcDbEntity
  8
dimensions
 62
256
370
-1
 48
1.0
  6
BYLAYER
100
AcDbLine
 10
26.0
 20
0.0
 30
0.0
 11
33.0
 21
0.0
 31
0.0
  0
MTEXT
  5
144
100
AcDbEntity
  8
dimensions
 62
256
370
-1
 48
1.0
  6
BYLAYER
100
AcDbMText
 10
-34.0
 20
-1.0
 30
0.0
 40
2.5
 41
0.0
 71
1
 72
1
  1
A
  7
textstyle3
 50
0.0
 73
2
 44
1.0
  0
MTEXT
  5
145
100
AcDbEntity
  8
dimensions
 62
256
370
-1
 48
1.0
  6
BYLAYER
100
AcDbMText
 10
32.0
 20
-1.0
 30
0.0
 40
2.5
 41
0.0
 71
1
 72
1
  1
A
  7
textstyle4
 50
0.0
 73
2
 44
1.0
  0
INSERT
  5
146
100
AcDbEntity
  8
0
 62
256
370
-1
 48
1.0
  6
BYLAYER
100
AcDbBlockReference
  2
blok 1
 10
-20.5000002607816185
 20
68.249998887331671
 30
0.0
  0
DIMENSION
  5
147
100
AcDbEntity
  8
dimensions
 62
256
370
-1
 48
1.0
  6
BYLAYER
100
AcDbDimension
 10
-23.25
 20
61.0000011126683432
 30
0.0
 11
-25.125
 21
56.9760547855120265
 31
0.0
 70
0
 71
8
 72
2
 41
1.0
 42
0.0
  1
M8
  3
Standard
100
AcDbAlignedDimension
 13
-19.5000006321347463
 23
61.0000011126683432
 33
0.0
 14
-19.5000006321347499
 24
52.9521084583557098
 34
0.0
 50
90.0
100
AcDbRotatedDimension
1001
ACAD
1000
DSTYLE
1002
{
1070
144
1040
1.0
1070
40
1040
1.0
1002
}
  0
DIMENSION
  5
148
100
AcDbEntity
  8
dimensions
 62
256
370
-1
 48
1.0
  6
BYLAYER
100
AcDbDimension
 10
25.0
 20
62.0000011126683432
 30
0.0
 11
23.125
 21
57.0000011126683432
 31
0.0
 70
0
 71
8
 72
2
 41
1.0
 42
0.0
  1
M<>
  3
Standard
100
AcDbAlignedDimension
 13
19.4999997392183815
 23
62.0000011126683432
 33
0.0
 14
19.4999997392183815
 24
52.0000011126683432
 34
0.0
 50
90.0
100
AcDbRotatedDimension
1001
ACAD
1000
DSTYLE
1002
{
1070
144
1040
1.0
1070
40
1040
1.0
1002
}
  0
DIMENSION
  5
149
100
AcDbEntity
  8
dimensions
 62
256
370
-1
 48
1.0
  6
BYLAYER
100
AcDbDimension
 10
-28.25
 20
68.249998887331671
 30
0.0
 11
-30.125
 21
58.999998887331671
 31
0.0
 70
0
 71
8
 72
2
 41
1.0
 42
0.0
  1

  3
Standard
100
AcDbAlignedDimension
 13
-24.0000005215632406
 23
68.249998887331671
 33
0.0
 14
-16.9999999999999964
 24
49.749998887331671
 34
0.0
 50
90.0
100
AcDbRotatedDimension
1001
ACAD
1000
DSTYLE
1002
{
1070
144
1040
1.0
1070
40
1040
1.0
1002
}
  0
MTEXT
  5
14A
100
AcDbEntity
  8
dimensions
 62
256
370
-1
 48
1.0
  6
BYLAYER
100
AcDbMText
 10
-20.0
 20
40.0
 30
0.0
 40
2.5
 41
0.0
 71
1
 72
1
  1
A-A
  7
textstyle5
 50
0.0
 73
2
 44
1.0
  0
DIMENSION
  5
14B
100
AcDbEntity
  8
dimensions
 62
256
370
-1
 48
1.0
  6
BYLAYER
100
AcDbDimension
 10
30.678764931592525
 20
64.9999989105122609
 30
0.0
 11
28.803764931592525
 21
56.9999989105122751
 31
0.0
 70
0
 71
8
 72
2
 41
1.0
 42
0.0
  1
\U+00f8<>
  3
Standard
100
AcDbAlignedDimension
 13
19.9999996291106328
 23
64.9999989105122609
 33
0.0
 14
20.0000003708895022
 24
48.9999989105122893
 34
0.0
 50
90.0
100
AcDbRotatedDimension
1001
ACAD
1000
DSTYLE
1002
{
1070
144
1040
1.0
1070
40
1040
1.0
1002
}
  0
DIMENSION
  5
14C
100
AcDbEntity
  8
dimensions
 62
256
370
-1
 48
1.0
  6
BYLAYER
100
AcDbDimension
 10
19.4999997392183815
 20
41.2030529129445569
 30
0.0
 11
21.7500001303908164
 21
43.0780529129445569
 31
0.0
 70
0
 71
8
 72
2
 41
1.0
 42
0.0
  1

  3
Standard
100
AcDbAlignedDimension
 13
19.4999997392183815
 23
48.999998887331671
 33
0.0
 14
24.0000005215632513
 24
45.7500011126683432
 34
0.0
 50
0.0
100
AcDbRotatedDimension
1001
ACAD
1000
DSTYLE
1002
{
1070
144
1040
1.0
1070
40
1040
1.0
1002
}
  0
DIMENSION
  5
14D
100
AcDbEntity
  8
dimensions
 62
256
370
-1
 48
1.0
  6
BYLAYER
100
AcDbDimension
 10
-17.0
 20
63.8086447438004072
 30
0.0
 11
4.0
 21
66.0
 31
0.0
 70
128
 71
8
 72
2
 41
1.0
 42
0.0
  1
\U+00f8<>
  3
Standard
100
AcDbAlignedDimension
 13
-17.0
 23
68.249998887331671
 33
0.0
 14
17.0
 24
68.2500011126683148
 34
0.0
 50
0.0
100
AcDbRotatedDimension
1001
ACAD
1000
DSTYLE
1002
{
1070
144
1040
1.0
1070
40
1040
1.0
1002
}
  0
LINE
  5
14E
100
AcDbEntity
  8
axes
 62
256
370
-1
 48
1.0
  6
BYLAYER
100
AcDbLine
 10
20.3515849143297167
 20
11.7500209138037821
 30
0.0
 11
16.8874853544211767
 21
9.7500173540465891
 31
0.0
  0
LINE
  5
14F
100
AcDbEntity
  8
axes
 62
256
370
-1
 48
1.0
  6
BYLAYER
100
AcDbLine
 10
20.3515491888366533
 20
-11.7500028037217561
 30
0.0
 11
16.8874498143979146
 21
-9.7499989227222343
 31
0.0
  0
LINE
  5
150
100
AcDbEntity
  8
axes
 62
256
370
-1
 48
1.0
  6
BYLAYER
100
AcDbLine
 10
-0.0000000000000169
 20
-23.5000000000000036
 30
0.0
 11
-0.0000000000000157
 21
-19.5000000000000036
 31
0.0
  0
LINE
  5
151
100
AcDbEntity
  8
axes
 62
256
370
-1
 48
1.0
  6
BYLAYER
100
AcDbLine
 10
-20.3515502783245807
 20
-11.7500009166779886
 30
0.0
 11
-16.8874507184407747
 21
-9.7499973568779534
 31
0.0
  0
LINE
  5
152
100
AcDbEntity
  8
axes
 62
256
370
-1
 48
1.0
  6
BYLAYER
100
AcDbLine
 10
-20.3515491888366604
 20
11.7500028037217437
 30
0.0
 11
-16.8874498143979217
 21
9.7499989227222219
 31
0.0
  0
LINE
  5
153
100
AcDbEntity
  8
axes
 62
256
370
-1
 48
1.0
  6
BYLAYER
100
AcDbLine
 10
0.0000000000000021
 20
23.4999999999999964
 30
0.0
 11
-0.0000000000000021
 21
19.4999999999999964
 31
0.0
  0
LINE
  5
154
100
AcDbEntity
  8
axes
 62
256
370
-1
 48
1.0
  6
BYLAYER
100
AcDbLine
 10
0.0
 20
6.0
 30
0.0
 11
0.0
 21
-6.0
 31
0.0
  0
LINE
  5
155
100
AcDbEntity
  8
axes
 62
256
370
-1
 48
1.0
  6
BYLAYER
100
AcDbLine
 10
-6.0
 20
0.0
 30
0.0
 11
6.0
 21
0.0
 31
0.0
  0
LINE
  5
156
100
AcDbEntity
  8
axes
 62
256
370
-1
 48
1.0
  6
BYLAYER
100
AcDbLine
 10
51.0
 20
0.0
 30
0.0
 11
72.0
 21
0.0
 31
0.0
  0
LINE
  5
157
100
AcDbEntity
  8
axes
 62
256
370
-1
 48
1.0
  6
BYLAYER
100
AcDbLine
 10
61.2499999999999858
 20
-9.9999994784367203
 30
0.0
 11
61.2499999999999858
 21
10.0000005215632797
 31
0.0
  0
LINE
  5
158
100
AcDbEntity
  8
axes
 62
256
370
-1
 48
1.0
  6
BYLAYER
100
AcDbLine
 10
140.6228950489339979
 20
16.500001506738343
 30
0.0
 11
140.6228950489339979
 21
21.500001506738343
 31
0.0
  0
LINE
  5
159
100
AcDbEntity
  8
axes
 62
256
370
-1
 48
1.0
  6
BYLAYER
100
AcDbLine
 10
143.1228950489339979
 20
19.000001506738343
 30
0.0
 11
138.1228950489339979
 21
19.000001506738343
 31
0.0
  0
LINE
  5
15A
100
AcDbEntity
  8
axes
 62
256
370
-1
 48
1.0
  6
BYLAYER
100
AcDbLine
 10
143.1228968106588297
 20
-18.9999984932616144
 30
0.0
 11
138.1228968106588297
 21
-18.9999984932616144
 31
0.0
  0
LINE
  5
15B
100
AcDbEntity
  8
axes
 62
256
370
-1
 48
1.0
  6
BYLAYER
100
AcDbLine
 10
123.1228968106588724
 20
-18.9999994204852314
 30
0.0
 11
118.1228968106588724
 21
-18.9999994204852314
 31
0.0
  0
LINE
  5
15C
100
AcDbEntity
  8
axes
 62
256
370
-1
 48
1.0
  6
BYLAYER
100
AcDbLine
 10
123.1228950489339837
 20
19.0000005795147295
 30
0.0
 11
118.1228950489339837
 21
19.0000005795147295
 31
0.0
  0
LINE
  5
15D
100
AcDbEntity
  8
axes
 62
256
370
-1
 48
1.0
  6
BYLAYER
100
AcDbLine
 10
120.6228950489339837
 20
21.5000005795147295
 30
0.0
 11
120.6228950489339837
 21
16.5000005795147295
 31
0.0
  0
LINE
  5
15E
100
AcDbEntity
  8
axes
 62
256
370
-1
 48
1.0
  6
BYLAYER
100
AcDbLine
 10
120.6228968106588724
 20
-16.4999994204852314
 30
0.0
 11
120.6228968106588724
 21
-21.4999994204852314
 31
0.0
  0
LINE
  5
15F
100
AcDbEntity
  8
axes
 62
256
370
-1
 48
1.0
  6
BYLAYER
100
AcDbLine
 10
140.6228968106588297
 20
-16.4999984932616144
 30
0.0
 11
140.6228968106588297
 21
-21.4999984932616144
 31
0.0
  0
LINE
  5
160
100
AcDbEntity
  8
axes
 62
256
370
-1
 48
1.0
  6
BYLAYER
100
AcDbLine
 10
130.6228959297964138
 20
-5.9999989568734424
 30
0.0
 11
130.6228959297964138
 21
6.0000010431265576
 31
0.0
  0
LINE
  5
161
100
AcDbEntity
  8
axes
 62
256
370
-1
 48
1.0
  6
BYLAYER
100
AcDbLine
 10
136.6228959297964138
 20
0.0000010431265568
 30
0.0
 11
124.6228959297964138
 21
0.0000010431265583
 31
0.0
  0
LINE
  5
162
100
AcDbEntity
  8
axes
 62
256
370
-1
 48
1.0
  6
BYLAYER
100
AcDbLine
 10
10.4999995595687725
 20
-11.5000004867923877
 30
0.0
 11
10.4999995595687725
 21
-7.5000004867923877
 31
0.0
  0
LINE
  5
163
100
AcDbEntity
  8
axes
 62
256
370
-1
 48
1.0
  6
BYLAYER
100
AcDbLine
 10
-5.4999998609164527
 20
1.0000002549864901
 30
0.0
 11
-5.4999998609164527
 21
5.0000002549864906
 31
0.0
  0
LINE
  5
164
100
AcDbEntity
  8
axes
 62
256
370
-1
 48
1.0
  6
BYLAYER
100
AcDbLine
 10
12.4999995595687725
 20
-9.5000004867923877
 30
0.0
 11
8.4999995595687725
 21
-9.5000004867923877
 31
0.0
  0
LINE
  5
165
100
AcDbEntity
  8
axes
 62
256
370
-1
 48
1.0
  6
BYLAYER
100
AcDbLine
 10
-3.4999998609164527
 20
3.0000002549864901
 30
0.0
 11
-7.4999998609164527
 21
3.000000254986491
 31
0.0
  0
DIMENSION
  5
166
100
AcDbEntity
  8
dimensions
 62
256
370
-1
 48
1.0
  6
BYLAYER
100
AcDbDimension
 10
0.0
 20
-7.25
 30
0.0
 11
5.2499997797843863
 21
-5.375
 31
0.0
 70
0
 71
8
 72
2
 41
1.0
 42
0.0
  1

  3
Standard
100
AcDbAlignedDimension
 13
0.0
 23
-6.0
 33
0.0
 14
10.4999995595687725
 24
-7.5000004867923877
 34
0.0
 50
0.0
100
AcDbRotatedDimension
1001
ACAD
1000
DSTYLE
1002
{
1070
144
1040
1.0
1070
40
1040
1.0
1002
}
  0
DIMENSION
  5
167
100
AcDbEntity
  8
dimensions
 62
256
370
-1
 48
1.0
  6
BYLAYER
100
AcDbDimension
 10
-5.4999998609164527
 20
7.0
 30
0.0
 11
-2.7499999304582263
 21
8.875
 31
0.0
 70
0
 71
8
 72
2
 41
1.0
 42
0.0
  1

  3
Standard
100
AcDbAlignedDimension
 13
-5.4999998609164527
 23
5.0000002549864906
 33
0.0
 14
0.0
 24
6.0
 34
0.0
 50
0.0
100
AcDbRotatedDimension
1001
ACAD
1000
DSTYLE
1002
{
1070
144
1040
1.0
1070
40
1040
1.0
1002
}
  0
DIMENSION
  5
168
100
AcDbEntity
  8
dimensions
 62
256
370
-1
 48
1.0
  6
BYLAYER
100
AcDbDimension
 10
13.0
 20
0.0
 30
0.0
 11
11.0
 21
-3.0
 31
0.0
 70
128
 71
8
 72
2
 41
1.0
 42
0.0
  1

  3
Standard
100
AcDbAlignedDimension
 13
6.0
 23
0.0
 33
0.0
 14
11.9999995595687725
 24
-9.5000004867923877
 34
0.0
 50
90.0
100
AcDbRotatedDimension
1001
ACAD
1000
DSTYLE
1002
{
1070
144
1040
1.0
1070
40
1040
1.0
1002
}
  0
DIMENSION
  5
169
100
AcDbEntity
  8
dimensions
 62
256
370
-1
 48
1.0
  6
BYLAYER
100
AcDbDimension
 10
-9.7234517280079444
 20
3.000000254986491
 30
0.0
 11
-12.0
 21
-2.0
 31
0.0
 70
128
 71
8
 72
2
 41
1.0
 42
0.0
  1

  3
Standard
100
AcDbAlignedDimension
 13
-7.4999998609164527
 23
3.000000254986491
 33
0.0
 14
-6.0
 24
0.0
 34
0.0
 50
90.0
100
AcDbRotatedDimension
1001
ACAD
1000
DSTYLE
1002
{
1070
144
1040
1.0
1070
40
1040
1.0
1002
}
  0
LEADER
  5
16A
100
AcDbEntity
  8
dimensions
 62
256
370
-1
 48
1.0
  6
BYLAYER
100
AcDbLeader
  3
Standard
 71
1
 72
0
 73
3
 74
0
 75
0
 40
1.0
 41
10.0
 76
3
 10
8.9999995595687725
 20
-9.5000004867923877
 10
4.0
 20
-12.0
 10
-7.0
 20
-12.0
  0
MTEXT
  5
16B
100
AcDbEntity
  8
dimensions
 62
256
370
-1
 48
1.0
  6
BYLAYER
100
AcDbMText
 10
-6.0
 20
-9.0
 30
0.0
 40
2.5
 41
0.0
 71
1
 72
1
  1
2x M3
  7
textstyle6
 50
0.0
 73
2
 44
1.0
  0
DIMENSION
  5
16C
100
AcDbEntity
  8
dimensions
 62
256
370
-1
 48
1.0
  6
BYLAYER
100
AcDbDimension
 10
18.0000000927223027
 20
69.9814577388708869
 30
0.0
 11
21.7916664058850493
 21
71.8564577388708869
 31
0.0
 70
0
 71
8
 72
2
 41
1.0
 42
0.0
  1

  3
Standard
100
AcDbAlignedDimension
 13
18.0000000927223027
 23
68.2500011126683148
 33
0.0
 14
19.4999997392183815
 24
68.2500011126683148
 34
0.0
 50
0.0
100
AcDbRotatedDimension
1001
ACAD
1000
DSTYLE
1002
{
1070
144
1040
1.0
1070
40
1040
1.0
1002
}
  0
DIMENSION
  5
16D
100
AcDbEntity
  8
dimensions
 62
256
370
-1
 48
1.0
  6
BYLAYER
100
AcDbDimension
 10
28.4528222244226505
 20
68.2500011126683148
 30
0.0
 11
27.0
 21
72.0
 31
0.0
 70
128
 71
8
 72
2
 41
1.0
 42
0.0
  1

  3
Standard
100
AcDbAlignedDimension
 13
19.4999997392183815
 23
68.2500011126683148
 33
0.0
 14
19.4999997392183815
 24
67.249998887331671
 34
0.0
 50
90.0
100
AcDbRotatedDimension
1001
ACAD
1000
DSTYLE
1002
{
1070
144
1040
1.0
1070
40
1040
1.0
1002
}
  0
LINE
  5
16E
100
AcDbEntity
  8
invisible
 62
256
370
-1
 48
1.0
  6
BYLAYER
100
AcDbLine
 10
69.999998948954925
 20
22.6708009272235884
 30
0.0
 11
72.4999989489549392
 21
22.6708010431265343
 31
0.0
  0
LINE
  5
16F
100
AcDbEntity
  8
invisible
 62
256
370
-1
 48
1.0
  6
BYLAYER
100
AcDbLine
 10
69.9999990556829914
 20
20.300000000000388
 30
0.0
 11
72.4999990588680703
 21
20.3000001159033374
 31
0.0
  0
LINE
  5
170
100
AcDbEntity
  8
invisible
 62
256
370
-1
 48
1.0
  6
BYLAYER
100
AcDbLine
 10
72.5
 20
-20.300000000000388
 30
0.0
 11
70.0000009411319866
 21
-20.3000001159032912
 31
0.0
  0
LINE
  5
171
100
AcDbEntity
  8
invisible
 62
256
370
-1
 48
1.0
  6
BYLAYER
100
AcDbLine
 10
70.0000009411320008
 20
-22.6999999999995623
 30
0.0
 11
72.5000010523988294
 21
-22.7000000046360668
 31
0.0
  0
DIMENSION
  5
172
100
AcDbEntity
  8
dimensions
 62
256
370
-1
 48
1.0
  6
BYLAYER
100
AcDbDimension
 10
-3.999999814555327
 20
38.0151435085822627
 30
0.0
 11
0.0000001854446731
 21
39.8901435085822627
 31
0.0
 70
0
 71
8
 72
2
 41
1.0
 42
0.0
  1
M<>
  3
Standard
100
AcDbAlignedDimension
 13
-3.999999814555327
 23
45.75
 33
0.0
 14
4.000000185444673
 24
45.75
 34
0.0
 50
0.0
100
AcDbRotatedDimension
1001
ACAD
1000
DSTYLE
1002
{
1070
144
1040
1.0
1070
40
1040
1.0
1002
}
  0
LEADER
  5
173
100
AcDbEntity
  8
dimensions
 62
256
370
-1
 48
1.0
  6
BYLAYER
100
AcDbLeader
  3
Standard
 71
1
 72
0
 73
3
 74
0
 75
0
 40
1.0
 41
10.0
 76
2
 10
-30.0
 20
0.0
 10
-30.0
 20
-6.0
  0
LEADER
  5
174
100
AcDbEntity
  8
dimensions
 62
256
370
-1
 48
1.0
  6
BYLAYER
100
AcDbLeader
  3
Standard
 71
1
 72
0
 73
3
 74
0
 75
0
 40
1.0
 41
10.0
 76
2
 10
30.0
 20
0.0
 10
30.0
 20
-6.0
  0
DIMENSION
  5
175
100
AcDbEntity
  8
dimensions
 62
256
370
-1
 48
1.0
  6
BYLAYER
100
AcDbDimension
 10
17.0
 20
74.25
 30
0.0
 11
17.5000000463611514
 21
76.125
 31
0.0
 70
0
 71
8
 72
2
 41
1.0
 42
0.0
  1

  3
Standard
100
AcDbAlignedDimension
 13
17.0
 23
68.2500011126683148
 33
0.0
 14
18.0000000927223027
 24
68.2500011126683148
 34
0.0
 50
0.0
100
AcDbRotatedDimension
1001
ACAD
1000
DSTYLE
1002
{
1070
144
1040
1.0
1070
40
1040
1.0
1002
}
  0
ENDSEC
  0
SECTION
  2
OBJECTS
  0
DICTIONARY
  5
C
100
AcDbDictionary
280
0
281
1
  3
ACAD_GROUP
350
D
  3
ACAD_LAYOUT
350
1A
  3
ACAD_MLINESTYLE
350
17
  3
ACAD_PLOTSETTINGS
350
19
  3
ACAD_PLOTSTYLENAME
350
E
  3
AcDbVariableDictionary
350
176
  3
QCAD_OBJECTS
350
177
  0
DICTIONARY
  5
D
100
AcDbDictionary
280
0
281
1
  0
ACDBDICTIONARYWDFLT
  5
E
100
AcDbDictionary
281
1
  3
Normal
350
F
100
AcDbDictionaryWithDefault
340
F
  0
ACDBPLACEHOLDER
  5
F
  0
DICTIONARY
  5
17
100
AcDbDictionary
280
0
281
1
  3
Standard
350
18
  0
MLINESTYLE
  5
18
100
AcDbMlineStyle
  2
STANDARD
 70
0
  3

 62
256
 51
90.0
 52
90.0
 71
2
 49
0.5
 62
256
  6
BYLAYER
 49
-0.5
 62
256
  6
BYLAYER
  0
DICTIONARY
  5
19
100
AcDbDictionary
280
0
281
1
  0
DICTIONARY
  5
1A
100
AcDbDictionary
281
1
  3
Layout1
350
1E
  3
Layout2
350
26
  3
Model
350
22
  0
LAYOUT
  5
1E
100
AcDbPlotSettings
  1

  2
none_device
  4

  6

 40
0.0
 41
0.0
 42
0.0
 43
0.0
 44
0.0
 45
0.0
 46
0.0
 47
0.0
 48
0.0
 49
0.0
140
0.0
141
0.0
142
1.0
143
1.0
 70
688
 72
0
 73
0
 74
5
  7

 75
16
147
1.0
148
0.0
149
0.0
100
AcDbLayout
  1
Layout1
 70
1
 71
1
 10
0.0
 20
0.0
 11
420.0
 21
297.0
 12
0.0
 22
0.0
 32
0.0
 14
100000000000000000000.0
 24
100000000000000000000.0
 34
100000000000000000000.0
 15
-100000000000000000000.0
 25
-100000000000000000000.0
 35
-100000000000000000000.0
146
0.0
 13
0.0
 23
0.0
 33
0.0
 16
1.0
 26
0.0
 36
0.0
 17
0.0
 27
1.0
 37
0.0
 76
0
330
1B
  0
LAYOUT
  5
22
100
AcDbPlotSettings
  1

  2
none_device
  4

  6

 40
0.0
 41
0.0
 42
0.0
 43
0.0
 44
0.0
 45
0.0
 46
0.0
 47
0.0
 48
0.0
 49
0.0
140
0.0
141
0.0
142
1.0
143
1.0
 70
1712
 72
0
 73
0
 74
0
  7

 75
0
147
1.0
148
0.0
149
0.0
100
AcDbLayout
  1
Model
 70
1
 71
0
 10
0.0
 20
0.0
 11
12.0
 21
9.0
 12
0.0
 22
0.0
 32
0.0
 14
0.0
 24
0.0
 34
0.0
 15
0.0
 25
0.0
 35
0.0
146
0.0
 13
0.0
 23
0.0
 33
0.0
 16
1.0
 26
0.0
 36
0.0
 17
0.0
 27
1.0
 37
0.0
 76
0
330
1F
  0
LAYOUT
  5
26
100
AcDbPlotSettings
  1

  2
none_device
  4

  6

 40
0.0
 41
0.0
 42
0.0
 43
0.0
 44
0.0
 45
0.0
 46
0.0
 47
0.0
 48
0.0
 49
0.0
140
0.0
141
0.0
142
1.0
143
1.0
 70
688
 72
0
 73
0
 74
5
  7

 75
16
147
1.0
148
0.0
149
0.0
100
AcDbLayout
  1
Layout2
 70
1
 71
2
 10
0.0
 20
0.0
 11
12.0
 21
9.0
 12
0.0
 22
0.0
 32
0.0
 14
0.0
 24
0.0
 34
0.0
 15
0.0
 25
0.0
 35
0.0
146
0.0
 13
0.0
 23
0.0
 33
0.0
 16
1.0
 26
0.0
 36
0.0
 17
0.0
 27
1.0
 37
0.0
 76
0
330
23
  0
DICTIONARY
  5
176
100
AcDbDictionary
281
1
  3
DIMASSOC
350
179
  3
HIDETEXT
350
178
  0
DICTIONARYVAR
  5
178
100
DictionaryVariables
280
0
  1
2
  0
DICTIONARYVAR
  5
179
100
DictionaryVariables
280
0
  1
1
  0
DICTIONARY
  5
177
100
AcDbDictionary
281
1
  3
ColorSettings/BackgroundColor
350
17A
  3
ColorSettings/ColorMode
350
17B
  3
Grid/DisplayGrid00
350
17C
  3
Grid/DisplayGrid01
350
17D
  3
Grid/DisplayGrid02
350
17E
  3
Grid/DisplayGrid03
350
17F
  3
Grid/GridSpacingX00
350
180
  3
Grid/GridSpacingX01
350
181
  3
Grid/GridSpacingX02
350
182
  3
Grid/GridSpacingX03
350
183
  3
Grid/GridSpacingY00
350
184
  3
Grid/GridSpacingY01
350
185
  3
Grid/GridSpacingY02
350
186
  3
Grid/GridSpacingY03
350
187
  3
Grid/IsometricGrid00
350
188
  3
Grid/IsometricGrid01
350
189
  3
Grid/IsometricGrid02
350
18A
  3
Grid/IsometricGrid03
350
18B
  3
Grid/IsometricProjection00
350
18C
  3
Grid/IsometricProjection01
350
18D
  3
Grid/IsometricProjection02
350
18E
  3
Grid/IsometricProjection03
350
18F
  3
Grid/MetaGridSpacingX00
350
190
  3
Grid/MetaGridSpacingX01
350
191
  3
Grid/MetaGridSpacingX02
350
192
  3
Grid/MetaGridSpacingX03
350
193
  3
Grid/MetaGridSpacingY00
350
194
  3
Grid/MetaGridSpacingY01
350
195
  3
Grid/MetaGridSpacingY02
350
196
  3
Grid/MetaGridSpacingY03
350
197
  3
MultiPageSettings/Columns
350
198
  3
MultiPageSettings/GlueMarginsBottom
350
199
  3
MultiPageSettings/GlueMarginsLeft
350
19A
  3
MultiPageSettings/GlueMarginsRight
350
19B
  3
MultiPageSettings/GlueMarginsTop
350
19C
  3
MultiPageSettings/PrintCropMarks
350
19D
  3
MultiPageSettings/Rows
350
19E
  3
PageSettings/OffsetX
350
19F
  3
PageSettings/OffsetY
350
1A0
  3
PageSettings/PageOrientation
350
1A1
  3
PageSettings/PaperHeight
350
1A2
  3
PageSettings/PaperWidth
350
1A3
  3
PageSettings/Scale
350
1A4
  3
PageSettings/ShowPaperBorders
350
1A5
  3
QCADVersion
350
1A6
  3
UnitSettings/PaperUnit
350
1A7
  3
ViewportCenter
350
1A8
  3
ViewportHeight
350
1A9
  3
ViewportWidth
350
1AA
  0
XRECORD
  5
17A
330
177
100
AcDbXrecord
280
1
1000
B\U+00edl\U+00e1
  0
XRECORD
  5
17B
330
177
100
AcDbXrecord
280
1
1000
FullColor
  0
XRECORD
  5
17C
330
177
100
AcDbXrecord
280
1
290
1
  0
XRECORD
  5
17D
330
177
100
AcDbXrecord
280
1
290
1
  0
XRECORD
  5
17E
330
177
100
AcDbXrecord
280
1
290
1
  0
XRECORD
  5
17F
330
177
100
AcDbXrecord
280
1
290
1
  0
XRECORD
  5
180
330
177
100
AcDbXrecord
280
1
1000
auto
  0
XRECORD
  5
181
330
177
100
AcDbXrecord
280
1
1000
auto
  0
XRECORD
  5
182
330
177
100
AcDbXrecord
280
1
1000
auto
  0
XRECORD
  5
183
330
177
100
AcDbXrecord
280
1
1000
auto
  0
XRECORD
  5
184
330
177
100
AcDbXrecord
280
1
1000
auto
  0
XRECORD
  5
185
330
177
100
AcDbXrecord
280
1
1000
auto
  0
XRECORD
  5
186
330
177
100
AcDbXrecord
280
1
1000
auto
  0
XRECORD
  5
187
330
177
100
AcDbXrecord
280
1
1000
auto
  0
XRECORD
  5
188
330
177
100
AcDbXrecord
280
1
290
0
  0
XRECORD
  5
189
330
177
100
AcDbXrecord
280
1
290
0
  0
XRECORD
  5
18A
330
177
100
AcDbXrecord
280
1
290
0
  0
XRECORD
  5
18B
330
177
100
AcDbXrecord
280
1
290
0
  0
XRECORD
  5
18C
330
177
100
AcDbXrecord
280
1
 90
0
  0
XRECORD
  5
18D
330
177
100
AcDbXrecord
280
1
 90
0
  0
XRECORD
  5
18E
330
177
100
AcDbXrecord
280
1
 90
0
  0
XRECORD
  5
18F
330
177
100
AcDbXrecord
280
1
 90
0
  0
XRECORD
  5
190
330
177
100
AcDbXrecord
280
1
1000
auto
  0
XRECORD
  5
191
330
177
100
AcDbXrecord
280
1
1000
auto
  0
XRECORD
  5
192
330
177
100
AcDbXrecord
280
1
1000
auto
  0
XRECORD
  5
193
330
177
100
AcDbXrecord
280
1
1000
auto
  0
XRECORD
  5
194
330
177
100
AcDbXrecord
280
1
1000
auto
  0
XRECORD
  5
195
330
177
100
AcDbXrecord
280
1
1000
auto
  0
XRECORD
  5
196
330
177
100
AcDbXrecord
280
1
1000
auto
  0
XRECORD
  5
197
330
177
100
AcDbXrecord
280
1
1000
auto
  0
XRECORD
  5
198
330
177
100
AcDbXrecord
280
1
 90
1
  0
XRECORD
  5
199
330
177
100
AcDbXrecord
280
1
 40
10.0
  0
XRECORD
  5
19A
330
177
100
AcDbXrecord
280
1
 40
10.0
  0
XRECORD
  5
19B
330
177
100
AcDbXrecord
280
1
 40
10.0
  0
XRECORD
  5
19C
330
177
100
AcDbXrecord
280
1
 40
10.0
  0
XRECORD
  5
19D
330
177
100
AcDbXrecord
280
1
290
0
  0
XRECORD
  5
19E
330
177
100
AcDbXrecord
280
1
 90
1
  0
XRECORD
  5
19F
330
177
100
AcDbXrecord
280
1
 40
0.0
  0
XRECORD
  5
1A0
330
177
100
AcDbXrecord
280
1
 40
0.0
  0
XRECORD
  5
1A1
330
177
100
AcDbXrecord
280
1
1000
Portrait
  0
XRECORD
  5
1A2
330
177
100
AcDbXrecord
280
1
 40
297.0
  0
XRECORD
  5
1A3
330
177
100
AcDbXrecord
280
1
 40
210.0
  0
XRECORD
  5
1A4
330
177
100
AcDbXrecord
280
1
1000
1:1
  0
XRECORD
  5
1A5
330
177
100
AcDbXrecord
280
1
290
1
  0
XRECORD
  5
1A6
330
177
100
AcDbXrecord
280
1
1000
3.16.5
  0
XRECORD
  5
1A7
330
177
100
AcDbXrecord
280
1
 90
4
  0
XRECORD
  5
1A9
330
177
100
AcDbXrecord
280
1
 40
98.2030135468728531
  0
XRECORD
  5
1AA
330
177
100
AcDbXrecord
280
1
 40
170.3632389708180881
  0
ENDSEC
  0
EOF
