M48
;DRILL file {KiCad 4.0.6} date Mon May 22 19:51:42 2017
;FORMAT={-:-/ absolute / metric / decimal}
FMAT,2
METRIC,TZ
T1C0.400
%
G90
G05
M71
T1
X138.725Y-101.691
X140.142Y-99.405
X140.142Y-100.625
X141.092Y-99.405
X141.092Y-100.625
X145.445Y-101.646
X146.274Y-101.656
X146.756Y-99.639
X146.845Y-100.315
X146.873Y-100.96
X146.995Y-101.615
X147.518Y-99.593
X147.546Y-100.218
X147.559Y-100.94
X148.491Y-98.519
X151.013Y-98.768
X152.301Y-98.786
X154.587Y-100.195
X154.592Y-99.088
X154.595Y-101.194
X155.57Y-100.188
X155.575Y-99.03
X155.593Y-101.201
X156.535Y-99.042
X156.553Y-100.195
X156.561Y-101.194
X157.427Y-99.065
X157.452Y-100.203
X157.467Y-101.224
T0
M30
