G04 #@! TF.FileFunction,Copper,L2,Bot,Signal*
%FSLAX46Y46*%
G04 Gerber Fmt 4.6, Leading zero omitted, Abs format (unit mm)*
G04 Created by KiCad (PCBNEW 4.0.6) date Mon May 22 19:51:24 2017*
%MOMM*%
%LPD*%
G01*
G04 APERTURE LIST*
%ADD10C,0.100000*%
%ADD11R,4.000000X4.000000*%
%ADD12R,1.500000X1.500000*%
%ADD13C,0.600000*%
%ADD14C,0.400000*%
%ADD15C,0.050000*%
G04 APERTURE END LIST*
D10*
D11*
X145953480Y-100553520D03*
X155986480Y-100515420D03*
D12*
X150964900Y-100571300D03*
D13*
X157467300Y-101224080D03*
X156560520Y-101193600D03*
X155592780Y-101201220D03*
X154594560Y-101193600D03*
X157452060Y-100203000D03*
X156552900Y-100195380D03*
X155569920Y-100187760D03*
X154586940Y-100195380D03*
X157426660Y-99065080D03*
X156535120Y-99042220D03*
X155575000Y-99029520D03*
X154592020Y-99087940D03*
X151013240Y-98767900D03*
X147518120Y-99593400D03*
X146756120Y-99639120D03*
X147546060Y-100218240D03*
X146845020Y-100314760D03*
X146872960Y-100959920D03*
X147558760Y-100939600D03*
X146994880Y-101615240D03*
X146273520Y-101655880D03*
X145445480Y-101645720D03*
X148490940Y-98518980D03*
X138724640Y-101691440D03*
X141092000Y-100625000D03*
X141092000Y-99405000D03*
X140142000Y-100625000D03*
X140142000Y-99405000D03*
X152300940Y-98785680D03*
D14*
X156591000Y-101224080D02*
X157467300Y-101224080D01*
X156560520Y-101193600D02*
X156591000Y-101224080D01*
X154670760Y-101269800D02*
X155592780Y-101201220D01*
X154594560Y-101193600D02*
X154670760Y-101269800D01*
X156568140Y-100210620D02*
X157452060Y-100203000D01*
X156552900Y-100195380D02*
X156568140Y-100210620D01*
X154647900Y-100134420D02*
X155569920Y-100187760D01*
X154586940Y-100195380D02*
X154647900Y-100134420D01*
X156580840Y-99087940D02*
X157426660Y-99065080D01*
X156535120Y-99042220D02*
X156580840Y-99087940D01*
X154607260Y-99103180D02*
X155575000Y-99029520D01*
X154592020Y-99087940D02*
X154607260Y-99103180D01*
X149184360Y-99649280D02*
X146857720Y-99649280D01*
X150065740Y-98767900D02*
X149184360Y-99649280D01*
X151013240Y-98767900D02*
X150065740Y-98767900D01*
X146857720Y-99649280D02*
X145953480Y-100553520D01*
X147518120Y-99593400D02*
X146779180Y-100566220D01*
X146779180Y-100566220D02*
X145953480Y-100553520D01*
X146756120Y-99639120D02*
X145953480Y-100441760D01*
X145953480Y-100441760D02*
X145953480Y-100553520D01*
X147546060Y-100218240D02*
X147210780Y-100553520D01*
X147210780Y-100553520D02*
X145953480Y-100553520D01*
X146845020Y-100314760D02*
X146486880Y-100553520D01*
X146486880Y-100553520D02*
X145953480Y-100553520D01*
X146872960Y-100959920D02*
X146337020Y-100553520D01*
X146337020Y-100553520D02*
X145953480Y-100553520D01*
X147558760Y-100939600D02*
X147185380Y-100553520D01*
X147185380Y-100553520D02*
X145953480Y-100553520D01*
X146994880Y-101615240D02*
X145973800Y-100553520D01*
X145973800Y-100553520D02*
X145953480Y-100553520D01*
X146273520Y-101655880D02*
X145953480Y-101262180D01*
X145953480Y-101262180D02*
X145953480Y-100553520D01*
X145445480Y-101645720D02*
X145953480Y-101064060D01*
X145953480Y-101064060D02*
X145953480Y-100553520D01*
X148224240Y-98099880D02*
X148252180Y-98099880D01*
X138602720Y-98521520D02*
X139024360Y-98099880D01*
X139024360Y-98099880D02*
X148224240Y-98099880D01*
X138602720Y-98577400D02*
X138602720Y-98521520D01*
X148490940Y-98338640D02*
X148490940Y-98518980D01*
X148252180Y-98099880D02*
X148490940Y-98338640D01*
X138724640Y-101691440D02*
X138602720Y-101569520D01*
X138602720Y-101569520D02*
X138602720Y-98577400D01*
X138602720Y-98577400D02*
X138602720Y-98531680D01*
X141091920Y-100622100D02*
X141091920Y-100624920D01*
X141091920Y-100624920D02*
X141092000Y-100625000D01*
X141091920Y-99405440D02*
X141091920Y-99405080D01*
X141091920Y-99405080D02*
X141092000Y-99405000D01*
X140124180Y-100622100D02*
X140139100Y-100622100D01*
X140139100Y-100622100D02*
X140142000Y-100625000D01*
X140139900Y-99402900D02*
X140139420Y-99402900D01*
X140142000Y-99405000D02*
X140139900Y-99402900D01*
X150964900Y-100571300D02*
X151620220Y-100571300D01*
X151620220Y-100571300D02*
X152300940Y-99890580D01*
X152300940Y-99890580D02*
X152300940Y-98785680D01*
D15*
G36*
X143622113Y-102553520D02*
X143628383Y-102586840D01*
X141398437Y-102586840D01*
X138942680Y-102555754D01*
X138942680Y-102277598D01*
X139078211Y-102221598D01*
X139254180Y-102045936D01*
X139349531Y-101816306D01*
X139349748Y-101567665D01*
X139254798Y-101337869D01*
X139127720Y-101210569D01*
X139127720Y-98738982D01*
X139241822Y-98624880D01*
X143622113Y-98624880D01*
X143622113Y-102553520D01*
X143622113Y-102553520D01*
G37*
X143622113Y-102553520D02*
X143628383Y-102586840D01*
X141398437Y-102586840D01*
X138942680Y-102555754D01*
X138942680Y-102277598D01*
X139078211Y-102221598D01*
X139254180Y-102045936D01*
X139349531Y-101816306D01*
X139349748Y-101567665D01*
X139254798Y-101337869D01*
X139127720Y-101210569D01*
X139127720Y-98738982D01*
X139241822Y-98624880D01*
X143622113Y-98624880D01*
X143622113Y-102553520D01*
M02*
