G04 #@! TF.FileFunction,Copper,L1,Top,Signal*
%FSLAX46Y46*%
G04 Gerber Fmt 4.6, Leading zero omitted, Abs format (unit mm)*
G04 Created by KiCad (PCBNEW 4.0.6) date Mon May 22 19:51:24 2017*
%MOMM*%
%LPD*%
G01*
G04 APERTURE LIST*
%ADD10C,0.100000*%
%ADD11R,0.800000X0.750000*%
%ADD12R,4.000000X4.000000*%
%ADD13R,0.500000X0.900000*%
%ADD14R,0.280000X0.850000*%
%ADD15R,0.280000X0.750000*%
%ADD16R,0.970000X1.270000*%
%ADD17R,0.630000X0.500000*%
%ADD18R,0.950000X1.230000*%
%ADD19C,0.600000*%
%ADD20C,0.280000*%
%ADD21C,0.400000*%
%ADD22C,0.500000*%
%ADD23C,0.050000*%
G04 APERTURE END LIST*
D10*
D11*
X148561360Y-102036880D03*
X150061360Y-102036880D03*
D12*
X135856980Y-99921060D03*
X155963620Y-99921060D03*
D13*
X152896000Y-101955600D03*
X151396000Y-101955600D03*
X152128920Y-100446840D03*
X150628920Y-100446840D03*
D14*
X149570060Y-99642520D03*
D15*
X149070060Y-99602520D03*
X148570060Y-99602520D03*
X148570060Y-100742520D03*
X149070060Y-100742520D03*
X149570060Y-100742520D03*
D16*
X151013240Y-98767900D03*
X152293240Y-98767900D03*
D17*
X138792000Y-99045000D03*
X138792000Y-99685000D03*
X138792000Y-100345000D03*
X138792000Y-100985000D03*
X141672000Y-100985000D03*
X141672000Y-100345000D03*
X141672000Y-99685000D03*
X141672000Y-99045000D03*
D18*
X141092000Y-100625000D03*
X141092000Y-99405000D03*
X140142000Y-100625000D03*
X140142000Y-99405000D03*
D17*
X145823760Y-100972340D03*
X145823760Y-100332340D03*
X145823760Y-99672340D03*
X145823760Y-99032340D03*
X142943760Y-99032340D03*
X142943760Y-99672340D03*
X142943760Y-100332340D03*
X142943760Y-100972340D03*
D18*
X143523760Y-99392340D03*
X143523760Y-100612340D03*
X144473760Y-99392340D03*
X144473760Y-100612340D03*
D19*
X157467300Y-101224080D03*
X156560520Y-101193600D03*
X155592780Y-101201220D03*
X154594560Y-101193600D03*
X157452060Y-100203000D03*
X156552900Y-100195380D03*
X155569920Y-100187760D03*
X154586940Y-100195380D03*
X157426660Y-99065080D03*
X156535120Y-99042220D03*
X155575000Y-99029520D03*
X154592020Y-99087940D03*
X151013240Y-98767900D03*
X147518120Y-99593400D03*
X146756120Y-99639120D03*
X147546060Y-100218240D03*
X146845020Y-100314760D03*
X146872960Y-100959920D03*
X147558760Y-100939600D03*
X146994880Y-101615240D03*
X146273520Y-101655880D03*
X145445480Y-101645720D03*
X148490940Y-98518980D03*
X138724640Y-101691440D03*
X141092000Y-100625000D03*
X141092000Y-99405000D03*
X140142000Y-100625000D03*
X140142000Y-99405000D03*
X152300940Y-98785680D03*
D20*
X148570060Y-100742520D02*
X148570060Y-102028180D01*
X148570060Y-102028180D02*
X148561360Y-102036880D01*
X148562440Y-102035800D02*
X148561360Y-102036880D01*
D21*
X148561360Y-102036880D02*
X148561360Y-102098540D01*
X148561360Y-102098540D02*
X148254720Y-102405180D01*
X148254720Y-102405180D02*
X146966940Y-102405180D01*
X135856980Y-99921060D02*
X135856980Y-100096320D01*
X135856980Y-100096320D02*
X138165840Y-102405180D01*
X146966940Y-102405180D02*
X146974560Y-102397560D01*
X138165840Y-102405180D02*
X146966940Y-102405180D01*
D22*
X138792000Y-100345000D02*
X136280920Y-100345000D01*
X136280920Y-100345000D02*
X135856980Y-99921060D01*
X138792000Y-99685000D02*
X136093040Y-99685000D01*
X136093040Y-99685000D02*
X135856980Y-99921060D01*
X138792000Y-99045000D02*
X136733040Y-99045000D01*
X136733040Y-99045000D02*
X135856980Y-99921060D01*
D21*
X150061360Y-102036880D02*
X151314720Y-102036880D01*
X151314720Y-102036880D02*
X151396000Y-101955600D01*
D20*
X149070060Y-100742520D02*
X149070060Y-101282500D01*
X149070060Y-101282500D02*
X149824440Y-102036880D01*
X149824440Y-102036880D02*
X150061360Y-102036880D01*
X149931120Y-102036880D02*
X150061360Y-102036880D01*
D21*
X155963620Y-99921060D02*
X155963620Y-99733100D01*
X155963620Y-99733100D02*
X154592020Y-99087940D01*
X157467300Y-101224080D02*
X157497780Y-101254560D01*
X155547060Y-101246940D02*
X156560520Y-101193600D01*
X155592780Y-101201220D02*
X155547060Y-101246940D01*
X157482540Y-100233480D02*
X154594560Y-101193600D01*
X157452060Y-100203000D02*
X157482540Y-100233480D01*
X155600400Y-100218240D02*
X156552900Y-100195380D01*
X155569920Y-100187760D02*
X155600400Y-100218240D01*
X157441900Y-99080320D02*
X154586940Y-100195380D01*
X157426660Y-99065080D02*
X157441900Y-99080320D01*
X155666440Y-98938080D02*
X156535120Y-99042220D01*
X155575000Y-99029520D02*
X155666440Y-98938080D01*
X152896000Y-101955600D02*
X153929080Y-101955600D01*
X153929080Y-101955600D02*
X155963620Y-99921060D01*
X151985980Y-100446840D02*
X151013240Y-99474100D01*
X151013240Y-99474100D02*
X151013240Y-98767900D01*
X152128920Y-100446840D02*
X151985980Y-100446840D01*
X145823760Y-99672340D02*
X147518120Y-99593400D01*
X147518120Y-99593400D02*
X147398540Y-99593400D01*
X147398540Y-99593400D02*
X147492720Y-99499220D01*
X145823760Y-99672340D02*
X146722900Y-99672340D01*
X146722900Y-99672340D02*
X146756120Y-99639120D01*
X145823760Y-100332340D02*
X147431960Y-100332340D01*
X147431960Y-100332340D02*
X147546060Y-100218240D01*
X145823760Y-100332340D02*
X146814740Y-100345040D01*
X146814740Y-100345040D02*
X146845020Y-100314760D01*
X145823760Y-100972340D02*
X146872960Y-100959920D01*
X145823760Y-100972340D02*
X147482840Y-101015520D01*
X147482840Y-101015520D02*
X147558760Y-100939600D01*
X147066000Y-101282500D02*
X146994880Y-101615240D01*
X146872960Y-100959920D02*
X147066000Y-101282500D01*
X145823760Y-100972340D02*
X145823760Y-101132460D01*
X145823760Y-101132460D02*
X146273520Y-101655880D01*
X145823760Y-100972340D02*
X145823760Y-101193780D01*
X145823760Y-101193780D02*
X145445480Y-101645720D01*
D20*
X148570060Y-98598100D02*
X148570060Y-99602520D01*
X148490940Y-98518980D02*
X148570060Y-98598100D01*
D21*
X138792000Y-100985000D02*
X138792000Y-101624080D01*
X138792000Y-101624080D02*
X138724640Y-101691440D01*
X141092000Y-99405000D02*
X140142000Y-99405000D01*
D20*
X142943760Y-100972340D02*
X143163760Y-100972340D01*
X143163760Y-100972340D02*
X143523760Y-100612340D01*
X142943760Y-100332340D02*
X143243760Y-100332340D01*
X143243760Y-100332340D02*
X143523760Y-100612340D01*
X142943760Y-99672340D02*
X143243760Y-99672340D01*
X143243760Y-99672340D02*
X143523760Y-99392340D01*
X142943760Y-99032340D02*
X143163760Y-99032340D01*
X143163760Y-99032340D02*
X143523760Y-99392340D01*
X144473760Y-99392340D02*
X144473760Y-100612340D01*
X144473760Y-100612340D02*
X143523760Y-100612340D01*
X144473760Y-99392340D02*
X143523760Y-99392340D01*
X141672000Y-99685000D02*
X141372000Y-99685000D01*
X141372000Y-99685000D02*
X141092000Y-99405000D01*
X141672000Y-99045000D02*
X141452000Y-99045000D01*
X141452000Y-99045000D02*
X141092000Y-99405000D01*
X141672000Y-100985000D02*
X141452000Y-100985000D01*
X141452000Y-100985000D02*
X141092000Y-100625000D01*
X141672000Y-100345000D02*
X141372000Y-100345000D01*
X141372000Y-100345000D02*
X141092000Y-100625000D01*
X140142000Y-99405000D02*
X140142000Y-100625000D01*
X140142000Y-100625000D02*
X141092000Y-100625000D01*
D22*
X141672000Y-100985000D02*
X142931100Y-100985000D01*
X142931100Y-100985000D02*
X142943760Y-100972340D01*
X141672000Y-100345000D02*
X142931100Y-100345000D01*
X142931100Y-100345000D02*
X142943760Y-100332340D01*
X141672000Y-99685000D02*
X142931100Y-99685000D01*
X142931100Y-99685000D02*
X142943760Y-99672340D01*
X141672000Y-99045000D02*
X142931100Y-99045000D01*
X142931100Y-99045000D02*
X142943760Y-99032340D01*
D20*
X146062800Y-98793300D02*
X145823760Y-99032340D01*
X147226020Y-98793300D02*
X146062800Y-98793300D01*
X148155660Y-97863660D02*
X147226020Y-98793300D01*
X148910040Y-97863660D02*
X148155660Y-97863660D01*
X149306280Y-98259900D02*
X148910040Y-97863660D01*
X149306280Y-98679000D02*
X149306280Y-98259900D01*
X149070060Y-98915220D02*
X149306280Y-98679000D01*
X149070060Y-99602520D02*
X149070060Y-98915220D01*
D21*
X145823760Y-99032340D02*
X145899860Y-99032340D01*
D20*
X149570060Y-100742520D02*
X150333240Y-100742520D01*
X150333240Y-100742520D02*
X150628920Y-100446840D01*
X150546600Y-100529160D02*
X150628920Y-100446840D01*
D21*
X152300940Y-98785680D02*
X152293240Y-98777980D01*
X152293240Y-98777980D02*
X152293240Y-98767900D01*
D23*
G36*
X147934958Y-101341103D02*
X147414217Y-101880180D01*
X147012869Y-101880180D01*
X146974560Y-101872560D01*
X146936251Y-101880180D01*
X145093929Y-101880180D01*
X145082684Y-101527367D01*
X145179813Y-101464866D01*
X145254020Y-101356260D01*
X145270931Y-101272750D01*
X146372483Y-101277020D01*
X146382217Y-101275088D01*
X146390432Y-101269521D01*
X146395835Y-101261197D01*
X146397556Y-101253122D01*
X146485401Y-99262800D01*
X147909979Y-99262800D01*
X147934958Y-101341103D01*
X147934958Y-101341103D01*
G37*
X147934958Y-101341103D02*
X147414217Y-101880180D01*
X147012869Y-101880180D01*
X146974560Y-101872560D01*
X146936251Y-101880180D01*
X145093929Y-101880180D01*
X145082684Y-101527367D01*
X145179813Y-101464866D01*
X145254020Y-101356260D01*
X145270931Y-101272750D01*
X146372483Y-101277020D01*
X146382217Y-101275088D01*
X146390432Y-101269521D01*
X146395835Y-101261197D01*
X146397556Y-101253122D01*
X146485401Y-99262800D01*
X147909979Y-99262800D01*
X147934958Y-101341103D01*
M02*
