G04 #@! TF.FileFunction,Legend,Top*
%FSLAX46Y46*%
G04 Gerber Fmt 4.6, Leading zero omitted, Abs format (unit mm)*
G04 Created by KiCad (PCBNEW 4.0.5) date Thu Dec 29 13:42:12 2016*
%MOMM*%
%LPD*%
G01*
G04 APERTURE LIST*
%ADD10C,0.100000*%
%ADD11C,0.200000*%
%ADD12C,0.250000*%
%ADD13C,0.300000*%
%ADD14C,0.150000*%
%ADD15C,0.120000*%
G04 APERTURE END LIST*
D10*
D11*
X138530000Y-50930000D02*
X188160000Y-50930000D01*
X138670000Y-126440000D02*
X188770000Y-126440000D01*
X138560000Y-92580000D02*
X187450000Y-92580000D01*
X185130000Y-84790000D02*
X138700000Y-84790000D01*
D12*
X170706704Y-121141747D02*
X171394996Y-120158764D01*
X171629040Y-120322644D01*
X171736690Y-120467779D01*
X171764756Y-120626949D01*
X171746013Y-120753342D01*
X171661718Y-120973353D01*
X171563391Y-121113778D01*
X171385479Y-121268238D01*
X171273119Y-121329079D01*
X171113950Y-121357144D01*
X170940748Y-121305626D01*
X170706704Y-121141747D01*
X172110965Y-122125021D02*
X172471499Y-121610125D01*
X172490242Y-121483732D01*
X172429400Y-121371371D01*
X172242165Y-121240269D01*
X172115772Y-121221526D01*
X172143741Y-122078212D02*
X172017348Y-122059469D01*
X171783304Y-121895590D01*
X171722463Y-121783230D01*
X171741205Y-121656837D01*
X171806757Y-121563219D01*
X171919117Y-121502378D01*
X172045511Y-121521121D01*
X172279554Y-121684999D01*
X172405947Y-121703742D01*
X172579052Y-122452778D02*
X173037913Y-121797457D01*
X172906809Y-121984692D02*
X173019170Y-121923850D01*
X173098754Y-121909817D01*
X173225148Y-121928560D01*
X173318765Y-121994111D01*
X173187564Y-122878864D02*
X173875856Y-121895881D01*
X173543388Y-122569946D02*
X173562034Y-123141070D01*
X174020895Y-122485748D02*
X173384219Y-122598012D01*
X173969280Y-123356468D02*
X174030121Y-123468828D01*
X174217356Y-123599932D01*
X174343749Y-123618674D01*
X174456109Y-123557833D01*
X174488885Y-123511024D01*
X174507628Y-123384631D01*
X174446787Y-123272271D01*
X174306361Y-123173943D01*
X174245519Y-123061583D01*
X174264261Y-122935190D01*
X174297037Y-122888381D01*
X174409398Y-122827540D01*
X174535791Y-122846283D01*
X174676218Y-122944610D01*
X174737059Y-123056970D01*
X175097496Y-123239592D02*
X175471966Y-123501799D01*
X175467352Y-123010259D02*
X174877388Y-123852816D01*
X174858645Y-123979208D01*
X174919487Y-124091569D01*
X175013105Y-124157121D01*
X175762043Y-124681533D02*
X176122576Y-124166638D01*
X176141319Y-124040244D01*
X176080478Y-123927884D01*
X175893243Y-123796781D01*
X175766850Y-123778038D01*
X175794819Y-124634724D02*
X175668425Y-124615981D01*
X175434382Y-124452102D01*
X175373540Y-124339742D01*
X175392283Y-124213349D01*
X175457835Y-124119731D01*
X175570195Y-124058890D01*
X175696589Y-124077633D01*
X175930632Y-124241512D01*
X176057025Y-124260254D01*
X176230129Y-125009291D02*
X176688991Y-124353969D01*
X176557887Y-124541204D02*
X176670248Y-124480362D01*
X176749832Y-124466329D01*
X176876226Y-124485072D01*
X176969843Y-124550624D01*
X178139354Y-125711966D02*
X178347732Y-124530196D01*
X178592813Y-125443777D01*
X179135578Y-124669115D01*
X178927200Y-125850884D01*
X179489948Y-125950112D02*
X179698326Y-124768343D01*
X179681880Y-125519759D02*
X179940146Y-126029494D01*
X180079064Y-125241648D02*
X179549484Y-125612464D01*
X180466464Y-126006249D02*
X180512816Y-126072447D01*
X180446619Y-126118799D01*
X180400266Y-126052601D01*
X180466464Y-126006249D01*
X180446619Y-126118799D01*
X181009366Y-126218026D02*
X181217744Y-125036257D01*
X181572114Y-126317254D02*
X181780492Y-125135485D01*
X183707106Y-125384446D02*
X184127398Y-126122679D01*
X184269853Y-125285219D01*
X184875691Y-124772222D02*
X184988240Y-124752377D01*
X185110713Y-124788806D01*
X185176910Y-124835158D01*
X185253031Y-124937785D01*
X185348996Y-125152961D01*
X185398610Y-125434334D01*
X185382026Y-125669357D01*
X185345597Y-125791828D01*
X185299245Y-125858026D01*
X185196618Y-125934146D01*
X185084069Y-125953992D01*
X184961597Y-125917562D01*
X184895399Y-125871210D01*
X184819279Y-125768584D01*
X184723313Y-125553408D01*
X184673699Y-125272034D01*
X184690283Y-125037013D01*
X184726712Y-124914540D01*
X184773064Y-124848343D01*
X184875691Y-124772222D01*
X185964619Y-125682678D02*
X186030816Y-125729030D01*
X185984464Y-125795228D01*
X185918266Y-125748876D01*
X185964619Y-125682678D01*
X185984464Y-125795228D01*
X187166234Y-125586850D02*
X186490937Y-125705923D01*
X186828586Y-125646386D02*
X186620208Y-124464617D01*
X186537427Y-124653287D01*
X186444723Y-124785681D01*
X186342096Y-124861802D01*
D13*
X198128572Y-108877143D02*
X199271429Y-108877143D01*
X198700000Y-109448571D02*
X198700000Y-108305714D01*
X186008572Y-105677143D02*
X187151429Y-105677143D01*
X186580000Y-106248571D02*
X186580000Y-105105714D01*
X187578572Y-94617143D02*
X188721429Y-94617143D01*
X188150000Y-95188571D02*
X188150000Y-94045714D01*
X177120000Y-120995714D02*
X177191428Y-121067143D01*
X177120000Y-121138571D01*
X177048571Y-121067143D01*
X177120000Y-120995714D01*
X177120000Y-121138571D01*
X182800000Y-113925714D02*
X182871428Y-113997143D01*
X182800000Y-114068571D01*
X182728571Y-113997143D01*
X182800000Y-113925714D01*
X182800000Y-114068571D01*
D12*
X198505842Y-104709084D02*
X197466612Y-105309084D01*
X198162985Y-104115238D02*
X197826282Y-104903479D01*
X197123754Y-104715238D02*
X198060458Y-104966227D01*
X197648699Y-103224469D02*
X197104341Y-103538754D01*
X197033938Y-103645385D01*
X197041594Y-103772931D01*
X197155879Y-103970879D01*
X197262509Y-104041282D01*
X197599212Y-103253040D02*
X197705842Y-103323444D01*
X197848699Y-103570879D01*
X197856355Y-103698425D01*
X197785953Y-103805055D01*
X197686978Y-103862198D01*
X197559432Y-103869854D01*
X197452802Y-103799451D01*
X197309945Y-103552015D01*
X197203315Y-103481612D01*
X196670165Y-103129598D02*
X197560935Y-102615312D01*
X197688480Y-102607657D01*
X197795110Y-102678059D01*
X197823681Y-102727546D01*
X196323755Y-103329598D02*
X196401814Y-103350514D01*
X196422730Y-103272455D01*
X196344671Y-103251539D01*
X196323755Y-103329598D01*
X196422730Y-103272455D01*
X196127308Y-102189341D02*
X196820128Y-101789341D01*
X196384451Y-102634726D02*
X196928810Y-102320440D01*
X196999212Y-102213810D01*
X196991556Y-102086264D01*
X196905842Y-101937803D01*
X196799212Y-101867400D01*
X196721153Y-101846484D01*
X196513498Y-101372529D02*
X196505842Y-101244983D01*
X196391556Y-101047033D01*
X196284927Y-100976631D01*
X196157381Y-100984286D01*
X196107894Y-101012858D01*
X196037491Y-101119488D01*
X196045146Y-101247033D01*
X196130861Y-101395495D01*
X196138517Y-101523041D01*
X196068114Y-101629671D01*
X196018627Y-101658243D01*
X195891081Y-101665898D01*
X195784451Y-101595495D01*
X195698736Y-101447033D01*
X195691081Y-101319488D01*
X191467488Y-122311632D02*
X191478036Y-122231511D01*
X191533919Y-122116603D01*
X191760591Y-121942672D01*
X191886047Y-121918433D01*
X191966168Y-121928982D01*
X192081076Y-121984864D01*
X192150648Y-122075533D01*
X192209673Y-122246323D01*
X192083095Y-123207773D01*
X192672443Y-122755550D01*
X192531278Y-121351303D02*
X192621946Y-121281731D01*
X192747402Y-121257493D01*
X192827523Y-121268041D01*
X192942430Y-121323923D01*
X193126910Y-121470475D01*
X193300842Y-121697147D01*
X193394653Y-121913272D01*
X193418891Y-122038726D01*
X193408343Y-122118847D01*
X193352460Y-122233755D01*
X193261792Y-122303327D01*
X193136336Y-122327566D01*
X193056215Y-122317017D01*
X192941308Y-122261135D01*
X192756828Y-122114584D01*
X192582896Y-121887911D01*
X192489085Y-121671787D01*
X192464847Y-121546332D01*
X192475395Y-121466211D01*
X192531278Y-121351303D01*
X194485822Y-121364095D02*
X193941808Y-121781532D01*
X194213816Y-121572813D02*
X193483302Y-120620789D01*
X193496992Y-120826366D01*
X193475895Y-120986607D01*
X193420012Y-121101515D01*
X194571329Y-119785917D02*
X194389991Y-119925062D01*
X194334108Y-120039970D01*
X194323560Y-120120091D01*
X194337250Y-120325667D01*
X194431061Y-120541791D01*
X194709352Y-120904467D01*
X194824259Y-120960349D01*
X194904380Y-120970897D01*
X195029836Y-120946659D01*
X195211173Y-120807514D01*
X195267056Y-120692606D01*
X195277604Y-120612485D01*
X195253366Y-120487031D01*
X195079434Y-120260358D01*
X194964527Y-120204476D01*
X194884406Y-120193928D01*
X194758951Y-120218166D01*
X194577613Y-120357311D01*
X194521730Y-120472219D01*
X194511182Y-120552340D01*
X194535420Y-120677794D01*
D11*
X180699809Y-104290762D02*
X180842666Y-104338381D01*
X181080762Y-104338381D01*
X181176000Y-104290762D01*
X181223619Y-104243143D01*
X181271238Y-104147905D01*
X181271238Y-104052667D01*
X181223619Y-103957429D01*
X181176000Y-103909810D01*
X181080762Y-103862190D01*
X180890285Y-103814571D01*
X180795047Y-103766952D01*
X180747428Y-103719333D01*
X180699809Y-103624095D01*
X180699809Y-103528857D01*
X180747428Y-103433619D01*
X180795047Y-103386000D01*
X180890285Y-103338381D01*
X181128381Y-103338381D01*
X181271238Y-103386000D01*
X181699809Y-103671714D02*
X181699809Y-104671714D01*
X181699809Y-103719333D02*
X181795047Y-103671714D01*
X181985524Y-103671714D01*
X182080762Y-103719333D01*
X182128381Y-103766952D01*
X182176000Y-103862190D01*
X182176000Y-104147905D01*
X182128381Y-104243143D01*
X182080762Y-104290762D01*
X181985524Y-104338381D01*
X181795047Y-104338381D01*
X181699809Y-104290762D01*
X182747428Y-104338381D02*
X182652190Y-104290762D01*
X182604571Y-104243143D01*
X182556952Y-104147905D01*
X182556952Y-103862190D01*
X182604571Y-103766952D01*
X182652190Y-103719333D01*
X182747428Y-103671714D01*
X182890286Y-103671714D01*
X182985524Y-103719333D01*
X183033143Y-103766952D01*
X183080762Y-103862190D01*
X183080762Y-104147905D01*
X183033143Y-104243143D01*
X182985524Y-104290762D01*
X182890286Y-104338381D01*
X182747428Y-104338381D01*
X183366476Y-103671714D02*
X183747428Y-103671714D01*
X183509333Y-103338381D02*
X183509333Y-104195524D01*
X183556952Y-104290762D01*
X183652190Y-104338381D01*
X183747428Y-104338381D01*
X184403428Y-93661714D02*
X184103428Y-93661714D01*
X184103428Y-94133143D02*
X184103428Y-93233143D01*
X184531999Y-93233143D01*
X185003428Y-94133143D02*
X184917714Y-94090286D01*
X184874857Y-94004571D01*
X184874857Y-93233143D01*
X185474857Y-94133143D02*
X185389143Y-94090286D01*
X185346286Y-94047429D01*
X185303429Y-93961714D01*
X185303429Y-93704571D01*
X185346286Y-93618857D01*
X185389143Y-93576000D01*
X185474857Y-93533143D01*
X185603429Y-93533143D01*
X185689143Y-93576000D01*
X185732000Y-93618857D01*
X185774857Y-93704571D01*
X185774857Y-93961714D01*
X185732000Y-94047429D01*
X185689143Y-94090286D01*
X185603429Y-94133143D01*
X185474857Y-94133143D01*
X186289143Y-94133143D02*
X186203429Y-94090286D01*
X186160572Y-94047429D01*
X186117715Y-93961714D01*
X186117715Y-93704571D01*
X186160572Y-93618857D01*
X186203429Y-93576000D01*
X186289143Y-93533143D01*
X186417715Y-93533143D01*
X186503429Y-93576000D01*
X186546286Y-93618857D01*
X186589143Y-93704571D01*
X186589143Y-93961714D01*
X186546286Y-94047429D01*
X186503429Y-94090286D01*
X186417715Y-94133143D01*
X186289143Y-94133143D01*
X187360572Y-94133143D02*
X187360572Y-93233143D01*
X187360572Y-94090286D02*
X187274858Y-94133143D01*
X187103429Y-94133143D01*
X187017715Y-94090286D01*
X186974858Y-94047429D01*
X186932001Y-93961714D01*
X186932001Y-93704571D01*
X186974858Y-93618857D01*
X187017715Y-93576000D01*
X187103429Y-93533143D01*
X187274858Y-93533143D01*
X187360572Y-93576000D01*
X178407164Y-114609080D02*
X178944132Y-114804520D01*
X178333627Y-115646492D02*
X178675648Y-114706799D01*
X180168266Y-116314246D02*
X180017902Y-115752766D01*
X179631299Y-116118806D02*
X179973319Y-115179113D01*
X180331298Y-115309407D01*
X180404505Y-115386727D01*
X180432966Y-115447761D01*
X180445140Y-115553542D01*
X180396280Y-115687784D01*
X180318959Y-115760992D01*
X180257926Y-115789452D01*
X180152144Y-115801626D01*
X179794166Y-115671333D01*
X182104902Y-116005621D02*
X182031694Y-115928300D01*
X181897452Y-115879440D01*
X181746923Y-115875327D01*
X181624855Y-115932249D01*
X181547535Y-116005456D01*
X181437641Y-116168159D01*
X181388781Y-116302401D01*
X181368381Y-116497677D01*
X181380555Y-116603458D01*
X181437476Y-116725526D01*
X181555432Y-116819133D01*
X181644927Y-116851706D01*
X181795455Y-116855819D01*
X181856489Y-116827359D01*
X181970495Y-116514128D01*
X181791507Y-116448981D01*
X178407164Y-72959080D02*
X178944132Y-73154520D01*
X178333627Y-73996492D02*
X178675648Y-73056799D01*
X180168266Y-74664246D02*
X180017902Y-74102766D01*
X179631299Y-74468806D02*
X179973319Y-73529113D01*
X180331298Y-73659407D01*
X180404505Y-73736727D01*
X180432966Y-73797761D01*
X180445140Y-73903542D01*
X180396280Y-74037784D01*
X180318959Y-74110992D01*
X180257926Y-74139452D01*
X180152144Y-74151626D01*
X179794166Y-74021333D01*
X182104902Y-74355621D02*
X182031694Y-74278300D01*
X181897452Y-74229440D01*
X181746923Y-74225327D01*
X181624855Y-74282249D01*
X181547535Y-74355456D01*
X181437641Y-74518159D01*
X181388781Y-74652401D01*
X181368381Y-74847677D01*
X181380555Y-74953458D01*
X181437476Y-75075526D01*
X181555432Y-75169133D01*
X181644927Y-75201706D01*
X181795455Y-75205819D01*
X181856489Y-75177359D01*
X181970495Y-74864128D01*
X181791507Y-74798981D01*
X184403428Y-52011714D02*
X184103428Y-52011714D01*
X184103428Y-52483143D02*
X184103428Y-51583143D01*
X184531999Y-51583143D01*
X185003428Y-52483143D02*
X184917714Y-52440286D01*
X184874857Y-52354571D01*
X184874857Y-51583143D01*
X185474857Y-52483143D02*
X185389143Y-52440286D01*
X185346286Y-52397429D01*
X185303429Y-52311714D01*
X185303429Y-52054571D01*
X185346286Y-51968857D01*
X185389143Y-51926000D01*
X185474857Y-51883143D01*
X185603429Y-51883143D01*
X185689143Y-51926000D01*
X185732000Y-51968857D01*
X185774857Y-52054571D01*
X185774857Y-52311714D01*
X185732000Y-52397429D01*
X185689143Y-52440286D01*
X185603429Y-52483143D01*
X185474857Y-52483143D01*
X186289143Y-52483143D02*
X186203429Y-52440286D01*
X186160572Y-52397429D01*
X186117715Y-52311714D01*
X186117715Y-52054571D01*
X186160572Y-51968857D01*
X186203429Y-51926000D01*
X186289143Y-51883143D01*
X186417715Y-51883143D01*
X186503429Y-51926000D01*
X186546286Y-51968857D01*
X186589143Y-52054571D01*
X186589143Y-52311714D01*
X186546286Y-52397429D01*
X186503429Y-52440286D01*
X186417715Y-52483143D01*
X186289143Y-52483143D01*
X187360572Y-52483143D02*
X187360572Y-51583143D01*
X187360572Y-52440286D02*
X187274858Y-52483143D01*
X187103429Y-52483143D01*
X187017715Y-52440286D01*
X186974858Y-52397429D01*
X186932001Y-52311714D01*
X186932001Y-52054571D01*
X186974858Y-51968857D01*
X187017715Y-51926000D01*
X187103429Y-51883143D01*
X187274858Y-51883143D01*
X187360572Y-51926000D01*
X180699809Y-62640762D02*
X180842666Y-62688381D01*
X181080762Y-62688381D01*
X181176000Y-62640762D01*
X181223619Y-62593143D01*
X181271238Y-62497905D01*
X181271238Y-62402667D01*
X181223619Y-62307429D01*
X181176000Y-62259810D01*
X181080762Y-62212190D01*
X180890285Y-62164571D01*
X180795047Y-62116952D01*
X180747428Y-62069333D01*
X180699809Y-61974095D01*
X180699809Y-61878857D01*
X180747428Y-61783619D01*
X180795047Y-61736000D01*
X180890285Y-61688381D01*
X181128381Y-61688381D01*
X181271238Y-61736000D01*
X181699809Y-62021714D02*
X181699809Y-63021714D01*
X181699809Y-62069333D02*
X181795047Y-62021714D01*
X181985524Y-62021714D01*
X182080762Y-62069333D01*
X182128381Y-62116952D01*
X182176000Y-62212190D01*
X182176000Y-62497905D01*
X182128381Y-62593143D01*
X182080762Y-62640762D01*
X181985524Y-62688381D01*
X181795047Y-62688381D01*
X181699809Y-62640762D01*
X182747428Y-62688381D02*
X182652190Y-62640762D01*
X182604571Y-62593143D01*
X182556952Y-62497905D01*
X182556952Y-62212190D01*
X182604571Y-62116952D01*
X182652190Y-62069333D01*
X182747428Y-62021714D01*
X182890286Y-62021714D01*
X182985524Y-62069333D01*
X183033143Y-62116952D01*
X183080762Y-62212190D01*
X183080762Y-62497905D01*
X183033143Y-62593143D01*
X182985524Y-62640762D01*
X182890286Y-62688381D01*
X182747428Y-62688381D01*
X183366476Y-62021714D02*
X183747428Y-62021714D01*
X183509333Y-61688381D02*
X183509333Y-62545524D01*
X183556952Y-62640762D01*
X183652190Y-62688381D01*
X183747428Y-62688381D01*
D12*
X191467488Y-80661632D02*
X191478036Y-80581511D01*
X191533919Y-80466603D01*
X191760591Y-80292672D01*
X191886047Y-80268433D01*
X191966168Y-80278982D01*
X192081076Y-80334864D01*
X192150648Y-80425533D01*
X192209673Y-80596323D01*
X192083095Y-81557773D01*
X192672443Y-81105550D01*
X192531278Y-79701303D02*
X192621946Y-79631731D01*
X192747402Y-79607493D01*
X192827523Y-79618041D01*
X192942430Y-79673923D01*
X193126910Y-79820475D01*
X193300842Y-80047147D01*
X193394653Y-80263272D01*
X193418891Y-80388726D01*
X193408343Y-80468847D01*
X193352460Y-80583755D01*
X193261792Y-80653327D01*
X193136336Y-80677566D01*
X193056215Y-80667017D01*
X192941308Y-80611135D01*
X192756828Y-80464584D01*
X192582896Y-80237911D01*
X192489085Y-80021787D01*
X192464847Y-79896332D01*
X192475395Y-79816211D01*
X192531278Y-79701303D01*
X194485822Y-79714095D02*
X193941808Y-80131532D01*
X194213816Y-79922813D02*
X193483302Y-78970789D01*
X193496992Y-79176366D01*
X193475895Y-79336607D01*
X193420012Y-79451515D01*
X194571329Y-78135917D02*
X194389991Y-78275062D01*
X194334108Y-78389970D01*
X194323560Y-78470091D01*
X194337250Y-78675667D01*
X194431061Y-78891791D01*
X194709352Y-79254467D01*
X194824259Y-79310349D01*
X194904380Y-79320897D01*
X195029836Y-79296659D01*
X195211173Y-79157514D01*
X195267056Y-79042606D01*
X195277604Y-78962485D01*
X195253366Y-78837031D01*
X195079434Y-78610358D01*
X194964527Y-78554476D01*
X194884406Y-78543928D01*
X194758951Y-78568166D01*
X194577613Y-78707311D01*
X194521730Y-78822219D01*
X194511182Y-78902340D01*
X194535420Y-79027794D01*
X198505842Y-63059084D02*
X197466612Y-63659084D01*
X198162985Y-62465238D02*
X197826282Y-63253479D01*
X197123754Y-63065238D02*
X198060458Y-63316227D01*
X197648699Y-61574469D02*
X197104341Y-61888754D01*
X197033938Y-61995385D01*
X197041594Y-62122931D01*
X197155879Y-62320879D01*
X197262509Y-62391282D01*
X197599212Y-61603040D02*
X197705842Y-61673444D01*
X197848699Y-61920879D01*
X197856355Y-62048425D01*
X197785953Y-62155055D01*
X197686978Y-62212198D01*
X197559432Y-62219854D01*
X197452802Y-62149451D01*
X197309945Y-61902015D01*
X197203315Y-61831612D01*
X196670165Y-61479598D02*
X197560935Y-60965312D01*
X197688480Y-60957657D01*
X197795110Y-61028059D01*
X197823681Y-61077546D01*
X196323755Y-61679598D02*
X196401814Y-61700514D01*
X196422730Y-61622455D01*
X196344671Y-61601539D01*
X196323755Y-61679598D01*
X196422730Y-61622455D01*
X196127308Y-60539341D02*
X196820128Y-60139341D01*
X196384451Y-60984726D02*
X196928810Y-60670440D01*
X196999212Y-60563810D01*
X196991556Y-60436264D01*
X196905842Y-60287803D01*
X196799212Y-60217400D01*
X196721153Y-60196484D01*
X196513498Y-59722529D02*
X196505842Y-59594983D01*
X196391556Y-59397033D01*
X196284927Y-59326631D01*
X196157381Y-59334286D01*
X196107894Y-59362858D01*
X196037491Y-59469488D01*
X196045146Y-59597033D01*
X196130861Y-59745495D01*
X196138517Y-59873041D01*
X196068114Y-59979671D01*
X196018627Y-60008243D01*
X195891081Y-60015898D01*
X195784451Y-59945495D01*
X195698736Y-59797033D01*
X195691081Y-59669488D01*
D13*
X182800000Y-72275714D02*
X182871428Y-72347143D01*
X182800000Y-72418571D01*
X182728571Y-72347143D01*
X182800000Y-72275714D01*
X182800000Y-72418571D01*
X177120000Y-79345714D02*
X177191428Y-79417143D01*
X177120000Y-79488571D01*
X177048571Y-79417143D01*
X177120000Y-79345714D01*
X177120000Y-79488571D01*
X187578572Y-52967143D02*
X188721429Y-52967143D01*
X188150000Y-53538571D02*
X188150000Y-52395714D01*
X186008572Y-64027143D02*
X187151429Y-64027143D01*
X186580000Y-64598571D02*
X186580000Y-63455714D01*
X198128572Y-67227143D02*
X199271429Y-67227143D01*
X198700000Y-67798571D02*
X198700000Y-66655714D01*
D12*
X183707106Y-83734446D02*
X184127398Y-84472679D01*
X184269853Y-83635219D01*
X184875691Y-83122222D02*
X184988240Y-83102377D01*
X185110713Y-83138806D01*
X185176910Y-83185158D01*
X185253031Y-83287785D01*
X185348996Y-83502961D01*
X185398610Y-83784334D01*
X185382026Y-84019357D01*
X185345597Y-84141828D01*
X185299245Y-84208026D01*
X185196618Y-84284146D01*
X185084069Y-84303992D01*
X184961597Y-84267562D01*
X184895399Y-84221210D01*
X184819279Y-84118584D01*
X184723313Y-83903408D01*
X184673699Y-83622034D01*
X184690283Y-83387013D01*
X184726712Y-83264540D01*
X184773064Y-83198343D01*
X184875691Y-83122222D01*
X185964619Y-84032678D02*
X186030816Y-84079030D01*
X185984464Y-84145228D01*
X185918266Y-84098876D01*
X185964619Y-84032678D01*
X185984464Y-84145228D01*
X187166234Y-83936850D02*
X186490937Y-84055923D01*
X186828586Y-83996386D02*
X186620208Y-82814617D01*
X186537427Y-83003287D01*
X186444723Y-83135681D01*
X186342096Y-83211802D01*
X178139354Y-84061966D02*
X178347732Y-82880196D01*
X178592813Y-83793777D01*
X179135578Y-83019115D01*
X178927200Y-84200884D01*
X179489948Y-84300112D02*
X179698326Y-83118343D01*
X179681880Y-83869759D02*
X179940146Y-84379494D01*
X180079064Y-83591648D02*
X179549484Y-83962464D01*
X180466464Y-84356249D02*
X180512816Y-84422447D01*
X180446619Y-84468799D01*
X180400266Y-84402601D01*
X180466464Y-84356249D01*
X180446619Y-84468799D01*
X181009366Y-84568026D02*
X181217744Y-83386257D01*
X181572114Y-84667254D02*
X181780492Y-83485485D01*
X170706704Y-79491747D02*
X171394996Y-78508764D01*
X171629040Y-78672644D01*
X171736690Y-78817779D01*
X171764756Y-78976949D01*
X171746013Y-79103342D01*
X171661718Y-79323353D01*
X171563391Y-79463778D01*
X171385479Y-79618238D01*
X171273119Y-79679079D01*
X171113950Y-79707144D01*
X170940748Y-79655626D01*
X170706704Y-79491747D01*
X172110965Y-80475021D02*
X172471499Y-79960125D01*
X172490242Y-79833732D01*
X172429400Y-79721371D01*
X172242165Y-79590269D01*
X172115772Y-79571526D01*
X172143741Y-80428212D02*
X172017348Y-80409469D01*
X171783304Y-80245590D01*
X171722463Y-80133230D01*
X171741205Y-80006837D01*
X171806757Y-79913219D01*
X171919117Y-79852378D01*
X172045511Y-79871121D01*
X172279554Y-80034999D01*
X172405947Y-80053742D01*
X172579052Y-80802778D02*
X173037913Y-80147457D01*
X172906809Y-80334692D02*
X173019170Y-80273850D01*
X173098754Y-80259817D01*
X173225148Y-80278560D01*
X173318765Y-80344111D01*
X173187564Y-81228864D02*
X173875856Y-80245881D01*
X173543388Y-80919946D02*
X173562034Y-81491070D01*
X174020895Y-80835748D02*
X173384219Y-80948012D01*
X173969280Y-81706468D02*
X174030121Y-81818828D01*
X174217356Y-81949932D01*
X174343749Y-81968674D01*
X174456109Y-81907833D01*
X174488885Y-81861024D01*
X174507628Y-81734631D01*
X174446787Y-81622271D01*
X174306361Y-81523943D01*
X174245519Y-81411583D01*
X174264261Y-81285190D01*
X174297037Y-81238381D01*
X174409398Y-81177540D01*
X174535791Y-81196283D01*
X174676218Y-81294610D01*
X174737059Y-81406970D01*
X175097496Y-81589592D02*
X175471966Y-81851799D01*
X175467352Y-81360259D02*
X174877388Y-82202816D01*
X174858645Y-82329208D01*
X174919487Y-82441569D01*
X175013105Y-82507121D01*
X175762043Y-83031533D02*
X176122576Y-82516638D01*
X176141319Y-82390244D01*
X176080478Y-82277884D01*
X175893243Y-82146781D01*
X175766850Y-82128038D01*
X175794819Y-82984724D02*
X175668425Y-82965981D01*
X175434382Y-82802102D01*
X175373540Y-82689742D01*
X175392283Y-82563349D01*
X175457835Y-82469731D01*
X175570195Y-82408890D01*
X175696589Y-82427633D01*
X175930632Y-82591512D01*
X176057025Y-82610254D01*
X176230129Y-83359291D02*
X176688991Y-82703969D01*
X176557887Y-82891204D02*
X176670248Y-82830362D01*
X176749832Y-82816329D01*
X176876226Y-82835072D01*
X176969843Y-82900624D01*
X129246704Y-79491747D02*
X129934996Y-78508764D01*
X130169040Y-78672644D01*
X130276690Y-78817779D01*
X130304756Y-78976949D01*
X130286013Y-79103342D01*
X130201718Y-79323353D01*
X130103391Y-79463778D01*
X129925479Y-79618238D01*
X129813119Y-79679079D01*
X129653950Y-79707144D01*
X129480748Y-79655626D01*
X129246704Y-79491747D01*
X130650965Y-80475021D02*
X131011499Y-79960125D01*
X131030242Y-79833732D01*
X130969400Y-79721371D01*
X130782165Y-79590269D01*
X130655772Y-79571526D01*
X130683741Y-80428212D02*
X130557348Y-80409469D01*
X130323304Y-80245590D01*
X130262463Y-80133230D01*
X130281205Y-80006837D01*
X130346757Y-79913219D01*
X130459117Y-79852378D01*
X130585511Y-79871121D01*
X130819554Y-80034999D01*
X130945947Y-80053742D01*
X131119052Y-80802778D02*
X131577913Y-80147457D01*
X131446809Y-80334692D02*
X131559170Y-80273850D01*
X131638754Y-80259817D01*
X131765148Y-80278560D01*
X131858765Y-80344111D01*
X131727564Y-81228864D02*
X132415856Y-80245881D01*
X132083388Y-80919946D02*
X132102034Y-81491070D01*
X132560895Y-80835748D02*
X131924219Y-80948012D01*
X132509280Y-81706468D02*
X132570121Y-81818828D01*
X132757356Y-81949932D01*
X132883749Y-81968674D01*
X132996109Y-81907833D01*
X133028885Y-81861024D01*
X133047628Y-81734631D01*
X132986787Y-81622271D01*
X132846361Y-81523943D01*
X132785519Y-81411583D01*
X132804261Y-81285190D01*
X132837037Y-81238381D01*
X132949398Y-81177540D01*
X133075791Y-81196283D01*
X133216218Y-81294610D01*
X133277059Y-81406970D01*
X133637496Y-81589592D02*
X134011966Y-81851799D01*
X134007352Y-81360259D02*
X133417388Y-82202816D01*
X133398645Y-82329208D01*
X133459487Y-82441569D01*
X133553105Y-82507121D01*
X134302043Y-83031533D02*
X134662576Y-82516638D01*
X134681319Y-82390244D01*
X134620478Y-82277884D01*
X134433243Y-82146781D01*
X134306850Y-82128038D01*
X134334819Y-82984724D02*
X134208425Y-82965981D01*
X133974382Y-82802102D01*
X133913540Y-82689742D01*
X133932283Y-82563349D01*
X133997835Y-82469731D01*
X134110195Y-82408890D01*
X134236589Y-82427633D01*
X134470632Y-82591512D01*
X134597025Y-82610254D01*
X134770129Y-83359291D02*
X135228991Y-82703969D01*
X135097887Y-82891204D02*
X135210248Y-82830362D01*
X135289832Y-82816329D01*
X135416226Y-82835072D01*
X135509843Y-82900624D01*
X136679354Y-84061966D02*
X136887732Y-82880196D01*
X137132813Y-83793777D01*
X137675578Y-83019115D01*
X137467200Y-84200884D01*
X138029948Y-84300112D02*
X138238326Y-83118343D01*
X138221880Y-83869759D02*
X138480146Y-84379494D01*
X138619064Y-83591648D02*
X138089484Y-83962464D01*
X139006464Y-84356249D02*
X139052816Y-84422447D01*
X138986619Y-84468799D01*
X138940266Y-84402601D01*
X139006464Y-84356249D01*
X138986619Y-84468799D01*
X139549366Y-84568026D02*
X139757744Y-83386257D01*
X140112114Y-84667254D02*
X140320492Y-83485485D01*
X142247106Y-83734446D02*
X142667398Y-84472679D01*
X142809853Y-83635219D01*
X143415691Y-83122222D02*
X143528240Y-83102377D01*
X143650713Y-83138806D01*
X143716910Y-83185158D01*
X143793031Y-83287785D01*
X143888996Y-83502961D01*
X143938610Y-83784334D01*
X143922026Y-84019357D01*
X143885597Y-84141828D01*
X143839245Y-84208026D01*
X143736618Y-84284146D01*
X143624069Y-84303992D01*
X143501597Y-84267562D01*
X143435399Y-84221210D01*
X143359279Y-84118584D01*
X143263313Y-83903408D01*
X143213699Y-83622034D01*
X143230283Y-83387013D01*
X143266712Y-83264540D01*
X143313064Y-83198343D01*
X143415691Y-83122222D01*
X144504619Y-84032678D02*
X144570816Y-84079030D01*
X144524464Y-84145228D01*
X144458266Y-84098876D01*
X144504619Y-84032678D01*
X144524464Y-84145228D01*
X145706234Y-83936850D02*
X145030937Y-84055923D01*
X145368586Y-83996386D02*
X145160208Y-82814617D01*
X145077427Y-83003287D01*
X144984723Y-83135681D01*
X144882096Y-83211802D01*
D13*
X156668572Y-67227143D02*
X157811429Y-67227143D01*
X157240000Y-67798571D02*
X157240000Y-66655714D01*
X144548572Y-64027143D02*
X145691429Y-64027143D01*
X145120000Y-64598571D02*
X145120000Y-63455714D01*
X146118572Y-52967143D02*
X147261429Y-52967143D01*
X146690000Y-53538571D02*
X146690000Y-52395714D01*
X135660000Y-79345714D02*
X135731428Y-79417143D01*
X135660000Y-79488571D01*
X135588571Y-79417143D01*
X135660000Y-79345714D01*
X135660000Y-79488571D01*
X141340000Y-72275714D02*
X141411428Y-72347143D01*
X141340000Y-72418571D01*
X141268571Y-72347143D01*
X141340000Y-72275714D01*
X141340000Y-72418571D01*
D12*
X157045842Y-63059084D02*
X156006612Y-63659084D01*
X156702985Y-62465238D02*
X156366282Y-63253479D01*
X155663754Y-63065238D02*
X156600458Y-63316227D01*
X156188699Y-61574469D02*
X155644341Y-61888754D01*
X155573938Y-61995385D01*
X155581594Y-62122931D01*
X155695879Y-62320879D01*
X155802509Y-62391282D01*
X156139212Y-61603040D02*
X156245842Y-61673444D01*
X156388699Y-61920879D01*
X156396355Y-62048425D01*
X156325953Y-62155055D01*
X156226978Y-62212198D01*
X156099432Y-62219854D01*
X155992802Y-62149451D01*
X155849945Y-61902015D01*
X155743315Y-61831612D01*
X155210165Y-61479598D02*
X156100935Y-60965312D01*
X156228480Y-60957657D01*
X156335110Y-61028059D01*
X156363681Y-61077546D01*
X154863755Y-61679598D02*
X154941814Y-61700514D01*
X154962730Y-61622455D01*
X154884671Y-61601539D01*
X154863755Y-61679598D01*
X154962730Y-61622455D01*
X154667308Y-60539341D02*
X155360128Y-60139341D01*
X154924451Y-60984726D02*
X155468810Y-60670440D01*
X155539212Y-60563810D01*
X155531556Y-60436264D01*
X155445842Y-60287803D01*
X155339212Y-60217400D01*
X155261153Y-60196484D01*
X155053498Y-59722529D02*
X155045842Y-59594983D01*
X154931556Y-59397033D01*
X154824927Y-59326631D01*
X154697381Y-59334286D01*
X154647894Y-59362858D01*
X154577491Y-59469488D01*
X154585146Y-59597033D01*
X154670861Y-59745495D01*
X154678517Y-59873041D01*
X154608114Y-59979671D01*
X154558627Y-60008243D01*
X154431081Y-60015898D01*
X154324451Y-59945495D01*
X154238736Y-59797033D01*
X154231081Y-59669488D01*
X150007488Y-80661632D02*
X150018036Y-80581511D01*
X150073919Y-80466603D01*
X150300591Y-80292672D01*
X150426047Y-80268433D01*
X150506168Y-80278982D01*
X150621076Y-80334864D01*
X150690648Y-80425533D01*
X150749673Y-80596323D01*
X150623095Y-81557773D01*
X151212443Y-81105550D01*
X151071278Y-79701303D02*
X151161946Y-79631731D01*
X151287402Y-79607493D01*
X151367523Y-79618041D01*
X151482430Y-79673923D01*
X151666910Y-79820475D01*
X151840842Y-80047147D01*
X151934653Y-80263272D01*
X151958891Y-80388726D01*
X151948343Y-80468847D01*
X151892460Y-80583755D01*
X151801792Y-80653327D01*
X151676336Y-80677566D01*
X151596215Y-80667017D01*
X151481308Y-80611135D01*
X151296828Y-80464584D01*
X151122896Y-80237911D01*
X151029085Y-80021787D01*
X151004847Y-79896332D01*
X151015395Y-79816211D01*
X151071278Y-79701303D01*
X153025822Y-79714095D02*
X152481808Y-80131532D01*
X152753816Y-79922813D02*
X152023302Y-78970789D01*
X152036992Y-79176366D01*
X152015895Y-79336607D01*
X151960012Y-79451515D01*
X153111329Y-78135917D02*
X152929991Y-78275062D01*
X152874108Y-78389970D01*
X152863560Y-78470091D01*
X152877250Y-78675667D01*
X152971061Y-78891791D01*
X153249352Y-79254467D01*
X153364259Y-79310349D01*
X153444380Y-79320897D01*
X153569836Y-79296659D01*
X153751173Y-79157514D01*
X153807056Y-79042606D01*
X153817604Y-78962485D01*
X153793366Y-78837031D01*
X153619434Y-78610358D01*
X153504527Y-78554476D01*
X153424406Y-78543928D01*
X153298951Y-78568166D01*
X153117613Y-78707311D01*
X153061730Y-78822219D01*
X153051182Y-78902340D01*
X153075420Y-79027794D01*
D11*
X139239809Y-62640762D02*
X139382666Y-62688381D01*
X139620762Y-62688381D01*
X139716000Y-62640762D01*
X139763619Y-62593143D01*
X139811238Y-62497905D01*
X139811238Y-62402667D01*
X139763619Y-62307429D01*
X139716000Y-62259810D01*
X139620762Y-62212190D01*
X139430285Y-62164571D01*
X139335047Y-62116952D01*
X139287428Y-62069333D01*
X139239809Y-61974095D01*
X139239809Y-61878857D01*
X139287428Y-61783619D01*
X139335047Y-61736000D01*
X139430285Y-61688381D01*
X139668381Y-61688381D01*
X139811238Y-61736000D01*
X140239809Y-62021714D02*
X140239809Y-63021714D01*
X140239809Y-62069333D02*
X140335047Y-62021714D01*
X140525524Y-62021714D01*
X140620762Y-62069333D01*
X140668381Y-62116952D01*
X140716000Y-62212190D01*
X140716000Y-62497905D01*
X140668381Y-62593143D01*
X140620762Y-62640762D01*
X140525524Y-62688381D01*
X140335047Y-62688381D01*
X140239809Y-62640762D01*
X141287428Y-62688381D02*
X141192190Y-62640762D01*
X141144571Y-62593143D01*
X141096952Y-62497905D01*
X141096952Y-62212190D01*
X141144571Y-62116952D01*
X141192190Y-62069333D01*
X141287428Y-62021714D01*
X141430286Y-62021714D01*
X141525524Y-62069333D01*
X141573143Y-62116952D01*
X141620762Y-62212190D01*
X141620762Y-62497905D01*
X141573143Y-62593143D01*
X141525524Y-62640762D01*
X141430286Y-62688381D01*
X141287428Y-62688381D01*
X141906476Y-62021714D02*
X142287428Y-62021714D01*
X142049333Y-61688381D02*
X142049333Y-62545524D01*
X142096952Y-62640762D01*
X142192190Y-62688381D01*
X142287428Y-62688381D01*
X142943428Y-52011714D02*
X142643428Y-52011714D01*
X142643428Y-52483143D02*
X142643428Y-51583143D01*
X143071999Y-51583143D01*
X143543428Y-52483143D02*
X143457714Y-52440286D01*
X143414857Y-52354571D01*
X143414857Y-51583143D01*
X144014857Y-52483143D02*
X143929143Y-52440286D01*
X143886286Y-52397429D01*
X143843429Y-52311714D01*
X143843429Y-52054571D01*
X143886286Y-51968857D01*
X143929143Y-51926000D01*
X144014857Y-51883143D01*
X144143429Y-51883143D01*
X144229143Y-51926000D01*
X144272000Y-51968857D01*
X144314857Y-52054571D01*
X144314857Y-52311714D01*
X144272000Y-52397429D01*
X144229143Y-52440286D01*
X144143429Y-52483143D01*
X144014857Y-52483143D01*
X144829143Y-52483143D02*
X144743429Y-52440286D01*
X144700572Y-52397429D01*
X144657715Y-52311714D01*
X144657715Y-52054571D01*
X144700572Y-51968857D01*
X144743429Y-51926000D01*
X144829143Y-51883143D01*
X144957715Y-51883143D01*
X145043429Y-51926000D01*
X145086286Y-51968857D01*
X145129143Y-52054571D01*
X145129143Y-52311714D01*
X145086286Y-52397429D01*
X145043429Y-52440286D01*
X144957715Y-52483143D01*
X144829143Y-52483143D01*
X145900572Y-52483143D02*
X145900572Y-51583143D01*
X145900572Y-52440286D02*
X145814858Y-52483143D01*
X145643429Y-52483143D01*
X145557715Y-52440286D01*
X145514858Y-52397429D01*
X145472001Y-52311714D01*
X145472001Y-52054571D01*
X145514858Y-51968857D01*
X145557715Y-51926000D01*
X145643429Y-51883143D01*
X145814858Y-51883143D01*
X145900572Y-51926000D01*
X136947164Y-72959080D02*
X137484132Y-73154520D01*
X136873627Y-73996492D02*
X137215648Y-73056799D01*
X138708266Y-74664246D02*
X138557902Y-74102766D01*
X138171299Y-74468806D02*
X138513319Y-73529113D01*
X138871298Y-73659407D01*
X138944505Y-73736727D01*
X138972966Y-73797761D01*
X138985140Y-73903542D01*
X138936280Y-74037784D01*
X138858959Y-74110992D01*
X138797926Y-74139452D01*
X138692144Y-74151626D01*
X138334166Y-74021333D01*
X140644902Y-74355621D02*
X140571694Y-74278300D01*
X140437452Y-74229440D01*
X140286923Y-74225327D01*
X140164855Y-74282249D01*
X140087535Y-74355456D01*
X139977641Y-74518159D01*
X139928781Y-74652401D01*
X139908381Y-74847677D01*
X139920555Y-74953458D01*
X139977476Y-75075526D01*
X140095432Y-75169133D01*
X140184927Y-75201706D01*
X140335455Y-75205819D01*
X140396489Y-75177359D01*
X140510495Y-74864128D01*
X140331507Y-74798981D01*
X136947164Y-114609080D02*
X137484132Y-114804520D01*
X136873627Y-115646492D02*
X137215648Y-114706799D01*
X138708266Y-116314246D02*
X138557902Y-115752766D01*
X138171299Y-116118806D02*
X138513319Y-115179113D01*
X138871298Y-115309407D01*
X138944505Y-115386727D01*
X138972966Y-115447761D01*
X138985140Y-115553542D01*
X138936280Y-115687784D01*
X138858959Y-115760992D01*
X138797926Y-115789452D01*
X138692144Y-115801626D01*
X138334166Y-115671333D01*
X140644902Y-116005621D02*
X140571694Y-115928300D01*
X140437452Y-115879440D01*
X140286923Y-115875327D01*
X140164855Y-115932249D01*
X140087535Y-116005456D01*
X139977641Y-116168159D01*
X139928781Y-116302401D01*
X139908381Y-116497677D01*
X139920555Y-116603458D01*
X139977476Y-116725526D01*
X140095432Y-116819133D01*
X140184927Y-116851706D01*
X140335455Y-116855819D01*
X140396489Y-116827359D01*
X140510495Y-116514128D01*
X140331507Y-116448981D01*
X142943428Y-93661714D02*
X142643428Y-93661714D01*
X142643428Y-94133143D02*
X142643428Y-93233143D01*
X143071999Y-93233143D01*
X143543428Y-94133143D02*
X143457714Y-94090286D01*
X143414857Y-94004571D01*
X143414857Y-93233143D01*
X144014857Y-94133143D02*
X143929143Y-94090286D01*
X143886286Y-94047429D01*
X143843429Y-93961714D01*
X143843429Y-93704571D01*
X143886286Y-93618857D01*
X143929143Y-93576000D01*
X144014857Y-93533143D01*
X144143429Y-93533143D01*
X144229143Y-93576000D01*
X144272000Y-93618857D01*
X144314857Y-93704571D01*
X144314857Y-93961714D01*
X144272000Y-94047429D01*
X144229143Y-94090286D01*
X144143429Y-94133143D01*
X144014857Y-94133143D01*
X144829143Y-94133143D02*
X144743429Y-94090286D01*
X144700572Y-94047429D01*
X144657715Y-93961714D01*
X144657715Y-93704571D01*
X144700572Y-93618857D01*
X144743429Y-93576000D01*
X144829143Y-93533143D01*
X144957715Y-93533143D01*
X145043429Y-93576000D01*
X145086286Y-93618857D01*
X145129143Y-93704571D01*
X145129143Y-93961714D01*
X145086286Y-94047429D01*
X145043429Y-94090286D01*
X144957715Y-94133143D01*
X144829143Y-94133143D01*
X145900572Y-94133143D02*
X145900572Y-93233143D01*
X145900572Y-94090286D02*
X145814858Y-94133143D01*
X145643429Y-94133143D01*
X145557715Y-94090286D01*
X145514858Y-94047429D01*
X145472001Y-93961714D01*
X145472001Y-93704571D01*
X145514858Y-93618857D01*
X145557715Y-93576000D01*
X145643429Y-93533143D01*
X145814858Y-93533143D01*
X145900572Y-93576000D01*
X139239809Y-104290762D02*
X139382666Y-104338381D01*
X139620762Y-104338381D01*
X139716000Y-104290762D01*
X139763619Y-104243143D01*
X139811238Y-104147905D01*
X139811238Y-104052667D01*
X139763619Y-103957429D01*
X139716000Y-103909810D01*
X139620762Y-103862190D01*
X139430285Y-103814571D01*
X139335047Y-103766952D01*
X139287428Y-103719333D01*
X139239809Y-103624095D01*
X139239809Y-103528857D01*
X139287428Y-103433619D01*
X139335047Y-103386000D01*
X139430285Y-103338381D01*
X139668381Y-103338381D01*
X139811238Y-103386000D01*
X140239809Y-103671714D02*
X140239809Y-104671714D01*
X140239809Y-103719333D02*
X140335047Y-103671714D01*
X140525524Y-103671714D01*
X140620762Y-103719333D01*
X140668381Y-103766952D01*
X140716000Y-103862190D01*
X140716000Y-104147905D01*
X140668381Y-104243143D01*
X140620762Y-104290762D01*
X140525524Y-104338381D01*
X140335047Y-104338381D01*
X140239809Y-104290762D01*
X141287428Y-104338381D02*
X141192190Y-104290762D01*
X141144571Y-104243143D01*
X141096952Y-104147905D01*
X141096952Y-103862190D01*
X141144571Y-103766952D01*
X141192190Y-103719333D01*
X141287428Y-103671714D01*
X141430286Y-103671714D01*
X141525524Y-103719333D01*
X141573143Y-103766952D01*
X141620762Y-103862190D01*
X141620762Y-104147905D01*
X141573143Y-104243143D01*
X141525524Y-104290762D01*
X141430286Y-104338381D01*
X141287428Y-104338381D01*
X141906476Y-103671714D02*
X142287428Y-103671714D01*
X142049333Y-103338381D02*
X142049333Y-104195524D01*
X142096952Y-104290762D01*
X142192190Y-104338381D01*
X142287428Y-104338381D01*
D12*
X150007488Y-122311632D02*
X150018036Y-122231511D01*
X150073919Y-122116603D01*
X150300591Y-121942672D01*
X150426047Y-121918433D01*
X150506168Y-121928982D01*
X150621076Y-121984864D01*
X150690648Y-122075533D01*
X150749673Y-122246323D01*
X150623095Y-123207773D01*
X151212443Y-122755550D01*
X151071278Y-121351303D02*
X151161946Y-121281731D01*
X151287402Y-121257493D01*
X151367523Y-121268041D01*
X151482430Y-121323923D01*
X151666910Y-121470475D01*
X151840842Y-121697147D01*
X151934653Y-121913272D01*
X151958891Y-122038726D01*
X151948343Y-122118847D01*
X151892460Y-122233755D01*
X151801792Y-122303327D01*
X151676336Y-122327566D01*
X151596215Y-122317017D01*
X151481308Y-122261135D01*
X151296828Y-122114584D01*
X151122896Y-121887911D01*
X151029085Y-121671787D01*
X151004847Y-121546332D01*
X151015395Y-121466211D01*
X151071278Y-121351303D01*
X153025822Y-121364095D02*
X152481808Y-121781532D01*
X152753816Y-121572813D02*
X152023302Y-120620789D01*
X152036992Y-120826366D01*
X152015895Y-120986607D01*
X151960012Y-121101515D01*
X153111329Y-119785917D02*
X152929991Y-119925062D01*
X152874108Y-120039970D01*
X152863560Y-120120091D01*
X152877250Y-120325667D01*
X152971061Y-120541791D01*
X153249352Y-120904467D01*
X153364259Y-120960349D01*
X153444380Y-120970897D01*
X153569836Y-120946659D01*
X153751173Y-120807514D01*
X153807056Y-120692606D01*
X153817604Y-120612485D01*
X153793366Y-120487031D01*
X153619434Y-120260358D01*
X153504527Y-120204476D01*
X153424406Y-120193928D01*
X153298951Y-120218166D01*
X153117613Y-120357311D01*
X153061730Y-120472219D01*
X153051182Y-120552340D01*
X153075420Y-120677794D01*
X157045842Y-104709084D02*
X156006612Y-105309084D01*
X156702985Y-104115238D02*
X156366282Y-104903479D01*
X155663754Y-104715238D02*
X156600458Y-104966227D01*
X156188699Y-103224469D02*
X155644341Y-103538754D01*
X155573938Y-103645385D01*
X155581594Y-103772931D01*
X155695879Y-103970879D01*
X155802509Y-104041282D01*
X156139212Y-103253040D02*
X156245842Y-103323444D01*
X156388699Y-103570879D01*
X156396355Y-103698425D01*
X156325953Y-103805055D01*
X156226978Y-103862198D01*
X156099432Y-103869854D01*
X155992802Y-103799451D01*
X155849945Y-103552015D01*
X155743315Y-103481612D01*
X155210165Y-103129598D02*
X156100935Y-102615312D01*
X156228480Y-102607657D01*
X156335110Y-102678059D01*
X156363681Y-102727546D01*
X154863755Y-103329598D02*
X154941814Y-103350514D01*
X154962730Y-103272455D01*
X154884671Y-103251539D01*
X154863755Y-103329598D01*
X154962730Y-103272455D01*
X154667308Y-102189341D02*
X155360128Y-101789341D01*
X154924451Y-102634726D02*
X155468810Y-102320440D01*
X155539212Y-102213810D01*
X155531556Y-102086264D01*
X155445842Y-101937803D01*
X155339212Y-101867400D01*
X155261153Y-101846484D01*
X155053498Y-101372529D02*
X155045842Y-101244983D01*
X154931556Y-101047033D01*
X154824927Y-100976631D01*
X154697381Y-100984286D01*
X154647894Y-101012858D01*
X154577491Y-101119488D01*
X154585146Y-101247033D01*
X154670861Y-101395495D01*
X154678517Y-101523041D01*
X154608114Y-101629671D01*
X154558627Y-101658243D01*
X154431081Y-101665898D01*
X154324451Y-101595495D01*
X154238736Y-101447033D01*
X154231081Y-101319488D01*
D13*
X141340000Y-113925714D02*
X141411428Y-113997143D01*
X141340000Y-114068571D01*
X141268571Y-113997143D01*
X141340000Y-113925714D01*
X141340000Y-114068571D01*
X135660000Y-120995714D02*
X135731428Y-121067143D01*
X135660000Y-121138571D01*
X135588571Y-121067143D01*
X135660000Y-120995714D01*
X135660000Y-121138571D01*
X146118572Y-94617143D02*
X147261429Y-94617143D01*
X146690000Y-95188571D02*
X146690000Y-94045714D01*
X144548572Y-105677143D02*
X145691429Y-105677143D01*
X145120000Y-106248571D02*
X145120000Y-105105714D01*
X156668572Y-108877143D02*
X157811429Y-108877143D01*
X157240000Y-109448571D02*
X157240000Y-108305714D01*
D12*
X142247106Y-125384446D02*
X142667398Y-126122679D01*
X142809853Y-125285219D01*
X143415691Y-124772222D02*
X143528240Y-124752377D01*
X143650713Y-124788806D01*
X143716910Y-124835158D01*
X143793031Y-124937785D01*
X143888996Y-125152961D01*
X143938610Y-125434334D01*
X143922026Y-125669357D01*
X143885597Y-125791828D01*
X143839245Y-125858026D01*
X143736618Y-125934146D01*
X143624069Y-125953992D01*
X143501597Y-125917562D01*
X143435399Y-125871210D01*
X143359279Y-125768584D01*
X143263313Y-125553408D01*
X143213699Y-125272034D01*
X143230283Y-125037013D01*
X143266712Y-124914540D01*
X143313064Y-124848343D01*
X143415691Y-124772222D01*
X144504619Y-125682678D02*
X144570816Y-125729030D01*
X144524464Y-125795228D01*
X144458266Y-125748876D01*
X144504619Y-125682678D01*
X144524464Y-125795228D01*
X145706234Y-125586850D02*
X145030937Y-125705923D01*
X145368586Y-125646386D02*
X145160208Y-124464617D01*
X145077427Y-124653287D01*
X144984723Y-124785681D01*
X144882096Y-124861802D01*
X136679354Y-125711966D02*
X136887732Y-124530196D01*
X137132813Y-125443777D01*
X137675578Y-124669115D01*
X137467200Y-125850884D01*
X138029948Y-125950112D02*
X138238326Y-124768343D01*
X138221880Y-125519759D02*
X138480146Y-126029494D01*
X138619064Y-125241648D02*
X138089484Y-125612464D01*
X139006464Y-126006249D02*
X139052816Y-126072447D01*
X138986619Y-126118799D01*
X138940266Y-126052601D01*
X139006464Y-126006249D01*
X138986619Y-126118799D01*
X139549366Y-126218026D02*
X139757744Y-125036257D01*
X140112114Y-126317254D02*
X140320492Y-125135485D01*
X129246704Y-121141747D02*
X129934996Y-120158764D01*
X130169040Y-120322644D01*
X130276690Y-120467779D01*
X130304756Y-120626949D01*
X130286013Y-120753342D01*
X130201718Y-120973353D01*
X130103391Y-121113778D01*
X129925479Y-121268238D01*
X129813119Y-121329079D01*
X129653950Y-121357144D01*
X129480748Y-121305626D01*
X129246704Y-121141747D01*
X130650965Y-122125021D02*
X131011499Y-121610125D01*
X131030242Y-121483732D01*
X130969400Y-121371371D01*
X130782165Y-121240269D01*
X130655772Y-121221526D01*
X130683741Y-122078212D02*
X130557348Y-122059469D01*
X130323304Y-121895590D01*
X130262463Y-121783230D01*
X130281205Y-121656837D01*
X130346757Y-121563219D01*
X130459117Y-121502378D01*
X130585511Y-121521121D01*
X130819554Y-121684999D01*
X130945947Y-121703742D01*
X131119052Y-122452778D02*
X131577913Y-121797457D01*
X131446809Y-121984692D02*
X131559170Y-121923850D01*
X131638754Y-121909817D01*
X131765148Y-121928560D01*
X131858765Y-121994111D01*
X131727564Y-122878864D02*
X132415856Y-121895881D01*
X132083388Y-122569946D02*
X132102034Y-123141070D01*
X132560895Y-122485748D02*
X131924219Y-122598012D01*
X132509280Y-123356468D02*
X132570121Y-123468828D01*
X132757356Y-123599932D01*
X132883749Y-123618674D01*
X132996109Y-123557833D01*
X133028885Y-123511024D01*
X133047628Y-123384631D01*
X132986787Y-123272271D01*
X132846361Y-123173943D01*
X132785519Y-123061583D01*
X132804261Y-122935190D01*
X132837037Y-122888381D01*
X132949398Y-122827540D01*
X133075791Y-122846283D01*
X133216218Y-122944610D01*
X133277059Y-123056970D01*
X133637496Y-123239592D02*
X134011966Y-123501799D01*
X134007352Y-123010259D02*
X133417388Y-123852816D01*
X133398645Y-123979208D01*
X133459487Y-124091569D01*
X133553105Y-124157121D01*
X134302043Y-124681533D02*
X134662576Y-124166638D01*
X134681319Y-124040244D01*
X134620478Y-123927884D01*
X134433243Y-123796781D01*
X134306850Y-123778038D01*
X134334819Y-124634724D02*
X134208425Y-124615981D01*
X133974382Y-124452102D01*
X133913540Y-124339742D01*
X133932283Y-124213349D01*
X133997835Y-124119731D01*
X134110195Y-124058890D01*
X134236589Y-124077633D01*
X134470632Y-124241512D01*
X134597025Y-124260254D01*
X134770129Y-125009291D02*
X135228991Y-124353969D01*
X135097887Y-124541204D02*
X135210248Y-124480362D01*
X135289832Y-124466329D01*
X135416226Y-124485072D01*
X135509843Y-124550624D01*
D14*
X182524170Y-114296162D02*
X178943941Y-112993065D01*
X178943941Y-112993065D02*
X178335830Y-114663838D01*
X178335830Y-114663838D02*
X181916059Y-115966935D01*
X182524170Y-114296162D02*
X181916059Y-115966935D01*
X183020000Y-124880000D02*
X182320000Y-124880000D01*
X182320000Y-123680000D02*
X183020000Y-123680000D01*
X188200000Y-115205000D02*
X189200000Y-115205000D01*
X189200000Y-116555000D02*
X188200000Y-116555000D01*
X195550000Y-116015000D02*
X196550000Y-116015000D01*
X196550000Y-117365000D02*
X195550000Y-117365000D01*
X183240000Y-119175000D02*
X184240000Y-119175000D01*
X184240000Y-120525000D02*
X183240000Y-120525000D01*
X182075000Y-100000000D02*
X182075000Y-101000000D01*
X180725000Y-101000000D02*
X180725000Y-100000000D01*
X182865000Y-121470000D02*
X182865000Y-122470000D01*
X181515000Y-122470000D02*
X181515000Y-121470000D01*
X181100000Y-97105000D02*
X182100000Y-97105000D01*
X182100000Y-98455000D02*
X181100000Y-98455000D01*
X176435000Y-94910000D02*
X176435000Y-95910000D01*
X175085000Y-95910000D02*
X175085000Y-94910000D01*
X184125000Y-94670000D02*
X184125000Y-95670000D01*
X182775000Y-95670000D02*
X182775000Y-94670000D01*
X183200000Y-94125000D02*
X182200000Y-94125000D01*
X182200000Y-92775000D02*
X183200000Y-92775000D01*
X168980000Y-108725000D02*
X169980000Y-108725000D01*
X169980000Y-110075000D02*
X168980000Y-110075000D01*
X168960000Y-109965000D02*
X169960000Y-109965000D01*
X169960000Y-111315000D02*
X168960000Y-111315000D01*
X174420000Y-105045000D02*
X175420000Y-105045000D01*
X175420000Y-106395000D02*
X174420000Y-106395000D01*
X176975000Y-102390000D02*
X176975000Y-103390000D01*
X175625000Y-103390000D02*
X175625000Y-102390000D01*
X181505000Y-120630000D02*
X181505000Y-121630000D01*
X180155000Y-121630000D02*
X180155000Y-120630000D01*
X181230000Y-118795000D02*
X180230000Y-118795000D01*
X180230000Y-117445000D02*
X181230000Y-117445000D01*
X179760000Y-117615000D02*
X178760000Y-117615000D01*
X178760000Y-116265000D02*
X179760000Y-116265000D01*
X177070000Y-100335000D02*
X178070000Y-100335000D01*
X178070000Y-101685000D02*
X177070000Y-101685000D01*
X175180000Y-109505000D02*
X174180000Y-109505000D01*
X174180000Y-108155000D02*
X175180000Y-108155000D01*
X176255000Y-107330000D02*
X176255000Y-106330000D01*
X177605000Y-106330000D02*
X177605000Y-107330000D01*
X180475000Y-123050000D02*
X180475000Y-124050000D01*
X179125000Y-124050000D02*
X179125000Y-123050000D01*
X177470000Y-122725000D02*
X178470000Y-122725000D01*
X178470000Y-124075000D02*
X177470000Y-124075000D01*
X178595000Y-121690000D02*
X178595000Y-120690000D01*
X179945000Y-120690000D02*
X179945000Y-121690000D01*
X173083788Y-97054651D02*
X172547557Y-97504602D01*
X171776212Y-96585349D02*
X172312443Y-96135398D01*
X189820000Y-118400000D02*
X189120000Y-118400000D01*
X189120000Y-117200000D02*
X189820000Y-117200000D01*
X180320000Y-118760000D02*
X181020000Y-118760000D01*
X181020000Y-119960000D02*
X180320000Y-119960000D01*
X174470000Y-106950000D02*
X175170000Y-106950000D01*
X175170000Y-108150000D02*
X174470000Y-108150000D01*
X169720000Y-108710000D02*
X169020000Y-108710000D01*
X169020000Y-107510000D02*
X169720000Y-107510000D01*
X177450000Y-122760000D02*
X176750000Y-122760000D01*
X176750000Y-121560000D02*
X177450000Y-121560000D01*
X197066000Y-109890000D02*
X197766000Y-109890000D01*
X197766000Y-111090000D02*
X197066000Y-111090000D01*
D15*
X173700000Y-105070000D02*
X173700000Y-109720000D01*
X170500000Y-105070000D02*
X170500000Y-109720000D01*
X170500000Y-109720000D02*
X171300000Y-109720000D01*
X175860000Y-118530000D02*
X174060000Y-118530000D01*
X174060000Y-121750000D02*
X176510000Y-121750000D01*
X186427938Y-101814924D02*
X186427938Y-98845076D01*
X192296924Y-95945938D02*
X189327076Y-95945938D01*
X192296924Y-95945938D02*
X195196062Y-98845076D01*
X195196062Y-98845076D02*
X195196062Y-101814924D01*
X189327076Y-104714062D02*
X186427938Y-101814924D01*
X186735938Y-110604924D02*
X186735938Y-107635076D01*
X192604924Y-104735938D02*
X189635076Y-104735938D01*
X192604924Y-104735938D02*
X195504062Y-107635076D01*
X195504062Y-107635076D02*
X195504062Y-110604924D01*
X189635076Y-113504062D02*
X186735938Y-110604924D01*
X175340000Y-105020000D02*
X170690000Y-105020000D01*
X175340000Y-101820000D02*
X170690000Y-101820000D01*
X170690000Y-101820000D02*
X170690000Y-102620000D01*
X172620000Y-101860000D02*
X172620000Y-97210000D01*
X175820000Y-101860000D02*
X175820000Y-97210000D01*
X175820000Y-97210000D02*
X175020000Y-97210000D01*
D14*
X181255000Y-97195000D02*
X181255000Y-97020000D01*
X177905000Y-97195000D02*
X177905000Y-96945000D01*
X177905000Y-93845000D02*
X177905000Y-94095000D01*
X181255000Y-93845000D02*
X181255000Y-94095000D01*
X181255000Y-97195000D02*
X177905000Y-97195000D01*
X181255000Y-93845000D02*
X177905000Y-93845000D01*
X181255000Y-97020000D02*
X182505000Y-97020000D01*
D15*
X187550000Y-117860000D02*
X187550000Y-116060000D01*
X184330000Y-116060000D02*
X184330000Y-118510000D01*
X190970000Y-117170000D02*
X192770000Y-117170000D01*
X192770000Y-113950000D02*
X190320000Y-113950000D01*
D14*
X167957331Y-104271189D02*
X169013877Y-102005419D01*
X169013877Y-102005419D02*
X170010815Y-102470300D01*
X170010815Y-102470300D02*
X168954270Y-104736069D01*
X168954270Y-104736069D02*
X167957331Y-104271189D01*
X169075192Y-105068301D02*
X170343047Y-102349377D01*
X167625100Y-104392111D02*
X168892954Y-101673188D01*
X168892954Y-101673188D02*
X170343047Y-102349377D01*
X167625100Y-104392111D02*
X169075192Y-105068301D01*
X169302257Y-106829250D02*
X171837967Y-101391403D01*
X166130180Y-105350086D02*
X168665889Y-99912239D01*
X166130180Y-105350086D02*
X169302257Y-106829250D01*
X168665889Y-99912239D02*
X171837967Y-101391403D01*
X185462000Y-100643000D02*
X183462000Y-100643000D01*
X183462000Y-98493000D02*
X185462000Y-98493000D01*
X185440000Y-102845000D02*
X183440000Y-102845000D01*
X183440000Y-100695000D02*
X185440000Y-100695000D01*
D15*
X189050000Y-112870000D02*
X188120000Y-112870000D01*
X185890000Y-112870000D02*
X186820000Y-112870000D01*
X185890000Y-112870000D02*
X185890000Y-115030000D01*
X189050000Y-112870000D02*
X189050000Y-114330000D01*
X196964000Y-113540000D02*
X196034000Y-113540000D01*
X193804000Y-113540000D02*
X194734000Y-113540000D01*
X193804000Y-113540000D02*
X193804000Y-115700000D01*
X196964000Y-113540000D02*
X196964000Y-115000000D01*
D14*
X172425000Y-109590000D02*
X172425000Y-109615000D01*
X176575000Y-109590000D02*
X176575000Y-109705000D01*
X176575000Y-118490000D02*
X176575000Y-118375000D01*
X172425000Y-118490000D02*
X172425000Y-118375000D01*
X172425000Y-109590000D02*
X176575000Y-109590000D01*
X172425000Y-118490000D02*
X176575000Y-118490000D01*
X172425000Y-109615000D02*
X171050000Y-109615000D01*
X194522447Y-106386924D02*
X196219503Y-104689868D01*
X193391076Y-105255553D02*
X195088132Y-103558497D01*
X195862000Y-112814000D02*
X198262000Y-112814000D01*
X195862000Y-111214000D02*
X198262000Y-111214000D01*
X195486447Y-120034924D02*
X197183503Y-118337868D01*
X194355076Y-118903553D02*
X196052132Y-117206497D01*
X190485000Y-122120000D02*
X190485000Y-123120000D01*
X189135000Y-123120000D02*
X189135000Y-122120000D01*
X186710000Y-120220000D02*
X186010000Y-120220000D01*
X186010000Y-119020000D02*
X186710000Y-119020000D01*
D15*
X179070000Y-98090000D02*
X178140000Y-98090000D01*
X175910000Y-98090000D02*
X176840000Y-98090000D01*
X175910000Y-98090000D02*
X175910000Y-100250000D01*
X179070000Y-98090000D02*
X179070000Y-99550000D01*
D14*
X168762970Y-113506698D02*
X169618021Y-115855930D01*
X169618021Y-115855930D02*
X168584359Y-116232152D01*
X168584359Y-116232152D02*
X167729308Y-113882920D01*
X167729308Y-113882920D02*
X168762970Y-113506698D01*
X167408880Y-113733502D02*
X168434941Y-116552580D01*
X168912388Y-113186270D02*
X169938449Y-116005348D01*
X169938449Y-116005348D02*
X168434941Y-116552580D01*
X168912388Y-113186270D02*
X167408880Y-113733502D01*
X166003142Y-112648882D02*
X168055263Y-118287038D01*
X169292066Y-111451812D02*
X171344187Y-117089968D01*
X169292066Y-111451812D02*
X166003142Y-112648882D01*
X171344187Y-117089968D02*
X168055263Y-118287038D01*
X187725000Y-124015000D02*
X187725000Y-123840000D01*
X184375000Y-124015000D02*
X184375000Y-123765000D01*
X184375000Y-120665000D02*
X184375000Y-120915000D01*
X187725000Y-120665000D02*
X187725000Y-120915000D01*
X187725000Y-124015000D02*
X184375000Y-124015000D01*
X187725000Y-120665000D02*
X184375000Y-120665000D01*
X187725000Y-123840000D02*
X188975000Y-123840000D01*
X187725000Y-82365000D02*
X187725000Y-82190000D01*
X184375000Y-82365000D02*
X184375000Y-82115000D01*
X184375000Y-79015000D02*
X184375000Y-79265000D01*
X187725000Y-79015000D02*
X187725000Y-79265000D01*
X187725000Y-82365000D02*
X184375000Y-82365000D01*
X187725000Y-79015000D02*
X184375000Y-79015000D01*
X187725000Y-82190000D02*
X188975000Y-82190000D01*
X168762970Y-71856698D02*
X169618021Y-74205930D01*
X169618021Y-74205930D02*
X168584359Y-74582152D01*
X168584359Y-74582152D02*
X167729308Y-72232920D01*
X167729308Y-72232920D02*
X168762970Y-71856698D01*
X167408880Y-72083502D02*
X168434941Y-74902580D01*
X168912388Y-71536270D02*
X169938449Y-74355348D01*
X169938449Y-74355348D02*
X168434941Y-74902580D01*
X168912388Y-71536270D02*
X167408880Y-72083502D01*
X166003142Y-70998882D02*
X168055263Y-76637038D01*
X169292066Y-69801812D02*
X171344187Y-75439968D01*
X169292066Y-69801812D02*
X166003142Y-70998882D01*
X171344187Y-75439968D02*
X168055263Y-76637038D01*
D15*
X179070000Y-56440000D02*
X178140000Y-56440000D01*
X175910000Y-56440000D02*
X176840000Y-56440000D01*
X175910000Y-56440000D02*
X175910000Y-58600000D01*
X179070000Y-56440000D02*
X179070000Y-57900000D01*
D14*
X186710000Y-78570000D02*
X186010000Y-78570000D01*
X186010000Y-77370000D02*
X186710000Y-77370000D01*
X190485000Y-80470000D02*
X190485000Y-81470000D01*
X189135000Y-81470000D02*
X189135000Y-80470000D01*
X195486447Y-78384924D02*
X197183503Y-76687868D01*
X194355076Y-77253553D02*
X196052132Y-75556497D01*
X195862000Y-71164000D02*
X198262000Y-71164000D01*
X195862000Y-69564000D02*
X198262000Y-69564000D01*
X194522447Y-64736924D02*
X196219503Y-63039868D01*
X193391076Y-63605553D02*
X195088132Y-61908497D01*
X172425000Y-67940000D02*
X172425000Y-67965000D01*
X176575000Y-67940000D02*
X176575000Y-68055000D01*
X176575000Y-76840000D02*
X176575000Y-76725000D01*
X172425000Y-76840000D02*
X172425000Y-76725000D01*
X172425000Y-67940000D02*
X176575000Y-67940000D01*
X172425000Y-76840000D02*
X176575000Y-76840000D01*
X172425000Y-67965000D02*
X171050000Y-67965000D01*
D15*
X196964000Y-71890000D02*
X196034000Y-71890000D01*
X193804000Y-71890000D02*
X194734000Y-71890000D01*
X193804000Y-71890000D02*
X193804000Y-74050000D01*
X196964000Y-71890000D02*
X196964000Y-73350000D01*
X189050000Y-71220000D02*
X188120000Y-71220000D01*
X185890000Y-71220000D02*
X186820000Y-71220000D01*
X185890000Y-71220000D02*
X185890000Y-73380000D01*
X189050000Y-71220000D02*
X189050000Y-72680000D01*
D14*
X185440000Y-61195000D02*
X183440000Y-61195000D01*
X183440000Y-59045000D02*
X185440000Y-59045000D01*
X185462000Y-58993000D02*
X183462000Y-58993000D01*
X183462000Y-56843000D02*
X185462000Y-56843000D01*
X167957331Y-62621189D02*
X169013877Y-60355419D01*
X169013877Y-60355419D02*
X170010815Y-60820300D01*
X170010815Y-60820300D02*
X168954270Y-63086069D01*
X168954270Y-63086069D02*
X167957331Y-62621189D01*
X169075192Y-63418301D02*
X170343047Y-60699377D01*
X167625100Y-62742111D02*
X168892954Y-60023188D01*
X168892954Y-60023188D02*
X170343047Y-60699377D01*
X167625100Y-62742111D02*
X169075192Y-63418301D01*
X169302257Y-65179250D02*
X171837967Y-59741403D01*
X166130180Y-63700086D02*
X168665889Y-58262239D01*
X166130180Y-63700086D02*
X169302257Y-65179250D01*
X168665889Y-58262239D02*
X171837967Y-59741403D01*
D15*
X190970000Y-75520000D02*
X192770000Y-75520000D01*
X192770000Y-72300000D02*
X190320000Y-72300000D01*
X187550000Y-76210000D02*
X187550000Y-74410000D01*
X184330000Y-74410000D02*
X184330000Y-76860000D01*
D14*
X181255000Y-55545000D02*
X181255000Y-55370000D01*
X177905000Y-55545000D02*
X177905000Y-55295000D01*
X177905000Y-52195000D02*
X177905000Y-52445000D01*
X181255000Y-52195000D02*
X181255000Y-52445000D01*
X181255000Y-55545000D02*
X177905000Y-55545000D01*
X181255000Y-52195000D02*
X177905000Y-52195000D01*
X181255000Y-55370000D02*
X182505000Y-55370000D01*
D15*
X172620000Y-60210000D02*
X172620000Y-55560000D01*
X175820000Y-60210000D02*
X175820000Y-55560000D01*
X175820000Y-55560000D02*
X175020000Y-55560000D01*
X175340000Y-63370000D02*
X170690000Y-63370000D01*
X175340000Y-60170000D02*
X170690000Y-60170000D01*
X170690000Y-60170000D02*
X170690000Y-60970000D01*
X186735938Y-68954924D02*
X186735938Y-65985076D01*
X192604924Y-63085938D02*
X189635076Y-63085938D01*
X192604924Y-63085938D02*
X195504062Y-65985076D01*
X195504062Y-65985076D02*
X195504062Y-68954924D01*
X189635076Y-71854062D02*
X186735938Y-68954924D01*
X186427938Y-60164924D02*
X186427938Y-57195076D01*
X192296924Y-54295938D02*
X189327076Y-54295938D01*
X192296924Y-54295938D02*
X195196062Y-57195076D01*
X195196062Y-57195076D02*
X195196062Y-60164924D01*
X189327076Y-63064062D02*
X186427938Y-60164924D01*
X175860000Y-76880000D02*
X174060000Y-76880000D01*
X174060000Y-80100000D02*
X176510000Y-80100000D01*
X173700000Y-63420000D02*
X173700000Y-68070000D01*
X170500000Y-63420000D02*
X170500000Y-68070000D01*
X170500000Y-68070000D02*
X171300000Y-68070000D01*
D14*
X197066000Y-68240000D02*
X197766000Y-68240000D01*
X197766000Y-69440000D02*
X197066000Y-69440000D01*
X177450000Y-81110000D02*
X176750000Y-81110000D01*
X176750000Y-79910000D02*
X177450000Y-79910000D01*
X169720000Y-67060000D02*
X169020000Y-67060000D01*
X169020000Y-65860000D02*
X169720000Y-65860000D01*
X174470000Y-65300000D02*
X175170000Y-65300000D01*
X175170000Y-66500000D02*
X174470000Y-66500000D01*
X180320000Y-77110000D02*
X181020000Y-77110000D01*
X181020000Y-78310000D02*
X180320000Y-78310000D01*
X189820000Y-76750000D02*
X189120000Y-76750000D01*
X189120000Y-75550000D02*
X189820000Y-75550000D01*
X173083788Y-55404651D02*
X172547557Y-55854602D01*
X171776212Y-54935349D02*
X172312443Y-54485398D01*
X178595000Y-80040000D02*
X178595000Y-79040000D01*
X179945000Y-79040000D02*
X179945000Y-80040000D01*
X177470000Y-81075000D02*
X178470000Y-81075000D01*
X178470000Y-82425000D02*
X177470000Y-82425000D01*
X180475000Y-81400000D02*
X180475000Y-82400000D01*
X179125000Y-82400000D02*
X179125000Y-81400000D01*
X176255000Y-65680000D02*
X176255000Y-64680000D01*
X177605000Y-64680000D02*
X177605000Y-65680000D01*
X175180000Y-67855000D02*
X174180000Y-67855000D01*
X174180000Y-66505000D02*
X175180000Y-66505000D01*
X177070000Y-58685000D02*
X178070000Y-58685000D01*
X178070000Y-60035000D02*
X177070000Y-60035000D01*
X179760000Y-75965000D02*
X178760000Y-75965000D01*
X178760000Y-74615000D02*
X179760000Y-74615000D01*
X181230000Y-77145000D02*
X180230000Y-77145000D01*
X180230000Y-75795000D02*
X181230000Y-75795000D01*
X181505000Y-78980000D02*
X181505000Y-79980000D01*
X180155000Y-79980000D02*
X180155000Y-78980000D01*
X176975000Y-60740000D02*
X176975000Y-61740000D01*
X175625000Y-61740000D02*
X175625000Y-60740000D01*
X174420000Y-63395000D02*
X175420000Y-63395000D01*
X175420000Y-64745000D02*
X174420000Y-64745000D01*
X168960000Y-68315000D02*
X169960000Y-68315000D01*
X169960000Y-69665000D02*
X168960000Y-69665000D01*
X168980000Y-67075000D02*
X169980000Y-67075000D01*
X169980000Y-68425000D02*
X168980000Y-68425000D01*
X183200000Y-52475000D02*
X182200000Y-52475000D01*
X182200000Y-51125000D02*
X183200000Y-51125000D01*
X184125000Y-53020000D02*
X184125000Y-54020000D01*
X182775000Y-54020000D02*
X182775000Y-53020000D01*
X176435000Y-53260000D02*
X176435000Y-54260000D01*
X175085000Y-54260000D02*
X175085000Y-53260000D01*
X181100000Y-55455000D02*
X182100000Y-55455000D01*
X182100000Y-56805000D02*
X181100000Y-56805000D01*
X182865000Y-79820000D02*
X182865000Y-80820000D01*
X181515000Y-80820000D02*
X181515000Y-79820000D01*
X182075000Y-58350000D02*
X182075000Y-59350000D01*
X180725000Y-59350000D02*
X180725000Y-58350000D01*
X183240000Y-77525000D02*
X184240000Y-77525000D01*
X184240000Y-78875000D02*
X183240000Y-78875000D01*
X195550000Y-74365000D02*
X196550000Y-74365000D01*
X196550000Y-75715000D02*
X195550000Y-75715000D01*
X188200000Y-73555000D02*
X189200000Y-73555000D01*
X189200000Y-74905000D02*
X188200000Y-74905000D01*
X183020000Y-83230000D02*
X182320000Y-83230000D01*
X182320000Y-82030000D02*
X183020000Y-82030000D01*
X182524170Y-72646162D02*
X178943941Y-71343065D01*
X178943941Y-71343065D02*
X178335830Y-73013838D01*
X178335830Y-73013838D02*
X181916059Y-74316935D01*
X182524170Y-72646162D02*
X181916059Y-74316935D01*
X141064170Y-72646162D02*
X137483941Y-71343065D01*
X137483941Y-71343065D02*
X136875830Y-73013838D01*
X136875830Y-73013838D02*
X140456059Y-74316935D01*
X141064170Y-72646162D02*
X140456059Y-74316935D01*
X141560000Y-83230000D02*
X140860000Y-83230000D01*
X140860000Y-82030000D02*
X141560000Y-82030000D01*
X146740000Y-73555000D02*
X147740000Y-73555000D01*
X147740000Y-74905000D02*
X146740000Y-74905000D01*
X154090000Y-74365000D02*
X155090000Y-74365000D01*
X155090000Y-75715000D02*
X154090000Y-75715000D01*
X141780000Y-77525000D02*
X142780000Y-77525000D01*
X142780000Y-78875000D02*
X141780000Y-78875000D01*
X140615000Y-58350000D02*
X140615000Y-59350000D01*
X139265000Y-59350000D02*
X139265000Y-58350000D01*
X141405000Y-79820000D02*
X141405000Y-80820000D01*
X140055000Y-80820000D02*
X140055000Y-79820000D01*
X139640000Y-55455000D02*
X140640000Y-55455000D01*
X140640000Y-56805000D02*
X139640000Y-56805000D01*
X134975000Y-53260000D02*
X134975000Y-54260000D01*
X133625000Y-54260000D02*
X133625000Y-53260000D01*
X142665000Y-53020000D02*
X142665000Y-54020000D01*
X141315000Y-54020000D02*
X141315000Y-53020000D01*
X141740000Y-52475000D02*
X140740000Y-52475000D01*
X140740000Y-51125000D02*
X141740000Y-51125000D01*
X127520000Y-67075000D02*
X128520000Y-67075000D01*
X128520000Y-68425000D02*
X127520000Y-68425000D01*
X127500000Y-68315000D02*
X128500000Y-68315000D01*
X128500000Y-69665000D02*
X127500000Y-69665000D01*
X132960000Y-63395000D02*
X133960000Y-63395000D01*
X133960000Y-64745000D02*
X132960000Y-64745000D01*
X135515000Y-60740000D02*
X135515000Y-61740000D01*
X134165000Y-61740000D02*
X134165000Y-60740000D01*
X140045000Y-78980000D02*
X140045000Y-79980000D01*
X138695000Y-79980000D02*
X138695000Y-78980000D01*
X139770000Y-77145000D02*
X138770000Y-77145000D01*
X138770000Y-75795000D02*
X139770000Y-75795000D01*
X138300000Y-75965000D02*
X137300000Y-75965000D01*
X137300000Y-74615000D02*
X138300000Y-74615000D01*
X135610000Y-58685000D02*
X136610000Y-58685000D01*
X136610000Y-60035000D02*
X135610000Y-60035000D01*
X133720000Y-67855000D02*
X132720000Y-67855000D01*
X132720000Y-66505000D02*
X133720000Y-66505000D01*
X134795000Y-65680000D02*
X134795000Y-64680000D01*
X136145000Y-64680000D02*
X136145000Y-65680000D01*
X139015000Y-81400000D02*
X139015000Y-82400000D01*
X137665000Y-82400000D02*
X137665000Y-81400000D01*
X136010000Y-81075000D02*
X137010000Y-81075000D01*
X137010000Y-82425000D02*
X136010000Y-82425000D01*
X137135000Y-80040000D02*
X137135000Y-79040000D01*
X138485000Y-79040000D02*
X138485000Y-80040000D01*
X131623788Y-55404651D02*
X131087557Y-55854602D01*
X130316212Y-54935349D02*
X130852443Y-54485398D01*
X148360000Y-76750000D02*
X147660000Y-76750000D01*
X147660000Y-75550000D02*
X148360000Y-75550000D01*
X138860000Y-77110000D02*
X139560000Y-77110000D01*
X139560000Y-78310000D02*
X138860000Y-78310000D01*
X133010000Y-65300000D02*
X133710000Y-65300000D01*
X133710000Y-66500000D02*
X133010000Y-66500000D01*
X128260000Y-67060000D02*
X127560000Y-67060000D01*
X127560000Y-65860000D02*
X128260000Y-65860000D01*
X135990000Y-81110000D02*
X135290000Y-81110000D01*
X135290000Y-79910000D02*
X135990000Y-79910000D01*
X155606000Y-68240000D02*
X156306000Y-68240000D01*
X156306000Y-69440000D02*
X155606000Y-69440000D01*
D15*
X132240000Y-63420000D02*
X132240000Y-68070000D01*
X129040000Y-63420000D02*
X129040000Y-68070000D01*
X129040000Y-68070000D02*
X129840000Y-68070000D01*
X134400000Y-76880000D02*
X132600000Y-76880000D01*
X132600000Y-80100000D02*
X135050000Y-80100000D01*
X144967938Y-60164924D02*
X144967938Y-57195076D01*
X150836924Y-54295938D02*
X147867076Y-54295938D01*
X150836924Y-54295938D02*
X153736062Y-57195076D01*
X153736062Y-57195076D02*
X153736062Y-60164924D01*
X147867076Y-63064062D02*
X144967938Y-60164924D01*
X145275938Y-68954924D02*
X145275938Y-65985076D01*
X151144924Y-63085938D02*
X148175076Y-63085938D01*
X151144924Y-63085938D02*
X154044062Y-65985076D01*
X154044062Y-65985076D02*
X154044062Y-68954924D01*
X148175076Y-71854062D02*
X145275938Y-68954924D01*
X133880000Y-63370000D02*
X129230000Y-63370000D01*
X133880000Y-60170000D02*
X129230000Y-60170000D01*
X129230000Y-60170000D02*
X129230000Y-60970000D01*
X131160000Y-60210000D02*
X131160000Y-55560000D01*
X134360000Y-60210000D02*
X134360000Y-55560000D01*
X134360000Y-55560000D02*
X133560000Y-55560000D01*
D14*
X139795000Y-55545000D02*
X139795000Y-55370000D01*
X136445000Y-55545000D02*
X136445000Y-55295000D01*
X136445000Y-52195000D02*
X136445000Y-52445000D01*
X139795000Y-52195000D02*
X139795000Y-52445000D01*
X139795000Y-55545000D02*
X136445000Y-55545000D01*
X139795000Y-52195000D02*
X136445000Y-52195000D01*
X139795000Y-55370000D02*
X141045000Y-55370000D01*
D15*
X146090000Y-76210000D02*
X146090000Y-74410000D01*
X142870000Y-74410000D02*
X142870000Y-76860000D01*
X149510000Y-75520000D02*
X151310000Y-75520000D01*
X151310000Y-72300000D02*
X148860000Y-72300000D01*
D14*
X126497331Y-62621189D02*
X127553877Y-60355419D01*
X127553877Y-60355419D02*
X128550815Y-60820300D01*
X128550815Y-60820300D02*
X127494270Y-63086069D01*
X127494270Y-63086069D02*
X126497331Y-62621189D01*
X127615192Y-63418301D02*
X128883047Y-60699377D01*
X126165100Y-62742111D02*
X127432954Y-60023188D01*
X127432954Y-60023188D02*
X128883047Y-60699377D01*
X126165100Y-62742111D02*
X127615192Y-63418301D01*
X127842257Y-65179250D02*
X130377967Y-59741403D01*
X124670180Y-63700086D02*
X127205889Y-58262239D01*
X124670180Y-63700086D02*
X127842257Y-65179250D01*
X127205889Y-58262239D02*
X130377967Y-59741403D01*
X144002000Y-58993000D02*
X142002000Y-58993000D01*
X142002000Y-56843000D02*
X144002000Y-56843000D01*
X143980000Y-61195000D02*
X141980000Y-61195000D01*
X141980000Y-59045000D02*
X143980000Y-59045000D01*
D15*
X147590000Y-71220000D02*
X146660000Y-71220000D01*
X144430000Y-71220000D02*
X145360000Y-71220000D01*
X144430000Y-71220000D02*
X144430000Y-73380000D01*
X147590000Y-71220000D02*
X147590000Y-72680000D01*
X155504000Y-71890000D02*
X154574000Y-71890000D01*
X152344000Y-71890000D02*
X153274000Y-71890000D01*
X152344000Y-71890000D02*
X152344000Y-74050000D01*
X155504000Y-71890000D02*
X155504000Y-73350000D01*
D14*
X130965000Y-67940000D02*
X130965000Y-67965000D01*
X135115000Y-67940000D02*
X135115000Y-68055000D01*
X135115000Y-76840000D02*
X135115000Y-76725000D01*
X130965000Y-76840000D02*
X130965000Y-76725000D01*
X130965000Y-67940000D02*
X135115000Y-67940000D01*
X130965000Y-76840000D02*
X135115000Y-76840000D01*
X130965000Y-67965000D02*
X129590000Y-67965000D01*
X153062447Y-64736924D02*
X154759503Y-63039868D01*
X151931076Y-63605553D02*
X153628132Y-61908497D01*
X154402000Y-71164000D02*
X156802000Y-71164000D01*
X154402000Y-69564000D02*
X156802000Y-69564000D01*
X154026447Y-78384924D02*
X155723503Y-76687868D01*
X152895076Y-77253553D02*
X154592132Y-75556497D01*
X149025000Y-80470000D02*
X149025000Y-81470000D01*
X147675000Y-81470000D02*
X147675000Y-80470000D01*
X145250000Y-78570000D02*
X144550000Y-78570000D01*
X144550000Y-77370000D02*
X145250000Y-77370000D01*
D15*
X137610000Y-56440000D02*
X136680000Y-56440000D01*
X134450000Y-56440000D02*
X135380000Y-56440000D01*
X134450000Y-56440000D02*
X134450000Y-58600000D01*
X137610000Y-56440000D02*
X137610000Y-57900000D01*
D14*
X127302970Y-71856698D02*
X128158021Y-74205930D01*
X128158021Y-74205930D02*
X127124359Y-74582152D01*
X127124359Y-74582152D02*
X126269308Y-72232920D01*
X126269308Y-72232920D02*
X127302970Y-71856698D01*
X125948880Y-72083502D02*
X126974941Y-74902580D01*
X127452388Y-71536270D02*
X128478449Y-74355348D01*
X128478449Y-74355348D02*
X126974941Y-74902580D01*
X127452388Y-71536270D02*
X125948880Y-72083502D01*
X124543142Y-70998882D02*
X126595263Y-76637038D01*
X127832066Y-69801812D02*
X129884187Y-75439968D01*
X127832066Y-69801812D02*
X124543142Y-70998882D01*
X129884187Y-75439968D02*
X126595263Y-76637038D01*
X146265000Y-82365000D02*
X146265000Y-82190000D01*
X142915000Y-82365000D02*
X142915000Y-82115000D01*
X142915000Y-79015000D02*
X142915000Y-79265000D01*
X146265000Y-79015000D02*
X146265000Y-79265000D01*
X146265000Y-82365000D02*
X142915000Y-82365000D01*
X146265000Y-79015000D02*
X142915000Y-79015000D01*
X146265000Y-82190000D02*
X147515000Y-82190000D01*
X146265000Y-124015000D02*
X146265000Y-123840000D01*
X142915000Y-124015000D02*
X142915000Y-123765000D01*
X142915000Y-120665000D02*
X142915000Y-120915000D01*
X146265000Y-120665000D02*
X146265000Y-120915000D01*
X146265000Y-124015000D02*
X142915000Y-124015000D01*
X146265000Y-120665000D02*
X142915000Y-120665000D01*
X146265000Y-123840000D02*
X147515000Y-123840000D01*
X127302970Y-113506698D02*
X128158021Y-115855930D01*
X128158021Y-115855930D02*
X127124359Y-116232152D01*
X127124359Y-116232152D02*
X126269308Y-113882920D01*
X126269308Y-113882920D02*
X127302970Y-113506698D01*
X125948880Y-113733502D02*
X126974941Y-116552580D01*
X127452388Y-113186270D02*
X128478449Y-116005348D01*
X128478449Y-116005348D02*
X126974941Y-116552580D01*
X127452388Y-113186270D02*
X125948880Y-113733502D01*
X124543142Y-112648882D02*
X126595263Y-118287038D01*
X127832066Y-111451812D02*
X129884187Y-117089968D01*
X127832066Y-111451812D02*
X124543142Y-112648882D01*
X129884187Y-117089968D02*
X126595263Y-118287038D01*
D15*
X137610000Y-98090000D02*
X136680000Y-98090000D01*
X134450000Y-98090000D02*
X135380000Y-98090000D01*
X134450000Y-98090000D02*
X134450000Y-100250000D01*
X137610000Y-98090000D02*
X137610000Y-99550000D01*
D14*
X145250000Y-120220000D02*
X144550000Y-120220000D01*
X144550000Y-119020000D02*
X145250000Y-119020000D01*
X149025000Y-122120000D02*
X149025000Y-123120000D01*
X147675000Y-123120000D02*
X147675000Y-122120000D01*
X154026447Y-120034924D02*
X155723503Y-118337868D01*
X152895076Y-118903553D02*
X154592132Y-117206497D01*
X154402000Y-112814000D02*
X156802000Y-112814000D01*
X154402000Y-111214000D02*
X156802000Y-111214000D01*
X153062447Y-106386924D02*
X154759503Y-104689868D01*
X151931076Y-105255553D02*
X153628132Y-103558497D01*
X130965000Y-109590000D02*
X130965000Y-109615000D01*
X135115000Y-109590000D02*
X135115000Y-109705000D01*
X135115000Y-118490000D02*
X135115000Y-118375000D01*
X130965000Y-118490000D02*
X130965000Y-118375000D01*
X130965000Y-109590000D02*
X135115000Y-109590000D01*
X130965000Y-118490000D02*
X135115000Y-118490000D01*
X130965000Y-109615000D02*
X129590000Y-109615000D01*
D15*
X155504000Y-113540000D02*
X154574000Y-113540000D01*
X152344000Y-113540000D02*
X153274000Y-113540000D01*
X152344000Y-113540000D02*
X152344000Y-115700000D01*
X155504000Y-113540000D02*
X155504000Y-115000000D01*
X147590000Y-112870000D02*
X146660000Y-112870000D01*
X144430000Y-112870000D02*
X145360000Y-112870000D01*
X144430000Y-112870000D02*
X144430000Y-115030000D01*
X147590000Y-112870000D02*
X147590000Y-114330000D01*
D14*
X143980000Y-102845000D02*
X141980000Y-102845000D01*
X141980000Y-100695000D02*
X143980000Y-100695000D01*
X144002000Y-100643000D02*
X142002000Y-100643000D01*
X142002000Y-98493000D02*
X144002000Y-98493000D01*
X126497331Y-104271189D02*
X127553877Y-102005419D01*
X127553877Y-102005419D02*
X128550815Y-102470300D01*
X128550815Y-102470300D02*
X127494270Y-104736069D01*
X127494270Y-104736069D02*
X126497331Y-104271189D01*
X127615192Y-105068301D02*
X128883047Y-102349377D01*
X126165100Y-104392111D02*
X127432954Y-101673188D01*
X127432954Y-101673188D02*
X128883047Y-102349377D01*
X126165100Y-104392111D02*
X127615192Y-105068301D01*
X127842257Y-106829250D02*
X130377967Y-101391403D01*
X124670180Y-105350086D02*
X127205889Y-99912239D01*
X124670180Y-105350086D02*
X127842257Y-106829250D01*
X127205889Y-99912239D02*
X130377967Y-101391403D01*
D15*
X149510000Y-117170000D02*
X151310000Y-117170000D01*
X151310000Y-113950000D02*
X148860000Y-113950000D01*
X146090000Y-117860000D02*
X146090000Y-116060000D01*
X142870000Y-116060000D02*
X142870000Y-118510000D01*
D14*
X139795000Y-97195000D02*
X139795000Y-97020000D01*
X136445000Y-97195000D02*
X136445000Y-96945000D01*
X136445000Y-93845000D02*
X136445000Y-94095000D01*
X139795000Y-93845000D02*
X139795000Y-94095000D01*
X139795000Y-97195000D02*
X136445000Y-97195000D01*
X139795000Y-93845000D02*
X136445000Y-93845000D01*
X139795000Y-97020000D02*
X141045000Y-97020000D01*
D15*
X131160000Y-101860000D02*
X131160000Y-97210000D01*
X134360000Y-101860000D02*
X134360000Y-97210000D01*
X134360000Y-97210000D02*
X133560000Y-97210000D01*
X133880000Y-105020000D02*
X129230000Y-105020000D01*
X133880000Y-101820000D02*
X129230000Y-101820000D01*
X129230000Y-101820000D02*
X129230000Y-102620000D01*
X145275938Y-110604924D02*
X145275938Y-107635076D01*
X151144924Y-104735938D02*
X148175076Y-104735938D01*
X151144924Y-104735938D02*
X154044062Y-107635076D01*
X154044062Y-107635076D02*
X154044062Y-110604924D01*
X148175076Y-113504062D02*
X145275938Y-110604924D01*
X144967938Y-101814924D02*
X144967938Y-98845076D01*
X150836924Y-95945938D02*
X147867076Y-95945938D01*
X150836924Y-95945938D02*
X153736062Y-98845076D01*
X153736062Y-98845076D02*
X153736062Y-101814924D01*
X147867076Y-104714062D02*
X144967938Y-101814924D01*
X134400000Y-118530000D02*
X132600000Y-118530000D01*
X132600000Y-121750000D02*
X135050000Y-121750000D01*
X132240000Y-105070000D02*
X132240000Y-109720000D01*
X129040000Y-105070000D02*
X129040000Y-109720000D01*
X129040000Y-109720000D02*
X129840000Y-109720000D01*
D14*
X155606000Y-109890000D02*
X156306000Y-109890000D01*
X156306000Y-111090000D02*
X155606000Y-111090000D01*
X135990000Y-122760000D02*
X135290000Y-122760000D01*
X135290000Y-121560000D02*
X135990000Y-121560000D01*
X128260000Y-108710000D02*
X127560000Y-108710000D01*
X127560000Y-107510000D02*
X128260000Y-107510000D01*
X133010000Y-106950000D02*
X133710000Y-106950000D01*
X133710000Y-108150000D02*
X133010000Y-108150000D01*
X138860000Y-118760000D02*
X139560000Y-118760000D01*
X139560000Y-119960000D02*
X138860000Y-119960000D01*
X148360000Y-118400000D02*
X147660000Y-118400000D01*
X147660000Y-117200000D02*
X148360000Y-117200000D01*
X131623788Y-97054651D02*
X131087557Y-97504602D01*
X130316212Y-96585349D02*
X130852443Y-96135398D01*
X137135000Y-121690000D02*
X137135000Y-120690000D01*
X138485000Y-120690000D02*
X138485000Y-121690000D01*
X136010000Y-122725000D02*
X137010000Y-122725000D01*
X137010000Y-124075000D02*
X136010000Y-124075000D01*
X139015000Y-123050000D02*
X139015000Y-124050000D01*
X137665000Y-124050000D02*
X137665000Y-123050000D01*
X134795000Y-107330000D02*
X134795000Y-106330000D01*
X136145000Y-106330000D02*
X136145000Y-107330000D01*
X133720000Y-109505000D02*
X132720000Y-109505000D01*
X132720000Y-108155000D02*
X133720000Y-108155000D01*
X135610000Y-100335000D02*
X136610000Y-100335000D01*
X136610000Y-101685000D02*
X135610000Y-101685000D01*
X138300000Y-117615000D02*
X137300000Y-117615000D01*
X137300000Y-116265000D02*
X138300000Y-116265000D01*
X139770000Y-118795000D02*
X138770000Y-118795000D01*
X138770000Y-117445000D02*
X139770000Y-117445000D01*
X140045000Y-120630000D02*
X140045000Y-121630000D01*
X138695000Y-121630000D02*
X138695000Y-120630000D01*
X135515000Y-102390000D02*
X135515000Y-103390000D01*
X134165000Y-103390000D02*
X134165000Y-102390000D01*
X132960000Y-105045000D02*
X133960000Y-105045000D01*
X133960000Y-106395000D02*
X132960000Y-106395000D01*
X127500000Y-109965000D02*
X128500000Y-109965000D01*
X128500000Y-111315000D02*
X127500000Y-111315000D01*
X127520000Y-108725000D02*
X128520000Y-108725000D01*
X128520000Y-110075000D02*
X127520000Y-110075000D01*
X141740000Y-94125000D02*
X140740000Y-94125000D01*
X140740000Y-92775000D02*
X141740000Y-92775000D01*
X142665000Y-94670000D02*
X142665000Y-95670000D01*
X141315000Y-95670000D02*
X141315000Y-94670000D01*
X134975000Y-94910000D02*
X134975000Y-95910000D01*
X133625000Y-95910000D02*
X133625000Y-94910000D01*
X139640000Y-97105000D02*
X140640000Y-97105000D01*
X140640000Y-98455000D02*
X139640000Y-98455000D01*
X141405000Y-121470000D02*
X141405000Y-122470000D01*
X140055000Y-122470000D02*
X140055000Y-121470000D01*
X140615000Y-100000000D02*
X140615000Y-101000000D01*
X139265000Y-101000000D02*
X139265000Y-100000000D01*
X141780000Y-119175000D02*
X142780000Y-119175000D01*
X142780000Y-120525000D02*
X141780000Y-120525000D01*
X154090000Y-116015000D02*
X155090000Y-116015000D01*
X155090000Y-117365000D02*
X154090000Y-117365000D01*
X146740000Y-115205000D02*
X147740000Y-115205000D01*
X147740000Y-116555000D02*
X146740000Y-116555000D01*
X141560000Y-124880000D02*
X140860000Y-124880000D01*
X140860000Y-123680000D02*
X141560000Y-123680000D01*
X141064170Y-114296162D02*
X137483941Y-112993065D01*
X137483941Y-112993065D02*
X136875830Y-114663838D01*
X136875830Y-114663838D02*
X140456059Y-115966935D01*
X141064170Y-114296162D02*
X140456059Y-115966935D01*
X197851905Y-107582381D02*
X197851905Y-106582381D01*
X198232858Y-106582381D01*
X198328096Y-106630000D01*
X198375715Y-106677619D01*
X198423334Y-106772857D01*
X198423334Y-106915714D01*
X198375715Y-107010952D01*
X198328096Y-107058571D01*
X198232858Y-107106190D01*
X197851905Y-107106190D01*
X199375715Y-107582381D02*
X198804286Y-107582381D01*
X199090000Y-107582381D02*
X199090000Y-106582381D01*
X198994762Y-106725238D01*
X198899524Y-106820476D01*
X198804286Y-106868095D01*
X177011905Y-119562381D02*
X177011905Y-118562381D01*
X177392858Y-118562381D01*
X177488096Y-118610000D01*
X177535715Y-118657619D01*
X177583334Y-118752857D01*
X177583334Y-118895714D01*
X177535715Y-118990952D01*
X177488096Y-119038571D01*
X177392858Y-119086190D01*
X177011905Y-119086190D01*
X177916667Y-118562381D02*
X178535715Y-118562381D01*
X178202381Y-118943333D01*
X178345239Y-118943333D01*
X178440477Y-118990952D01*
X178488096Y-119038571D01*
X178535715Y-119133810D01*
X178535715Y-119371905D01*
X178488096Y-119467143D01*
X178440477Y-119514762D01*
X178345239Y-119562381D01*
X178059524Y-119562381D01*
X177964286Y-119514762D01*
X177916667Y-119467143D01*
X194359223Y-105645076D02*
X194022505Y-105308358D01*
X194729612Y-104601251D01*
X194965314Y-106251168D02*
X194561253Y-105847106D01*
X194763283Y-106049137D02*
X195470390Y-105342030D01*
X195302031Y-105375702D01*
X195167345Y-105375702D01*
X195066329Y-105342030D01*
X167113348Y-105649470D02*
X167216880Y-105540122D01*
X167317503Y-105324334D01*
X167314595Y-105217894D01*
X167291562Y-105154612D01*
X167225372Y-105071205D01*
X167139057Y-105030956D01*
X167032617Y-105033864D01*
X166969335Y-105056897D01*
X166885928Y-105123087D01*
X166762271Y-105275593D01*
X166678864Y-105341783D01*
X166615582Y-105364816D01*
X166509143Y-105367724D01*
X166422828Y-105327475D01*
X166356637Y-105244068D01*
X166333605Y-105180786D01*
X166330696Y-105074346D01*
X166431320Y-104858558D01*
X166534852Y-104749210D01*
X166632567Y-104426983D02*
X167639498Y-104633814D01*
X167072634Y-104159313D01*
X167800495Y-104288554D01*
X166994811Y-103650148D01*
X167221999Y-103388295D02*
X167198966Y-103325013D01*
X167196058Y-103218573D01*
X167296681Y-103002785D01*
X167380088Y-102936595D01*
X167443370Y-102913562D01*
X167549810Y-102910654D01*
X167636125Y-102950903D01*
X167745473Y-103054435D01*
X168021867Y-103813822D01*
X168283488Y-103252773D01*
X166623621Y-114225514D02*
X166627734Y-114376042D01*
X166709168Y-114599779D01*
X166786488Y-114672987D01*
X166847522Y-114701447D01*
X166953303Y-114713621D01*
X167042798Y-114681048D01*
X167116006Y-114603727D01*
X167144466Y-114542693D01*
X167156641Y-114436912D01*
X167136241Y-114241636D01*
X167148415Y-114135854D01*
X167176876Y-114074821D01*
X167250083Y-113997500D01*
X167339578Y-113964927D01*
X167445359Y-113977101D01*
X167506393Y-114005561D01*
X167583713Y-114078769D01*
X167665147Y-114302506D01*
X167669260Y-114453034D01*
X167828014Y-114749978D02*
X166969754Y-115315735D01*
X167706111Y-115250424D01*
X167100048Y-115673713D01*
X168121174Y-115555429D01*
X167490928Y-116747648D02*
X167295488Y-116210680D01*
X167393208Y-116479163D02*
X168332900Y-116137143D01*
X168166085Y-116096509D01*
X168044018Y-116039588D01*
X167966697Y-115966380D01*
X166623621Y-72575514D02*
X166627734Y-72726042D01*
X166709168Y-72949779D01*
X166786488Y-73022987D01*
X166847522Y-73051447D01*
X166953303Y-73063621D01*
X167042798Y-73031048D01*
X167116006Y-72953727D01*
X167144466Y-72892693D01*
X167156641Y-72786912D01*
X167136241Y-72591636D01*
X167148415Y-72485854D01*
X167176876Y-72424821D01*
X167250083Y-72347500D01*
X167339578Y-72314927D01*
X167445359Y-72327101D01*
X167506393Y-72355561D01*
X167583713Y-72428769D01*
X167665147Y-72652506D01*
X167669260Y-72803034D01*
X167828014Y-73099978D02*
X166969754Y-73665735D01*
X167706111Y-73600424D01*
X167100048Y-74023713D01*
X168121174Y-73905429D01*
X167490928Y-75097648D02*
X167295488Y-74560680D01*
X167393208Y-74829163D02*
X168332900Y-74487143D01*
X168166085Y-74446509D01*
X168044018Y-74389588D01*
X167966697Y-74316380D01*
X167113348Y-63999470D02*
X167216880Y-63890122D01*
X167317503Y-63674334D01*
X167314595Y-63567894D01*
X167291562Y-63504612D01*
X167225372Y-63421205D01*
X167139057Y-63380956D01*
X167032617Y-63383864D01*
X166969335Y-63406897D01*
X166885928Y-63473087D01*
X166762271Y-63625593D01*
X166678864Y-63691783D01*
X166615582Y-63714816D01*
X166509143Y-63717724D01*
X166422828Y-63677475D01*
X166356637Y-63594068D01*
X166333605Y-63530786D01*
X166330696Y-63424346D01*
X166431320Y-63208558D01*
X166534852Y-63099210D01*
X166632567Y-62776983D02*
X167639498Y-62983814D01*
X167072634Y-62509313D01*
X167800495Y-62638554D01*
X166994811Y-62000148D01*
X167221999Y-61738295D02*
X167198966Y-61675013D01*
X167196058Y-61568573D01*
X167296681Y-61352785D01*
X167380088Y-61286595D01*
X167443370Y-61263562D01*
X167549810Y-61260654D01*
X167636125Y-61300903D01*
X167745473Y-61404435D01*
X168021867Y-62163822D01*
X168283488Y-61602773D01*
X194359223Y-63995076D02*
X194022505Y-63658358D01*
X194729612Y-62951251D01*
X194965314Y-64601168D02*
X194561253Y-64197106D01*
X194763283Y-64399137D02*
X195470390Y-63692030D01*
X195302031Y-63725702D01*
X195167345Y-63725702D01*
X195066329Y-63692030D01*
X177011905Y-77912381D02*
X177011905Y-76912381D01*
X177392858Y-76912381D01*
X177488096Y-76960000D01*
X177535715Y-77007619D01*
X177583334Y-77102857D01*
X177583334Y-77245714D01*
X177535715Y-77340952D01*
X177488096Y-77388571D01*
X177392858Y-77436190D01*
X177011905Y-77436190D01*
X177916667Y-76912381D02*
X178535715Y-76912381D01*
X178202381Y-77293333D01*
X178345239Y-77293333D01*
X178440477Y-77340952D01*
X178488096Y-77388571D01*
X178535715Y-77483810D01*
X178535715Y-77721905D01*
X178488096Y-77817143D01*
X178440477Y-77864762D01*
X178345239Y-77912381D01*
X178059524Y-77912381D01*
X177964286Y-77864762D01*
X177916667Y-77817143D01*
X197851905Y-65932381D02*
X197851905Y-64932381D01*
X198232858Y-64932381D01*
X198328096Y-64980000D01*
X198375715Y-65027619D01*
X198423334Y-65122857D01*
X198423334Y-65265714D01*
X198375715Y-65360952D01*
X198328096Y-65408571D01*
X198232858Y-65456190D01*
X197851905Y-65456190D01*
X199375715Y-65932381D02*
X198804286Y-65932381D01*
X199090000Y-65932381D02*
X199090000Y-64932381D01*
X198994762Y-65075238D01*
X198899524Y-65170476D01*
X198804286Y-65218095D01*
X156391905Y-65932381D02*
X156391905Y-64932381D01*
X156772858Y-64932381D01*
X156868096Y-64980000D01*
X156915715Y-65027619D01*
X156963334Y-65122857D01*
X156963334Y-65265714D01*
X156915715Y-65360952D01*
X156868096Y-65408571D01*
X156772858Y-65456190D01*
X156391905Y-65456190D01*
X157915715Y-65932381D02*
X157344286Y-65932381D01*
X157630000Y-65932381D02*
X157630000Y-64932381D01*
X157534762Y-65075238D01*
X157439524Y-65170476D01*
X157344286Y-65218095D01*
X135551905Y-77912381D02*
X135551905Y-76912381D01*
X135932858Y-76912381D01*
X136028096Y-76960000D01*
X136075715Y-77007619D01*
X136123334Y-77102857D01*
X136123334Y-77245714D01*
X136075715Y-77340952D01*
X136028096Y-77388571D01*
X135932858Y-77436190D01*
X135551905Y-77436190D01*
X136456667Y-76912381D02*
X137075715Y-76912381D01*
X136742381Y-77293333D01*
X136885239Y-77293333D01*
X136980477Y-77340952D01*
X137028096Y-77388571D01*
X137075715Y-77483810D01*
X137075715Y-77721905D01*
X137028096Y-77817143D01*
X136980477Y-77864762D01*
X136885239Y-77912381D01*
X136599524Y-77912381D01*
X136504286Y-77864762D01*
X136456667Y-77817143D01*
X152899223Y-63995076D02*
X152562505Y-63658358D01*
X153269612Y-62951251D01*
X153505314Y-64601168D02*
X153101253Y-64197106D01*
X153303283Y-64399137D02*
X154010390Y-63692030D01*
X153842031Y-63725702D01*
X153707345Y-63725702D01*
X153606329Y-63692030D01*
X125653348Y-63999470D02*
X125756880Y-63890122D01*
X125857503Y-63674334D01*
X125854595Y-63567894D01*
X125831562Y-63504612D01*
X125765372Y-63421205D01*
X125679057Y-63380956D01*
X125572617Y-63383864D01*
X125509335Y-63406897D01*
X125425928Y-63473087D01*
X125302271Y-63625593D01*
X125218864Y-63691783D01*
X125155582Y-63714816D01*
X125049143Y-63717724D01*
X124962828Y-63677475D01*
X124896637Y-63594068D01*
X124873605Y-63530786D01*
X124870696Y-63424346D01*
X124971320Y-63208558D01*
X125074852Y-63099210D01*
X125172567Y-62776983D02*
X126179498Y-62983814D01*
X125612634Y-62509313D01*
X126340495Y-62638554D01*
X125534811Y-62000148D01*
X125761999Y-61738295D02*
X125738966Y-61675013D01*
X125736058Y-61568573D01*
X125836681Y-61352785D01*
X125920088Y-61286595D01*
X125983370Y-61263562D01*
X126089810Y-61260654D01*
X126176125Y-61300903D01*
X126285473Y-61404435D01*
X126561867Y-62163822D01*
X126823488Y-61602773D01*
X125163621Y-72575514D02*
X125167734Y-72726042D01*
X125249168Y-72949779D01*
X125326488Y-73022987D01*
X125387522Y-73051447D01*
X125493303Y-73063621D01*
X125582798Y-73031048D01*
X125656006Y-72953727D01*
X125684466Y-72892693D01*
X125696641Y-72786912D01*
X125676241Y-72591636D01*
X125688415Y-72485854D01*
X125716876Y-72424821D01*
X125790083Y-72347500D01*
X125879578Y-72314927D01*
X125985359Y-72327101D01*
X126046393Y-72355561D01*
X126123713Y-72428769D01*
X126205147Y-72652506D01*
X126209260Y-72803034D01*
X126368014Y-73099978D02*
X125509754Y-73665735D01*
X126246111Y-73600424D01*
X125640048Y-74023713D01*
X126661174Y-73905429D01*
X126030928Y-75097648D02*
X125835488Y-74560680D01*
X125933208Y-74829163D02*
X126872900Y-74487143D01*
X126706085Y-74446509D01*
X126584018Y-74389588D01*
X126506697Y-74316380D01*
X125163621Y-114225514D02*
X125167734Y-114376042D01*
X125249168Y-114599779D01*
X125326488Y-114672987D01*
X125387522Y-114701447D01*
X125493303Y-114713621D01*
X125582798Y-114681048D01*
X125656006Y-114603727D01*
X125684466Y-114542693D01*
X125696641Y-114436912D01*
X125676241Y-114241636D01*
X125688415Y-114135854D01*
X125716876Y-114074821D01*
X125790083Y-113997500D01*
X125879578Y-113964927D01*
X125985359Y-113977101D01*
X126046393Y-114005561D01*
X126123713Y-114078769D01*
X126205147Y-114302506D01*
X126209260Y-114453034D01*
X126368014Y-114749978D02*
X125509754Y-115315735D01*
X126246111Y-115250424D01*
X125640048Y-115673713D01*
X126661174Y-115555429D01*
X126030928Y-116747648D02*
X125835488Y-116210680D01*
X125933208Y-116479163D02*
X126872900Y-116137143D01*
X126706085Y-116096509D01*
X126584018Y-116039588D01*
X126506697Y-115966380D01*
X125653348Y-105649470D02*
X125756880Y-105540122D01*
X125857503Y-105324334D01*
X125854595Y-105217894D01*
X125831562Y-105154612D01*
X125765372Y-105071205D01*
X125679057Y-105030956D01*
X125572617Y-105033864D01*
X125509335Y-105056897D01*
X125425928Y-105123087D01*
X125302271Y-105275593D01*
X125218864Y-105341783D01*
X125155582Y-105364816D01*
X125049143Y-105367724D01*
X124962828Y-105327475D01*
X124896637Y-105244068D01*
X124873605Y-105180786D01*
X124870696Y-105074346D01*
X124971320Y-104858558D01*
X125074852Y-104749210D01*
X125172567Y-104426983D02*
X126179498Y-104633814D01*
X125612634Y-104159313D01*
X126340495Y-104288554D01*
X125534811Y-103650148D01*
X125761999Y-103388295D02*
X125738966Y-103325013D01*
X125736058Y-103218573D01*
X125836681Y-103002785D01*
X125920088Y-102936595D01*
X125983370Y-102913562D01*
X126089810Y-102910654D01*
X126176125Y-102950903D01*
X126285473Y-103054435D01*
X126561867Y-103813822D01*
X126823488Y-103252773D01*
X152899223Y-105645076D02*
X152562505Y-105308358D01*
X153269612Y-104601251D01*
X153505314Y-106251168D02*
X153101253Y-105847106D01*
X153303283Y-106049137D02*
X154010390Y-105342030D01*
X153842031Y-105375702D01*
X153707345Y-105375702D01*
X153606329Y-105342030D01*
X135551905Y-119562381D02*
X135551905Y-118562381D01*
X135932858Y-118562381D01*
X136028096Y-118610000D01*
X136075715Y-118657619D01*
X136123334Y-118752857D01*
X136123334Y-118895714D01*
X136075715Y-118990952D01*
X136028096Y-119038571D01*
X135932858Y-119086190D01*
X135551905Y-119086190D01*
X136456667Y-118562381D02*
X137075715Y-118562381D01*
X136742381Y-118943333D01*
X136885239Y-118943333D01*
X136980477Y-118990952D01*
X137028096Y-119038571D01*
X137075715Y-119133810D01*
X137075715Y-119371905D01*
X137028096Y-119467143D01*
X136980477Y-119514762D01*
X136885239Y-119562381D01*
X136599524Y-119562381D01*
X136504286Y-119514762D01*
X136456667Y-119467143D01*
X156391905Y-107582381D02*
X156391905Y-106582381D01*
X156772858Y-106582381D01*
X156868096Y-106630000D01*
X156915715Y-106677619D01*
X156963334Y-106772857D01*
X156963334Y-106915714D01*
X156915715Y-107010952D01*
X156868096Y-107058571D01*
X156772858Y-107106190D01*
X156391905Y-107106190D01*
X157915715Y-107582381D02*
X157344286Y-107582381D01*
X157630000Y-107582381D02*
X157630000Y-106582381D01*
X157534762Y-106725238D01*
X157439524Y-106820476D01*
X157344286Y-106868095D01*
M02*
