M48
;DRILL file {KiCad 4.0.5} date Thu Dec 29 13:42:20 2016
;FORMAT={-:-/ absolute / metric / decimal}
FMAT,2
METRIC,TZ
T1C0.500
T2C2.200
%
G90
G05
M71
T1
X128.24Y-75.39
X128.24Y-117.04
X128.3Y-63.18
X128.3Y-104.83
X128.67Y-74.21
X128.67Y-115.86
X128.93Y-72.28
X128.93Y-113.93
X130.62Y-65.67
X130.62Y-107.32
X130.79Y-78.21
X130.79Y-119.86
X131.67Y-61.83
X131.67Y-103.48
X133.48Y-69.81
X133.48Y-111.46
X133.89Y-58.09
X133.89Y-99.74
X134.44Y-63.31
X134.44Y-104.96
X134.82Y-81.47
X134.82Y-123.12
X134.83Y-57.11
X134.83Y-98.76
X135.94Y-78.44
X135.94Y-120.09
X136.Y-67.18
X136.Y-108.83
X137.62Y-59.75
X137.62Y-101.4
X139.75Y-75.1
X139.75Y-116.75
X140.06Y-81.91
X140.06Y-123.56
X144.05Y-81.63
X144.05Y-123.28
X144.73Y-79.86
X144.73Y-121.51
X146.65Y-77.24
X146.65Y-118.89
X148.02Y-78.77
X148.02Y-120.42
X151.384Y-66.3
X151.384Y-107.95
X152.2Y-77.01
X152.2Y-118.66
X153.02Y-65.65
X153.02Y-107.3
X153.68Y-65.
X153.68Y-106.65
X169.7Y-75.39
X169.7Y-117.04
X169.76Y-63.18
X169.76Y-104.83
X170.13Y-74.21
X170.13Y-115.86
X170.39Y-72.28
X170.39Y-113.93
X172.08Y-65.67
X172.08Y-107.32
X172.25Y-78.21
X172.25Y-119.86
X173.13Y-61.83
X173.13Y-103.48
X174.94Y-69.81
X174.94Y-111.46
X175.35Y-58.09
X175.35Y-99.74
X175.9Y-63.31
X175.9Y-104.96
X176.28Y-81.47
X176.28Y-123.12
X176.29Y-57.11
X176.29Y-98.76
X177.4Y-78.44
X177.4Y-120.09
X177.46Y-67.18
X177.46Y-108.83
X179.08Y-59.75
X179.08Y-101.4
X181.21Y-75.1
X181.21Y-116.75
X181.52Y-81.91
X181.52Y-123.56
X185.51Y-81.63
X185.51Y-123.28
X186.19Y-79.86
X186.19Y-121.51
X188.11Y-77.24
X188.11Y-118.89
X189.48Y-78.77
X189.48Y-120.42
X192.844Y-66.3
X192.844Y-107.95
X193.66Y-77.01
X193.66Y-118.66
X194.48Y-65.65
X194.48Y-107.3
X195.14Y-65.
X195.14Y-106.65
T2
X137.97Y-62.34
X137.97Y-103.99
X150.8Y-78.38
X150.8Y-120.03
X179.43Y-62.34
X179.43Y-103.99
X192.26Y-78.38
X192.26Y-120.03
T0
M30
