M48
;DRILL file {KiCad 4.0.5} date Sat Dec 31 13:00:06 2016
;FORMAT={-:-/ absolute / metric / decimal}
FMAT,2
METRIC,TZ
T1C0.500
T2C2.200
%
G90
G05
M71
T1
X128.24Y-117.04
X128.3Y-104.83
X128.67Y-115.86
X128.93Y-113.93
X130.62Y-107.32
X130.79Y-119.86
X131.67Y-103.48
X133.48Y-111.46
X133.89Y-99.74
X134.44Y-104.96
X134.82Y-123.12
X134.83Y-98.76
X135.94Y-120.09
X136.Y-108.83
X137.62Y-101.4
X139.75Y-116.75
X140.06Y-123.56
X144.05Y-123.28
X144.73Y-121.51
X146.65Y-118.89
X148.02Y-120.42
X151.384Y-107.95
X152.2Y-118.66
X153.02Y-107.3
X153.68Y-106.65
T2
X137.97Y-103.99
X150.8Y-120.03
T0
M30
