G04 #@! TF.FileFunction,Legend,Bot*
%FSLAX46Y46*%
G04 Gerber Fmt 4.6, Leading zero omitted, Abs format (unit mm)*
G04 Created by KiCad (PCBNEW 4.0.5) date Sat Dec 31 13:00:02 2016*
%MOMM*%
%LPD*%
G01*
G04 APERTURE LIST*
%ADD10C,0.100000*%
%ADD11C,0.010000*%
G04 APERTURE END LIST*
D10*
D11*
G36*
X136411900Y-115468097D02*
X136523450Y-115412478D01*
X136621908Y-115310069D01*
X136649023Y-115272136D01*
X136678562Y-115222500D01*
X136697728Y-115168588D01*
X136708693Y-115096636D01*
X136713629Y-114992878D01*
X136714713Y-114855899D01*
X136709818Y-114668185D01*
X136692804Y-114527242D01*
X136660177Y-114422092D01*
X136608442Y-114341757D01*
X136534104Y-114275259D01*
X136528642Y-114271322D01*
X136455380Y-114231047D01*
X136367160Y-114211120D01*
X136254962Y-114206207D01*
X136072567Y-114206207D01*
X136072491Y-114029143D01*
X136070793Y-113930530D01*
X136060450Y-113872686D01*
X136033422Y-113837994D01*
X135981668Y-113808836D01*
X135969239Y-113802879D01*
X135911077Y-113774961D01*
X135866044Y-113757328D01*
X135832559Y-113755806D01*
X135809038Y-113776219D01*
X135793900Y-113824393D01*
X135785563Y-113906154D01*
X135782444Y-114027328D01*
X135782960Y-114193740D01*
X135785529Y-114411215D01*
X135786332Y-114476264D01*
X135789222Y-114700498D01*
X135791812Y-114847179D01*
X136072414Y-114847179D01*
X136073991Y-114722674D01*
X136081000Y-114641213D01*
X136096858Y-114587485D01*
X136124981Y-114546177D01*
X136144075Y-114526029D01*
X136222135Y-114467079D01*
X136291247Y-114462280D01*
X136362560Y-114510962D01*
X136364368Y-114512759D01*
X136393383Y-114550382D01*
X136411033Y-114601516D01*
X136419936Y-114680262D01*
X136422709Y-114800724D01*
X136422759Y-114827412D01*
X136416058Y-114993417D01*
X136394248Y-115108495D01*
X136354765Y-115178746D01*
X136295044Y-115210271D01*
X136260528Y-115213448D01*
X136178611Y-115198540D01*
X136122421Y-115149452D01*
X136088598Y-115059638D01*
X136073780Y-114922555D01*
X136072414Y-114847179D01*
X135791812Y-114847179D01*
X135792287Y-114874048D01*
X135796247Y-115004618D01*
X135801826Y-115099913D01*
X135809746Y-115167636D01*
X135820731Y-115215493D01*
X135835501Y-115251187D01*
X135854782Y-115282422D01*
X135863049Y-115294176D01*
X135972712Y-115405203D01*
X136111365Y-115468153D01*
X136271754Y-115485703D01*
X136411900Y-115468097D01*
X136411900Y-115468097D01*
G37*
X136411900Y-115468097D02*
X136523450Y-115412478D01*
X136621908Y-115310069D01*
X136649023Y-115272136D01*
X136678562Y-115222500D01*
X136697728Y-115168588D01*
X136708693Y-115096636D01*
X136713629Y-114992878D01*
X136714713Y-114855899D01*
X136709818Y-114668185D01*
X136692804Y-114527242D01*
X136660177Y-114422092D01*
X136608442Y-114341757D01*
X136534104Y-114275259D01*
X136528642Y-114271322D01*
X136455380Y-114231047D01*
X136367160Y-114211120D01*
X136254962Y-114206207D01*
X136072567Y-114206207D01*
X136072491Y-114029143D01*
X136070793Y-113930530D01*
X136060450Y-113872686D01*
X136033422Y-113837994D01*
X135981668Y-113808836D01*
X135969239Y-113802879D01*
X135911077Y-113774961D01*
X135866044Y-113757328D01*
X135832559Y-113755806D01*
X135809038Y-113776219D01*
X135793900Y-113824393D01*
X135785563Y-113906154D01*
X135782444Y-114027328D01*
X135782960Y-114193740D01*
X135785529Y-114411215D01*
X135786332Y-114476264D01*
X135789222Y-114700498D01*
X135791812Y-114847179D01*
X136072414Y-114847179D01*
X136073991Y-114722674D01*
X136081000Y-114641213D01*
X136096858Y-114587485D01*
X136124981Y-114546177D01*
X136144075Y-114526029D01*
X136222135Y-114467079D01*
X136291247Y-114462280D01*
X136362560Y-114510962D01*
X136364368Y-114512759D01*
X136393383Y-114550382D01*
X136411033Y-114601516D01*
X136419936Y-114680262D01*
X136422709Y-114800724D01*
X136422759Y-114827412D01*
X136416058Y-114993417D01*
X136394248Y-115108495D01*
X136354765Y-115178746D01*
X136295044Y-115210271D01*
X136260528Y-115213448D01*
X136178611Y-115198540D01*
X136122421Y-115149452D01*
X136088598Y-115059638D01*
X136073780Y-114922555D01*
X136072414Y-114847179D01*
X135791812Y-114847179D01*
X135792287Y-114874048D01*
X135796247Y-115004618D01*
X135801826Y-115099913D01*
X135809746Y-115167636D01*
X135820731Y-115215493D01*
X135835501Y-115251187D01*
X135854782Y-115282422D01*
X135863049Y-115294176D01*
X135972712Y-115405203D01*
X136111365Y-115468153D01*
X136271754Y-115485703D01*
X136411900Y-115468097D01*
G36*
X138657429Y-115452281D02*
X138751123Y-115398086D01*
X138816264Y-115344293D01*
X138863907Y-115287934D01*
X138896728Y-115219013D01*
X138917406Y-115127532D01*
X138928620Y-115003494D01*
X138933049Y-114836902D01*
X138933563Y-114717149D01*
X138933563Y-114276341D01*
X138809483Y-114220717D01*
X138685402Y-114165093D01*
X138670805Y-114647905D01*
X138664773Y-114828221D01*
X138658445Y-114959099D01*
X138650606Y-115049489D01*
X138640037Y-115108336D01*
X138625523Y-115144587D01*
X138605848Y-115167190D01*
X138599535Y-115172083D01*
X138503888Y-115210294D01*
X138407207Y-115195173D01*
X138349655Y-115155057D01*
X138326245Y-115126630D01*
X138310039Y-115089328D01*
X138299741Y-115032777D01*
X138294049Y-114946606D01*
X138291664Y-114820442D01*
X138291264Y-114688958D01*
X138291186Y-114524001D01*
X138288361Y-114407239D01*
X138278907Y-114328490D01*
X138258940Y-114277569D01*
X138224576Y-114244294D01*
X138171932Y-114218480D01*
X138101617Y-114191656D01*
X138024820Y-114162458D01*
X138033962Y-114680654D01*
X138037643Y-114867461D01*
X138041950Y-115005510D01*
X138048123Y-115104432D01*
X138057402Y-115173855D01*
X138071027Y-115223410D01*
X138090239Y-115262727D01*
X138113402Y-115297416D01*
X138225152Y-115408230D01*
X138361513Y-115472311D01*
X138509825Y-115487661D01*
X138657429Y-115452281D01*
X138657429Y-115452281D01*
G37*
X138657429Y-115452281D02*
X138751123Y-115398086D01*
X138816264Y-115344293D01*
X138863907Y-115287934D01*
X138896728Y-115219013D01*
X138917406Y-115127532D01*
X138928620Y-115003494D01*
X138933049Y-114836902D01*
X138933563Y-114717149D01*
X138933563Y-114276341D01*
X138809483Y-114220717D01*
X138685402Y-114165093D01*
X138670805Y-114647905D01*
X138664773Y-114828221D01*
X138658445Y-114959099D01*
X138650606Y-115049489D01*
X138640037Y-115108336D01*
X138625523Y-115144587D01*
X138605848Y-115167190D01*
X138599535Y-115172083D01*
X138503888Y-115210294D01*
X138407207Y-115195173D01*
X138349655Y-115155057D01*
X138326245Y-115126630D01*
X138310039Y-115089328D01*
X138299741Y-115032777D01*
X138294049Y-114946606D01*
X138291664Y-114820442D01*
X138291264Y-114688958D01*
X138291186Y-114524001D01*
X138288361Y-114407239D01*
X138278907Y-114328490D01*
X138258940Y-114277569D01*
X138224576Y-114244294D01*
X138171932Y-114218480D01*
X138101617Y-114191656D01*
X138024820Y-114162458D01*
X138033962Y-114680654D01*
X138037643Y-114867461D01*
X138041950Y-115005510D01*
X138048123Y-115104432D01*
X138057402Y-115173855D01*
X138071027Y-115223410D01*
X138090239Y-115262727D01*
X138113402Y-115297416D01*
X138225152Y-115408230D01*
X138361513Y-115472311D01*
X138509825Y-115487661D01*
X138657429Y-115452281D01*
G36*
X135288221Y-115463985D02*
X135425061Y-115392032D01*
X135526051Y-115276234D01*
X135561925Y-115201787D01*
X135589839Y-115090008D01*
X135604129Y-114948773D01*
X135605484Y-114794629D01*
X135594595Y-114644121D01*
X135572153Y-114513795D01*
X135538850Y-114420197D01*
X135528615Y-114404078D01*
X135407382Y-114283751D01*
X135263387Y-114211683D01*
X135107139Y-114190592D01*
X134949148Y-114223198D01*
X134905180Y-114242747D01*
X134819556Y-114302988D01*
X134744408Y-114382865D01*
X134737306Y-114392996D01*
X134708439Y-114441819D01*
X134689357Y-114494010D01*
X134678084Y-114562715D01*
X134672645Y-114661082D01*
X134671062Y-114802256D01*
X134671035Y-114833908D01*
X134671107Y-114843981D01*
X134962989Y-114843981D01*
X134964687Y-114710744D01*
X134971372Y-114622326D01*
X134985425Y-114565215D01*
X135009229Y-114525898D01*
X135021379Y-114512759D01*
X135091236Y-114462828D01*
X135159059Y-114465105D01*
X135227635Y-114508416D01*
X135268535Y-114554654D01*
X135292758Y-114622143D01*
X135306361Y-114728567D01*
X135307294Y-114740980D01*
X135309616Y-114933853D01*
X135285350Y-115077100D01*
X135234824Y-115169840D01*
X135158368Y-115211193D01*
X135131076Y-115213448D01*
X135059411Y-115202107D01*
X135010390Y-115162816D01*
X134980418Y-115087674D01*
X134965899Y-114968778D01*
X134962989Y-114843981D01*
X134671107Y-114843981D01*
X134672122Y-114984341D01*
X134676688Y-115089451D01*
X134686688Y-115162286D01*
X134704079Y-115215892D01*
X134730816Y-115263319D01*
X134736724Y-115272136D01*
X134836032Y-115390993D01*
X134944242Y-115459992D01*
X135075981Y-115487381D01*
X135120717Y-115488719D01*
X135288221Y-115463985D01*
X135288221Y-115463985D01*
G37*
X135288221Y-115463985D02*
X135425061Y-115392032D01*
X135526051Y-115276234D01*
X135561925Y-115201787D01*
X135589839Y-115090008D01*
X135604129Y-114948773D01*
X135605484Y-114794629D01*
X135594595Y-114644121D01*
X135572153Y-114513795D01*
X135538850Y-114420197D01*
X135528615Y-114404078D01*
X135407382Y-114283751D01*
X135263387Y-114211683D01*
X135107139Y-114190592D01*
X134949148Y-114223198D01*
X134905180Y-114242747D01*
X134819556Y-114302988D01*
X134744408Y-114382865D01*
X134737306Y-114392996D01*
X134708439Y-114441819D01*
X134689357Y-114494010D01*
X134678084Y-114562715D01*
X134672645Y-114661082D01*
X134671062Y-114802256D01*
X134671035Y-114833908D01*
X134671107Y-114843981D01*
X134962989Y-114843981D01*
X134964687Y-114710744D01*
X134971372Y-114622326D01*
X134985425Y-114565215D01*
X135009229Y-114525898D01*
X135021379Y-114512759D01*
X135091236Y-114462828D01*
X135159059Y-114465105D01*
X135227635Y-114508416D01*
X135268535Y-114554654D01*
X135292758Y-114622143D01*
X135306361Y-114728567D01*
X135307294Y-114740980D01*
X135309616Y-114933853D01*
X135285350Y-115077100D01*
X135234824Y-115169840D01*
X135158368Y-115211193D01*
X135131076Y-115213448D01*
X135059411Y-115202107D01*
X135010390Y-115162816D01*
X134980418Y-115087674D01*
X134965899Y-114968778D01*
X134962989Y-114843981D01*
X134671107Y-114843981D01*
X134672122Y-114984341D01*
X134676688Y-115089451D01*
X134686688Y-115162286D01*
X134704079Y-115215892D01*
X134730816Y-115263319D01*
X134736724Y-115272136D01*
X134836032Y-115390993D01*
X134944242Y-115459992D01*
X135075981Y-115487381D01*
X135120717Y-115488719D01*
X135288221Y-115463985D01*
G36*
X137555552Y-115445324D02*
X137670658Y-115367889D01*
X137759611Y-115256051D01*
X137812749Y-115113735D01*
X137823497Y-115008985D01*
X137822276Y-114965274D01*
X137812056Y-114931806D01*
X137783961Y-114901821D01*
X137729116Y-114868560D01*
X137638645Y-114825262D01*
X137503672Y-114765167D01*
X137502989Y-114764866D01*
X137378751Y-114707963D01*
X137276873Y-114657435D01*
X137207767Y-114618720D01*
X137181846Y-114597260D01*
X137181839Y-114597087D01*
X137204685Y-114550356D01*
X137258109Y-114498846D01*
X137319442Y-114461739D01*
X137350515Y-114454368D01*
X137435289Y-114479862D01*
X137508293Y-114543709D01*
X137543913Y-114613906D01*
X137578180Y-114665657D01*
X137645303Y-114724591D01*
X137724208Y-114775504D01*
X137793821Y-114803191D01*
X137808377Y-114804713D01*
X137824763Y-114779679D01*
X137825750Y-114715689D01*
X137813708Y-114629407D01*
X137791007Y-114537499D01*
X137760014Y-114456631D01*
X137758448Y-114453491D01*
X137665181Y-114323266D01*
X137544304Y-114234689D01*
X137407027Y-114191214D01*
X137264560Y-114196294D01*
X137128112Y-114253384D01*
X137122045Y-114257398D01*
X137014710Y-114354674D01*
X136944132Y-114481591D01*
X136905074Y-114648474D01*
X136899832Y-114695361D01*
X136890548Y-114916671D01*
X136901678Y-115019876D01*
X137181839Y-115019876D01*
X137185479Y-114955497D01*
X137205389Y-114936709D01*
X137255026Y-114950765D01*
X137333267Y-114983991D01*
X137420726Y-115025641D01*
X137422899Y-115026744D01*
X137497030Y-115065735D01*
X137526781Y-115091756D01*
X137519445Y-115119035D01*
X137488553Y-115154879D01*
X137409960Y-115206749D01*
X137325323Y-115210561D01*
X137249403Y-115172811D01*
X137196965Y-115099999D01*
X137181839Y-115019876D01*
X136901678Y-115019876D01*
X136909644Y-115093739D01*
X136958634Y-115234171D01*
X137026836Y-115332553D01*
X137149935Y-115431970D01*
X137285528Y-115481289D01*
X137423955Y-115484432D01*
X137555552Y-115445324D01*
X137555552Y-115445324D01*
G37*
X137555552Y-115445324D02*
X137670658Y-115367889D01*
X137759611Y-115256051D01*
X137812749Y-115113735D01*
X137823497Y-115008985D01*
X137822276Y-114965274D01*
X137812056Y-114931806D01*
X137783961Y-114901821D01*
X137729116Y-114868560D01*
X137638645Y-114825262D01*
X137503672Y-114765167D01*
X137502989Y-114764866D01*
X137378751Y-114707963D01*
X137276873Y-114657435D01*
X137207767Y-114618720D01*
X137181846Y-114597260D01*
X137181839Y-114597087D01*
X137204685Y-114550356D01*
X137258109Y-114498846D01*
X137319442Y-114461739D01*
X137350515Y-114454368D01*
X137435289Y-114479862D01*
X137508293Y-114543709D01*
X137543913Y-114613906D01*
X137578180Y-114665657D01*
X137645303Y-114724591D01*
X137724208Y-114775504D01*
X137793821Y-114803191D01*
X137808377Y-114804713D01*
X137824763Y-114779679D01*
X137825750Y-114715689D01*
X137813708Y-114629407D01*
X137791007Y-114537499D01*
X137760014Y-114456631D01*
X137758448Y-114453491D01*
X137665181Y-114323266D01*
X137544304Y-114234689D01*
X137407027Y-114191214D01*
X137264560Y-114196294D01*
X137128112Y-114253384D01*
X137122045Y-114257398D01*
X137014710Y-114354674D01*
X136944132Y-114481591D01*
X136905074Y-114648474D01*
X136899832Y-114695361D01*
X136890548Y-114916671D01*
X136901678Y-115019876D01*
X137181839Y-115019876D01*
X137185479Y-114955497D01*
X137205389Y-114936709D01*
X137255026Y-114950765D01*
X137333267Y-114983991D01*
X137420726Y-115025641D01*
X137422899Y-115026744D01*
X137497030Y-115065735D01*
X137526781Y-115091756D01*
X137519445Y-115119035D01*
X137488553Y-115154879D01*
X137409960Y-115206749D01*
X137325323Y-115210561D01*
X137249403Y-115172811D01*
X137196965Y-115099999D01*
X137181839Y-115019876D01*
X136901678Y-115019876D01*
X136909644Y-115093739D01*
X136958634Y-115234171D01*
X137026836Y-115332553D01*
X137149935Y-115431970D01*
X137285528Y-115481289D01*
X137423955Y-115484432D01*
X137555552Y-115445324D01*
G36*
X139984598Y-115606143D02*
X139993154Y-115486812D01*
X140002981Y-115416494D01*
X140016599Y-115385821D01*
X140036527Y-115385429D01*
X140042989Y-115389090D01*
X140128940Y-115415602D01*
X140240745Y-115414054D01*
X140354414Y-115386801D01*
X140425510Y-115351545D01*
X140498405Y-115295222D01*
X140551693Y-115231481D01*
X140588275Y-115150490D01*
X140611050Y-115042414D01*
X140622919Y-114897420D01*
X140626782Y-114705674D01*
X140626851Y-114668891D01*
X140626897Y-114255712D01*
X140534954Y-114223661D01*
X140469652Y-114201856D01*
X140433824Y-114191703D01*
X140432770Y-114191609D01*
X140429242Y-114219140D01*
X140426239Y-114295077D01*
X140423990Y-114409435D01*
X140422724Y-114552231D01*
X140422529Y-114639049D01*
X140422123Y-114810227D01*
X140420032Y-114932912D01*
X140414947Y-115017000D01*
X140405560Y-115072386D01*
X140390561Y-115108968D01*
X140368642Y-115136641D01*
X140354957Y-115149968D01*
X140260949Y-115203672D01*
X140158364Y-115207693D01*
X140065290Y-115162275D01*
X140048078Y-115145877D01*
X140022832Y-115115043D01*
X140005320Y-115078469D01*
X139994142Y-115025585D01*
X139987896Y-114945823D01*
X139985182Y-114828615D01*
X139984598Y-114667009D01*
X139984598Y-114255712D01*
X139892655Y-114223661D01*
X139827353Y-114201856D01*
X139791525Y-114191703D01*
X139790471Y-114191609D01*
X139787775Y-114219552D01*
X139785345Y-114298370D01*
X139783278Y-114420547D01*
X139781671Y-114578568D01*
X139780623Y-114764917D01*
X139780231Y-114972080D01*
X139780230Y-114981294D01*
X139780230Y-115770980D01*
X139875115Y-115811003D01*
X139970000Y-115851027D01*
X139984598Y-115606143D01*
X139984598Y-115606143D01*
G37*
X139984598Y-115606143D02*
X139993154Y-115486812D01*
X140002981Y-115416494D01*
X140016599Y-115385821D01*
X140036527Y-115385429D01*
X140042989Y-115389090D01*
X140128940Y-115415602D01*
X140240745Y-115414054D01*
X140354414Y-115386801D01*
X140425510Y-115351545D01*
X140498405Y-115295222D01*
X140551693Y-115231481D01*
X140588275Y-115150490D01*
X140611050Y-115042414D01*
X140622919Y-114897420D01*
X140626782Y-114705674D01*
X140626851Y-114668891D01*
X140626897Y-114255712D01*
X140534954Y-114223661D01*
X140469652Y-114201856D01*
X140433824Y-114191703D01*
X140432770Y-114191609D01*
X140429242Y-114219140D01*
X140426239Y-114295077D01*
X140423990Y-114409435D01*
X140422724Y-114552231D01*
X140422529Y-114639049D01*
X140422123Y-114810227D01*
X140420032Y-114932912D01*
X140414947Y-115017000D01*
X140405560Y-115072386D01*
X140390561Y-115108968D01*
X140368642Y-115136641D01*
X140354957Y-115149968D01*
X140260949Y-115203672D01*
X140158364Y-115207693D01*
X140065290Y-115162275D01*
X140048078Y-115145877D01*
X140022832Y-115115043D01*
X140005320Y-115078469D01*
X139994142Y-115025585D01*
X139987896Y-114945823D01*
X139985182Y-114828615D01*
X139984598Y-114667009D01*
X139984598Y-114255712D01*
X139892655Y-114223661D01*
X139827353Y-114201856D01*
X139791525Y-114191703D01*
X139790471Y-114191609D01*
X139787775Y-114219552D01*
X139785345Y-114298370D01*
X139783278Y-114420547D01*
X139781671Y-114578568D01*
X139780623Y-114764917D01*
X139780231Y-114972080D01*
X139780230Y-114981294D01*
X139780230Y-115770980D01*
X139875115Y-115811003D01*
X139970000Y-115851027D01*
X139984598Y-115606143D01*
G36*
X141319944Y-115405640D02*
X141434343Y-115363158D01*
X141435652Y-115362342D01*
X141506403Y-115310270D01*
X141558636Y-115249416D01*
X141595371Y-115170113D01*
X141619634Y-115062691D01*
X141634445Y-114917483D01*
X141642829Y-114724821D01*
X141643564Y-114697372D01*
X141654120Y-114283479D01*
X141565291Y-114237544D01*
X141501018Y-114206502D01*
X141462210Y-114191794D01*
X141460415Y-114191609D01*
X141453700Y-114218750D01*
X141448365Y-114291959D01*
X141445083Y-114398919D01*
X141444368Y-114485531D01*
X141444351Y-114625838D01*
X141437937Y-114713949D01*
X141415580Y-114755975D01*
X141367732Y-114758025D01*
X141284849Y-114726210D01*
X141159713Y-114667728D01*
X141067697Y-114619155D01*
X141020371Y-114577014D01*
X141006458Y-114531084D01*
X141006437Y-114528811D01*
X141029395Y-114449689D01*
X141097370Y-114406945D01*
X141201398Y-114400754D01*
X141276330Y-114401828D01*
X141315839Y-114380247D01*
X141340478Y-114328409D01*
X141354659Y-114262368D01*
X141334223Y-114224896D01*
X141326528Y-114219533D01*
X141254083Y-114197994D01*
X141152633Y-114194945D01*
X141048157Y-114209222D01*
X140974125Y-114235312D01*
X140871772Y-114322215D01*
X140813591Y-114443184D01*
X140802069Y-114537692D01*
X140810862Y-114622938D01*
X140842680Y-114692524D01*
X140905684Y-114754328D01*
X141008031Y-114816228D01*
X141157882Y-114886103D01*
X141167012Y-114890052D01*
X141301997Y-114952412D01*
X141385294Y-115003554D01*
X141420997Y-115049512D01*
X141413203Y-115096317D01*
X141366007Y-115150002D01*
X141351894Y-115162356D01*
X141257359Y-115210259D01*
X141159406Y-115208242D01*
X141074097Y-115161276D01*
X141017496Y-115074331D01*
X141012237Y-115057266D01*
X140961023Y-114974496D01*
X140896037Y-114934628D01*
X140802069Y-114895118D01*
X140802069Y-114997342D01*
X140830653Y-115145928D01*
X140915495Y-115282216D01*
X140959645Y-115327809D01*
X141060005Y-115386326D01*
X141187635Y-115412816D01*
X141319944Y-115405640D01*
X141319944Y-115405640D01*
G37*
X141319944Y-115405640D02*
X141434343Y-115363158D01*
X141435652Y-115362342D01*
X141506403Y-115310270D01*
X141558636Y-115249416D01*
X141595371Y-115170113D01*
X141619634Y-115062691D01*
X141634445Y-114917483D01*
X141642829Y-114724821D01*
X141643564Y-114697372D01*
X141654120Y-114283479D01*
X141565291Y-114237544D01*
X141501018Y-114206502D01*
X141462210Y-114191794D01*
X141460415Y-114191609D01*
X141453700Y-114218750D01*
X141448365Y-114291959D01*
X141445083Y-114398919D01*
X141444368Y-114485531D01*
X141444351Y-114625838D01*
X141437937Y-114713949D01*
X141415580Y-114755975D01*
X141367732Y-114758025D01*
X141284849Y-114726210D01*
X141159713Y-114667728D01*
X141067697Y-114619155D01*
X141020371Y-114577014D01*
X141006458Y-114531084D01*
X141006437Y-114528811D01*
X141029395Y-114449689D01*
X141097370Y-114406945D01*
X141201398Y-114400754D01*
X141276330Y-114401828D01*
X141315839Y-114380247D01*
X141340478Y-114328409D01*
X141354659Y-114262368D01*
X141334223Y-114224896D01*
X141326528Y-114219533D01*
X141254083Y-114197994D01*
X141152633Y-114194945D01*
X141048157Y-114209222D01*
X140974125Y-114235312D01*
X140871772Y-114322215D01*
X140813591Y-114443184D01*
X140802069Y-114537692D01*
X140810862Y-114622938D01*
X140842680Y-114692524D01*
X140905684Y-114754328D01*
X141008031Y-114816228D01*
X141157882Y-114886103D01*
X141167012Y-114890052D01*
X141301997Y-114952412D01*
X141385294Y-115003554D01*
X141420997Y-115049512D01*
X141413203Y-115096317D01*
X141366007Y-115150002D01*
X141351894Y-115162356D01*
X141257359Y-115210259D01*
X141159406Y-115208242D01*
X141074097Y-115161276D01*
X141017496Y-115074331D01*
X141012237Y-115057266D01*
X140961023Y-114974496D01*
X140896037Y-114934628D01*
X140802069Y-114895118D01*
X140802069Y-114997342D01*
X140830653Y-115145928D01*
X140915495Y-115282216D01*
X140959645Y-115327809D01*
X141060005Y-115386326D01*
X141187635Y-115412816D01*
X141319944Y-115405640D01*
G36*
X142305943Y-115408080D02*
X142438565Y-115359141D01*
X142546010Y-115272581D01*
X142588032Y-115211648D01*
X142633843Y-115099839D01*
X142632891Y-115018994D01*
X142584808Y-114964622D01*
X142567017Y-114955376D01*
X142490204Y-114926550D01*
X142450976Y-114933935D01*
X142437689Y-114982342D01*
X142437012Y-115009080D01*
X142412686Y-115107452D01*
X142349281Y-115176266D01*
X142261154Y-115209502D01*
X142162663Y-115201139D01*
X142082602Y-115157704D01*
X142055561Y-115132928D01*
X142036394Y-115102871D01*
X142023446Y-115057435D01*
X142015064Y-114986524D01*
X142009593Y-114880040D01*
X142005378Y-114727888D01*
X142004287Y-114679713D01*
X142000307Y-114514905D01*
X141995781Y-114398912D01*
X141988995Y-114322167D01*
X141978231Y-114275107D01*
X141961773Y-114248165D01*
X141937906Y-114231777D01*
X141922626Y-114224537D01*
X141857733Y-114199780D01*
X141819534Y-114191609D01*
X141806912Y-114218897D01*
X141799208Y-114301397D01*
X141796380Y-114440059D01*
X141798386Y-114635838D01*
X141799011Y-114666035D01*
X141803421Y-114844651D01*
X141808635Y-114975077D01*
X141816055Y-115067508D01*
X141827082Y-115132142D01*
X141843117Y-115179175D01*
X141865561Y-115218804D01*
X141877302Y-115235785D01*
X141944619Y-115310920D01*
X142019910Y-115369362D01*
X142029128Y-115374464D01*
X142164133Y-115414740D01*
X142305943Y-115408080D01*
X142305943Y-115408080D01*
G37*
X142305943Y-115408080D02*
X142438565Y-115359141D01*
X142546010Y-115272581D01*
X142588032Y-115211648D01*
X142633843Y-115099839D01*
X142632891Y-115018994D01*
X142584808Y-114964622D01*
X142567017Y-114955376D01*
X142490204Y-114926550D01*
X142450976Y-114933935D01*
X142437689Y-114982342D01*
X142437012Y-115009080D01*
X142412686Y-115107452D01*
X142349281Y-115176266D01*
X142261154Y-115209502D01*
X142162663Y-115201139D01*
X142082602Y-115157704D01*
X142055561Y-115132928D01*
X142036394Y-115102871D01*
X142023446Y-115057435D01*
X142015064Y-114986524D01*
X142009593Y-114880040D01*
X142005378Y-114727888D01*
X142004287Y-114679713D01*
X142000307Y-114514905D01*
X141995781Y-114398912D01*
X141988995Y-114322167D01*
X141978231Y-114275107D01*
X141961773Y-114248165D01*
X141937906Y-114231777D01*
X141922626Y-114224537D01*
X141857733Y-114199780D01*
X141819534Y-114191609D01*
X141806912Y-114218897D01*
X141799208Y-114301397D01*
X141796380Y-114440059D01*
X141798386Y-114635838D01*
X141799011Y-114666035D01*
X141803421Y-114844651D01*
X141808635Y-114975077D01*
X141816055Y-115067508D01*
X141827082Y-115132142D01*
X141843117Y-115179175D01*
X141865561Y-115218804D01*
X141877302Y-115235785D01*
X141944619Y-115310920D01*
X142019910Y-115369362D01*
X142029128Y-115374464D01*
X142164133Y-115414740D01*
X142305943Y-115408080D01*
G36*
X143633914Y-115175545D02*
X143633543Y-114957339D01*
X143632108Y-114789481D01*
X143629002Y-114663930D01*
X143623622Y-114572645D01*
X143615362Y-114507585D01*
X143603616Y-114460709D01*
X143587781Y-114423976D01*
X143575790Y-114403009D01*
X143476490Y-114289306D01*
X143350588Y-114218035D01*
X143211291Y-114192462D01*
X143071805Y-114215850D01*
X142988743Y-114257881D01*
X142901545Y-114330589D01*
X142842117Y-114419388D01*
X142806261Y-114535680D01*
X142789781Y-114690865D01*
X142787447Y-114804713D01*
X142787761Y-114812894D01*
X142991724Y-114812894D01*
X142992970Y-114682343D01*
X142998678Y-114595920D01*
X143011804Y-114539382D01*
X143035306Y-114498486D01*
X143063386Y-114467638D01*
X143157688Y-114408095D01*
X143258940Y-114403008D01*
X143354636Y-114452721D01*
X143362084Y-114459457D01*
X143393874Y-114494498D01*
X143413808Y-114536189D01*
X143424600Y-114598238D01*
X143428965Y-114694356D01*
X143429655Y-114800621D01*
X143428159Y-114934120D01*
X143421964Y-115023178D01*
X143408514Y-115081707D01*
X143385251Y-115123618D01*
X143366175Y-115145877D01*
X143277563Y-115202015D01*
X143175508Y-115208765D01*
X143078095Y-115165886D01*
X143059296Y-115149968D01*
X143027293Y-115114618D01*
X143007318Y-115072498D01*
X142996593Y-115009749D01*
X142992339Y-114912513D01*
X142991724Y-114812894D01*
X142787761Y-114812894D01*
X142794504Y-114988053D01*
X142818472Y-115125805D01*
X142863548Y-115229368D01*
X142933928Y-115310144D01*
X142988743Y-115351545D01*
X143088376Y-115396272D01*
X143203855Y-115417033D01*
X143311199Y-115411475D01*
X143371264Y-115389057D01*
X143394835Y-115382677D01*
X143410477Y-115406465D01*
X143421395Y-115470212D01*
X143429655Y-115567313D01*
X143438699Y-115675459D01*
X143451261Y-115740525D01*
X143474119Y-115777732D01*
X143514051Y-115802301D01*
X143539138Y-115813181D01*
X143634023Y-115852928D01*
X143633914Y-115175545D01*
X143633914Y-115175545D01*
G37*
X143633914Y-115175545D02*
X143633543Y-114957339D01*
X143632108Y-114789481D01*
X143629002Y-114663930D01*
X143623622Y-114572645D01*
X143615362Y-114507585D01*
X143603616Y-114460709D01*
X143587781Y-114423976D01*
X143575790Y-114403009D01*
X143476490Y-114289306D01*
X143350588Y-114218035D01*
X143211291Y-114192462D01*
X143071805Y-114215850D01*
X142988743Y-114257881D01*
X142901545Y-114330589D01*
X142842117Y-114419388D01*
X142806261Y-114535680D01*
X142789781Y-114690865D01*
X142787447Y-114804713D01*
X142787761Y-114812894D01*
X142991724Y-114812894D01*
X142992970Y-114682343D01*
X142998678Y-114595920D01*
X143011804Y-114539382D01*
X143035306Y-114498486D01*
X143063386Y-114467638D01*
X143157688Y-114408095D01*
X143258940Y-114403008D01*
X143354636Y-114452721D01*
X143362084Y-114459457D01*
X143393874Y-114494498D01*
X143413808Y-114536189D01*
X143424600Y-114598238D01*
X143428965Y-114694356D01*
X143429655Y-114800621D01*
X143428159Y-114934120D01*
X143421964Y-115023178D01*
X143408514Y-115081707D01*
X143385251Y-115123618D01*
X143366175Y-115145877D01*
X143277563Y-115202015D01*
X143175508Y-115208765D01*
X143078095Y-115165886D01*
X143059296Y-115149968D01*
X143027293Y-115114618D01*
X143007318Y-115072498D01*
X142996593Y-115009749D01*
X142992339Y-114912513D01*
X142991724Y-114812894D01*
X142787761Y-114812894D01*
X142794504Y-114988053D01*
X142818472Y-115125805D01*
X142863548Y-115229368D01*
X142933928Y-115310144D01*
X142988743Y-115351545D01*
X143088376Y-115396272D01*
X143203855Y-115417033D01*
X143311199Y-115411475D01*
X143371264Y-115389057D01*
X143394835Y-115382677D01*
X143410477Y-115406465D01*
X143421395Y-115470212D01*
X143429655Y-115567313D01*
X143438699Y-115675459D01*
X143451261Y-115740525D01*
X143474119Y-115777732D01*
X143514051Y-115802301D01*
X143539138Y-115813181D01*
X143634023Y-115852928D01*
X143633914Y-115175545D01*
G36*
X144820124Y-115390160D02*
X144824579Y-115313347D01*
X144828071Y-115196609D01*
X144830315Y-115049179D01*
X144831035Y-114894545D01*
X144831035Y-114371273D01*
X144738645Y-114278883D01*
X144674978Y-114221953D01*
X144619089Y-114198893D01*
X144542702Y-114200353D01*
X144512380Y-114204066D01*
X144417610Y-114214874D01*
X144339222Y-114221067D01*
X144320115Y-114221639D01*
X144255699Y-114217898D01*
X144163571Y-114208506D01*
X144127850Y-114204066D01*
X144040114Y-114197199D01*
X143981153Y-114212115D01*
X143922690Y-114258165D01*
X143901585Y-114278883D01*
X143809195Y-114371273D01*
X143809195Y-115350053D01*
X143883558Y-115383934D01*
X143947590Y-115409030D01*
X143985052Y-115417816D01*
X143994657Y-115390050D01*
X144003635Y-115312470D01*
X144011386Y-115193652D01*
X144017314Y-115042172D01*
X144020173Y-114914195D01*
X144028161Y-114410575D01*
X144097848Y-114400722D01*
X144161229Y-114407611D01*
X144192286Y-114429917D01*
X144200967Y-114471621D01*
X144208378Y-114560456D01*
X144213931Y-114685166D01*
X144217036Y-114834493D01*
X144217484Y-114911339D01*
X144217931Y-115353713D01*
X144309874Y-115385765D01*
X144374949Y-115407557D01*
X144410347Y-115417719D01*
X144411368Y-115417816D01*
X144414920Y-115390191D01*
X144418823Y-115313589D01*
X144422751Y-115197421D01*
X144426376Y-115051096D01*
X144428908Y-114914195D01*
X144436897Y-114410575D01*
X144612069Y-114410575D01*
X144620107Y-114870035D01*
X144628146Y-115329495D01*
X144713543Y-115373656D01*
X144776593Y-115403981D01*
X144813910Y-115417742D01*
X144814987Y-115417816D01*
X144820124Y-115390160D01*
X144820124Y-115390160D01*
G37*
X144820124Y-115390160D02*
X144824579Y-115313347D01*
X144828071Y-115196609D01*
X144830315Y-115049179D01*
X144831035Y-114894545D01*
X144831035Y-114371273D01*
X144738645Y-114278883D01*
X144674978Y-114221953D01*
X144619089Y-114198893D01*
X144542702Y-114200353D01*
X144512380Y-114204066D01*
X144417610Y-114214874D01*
X144339222Y-114221067D01*
X144320115Y-114221639D01*
X144255699Y-114217898D01*
X144163571Y-114208506D01*
X144127850Y-114204066D01*
X144040114Y-114197199D01*
X143981153Y-114212115D01*
X143922690Y-114258165D01*
X143901585Y-114278883D01*
X143809195Y-114371273D01*
X143809195Y-115350053D01*
X143883558Y-115383934D01*
X143947590Y-115409030D01*
X143985052Y-115417816D01*
X143994657Y-115390050D01*
X144003635Y-115312470D01*
X144011386Y-115193652D01*
X144017314Y-115042172D01*
X144020173Y-114914195D01*
X144028161Y-114410575D01*
X144097848Y-114400722D01*
X144161229Y-114407611D01*
X144192286Y-114429917D01*
X144200967Y-114471621D01*
X144208378Y-114560456D01*
X144213931Y-114685166D01*
X144217036Y-114834493D01*
X144217484Y-114911339D01*
X144217931Y-115353713D01*
X144309874Y-115385765D01*
X144374949Y-115407557D01*
X144410347Y-115417719D01*
X144411368Y-115417816D01*
X144414920Y-115390191D01*
X144418823Y-115313589D01*
X144422751Y-115197421D01*
X144426376Y-115051096D01*
X144428908Y-114914195D01*
X144436897Y-114410575D01*
X144612069Y-114410575D01*
X144620107Y-114870035D01*
X144628146Y-115329495D01*
X144713543Y-115373656D01*
X144776593Y-115403981D01*
X144813910Y-115417742D01*
X144814987Y-115417816D01*
X144820124Y-115390160D01*
G36*
X145554406Y-115394844D02*
X145638469Y-115356607D01*
X145704450Y-115310274D01*
X145752794Y-115258468D01*
X145786172Y-115191637D01*
X145807253Y-115100231D01*
X145818707Y-114974699D01*
X145823203Y-114805492D01*
X145823678Y-114694067D01*
X145823678Y-114259373D01*
X145749316Y-114225491D01*
X145690746Y-114200728D01*
X145661730Y-114191609D01*
X145656179Y-114218743D01*
X145651775Y-114291906D01*
X145649078Y-114398737D01*
X145648506Y-114483563D01*
X145646046Y-114606113D01*
X145639412Y-114703332D01*
X145629726Y-114762866D01*
X145622032Y-114775517D01*
X145570311Y-114762598D01*
X145489117Y-114729461D01*
X145395102Y-114684539D01*
X145304917Y-114636265D01*
X145235215Y-114593072D01*
X145202648Y-114563392D01*
X145202519Y-114563071D01*
X145205320Y-114508143D01*
X145230439Y-114455708D01*
X145274541Y-114413119D01*
X145338909Y-114398874D01*
X145393921Y-114400534D01*
X145471835Y-114401755D01*
X145512732Y-114383502D01*
X145537295Y-114335274D01*
X145540392Y-114326180D01*
X145551040Y-114257402D01*
X145522565Y-114215640D01*
X145448344Y-114195737D01*
X145368168Y-114192056D01*
X145223890Y-114219342D01*
X145149203Y-114258310D01*
X145056963Y-114349852D01*
X145008043Y-114462218D01*
X145003654Y-114580949D01*
X145045001Y-114691589D01*
X145107197Y-114760920D01*
X145169294Y-114799735D01*
X145266895Y-114848875D01*
X145380632Y-114898708D01*
X145399590Y-114906323D01*
X145524521Y-114961455D01*
X145596539Y-115010046D01*
X145619700Y-115058353D01*
X145598064Y-115112630D01*
X145560920Y-115155057D01*
X145473127Y-115207298D01*
X145376530Y-115211216D01*
X145287944Y-115170959D01*
X145224186Y-115090674D01*
X145215817Y-115069960D01*
X145167096Y-114993775D01*
X145095965Y-114937215D01*
X145006207Y-114890799D01*
X145006207Y-115022416D01*
X145011490Y-115102832D01*
X145034142Y-115166214D01*
X145084367Y-115233837D01*
X145132582Y-115285924D01*
X145207554Y-115359678D01*
X145265806Y-115399298D01*
X145328372Y-115415190D01*
X145399193Y-115417816D01*
X145554406Y-115394844D01*
X145554406Y-115394844D01*
G37*
X145554406Y-115394844D02*
X145638469Y-115356607D01*
X145704450Y-115310274D01*
X145752794Y-115258468D01*
X145786172Y-115191637D01*
X145807253Y-115100231D01*
X145818707Y-114974699D01*
X145823203Y-114805492D01*
X145823678Y-114694067D01*
X145823678Y-114259373D01*
X145749316Y-114225491D01*
X145690746Y-114200728D01*
X145661730Y-114191609D01*
X145656179Y-114218743D01*
X145651775Y-114291906D01*
X145649078Y-114398737D01*
X145648506Y-114483563D01*
X145646046Y-114606113D01*
X145639412Y-114703332D01*
X145629726Y-114762866D01*
X145622032Y-114775517D01*
X145570311Y-114762598D01*
X145489117Y-114729461D01*
X145395102Y-114684539D01*
X145304917Y-114636265D01*
X145235215Y-114593072D01*
X145202648Y-114563392D01*
X145202519Y-114563071D01*
X145205320Y-114508143D01*
X145230439Y-114455708D01*
X145274541Y-114413119D01*
X145338909Y-114398874D01*
X145393921Y-114400534D01*
X145471835Y-114401755D01*
X145512732Y-114383502D01*
X145537295Y-114335274D01*
X145540392Y-114326180D01*
X145551040Y-114257402D01*
X145522565Y-114215640D01*
X145448344Y-114195737D01*
X145368168Y-114192056D01*
X145223890Y-114219342D01*
X145149203Y-114258310D01*
X145056963Y-114349852D01*
X145008043Y-114462218D01*
X145003654Y-114580949D01*
X145045001Y-114691589D01*
X145107197Y-114760920D01*
X145169294Y-114799735D01*
X145266895Y-114848875D01*
X145380632Y-114898708D01*
X145399590Y-114906323D01*
X145524521Y-114961455D01*
X145596539Y-115010046D01*
X145619700Y-115058353D01*
X145598064Y-115112630D01*
X145560920Y-115155057D01*
X145473127Y-115207298D01*
X145376530Y-115211216D01*
X145287944Y-115170959D01*
X145224186Y-115090674D01*
X145215817Y-115069960D01*
X145167096Y-114993775D01*
X145095965Y-114937215D01*
X145006207Y-114890799D01*
X145006207Y-115022416D01*
X145011490Y-115102832D01*
X145034142Y-115166214D01*
X145084367Y-115233837D01*
X145132582Y-115285924D01*
X145207554Y-115359678D01*
X145265806Y-115399298D01*
X145328372Y-115415190D01*
X145399193Y-115417816D01*
X145554406Y-115394844D01*
G36*
X146575690Y-115389982D02*
X146610585Y-115374731D01*
X146693877Y-115308765D01*
X146765103Y-115213382D01*
X146809153Y-115111594D01*
X146816322Y-115061413D01*
X146792285Y-114991353D01*
X146739561Y-114954283D01*
X146683031Y-114931836D01*
X146657146Y-114927700D01*
X146644542Y-114957717D01*
X146619654Y-115023039D01*
X146608735Y-115052555D01*
X146547508Y-115154652D01*
X146458861Y-115205577D01*
X146345193Y-115204011D01*
X146336774Y-115202006D01*
X146276088Y-115173233D01*
X146231474Y-115117141D01*
X146201002Y-115026837D01*
X146182744Y-114895429D01*
X146174771Y-114716026D01*
X146174023Y-114620567D01*
X146173652Y-114470087D01*
X146171223Y-114367505D01*
X146164760Y-114302328D01*
X146152288Y-114264062D01*
X146131833Y-114242215D01*
X146101419Y-114226293D01*
X146099661Y-114225491D01*
X146041091Y-114200728D01*
X146012075Y-114191609D01*
X146007616Y-114219178D01*
X146003799Y-114295380D01*
X146000899Y-114410459D01*
X145999191Y-114554659D01*
X145998851Y-114660186D01*
X146000588Y-114864387D01*
X146007382Y-115019303D01*
X146021607Y-115133976D01*
X146045638Y-115217449D01*
X146081848Y-115278764D01*
X146132612Y-115326966D01*
X146182739Y-115360607D01*
X146303275Y-115405381D01*
X146443557Y-115415479D01*
X146575690Y-115389982D01*
X146575690Y-115389982D01*
G37*
X146575690Y-115389982D02*
X146610585Y-115374731D01*
X146693877Y-115308765D01*
X146765103Y-115213382D01*
X146809153Y-115111594D01*
X146816322Y-115061413D01*
X146792285Y-114991353D01*
X146739561Y-114954283D01*
X146683031Y-114931836D01*
X146657146Y-114927700D01*
X146644542Y-114957717D01*
X146619654Y-115023039D01*
X146608735Y-115052555D01*
X146547508Y-115154652D01*
X146458861Y-115205577D01*
X146345193Y-115204011D01*
X146336774Y-115202006D01*
X146276088Y-115173233D01*
X146231474Y-115117141D01*
X146201002Y-115026837D01*
X146182744Y-114895429D01*
X146174771Y-114716026D01*
X146174023Y-114620567D01*
X146173652Y-114470087D01*
X146171223Y-114367505D01*
X146164760Y-114302328D01*
X146152288Y-114264062D01*
X146131833Y-114242215D01*
X146101419Y-114226293D01*
X146099661Y-114225491D01*
X146041091Y-114200728D01*
X146012075Y-114191609D01*
X146007616Y-114219178D01*
X146003799Y-114295380D01*
X146000899Y-114410459D01*
X145999191Y-114554659D01*
X145998851Y-114660186D01*
X146000588Y-114864387D01*
X146007382Y-115019303D01*
X146021607Y-115133976D01*
X146045638Y-115217449D01*
X146081848Y-115278764D01*
X146132612Y-115326966D01*
X146182739Y-115360607D01*
X146303275Y-115405381D01*
X146443557Y-115415479D01*
X146575690Y-115389982D01*
G36*
X147583439Y-115373460D02*
X147698950Y-115297966D01*
X147754664Y-115230383D01*
X147798804Y-115107745D01*
X147802309Y-115010702D01*
X147794368Y-114880944D01*
X147495115Y-114749961D01*
X147349611Y-114683042D01*
X147254537Y-114629210D01*
X147205101Y-114582584D01*
X147196511Y-114537280D01*
X147223972Y-114487418D01*
X147254253Y-114454368D01*
X147342363Y-114401367D01*
X147438196Y-114397653D01*
X147526212Y-114438959D01*
X147590869Y-114521017D01*
X147602433Y-114549992D01*
X147657825Y-114640491D01*
X147721553Y-114679060D01*
X147808966Y-114712054D01*
X147808966Y-114586966D01*
X147801238Y-114501844D01*
X147770966Y-114430062D01*
X147707518Y-114347644D01*
X147698088Y-114336934D01*
X147627513Y-114263609D01*
X147566847Y-114224258D01*
X147490950Y-114206155D01*
X147428030Y-114200226D01*
X147315487Y-114198749D01*
X147235370Y-114217465D01*
X147185390Y-114245253D01*
X147106838Y-114306359D01*
X147052463Y-114372446D01*
X147018052Y-114455559D01*
X146999388Y-114567746D01*
X146992256Y-114721054D01*
X146991687Y-114798864D01*
X146993622Y-114892147D01*
X147169899Y-114892147D01*
X147171944Y-114842104D01*
X147177039Y-114833908D01*
X147210666Y-114845042D01*
X147283030Y-114874507D01*
X147379747Y-114916399D01*
X147399973Y-114925403D01*
X147522203Y-114987558D01*
X147589547Y-115042185D01*
X147604348Y-115093351D01*
X147568947Y-115145124D01*
X147539711Y-115168000D01*
X147434216Y-115213750D01*
X147335476Y-115206192D01*
X147252812Y-115150349D01*
X147195548Y-115051247D01*
X147177188Y-114972586D01*
X147169899Y-114892147D01*
X146993622Y-114892147D01*
X146995459Y-114980649D01*
X147009359Y-115115147D01*
X147036894Y-115213084D01*
X147081572Y-115285189D01*
X147146901Y-115342187D01*
X147175383Y-115360607D01*
X147304763Y-115408578D01*
X147446412Y-115411597D01*
X147583439Y-115373460D01*
X147583439Y-115373460D01*
G37*
X147583439Y-115373460D02*
X147698950Y-115297966D01*
X147754664Y-115230383D01*
X147798804Y-115107745D01*
X147802309Y-115010702D01*
X147794368Y-114880944D01*
X147495115Y-114749961D01*
X147349611Y-114683042D01*
X147254537Y-114629210D01*
X147205101Y-114582584D01*
X147196511Y-114537280D01*
X147223972Y-114487418D01*
X147254253Y-114454368D01*
X147342363Y-114401367D01*
X147438196Y-114397653D01*
X147526212Y-114438959D01*
X147590869Y-114521017D01*
X147602433Y-114549992D01*
X147657825Y-114640491D01*
X147721553Y-114679060D01*
X147808966Y-114712054D01*
X147808966Y-114586966D01*
X147801238Y-114501844D01*
X147770966Y-114430062D01*
X147707518Y-114347644D01*
X147698088Y-114336934D01*
X147627513Y-114263609D01*
X147566847Y-114224258D01*
X147490950Y-114206155D01*
X147428030Y-114200226D01*
X147315487Y-114198749D01*
X147235370Y-114217465D01*
X147185390Y-114245253D01*
X147106838Y-114306359D01*
X147052463Y-114372446D01*
X147018052Y-114455559D01*
X146999388Y-114567746D01*
X146992256Y-114721054D01*
X146991687Y-114798864D01*
X146993622Y-114892147D01*
X147169899Y-114892147D01*
X147171944Y-114842104D01*
X147177039Y-114833908D01*
X147210666Y-114845042D01*
X147283030Y-114874507D01*
X147379747Y-114916399D01*
X147399973Y-114925403D01*
X147522203Y-114987558D01*
X147589547Y-115042185D01*
X147604348Y-115093351D01*
X147568947Y-115145124D01*
X147539711Y-115168000D01*
X147434216Y-115213750D01*
X147335476Y-115206192D01*
X147252812Y-115150349D01*
X147195548Y-115051247D01*
X147177188Y-114972586D01*
X147169899Y-114892147D01*
X146993622Y-114892147D01*
X146995459Y-114980649D01*
X147009359Y-115115147D01*
X147036894Y-115213084D01*
X147081572Y-115285189D01*
X147146901Y-115342187D01*
X147175383Y-115360607D01*
X147304763Y-115408578D01*
X147446412Y-115411597D01*
X147583439Y-115373460D01*
G36*
X141449014Y-124877002D02*
X141607006Y-124876137D01*
X141721347Y-124873795D01*
X141799407Y-124869238D01*
X141848554Y-124861730D01*
X141876159Y-124850534D01*
X141889592Y-124834912D01*
X141896221Y-124814127D01*
X141896865Y-124811437D01*
X141906935Y-124762887D01*
X141925575Y-124667095D01*
X141950845Y-124534257D01*
X141980807Y-124374569D01*
X142013522Y-124198226D01*
X142014664Y-124192033D01*
X142047433Y-124019218D01*
X142078093Y-123866531D01*
X142104664Y-123743129D01*
X142125167Y-123658169D01*
X142137626Y-123620810D01*
X142138220Y-123620148D01*
X142174919Y-123601905D01*
X142250586Y-123571503D01*
X142348878Y-123535507D01*
X142349425Y-123535315D01*
X142473233Y-123488778D01*
X142619196Y-123429496D01*
X142756781Y-123369891D01*
X142763293Y-123366944D01*
X142987390Y-123265235D01*
X143483619Y-123604103D01*
X143635846Y-123707408D01*
X143773741Y-123799763D01*
X143889315Y-123875916D01*
X143974579Y-123930615D01*
X144021544Y-123958607D01*
X144026004Y-123960683D01*
X144060134Y-123951440D01*
X144123881Y-123906844D01*
X144219731Y-123824791D01*
X144350169Y-123703179D01*
X144483328Y-123573795D01*
X144611694Y-123446298D01*
X144726581Y-123329954D01*
X144821073Y-123231948D01*
X144888253Y-123159464D01*
X144921206Y-123119687D01*
X144922432Y-123117639D01*
X144926074Y-123090344D01*
X144912350Y-123045766D01*
X144877869Y-122977888D01*
X144819239Y-122880689D01*
X144733070Y-122748149D01*
X144618200Y-122577524D01*
X144516254Y-122427345D01*
X144425123Y-122292650D01*
X144350073Y-122181260D01*
X144296369Y-122100995D01*
X144269280Y-122059675D01*
X144267574Y-122056870D01*
X144270882Y-122017279D01*
X144295953Y-121940331D01*
X144337798Y-121840568D01*
X144352712Y-121808709D01*
X144417786Y-121666774D01*
X144487212Y-121505727D01*
X144543609Y-121366379D01*
X144584247Y-121262956D01*
X144616526Y-121184358D01*
X144635178Y-121143280D01*
X144637497Y-121140115D01*
X144671803Y-121134872D01*
X144752669Y-121120506D01*
X144869343Y-121099063D01*
X145011075Y-121072587D01*
X145167110Y-121043123D01*
X145326698Y-121012717D01*
X145479085Y-120983412D01*
X145613521Y-120957255D01*
X145719252Y-120936290D01*
X145785526Y-120922561D01*
X145801782Y-120918680D01*
X145818573Y-120909100D01*
X145831249Y-120887464D01*
X145840378Y-120846469D01*
X145846531Y-120778811D01*
X145850280Y-120677188D01*
X145852192Y-120534297D01*
X145852840Y-120342835D01*
X145852874Y-120264355D01*
X145852874Y-119626094D01*
X145699598Y-119595840D01*
X145614322Y-119579436D01*
X145487070Y-119555491D01*
X145333315Y-119526893D01*
X145168534Y-119496533D01*
X145122989Y-119488194D01*
X144970932Y-119458630D01*
X144838468Y-119429558D01*
X144736714Y-119403671D01*
X144676788Y-119383663D01*
X144666805Y-119377699D01*
X144642293Y-119335466D01*
X144607148Y-119253630D01*
X144568173Y-119148317D01*
X144560442Y-119125632D01*
X144509360Y-118984982D01*
X144445954Y-118826286D01*
X144383904Y-118683775D01*
X144383598Y-118683114D01*
X144280267Y-118459560D01*
X144959961Y-117459768D01*
X144523621Y-117022700D01*
X144391649Y-116892619D01*
X144271279Y-116777952D01*
X144169273Y-116684819D01*
X144092391Y-116619342D01*
X144047393Y-116587643D01*
X144040938Y-116585632D01*
X144003040Y-116601471D01*
X143925708Y-116645504D01*
X143817389Y-116712510D01*
X143686532Y-116797266D01*
X143545052Y-116892184D01*
X143401461Y-116989002D01*
X143273435Y-117073249D01*
X143169105Y-117139742D01*
X143096600Y-117183298D01*
X143064158Y-117198736D01*
X143024576Y-117185672D01*
X142949519Y-117151250D01*
X142854468Y-117102620D01*
X142844392Y-117097215D01*
X142716391Y-117033020D01*
X142628618Y-117001537D01*
X142574028Y-117001202D01*
X142545575Y-117030452D01*
X142545410Y-117030862D01*
X142531188Y-117065502D01*
X142497269Y-117147731D01*
X142446284Y-117271186D01*
X142380862Y-117429502D01*
X142303634Y-117616314D01*
X142217229Y-117825258D01*
X142133551Y-118027554D01*
X142041588Y-118250800D01*
X141957150Y-118457608D01*
X141882769Y-118641638D01*
X141820974Y-118796549D01*
X141774297Y-118916004D01*
X141745268Y-118993661D01*
X141736322Y-119022644D01*
X141758756Y-119055890D01*
X141817439Y-119108877D01*
X141895689Y-119167296D01*
X142118534Y-119352048D01*
X142292718Y-119563818D01*
X142416154Y-119798144D01*
X142486754Y-120050566D01*
X142502431Y-120316623D01*
X142491036Y-120439425D01*
X142428950Y-120694207D01*
X142322023Y-120919199D01*
X142176889Y-121112183D01*
X142000178Y-121270939D01*
X141798522Y-121393250D01*
X141578554Y-121476895D01*
X141346906Y-121519656D01*
X141110209Y-121519313D01*
X140875095Y-121473648D01*
X140648196Y-121380441D01*
X140436144Y-121237473D01*
X140347636Y-121156617D01*
X140177889Y-120948993D01*
X140059699Y-120722105D01*
X139992278Y-120482567D01*
X139974840Y-120236993D01*
X140006598Y-119991997D01*
X140086765Y-119754192D01*
X140214555Y-119530193D01*
X140389180Y-119326613D01*
X140584312Y-119167296D01*
X140665591Y-119106398D01*
X140723009Y-119053985D01*
X140743678Y-119022594D01*
X140732856Y-118988361D01*
X140702077Y-118906581D01*
X140653874Y-118783593D01*
X140590778Y-118625737D01*
X140515322Y-118439351D01*
X140430038Y-118230774D01*
X140346219Y-118027504D01*
X140253745Y-117804067D01*
X140168089Y-117597016D01*
X140091882Y-117412714D01*
X140027753Y-117257525D01*
X139978332Y-117137812D01*
X139946248Y-117059939D01*
X139934359Y-117030862D01*
X139906274Y-117001323D01*
X139851949Y-117001409D01*
X139764395Y-117032674D01*
X139636619Y-117096671D01*
X139635608Y-117097215D01*
X139539402Y-117146879D01*
X139461631Y-117183055D01*
X139417777Y-117198592D01*
X139415842Y-117198736D01*
X139382829Y-117182976D01*
X139309946Y-117139150D01*
X139205322Y-117072443D01*
X139077090Y-116988036D01*
X138934948Y-116892184D01*
X138790233Y-116795133D01*
X138659804Y-116710730D01*
X138552110Y-116644199D01*
X138475598Y-116600762D01*
X138439062Y-116585632D01*
X138405418Y-116605518D01*
X138337776Y-116661097D01*
X138242893Y-116746246D01*
X138127530Y-116854847D01*
X137998445Y-116980779D01*
X137956229Y-117022851D01*
X137519739Y-117460069D01*
X137851977Y-117947660D01*
X137952946Y-118097395D01*
X138041562Y-118231780D01*
X138112854Y-118343031D01*
X138161850Y-118423361D01*
X138183578Y-118464986D01*
X138184215Y-118467947D01*
X138172760Y-118507182D01*
X138141949Y-118586105D01*
X138097116Y-118691491D01*
X138065647Y-118762046D01*
X138006808Y-118897124D01*
X137951396Y-119033591D01*
X137908436Y-119148897D01*
X137896766Y-119184023D01*
X137863611Y-119277826D01*
X137831201Y-119350306D01*
X137813399Y-119377699D01*
X137774114Y-119394464D01*
X137688374Y-119418230D01*
X137567303Y-119446303D01*
X137422027Y-119475991D01*
X137357012Y-119488194D01*
X137191913Y-119518532D01*
X137033552Y-119547907D01*
X136897404Y-119573431D01*
X136798943Y-119592215D01*
X136780402Y-119595840D01*
X136627127Y-119626094D01*
X136627127Y-120264355D01*
X136627471Y-120474230D01*
X136628884Y-120633020D01*
X136631936Y-120748027D01*
X136637197Y-120826554D01*
X136645237Y-120875904D01*
X136656627Y-120903381D01*
X136671937Y-120916287D01*
X136678218Y-120918680D01*
X136716104Y-120927167D01*
X136799805Y-120944100D01*
X136918567Y-120967434D01*
X137061639Y-120995125D01*
X137218268Y-121025127D01*
X137377703Y-121055396D01*
X137529191Y-121083885D01*
X137661981Y-121108551D01*
X137765319Y-121127349D01*
X137828455Y-121138233D01*
X137842503Y-121140115D01*
X137855230Y-121165296D01*
X137883400Y-121232378D01*
X137921748Y-121328667D01*
X137936391Y-121366379D01*
X137995452Y-121512079D01*
X138065000Y-121673049D01*
X138127288Y-121808709D01*
X138173121Y-121912439D01*
X138203613Y-121997674D01*
X138213792Y-122049874D01*
X138212169Y-122056870D01*
X138190657Y-122089898D01*
X138141535Y-122163357D01*
X138070077Y-122269423D01*
X137981555Y-122400274D01*
X137881241Y-122548088D01*
X137861406Y-122577266D01*
X137745012Y-122750137D01*
X137659452Y-122881774D01*
X137601316Y-122978239D01*
X137567192Y-123045592D01*
X137553669Y-123089894D01*
X137557336Y-123117206D01*
X137557430Y-123117380D01*
X137586293Y-123153254D01*
X137650133Y-123222609D01*
X137742031Y-123318255D01*
X137855067Y-123433001D01*
X137982321Y-123559659D01*
X137996672Y-123573795D01*
X138157043Y-123729097D01*
X138280805Y-123843130D01*
X138370445Y-123917998D01*
X138428448Y-123955804D01*
X138453996Y-123960683D01*
X138491282Y-123939397D01*
X138568657Y-123890227D01*
X138678133Y-123818425D01*
X138811720Y-123729245D01*
X138961430Y-123627937D01*
X138996382Y-123604103D01*
X139492610Y-123265235D01*
X139716707Y-123366944D01*
X139852989Y-123426217D01*
X139999276Y-123485830D01*
X140125035Y-123533360D01*
X140130575Y-123535315D01*
X140228943Y-123571323D01*
X140304771Y-123601771D01*
X140341718Y-123620095D01*
X140341780Y-123620148D01*
X140353504Y-123653271D01*
X140373432Y-123734733D01*
X140399587Y-123855375D01*
X140429990Y-124006041D01*
X140462663Y-124177572D01*
X140465336Y-124192033D01*
X140498110Y-124368765D01*
X140528198Y-124529190D01*
X140553661Y-124663112D01*
X140572559Y-124760337D01*
X140582953Y-124810668D01*
X140583135Y-124811437D01*
X140589461Y-124832847D01*
X140601761Y-124849012D01*
X140627406Y-124860669D01*
X140673765Y-124868555D01*
X140748208Y-124873407D01*
X140858105Y-124875961D01*
X141010825Y-124876955D01*
X141213738Y-124877126D01*
X141240000Y-124877126D01*
X141449014Y-124877002D01*
X141449014Y-124877002D01*
G37*
X141449014Y-124877002D02*
X141607006Y-124876137D01*
X141721347Y-124873795D01*
X141799407Y-124869238D01*
X141848554Y-124861730D01*
X141876159Y-124850534D01*
X141889592Y-124834912D01*
X141896221Y-124814127D01*
X141896865Y-124811437D01*
X141906935Y-124762887D01*
X141925575Y-124667095D01*
X141950845Y-124534257D01*
X141980807Y-124374569D01*
X142013522Y-124198226D01*
X142014664Y-124192033D01*
X142047433Y-124019218D01*
X142078093Y-123866531D01*
X142104664Y-123743129D01*
X142125167Y-123658169D01*
X142137626Y-123620810D01*
X142138220Y-123620148D01*
X142174919Y-123601905D01*
X142250586Y-123571503D01*
X142348878Y-123535507D01*
X142349425Y-123535315D01*
X142473233Y-123488778D01*
X142619196Y-123429496D01*
X142756781Y-123369891D01*
X142763293Y-123366944D01*
X142987390Y-123265235D01*
X143483619Y-123604103D01*
X143635846Y-123707408D01*
X143773741Y-123799763D01*
X143889315Y-123875916D01*
X143974579Y-123930615D01*
X144021544Y-123958607D01*
X144026004Y-123960683D01*
X144060134Y-123951440D01*
X144123881Y-123906844D01*
X144219731Y-123824791D01*
X144350169Y-123703179D01*
X144483328Y-123573795D01*
X144611694Y-123446298D01*
X144726581Y-123329954D01*
X144821073Y-123231948D01*
X144888253Y-123159464D01*
X144921206Y-123119687D01*
X144922432Y-123117639D01*
X144926074Y-123090344D01*
X144912350Y-123045766D01*
X144877869Y-122977888D01*
X144819239Y-122880689D01*
X144733070Y-122748149D01*
X144618200Y-122577524D01*
X144516254Y-122427345D01*
X144425123Y-122292650D01*
X144350073Y-122181260D01*
X144296369Y-122100995D01*
X144269280Y-122059675D01*
X144267574Y-122056870D01*
X144270882Y-122017279D01*
X144295953Y-121940331D01*
X144337798Y-121840568D01*
X144352712Y-121808709D01*
X144417786Y-121666774D01*
X144487212Y-121505727D01*
X144543609Y-121366379D01*
X144584247Y-121262956D01*
X144616526Y-121184358D01*
X144635178Y-121143280D01*
X144637497Y-121140115D01*
X144671803Y-121134872D01*
X144752669Y-121120506D01*
X144869343Y-121099063D01*
X145011075Y-121072587D01*
X145167110Y-121043123D01*
X145326698Y-121012717D01*
X145479085Y-120983412D01*
X145613521Y-120957255D01*
X145719252Y-120936290D01*
X145785526Y-120922561D01*
X145801782Y-120918680D01*
X145818573Y-120909100D01*
X145831249Y-120887464D01*
X145840378Y-120846469D01*
X145846531Y-120778811D01*
X145850280Y-120677188D01*
X145852192Y-120534297D01*
X145852840Y-120342835D01*
X145852874Y-120264355D01*
X145852874Y-119626094D01*
X145699598Y-119595840D01*
X145614322Y-119579436D01*
X145487070Y-119555491D01*
X145333315Y-119526893D01*
X145168534Y-119496533D01*
X145122989Y-119488194D01*
X144970932Y-119458630D01*
X144838468Y-119429558D01*
X144736714Y-119403671D01*
X144676788Y-119383663D01*
X144666805Y-119377699D01*
X144642293Y-119335466D01*
X144607148Y-119253630D01*
X144568173Y-119148317D01*
X144560442Y-119125632D01*
X144509360Y-118984982D01*
X144445954Y-118826286D01*
X144383904Y-118683775D01*
X144383598Y-118683114D01*
X144280267Y-118459560D01*
X144959961Y-117459768D01*
X144523621Y-117022700D01*
X144391649Y-116892619D01*
X144271279Y-116777952D01*
X144169273Y-116684819D01*
X144092391Y-116619342D01*
X144047393Y-116587643D01*
X144040938Y-116585632D01*
X144003040Y-116601471D01*
X143925708Y-116645504D01*
X143817389Y-116712510D01*
X143686532Y-116797266D01*
X143545052Y-116892184D01*
X143401461Y-116989002D01*
X143273435Y-117073249D01*
X143169105Y-117139742D01*
X143096600Y-117183298D01*
X143064158Y-117198736D01*
X143024576Y-117185672D01*
X142949519Y-117151250D01*
X142854468Y-117102620D01*
X142844392Y-117097215D01*
X142716391Y-117033020D01*
X142628618Y-117001537D01*
X142574028Y-117001202D01*
X142545575Y-117030452D01*
X142545410Y-117030862D01*
X142531188Y-117065502D01*
X142497269Y-117147731D01*
X142446284Y-117271186D01*
X142380862Y-117429502D01*
X142303634Y-117616314D01*
X142217229Y-117825258D01*
X142133551Y-118027554D01*
X142041588Y-118250800D01*
X141957150Y-118457608D01*
X141882769Y-118641638D01*
X141820974Y-118796549D01*
X141774297Y-118916004D01*
X141745268Y-118993661D01*
X141736322Y-119022644D01*
X141758756Y-119055890D01*
X141817439Y-119108877D01*
X141895689Y-119167296D01*
X142118534Y-119352048D01*
X142292718Y-119563818D01*
X142416154Y-119798144D01*
X142486754Y-120050566D01*
X142502431Y-120316623D01*
X142491036Y-120439425D01*
X142428950Y-120694207D01*
X142322023Y-120919199D01*
X142176889Y-121112183D01*
X142000178Y-121270939D01*
X141798522Y-121393250D01*
X141578554Y-121476895D01*
X141346906Y-121519656D01*
X141110209Y-121519313D01*
X140875095Y-121473648D01*
X140648196Y-121380441D01*
X140436144Y-121237473D01*
X140347636Y-121156617D01*
X140177889Y-120948993D01*
X140059699Y-120722105D01*
X139992278Y-120482567D01*
X139974840Y-120236993D01*
X140006598Y-119991997D01*
X140086765Y-119754192D01*
X140214555Y-119530193D01*
X140389180Y-119326613D01*
X140584312Y-119167296D01*
X140665591Y-119106398D01*
X140723009Y-119053985D01*
X140743678Y-119022594D01*
X140732856Y-118988361D01*
X140702077Y-118906581D01*
X140653874Y-118783593D01*
X140590778Y-118625737D01*
X140515322Y-118439351D01*
X140430038Y-118230774D01*
X140346219Y-118027504D01*
X140253745Y-117804067D01*
X140168089Y-117597016D01*
X140091882Y-117412714D01*
X140027753Y-117257525D01*
X139978332Y-117137812D01*
X139946248Y-117059939D01*
X139934359Y-117030862D01*
X139906274Y-117001323D01*
X139851949Y-117001409D01*
X139764395Y-117032674D01*
X139636619Y-117096671D01*
X139635608Y-117097215D01*
X139539402Y-117146879D01*
X139461631Y-117183055D01*
X139417777Y-117198592D01*
X139415842Y-117198736D01*
X139382829Y-117182976D01*
X139309946Y-117139150D01*
X139205322Y-117072443D01*
X139077090Y-116988036D01*
X138934948Y-116892184D01*
X138790233Y-116795133D01*
X138659804Y-116710730D01*
X138552110Y-116644199D01*
X138475598Y-116600762D01*
X138439062Y-116585632D01*
X138405418Y-116605518D01*
X138337776Y-116661097D01*
X138242893Y-116746246D01*
X138127530Y-116854847D01*
X137998445Y-116980779D01*
X137956229Y-117022851D01*
X137519739Y-117460069D01*
X137851977Y-117947660D01*
X137952946Y-118097395D01*
X138041562Y-118231780D01*
X138112854Y-118343031D01*
X138161850Y-118423361D01*
X138183578Y-118464986D01*
X138184215Y-118467947D01*
X138172760Y-118507182D01*
X138141949Y-118586105D01*
X138097116Y-118691491D01*
X138065647Y-118762046D01*
X138006808Y-118897124D01*
X137951396Y-119033591D01*
X137908436Y-119148897D01*
X137896766Y-119184023D01*
X137863611Y-119277826D01*
X137831201Y-119350306D01*
X137813399Y-119377699D01*
X137774114Y-119394464D01*
X137688374Y-119418230D01*
X137567303Y-119446303D01*
X137422027Y-119475991D01*
X137357012Y-119488194D01*
X137191913Y-119518532D01*
X137033552Y-119547907D01*
X136897404Y-119573431D01*
X136798943Y-119592215D01*
X136780402Y-119595840D01*
X136627127Y-119626094D01*
X136627127Y-120264355D01*
X136627471Y-120474230D01*
X136628884Y-120633020D01*
X136631936Y-120748027D01*
X136637197Y-120826554D01*
X136645237Y-120875904D01*
X136656627Y-120903381D01*
X136671937Y-120916287D01*
X136678218Y-120918680D01*
X136716104Y-120927167D01*
X136799805Y-120944100D01*
X136918567Y-120967434D01*
X137061639Y-120995125D01*
X137218268Y-121025127D01*
X137377703Y-121055396D01*
X137529191Y-121083885D01*
X137661981Y-121108551D01*
X137765319Y-121127349D01*
X137828455Y-121138233D01*
X137842503Y-121140115D01*
X137855230Y-121165296D01*
X137883400Y-121232378D01*
X137921748Y-121328667D01*
X137936391Y-121366379D01*
X137995452Y-121512079D01*
X138065000Y-121673049D01*
X138127288Y-121808709D01*
X138173121Y-121912439D01*
X138203613Y-121997674D01*
X138213792Y-122049874D01*
X138212169Y-122056870D01*
X138190657Y-122089898D01*
X138141535Y-122163357D01*
X138070077Y-122269423D01*
X137981555Y-122400274D01*
X137881241Y-122548088D01*
X137861406Y-122577266D01*
X137745012Y-122750137D01*
X137659452Y-122881774D01*
X137601316Y-122978239D01*
X137567192Y-123045592D01*
X137553669Y-123089894D01*
X137557336Y-123117206D01*
X137557430Y-123117380D01*
X137586293Y-123153254D01*
X137650133Y-123222609D01*
X137742031Y-123318255D01*
X137855067Y-123433001D01*
X137982321Y-123559659D01*
X137996672Y-123573795D01*
X138157043Y-123729097D01*
X138280805Y-123843130D01*
X138370445Y-123917998D01*
X138428448Y-123955804D01*
X138453996Y-123960683D01*
X138491282Y-123939397D01*
X138568657Y-123890227D01*
X138678133Y-123818425D01*
X138811720Y-123729245D01*
X138961430Y-123627937D01*
X138996382Y-123604103D01*
X139492610Y-123265235D01*
X139716707Y-123366944D01*
X139852989Y-123426217D01*
X139999276Y-123485830D01*
X140125035Y-123533360D01*
X140130575Y-123535315D01*
X140228943Y-123571323D01*
X140304771Y-123601771D01*
X140341718Y-123620095D01*
X140341780Y-123620148D01*
X140353504Y-123653271D01*
X140373432Y-123734733D01*
X140399587Y-123855375D01*
X140429990Y-124006041D01*
X140462663Y-124177572D01*
X140465336Y-124192033D01*
X140498110Y-124368765D01*
X140528198Y-124529190D01*
X140553661Y-124663112D01*
X140572559Y-124760337D01*
X140582953Y-124810668D01*
X140583135Y-124811437D01*
X140589461Y-124832847D01*
X140601761Y-124849012D01*
X140627406Y-124860669D01*
X140673765Y-124868555D01*
X140748208Y-124873407D01*
X140858105Y-124875961D01*
X141010825Y-124876955D01*
X141213738Y-124877126D01*
X141240000Y-124877126D01*
X141449014Y-124877002D01*
M02*
