G04 #@! TF.FileFunction,Soldermask,Top*
%FSLAX46Y46*%
G04 Gerber Fmt 4.6, Leading zero omitted, Abs format (unit mm)*
G04 Created by KiCad (PCBNEW 4.0.5) date Sat Dec 31 13:00:02 2016*
%MOMM*%
%LPD*%
G01*
G04 APERTURE LIST*
%ADD10C,0.100000*%
%ADD11R,1.450000X0.450000*%
%ADD12R,0.800000X0.900000*%
%ADD13R,0.800000X0.750000*%
%ADD14R,0.900000X0.500000*%
%ADD15R,0.590000X0.450000*%
%ADD16R,1.500000X0.600000*%
%ADD17R,0.900000X1.700000*%
%ADD18R,1.060000X0.650000*%
%ADD19R,0.650000X1.060000*%
%ADD20R,2.600000X1.500000*%
%ADD21R,1.500000X2.600000*%
%ADD22R,0.500000X0.900000*%
%ADD23R,1.500000X2.000000*%
%ADD24R,2.000000X1.500000*%
%ADD25C,2.200000*%
G04 APERTURE END LIST*
D10*
D11*
X146790000Y-123315000D03*
X146790000Y-122665000D03*
X146790000Y-122015000D03*
X146790000Y-121365000D03*
X142390000Y-121365000D03*
X142390000Y-122015000D03*
X142390000Y-122665000D03*
X142390000Y-123315000D03*
D10*
G36*
X124513500Y-109783688D02*
X126017008Y-109236456D01*
X126762612Y-111284986D01*
X125259104Y-111832218D01*
X124513500Y-109783688D01*
X124513500Y-109783688D01*
G37*
G36*
X127657388Y-118435014D02*
X129160896Y-117887782D01*
X129906500Y-119936312D01*
X128402992Y-120483544D01*
X127657388Y-118435014D01*
X127657388Y-118435014D01*
G37*
D12*
X135080000Y-99850000D03*
X136980000Y-99850000D03*
X136030000Y-97850000D03*
D13*
X145650000Y-119620000D03*
X144150000Y-119620000D03*
D14*
X148350000Y-123370000D03*
X148350000Y-121870000D03*
D10*
G36*
X153584505Y-119663694D02*
X153266306Y-119345495D01*
X153683499Y-118928302D01*
X154001698Y-119246501D01*
X153584505Y-119663694D01*
X153584505Y-119663694D01*
G37*
G36*
X155076501Y-118171698D02*
X154758302Y-117853499D01*
X155175495Y-117436306D01*
X155493694Y-117754505D01*
X155076501Y-118171698D01*
X155076501Y-118171698D01*
G37*
D15*
X154647000Y-112014000D03*
X156757000Y-112014000D03*
D10*
G36*
X152620505Y-106015694D02*
X152302306Y-105697495D01*
X152719499Y-105280302D01*
X153037698Y-105598501D01*
X152620505Y-106015694D01*
X152620505Y-106015694D01*
G37*
G36*
X154112501Y-104523698D02*
X153794302Y-104205499D01*
X154211495Y-103788306D01*
X154529694Y-104106505D01*
X154112501Y-104523698D01*
X154112501Y-104523698D01*
G37*
D16*
X130340000Y-110230000D03*
X130340000Y-111500000D03*
X130340000Y-112770000D03*
X130340000Y-114040000D03*
X130340000Y-115310000D03*
X130340000Y-116580000D03*
X130340000Y-117850000D03*
X135740000Y-117850000D03*
X135740000Y-116580000D03*
X135740000Y-115310000D03*
X135740000Y-114040000D03*
X135740000Y-112770000D03*
X135740000Y-111500000D03*
X135740000Y-110230000D03*
D12*
X152974000Y-115300000D03*
X154874000Y-115300000D03*
X153924000Y-113300000D03*
X145060000Y-114630000D03*
X146960000Y-114630000D03*
X146010000Y-112630000D03*
D17*
X141530000Y-101770000D03*
X144430000Y-101770000D03*
X141552000Y-99568000D03*
X144452000Y-99568000D03*
D10*
G36*
X125837218Y-108876208D02*
X124387126Y-108200019D01*
X125308434Y-106224268D01*
X126758526Y-106900457D01*
X125837218Y-108876208D01*
X125837218Y-108876208D01*
G37*
G36*
X129731566Y-100535732D02*
X128281474Y-99859543D01*
X129202782Y-97883792D01*
X130652874Y-98559981D01*
X129731566Y-100535732D01*
X129731566Y-100535732D01*
G37*
D18*
X149310000Y-114610000D03*
X149310000Y-115560000D03*
X149310000Y-116510000D03*
X151510000Y-116510000D03*
X151510000Y-114610000D03*
X151510000Y-115560000D03*
D19*
X143530000Y-118060000D03*
X144480000Y-118060000D03*
X145430000Y-118060000D03*
X145430000Y-115860000D03*
X143530000Y-115860000D03*
X144480000Y-115860000D03*
D11*
X140320000Y-96495000D03*
X140320000Y-95845000D03*
X140320000Y-95195000D03*
X140320000Y-94545000D03*
X135920000Y-94545000D03*
X135920000Y-95195000D03*
X135920000Y-95845000D03*
X135920000Y-96495000D03*
D20*
X132760000Y-98110000D03*
X132760000Y-101110000D03*
D21*
X130130000Y-103420000D03*
X133130000Y-103420000D03*
D10*
G36*
X154256194Y-111453452D02*
X151993452Y-113716194D01*
X150579238Y-112301980D01*
X152841980Y-110039238D01*
X154256194Y-111453452D01*
X154256194Y-111453452D01*
G37*
G36*
X148740762Y-105938020D02*
X146478020Y-108200762D01*
X145063806Y-106786548D01*
X147326548Y-104523806D01*
X148740762Y-105938020D01*
X148740762Y-105938020D01*
G37*
G36*
X153948194Y-102663452D02*
X151685452Y-104926194D01*
X150271238Y-103511980D01*
X152533980Y-101249238D01*
X153948194Y-102663452D01*
X153948194Y-102663452D01*
G37*
G36*
X148432762Y-97148020D02*
X146170020Y-99410762D01*
X144755806Y-97996548D01*
X147018548Y-95733806D01*
X148432762Y-97148020D01*
X148432762Y-97148020D01*
G37*
D18*
X134600000Y-121090000D03*
X134600000Y-120140000D03*
X134600000Y-119190000D03*
X132400000Y-119190000D03*
X132400000Y-121090000D03*
X132400000Y-120140000D03*
D20*
X130640000Y-108820000D03*
X130640000Y-105820000D03*
D13*
X155206000Y-110490000D03*
X156706000Y-110490000D03*
X136390000Y-122160000D03*
X134890000Y-122160000D03*
X128660000Y-108110000D03*
X127160000Y-108110000D03*
X132610000Y-107550000D03*
X134110000Y-107550000D03*
X138460000Y-119360000D03*
X139960000Y-119360000D03*
X148760000Y-117800000D03*
X147260000Y-117800000D03*
D10*
G36*
X131609905Y-95793527D02*
X132091996Y-96368061D01*
X131479161Y-96882291D01*
X130997070Y-96307757D01*
X131609905Y-95793527D01*
X131609905Y-95793527D01*
G37*
G36*
X130460839Y-96757709D02*
X130942930Y-97332243D01*
X130330095Y-97846473D01*
X129848004Y-97271939D01*
X130460839Y-96757709D01*
X130460839Y-96757709D01*
G37*
D14*
X137810000Y-120440000D03*
X137810000Y-121940000D03*
D22*
X137260000Y-123400000D03*
X135760000Y-123400000D03*
D14*
X138340000Y-124300000D03*
X138340000Y-122800000D03*
X135470000Y-106080000D03*
X135470000Y-107580000D03*
D22*
X132470000Y-108830000D03*
X133970000Y-108830000D03*
X136860000Y-101010000D03*
X135360000Y-101010000D03*
X137050000Y-116940000D03*
X138550000Y-116940000D03*
X138520000Y-118120000D03*
X140020000Y-118120000D03*
D14*
X139370000Y-121880000D03*
X139370000Y-120380000D03*
X134840000Y-103640000D03*
X134840000Y-102140000D03*
D22*
X134210000Y-105720000D03*
X132710000Y-105720000D03*
X128750000Y-110640000D03*
X127250000Y-110640000D03*
X128770000Y-109400000D03*
X127270000Y-109400000D03*
X140490000Y-93450000D03*
X141990000Y-93450000D03*
D14*
X141990000Y-95920000D03*
X141990000Y-94420000D03*
X134300000Y-96160000D03*
X134300000Y-94660000D03*
D22*
X140890000Y-97780000D03*
X139390000Y-97780000D03*
D14*
X140730000Y-122720000D03*
X140730000Y-121220000D03*
X139940000Y-101250000D03*
X139940000Y-99750000D03*
D22*
X143030000Y-119850000D03*
X141530000Y-119850000D03*
X155340000Y-116690000D03*
X153840000Y-116690000D03*
X147990000Y-115880000D03*
X146490000Y-115880000D03*
D23*
X143170000Y-103910000D03*
X145570000Y-103910000D03*
D10*
G36*
X143638249Y-98405965D02*
X142224035Y-96991751D01*
X143284695Y-95931091D01*
X144698909Y-97345305D01*
X143638249Y-98405965D01*
X143638249Y-98405965D01*
G37*
G36*
X145335305Y-96708909D02*
X143921091Y-95294695D01*
X144981751Y-94234035D01*
X146395965Y-95648249D01*
X145335305Y-96708909D01*
X145335305Y-96708909D01*
G37*
D24*
X155194000Y-106496000D03*
X155194000Y-108896000D03*
D13*
X141960000Y-124280000D03*
X140460000Y-124280000D03*
D25*
X150800000Y-120030000D03*
X137970000Y-103990000D03*
D10*
G36*
X139927097Y-114152602D02*
X140834088Y-114482720D01*
X140399723Y-115676130D01*
X139492732Y-115346012D01*
X139927097Y-114152602D01*
X139927097Y-114152602D01*
G37*
G36*
X138733687Y-113718236D02*
X139640678Y-114048354D01*
X139206313Y-115241764D01*
X138299322Y-114911646D01*
X138733687Y-113718236D01*
X138733687Y-113718236D01*
G37*
G36*
X137540277Y-113283870D02*
X138447268Y-113613988D01*
X138012903Y-114807398D01*
X137105912Y-114477280D01*
X137540277Y-113283870D01*
X137540277Y-113283870D01*
G37*
M02*
