G04 #@! TF.FileFunction,Soldermask,Top*
%FSLAX46Y46*%
G04 Gerber Fmt 4.6, Leading zero omitted, Abs format (unit mm)*
G04 Created by KiCad (PCBNEW 4.0.5) date Thu Dec 29 13:42:12 2016*
%MOMM*%
%LPD*%
G01*
G04 APERTURE LIST*
%ADD10C,0.100000*%
%ADD11C,2.200000*%
%ADD12R,0.800000X0.750000*%
%ADD13R,2.000000X1.500000*%
%ADD14R,1.500000X2.000000*%
%ADD15R,0.500000X0.900000*%
%ADD16R,0.900000X0.500000*%
%ADD17R,2.600000X1.500000*%
%ADD18R,1.060000X0.650000*%
%ADD19R,1.500000X2.600000*%
%ADD20R,1.450000X0.450000*%
%ADD21R,0.650000X1.060000*%
%ADD22R,0.900000X1.700000*%
%ADD23R,0.800000X0.900000*%
%ADD24R,1.500000X0.600000*%
%ADD25R,0.590000X0.450000*%
G04 APERTURE END LIST*
D10*
G36*
X181387097Y-114152602D02*
X182294088Y-114482720D01*
X181859723Y-115676130D01*
X180952732Y-115346012D01*
X181387097Y-114152602D01*
X181387097Y-114152602D01*
G37*
G36*
X180193687Y-113718236D02*
X181100678Y-114048354D01*
X180666313Y-115241764D01*
X179759322Y-114911646D01*
X180193687Y-113718236D01*
X180193687Y-113718236D01*
G37*
G36*
X179000277Y-113283870D02*
X179907268Y-113613988D01*
X179472903Y-114807398D01*
X178565912Y-114477280D01*
X179000277Y-113283870D01*
X179000277Y-113283870D01*
G37*
D11*
X179430000Y-103990000D03*
X192260000Y-120030000D03*
D12*
X183420000Y-124280000D03*
X181920000Y-124280000D03*
D13*
X196654000Y-106496000D03*
X196654000Y-108896000D03*
D10*
G36*
X185098249Y-98405965D02*
X183684035Y-96991751D01*
X184744695Y-95931091D01*
X186158909Y-97345305D01*
X185098249Y-98405965D01*
X185098249Y-98405965D01*
G37*
G36*
X186795305Y-96708909D02*
X185381091Y-95294695D01*
X186441751Y-94234035D01*
X187855965Y-95648249D01*
X186795305Y-96708909D01*
X186795305Y-96708909D01*
G37*
D14*
X184630000Y-103910000D03*
X187030000Y-103910000D03*
D15*
X189450000Y-115880000D03*
X187950000Y-115880000D03*
X196800000Y-116690000D03*
X195300000Y-116690000D03*
X184490000Y-119850000D03*
X182990000Y-119850000D03*
D16*
X181400000Y-101250000D03*
X181400000Y-99750000D03*
X182190000Y-122720000D03*
X182190000Y-121220000D03*
D15*
X182350000Y-97780000D03*
X180850000Y-97780000D03*
D16*
X175760000Y-96160000D03*
X175760000Y-94660000D03*
X183450000Y-95920000D03*
X183450000Y-94420000D03*
D15*
X181950000Y-93450000D03*
X183450000Y-93450000D03*
X170230000Y-109400000D03*
X168730000Y-109400000D03*
X170210000Y-110640000D03*
X168710000Y-110640000D03*
X175670000Y-105720000D03*
X174170000Y-105720000D03*
D16*
X176300000Y-103640000D03*
X176300000Y-102140000D03*
X180830000Y-121880000D03*
X180830000Y-120380000D03*
D15*
X179980000Y-118120000D03*
X181480000Y-118120000D03*
X178510000Y-116940000D03*
X180010000Y-116940000D03*
X178320000Y-101010000D03*
X176820000Y-101010000D03*
X173930000Y-108830000D03*
X175430000Y-108830000D03*
D16*
X176930000Y-106080000D03*
X176930000Y-107580000D03*
X179800000Y-124300000D03*
X179800000Y-122800000D03*
D15*
X178720000Y-123400000D03*
X177220000Y-123400000D03*
D16*
X179270000Y-120440000D03*
X179270000Y-121940000D03*
D10*
G36*
X173069905Y-95793527D02*
X173551996Y-96368061D01*
X172939161Y-96882291D01*
X172457070Y-96307757D01*
X173069905Y-95793527D01*
X173069905Y-95793527D01*
G37*
G36*
X171920839Y-96757709D02*
X172402930Y-97332243D01*
X171790095Y-97846473D01*
X171308004Y-97271939D01*
X171920839Y-96757709D01*
X171920839Y-96757709D01*
G37*
D12*
X190220000Y-117800000D03*
X188720000Y-117800000D03*
X179920000Y-119360000D03*
X181420000Y-119360000D03*
X174070000Y-107550000D03*
X175570000Y-107550000D03*
X170120000Y-108110000D03*
X168620000Y-108110000D03*
X177850000Y-122160000D03*
X176350000Y-122160000D03*
X196666000Y-110490000D03*
X198166000Y-110490000D03*
D17*
X172100000Y-108820000D03*
X172100000Y-105820000D03*
D18*
X176060000Y-121090000D03*
X176060000Y-120140000D03*
X176060000Y-119190000D03*
X173860000Y-119190000D03*
X173860000Y-121090000D03*
X173860000Y-120140000D03*
D10*
G36*
X195408194Y-102663452D02*
X193145452Y-104926194D01*
X191731238Y-103511980D01*
X193993980Y-101249238D01*
X195408194Y-102663452D01*
X195408194Y-102663452D01*
G37*
G36*
X189892762Y-97148020D02*
X187630020Y-99410762D01*
X186215806Y-97996548D01*
X188478548Y-95733806D01*
X189892762Y-97148020D01*
X189892762Y-97148020D01*
G37*
G36*
X195716194Y-111453452D02*
X193453452Y-113716194D01*
X192039238Y-112301980D01*
X194301980Y-110039238D01*
X195716194Y-111453452D01*
X195716194Y-111453452D01*
G37*
G36*
X190200762Y-105938020D02*
X187938020Y-108200762D01*
X186523806Y-106786548D01*
X188786548Y-104523806D01*
X190200762Y-105938020D01*
X190200762Y-105938020D01*
G37*
D19*
X171590000Y-103420000D03*
X174590000Y-103420000D03*
D17*
X174220000Y-98110000D03*
X174220000Y-101110000D03*
D20*
X181780000Y-96495000D03*
X181780000Y-95845000D03*
X181780000Y-95195000D03*
X181780000Y-94545000D03*
X177380000Y-94545000D03*
X177380000Y-95195000D03*
X177380000Y-95845000D03*
X177380000Y-96495000D03*
D21*
X184990000Y-118060000D03*
X185940000Y-118060000D03*
X186890000Y-118060000D03*
X186890000Y-115860000D03*
X184990000Y-115860000D03*
X185940000Y-115860000D03*
D18*
X190770000Y-114610000D03*
X190770000Y-115560000D03*
X190770000Y-116510000D03*
X192970000Y-116510000D03*
X192970000Y-114610000D03*
X192970000Y-115560000D03*
D10*
G36*
X167297218Y-108876208D02*
X165847126Y-108200019D01*
X166768434Y-106224268D01*
X168218526Y-106900457D01*
X167297218Y-108876208D01*
X167297218Y-108876208D01*
G37*
G36*
X171191566Y-100535732D02*
X169741474Y-99859543D01*
X170662782Y-97883792D01*
X172112874Y-98559981D01*
X171191566Y-100535732D01*
X171191566Y-100535732D01*
G37*
D22*
X183012000Y-99568000D03*
X185912000Y-99568000D03*
X182990000Y-101770000D03*
X185890000Y-101770000D03*
D23*
X186520000Y-114630000D03*
X188420000Y-114630000D03*
X187470000Y-112630000D03*
X194434000Y-115300000D03*
X196334000Y-115300000D03*
X195384000Y-113300000D03*
D24*
X171800000Y-110230000D03*
X171800000Y-111500000D03*
X171800000Y-112770000D03*
X171800000Y-114040000D03*
X171800000Y-115310000D03*
X171800000Y-116580000D03*
X171800000Y-117850000D03*
X177200000Y-117850000D03*
X177200000Y-116580000D03*
X177200000Y-115310000D03*
X177200000Y-114040000D03*
X177200000Y-112770000D03*
X177200000Y-111500000D03*
X177200000Y-110230000D03*
D10*
G36*
X194080505Y-106015694D02*
X193762306Y-105697495D01*
X194179499Y-105280302D01*
X194497698Y-105598501D01*
X194080505Y-106015694D01*
X194080505Y-106015694D01*
G37*
G36*
X195572501Y-104523698D02*
X195254302Y-104205499D01*
X195671495Y-103788306D01*
X195989694Y-104106505D01*
X195572501Y-104523698D01*
X195572501Y-104523698D01*
G37*
D25*
X196107000Y-112014000D03*
X198217000Y-112014000D03*
D10*
G36*
X195044505Y-119663694D02*
X194726306Y-119345495D01*
X195143499Y-118928302D01*
X195461698Y-119246501D01*
X195044505Y-119663694D01*
X195044505Y-119663694D01*
G37*
G36*
X196536501Y-118171698D02*
X196218302Y-117853499D01*
X196635495Y-117436306D01*
X196953694Y-117754505D01*
X196536501Y-118171698D01*
X196536501Y-118171698D01*
G37*
D16*
X189810000Y-123370000D03*
X189810000Y-121870000D03*
D12*
X187110000Y-119620000D03*
X185610000Y-119620000D03*
D23*
X176540000Y-99850000D03*
X178440000Y-99850000D03*
X177490000Y-97850000D03*
D10*
G36*
X165973500Y-109783688D02*
X167477008Y-109236456D01*
X168222612Y-111284986D01*
X166719104Y-111832218D01*
X165973500Y-109783688D01*
X165973500Y-109783688D01*
G37*
G36*
X169117388Y-118435014D02*
X170620896Y-117887782D01*
X171366500Y-119936312D01*
X169862992Y-120483544D01*
X169117388Y-118435014D01*
X169117388Y-118435014D01*
G37*
D20*
X188250000Y-123315000D03*
X188250000Y-122665000D03*
X188250000Y-122015000D03*
X188250000Y-121365000D03*
X183850000Y-121365000D03*
X183850000Y-122015000D03*
X183850000Y-122665000D03*
X183850000Y-123315000D03*
X188250000Y-81665000D03*
X188250000Y-81015000D03*
X188250000Y-80365000D03*
X188250000Y-79715000D03*
X183850000Y-79715000D03*
X183850000Y-80365000D03*
X183850000Y-81015000D03*
X183850000Y-81665000D03*
D10*
G36*
X165973500Y-68133688D02*
X167477008Y-67586456D01*
X168222612Y-69634986D01*
X166719104Y-70182218D01*
X165973500Y-68133688D01*
X165973500Y-68133688D01*
G37*
G36*
X169117388Y-76785014D02*
X170620896Y-76237782D01*
X171366500Y-78286312D01*
X169862992Y-78833544D01*
X169117388Y-76785014D01*
X169117388Y-76785014D01*
G37*
D23*
X176540000Y-58200000D03*
X178440000Y-58200000D03*
X177490000Y-56200000D03*
D12*
X187110000Y-77970000D03*
X185610000Y-77970000D03*
D16*
X189810000Y-81720000D03*
X189810000Y-80220000D03*
D10*
G36*
X195044505Y-78013694D02*
X194726306Y-77695495D01*
X195143499Y-77278302D01*
X195461698Y-77596501D01*
X195044505Y-78013694D01*
X195044505Y-78013694D01*
G37*
G36*
X196536501Y-76521698D02*
X196218302Y-76203499D01*
X196635495Y-75786306D01*
X196953694Y-76104505D01*
X196536501Y-76521698D01*
X196536501Y-76521698D01*
G37*
D25*
X196107000Y-70364000D03*
X198217000Y-70364000D03*
D10*
G36*
X194080505Y-64365694D02*
X193762306Y-64047495D01*
X194179499Y-63630302D01*
X194497698Y-63948501D01*
X194080505Y-64365694D01*
X194080505Y-64365694D01*
G37*
G36*
X195572501Y-62873698D02*
X195254302Y-62555499D01*
X195671495Y-62138306D01*
X195989694Y-62456505D01*
X195572501Y-62873698D01*
X195572501Y-62873698D01*
G37*
D24*
X171800000Y-68580000D03*
X171800000Y-69850000D03*
X171800000Y-71120000D03*
X171800000Y-72390000D03*
X171800000Y-73660000D03*
X171800000Y-74930000D03*
X171800000Y-76200000D03*
X177200000Y-76200000D03*
X177200000Y-74930000D03*
X177200000Y-73660000D03*
X177200000Y-72390000D03*
X177200000Y-71120000D03*
X177200000Y-69850000D03*
X177200000Y-68580000D03*
D23*
X194434000Y-73650000D03*
X196334000Y-73650000D03*
X195384000Y-71650000D03*
X186520000Y-72980000D03*
X188420000Y-72980000D03*
X187470000Y-70980000D03*
D22*
X182990000Y-60120000D03*
X185890000Y-60120000D03*
X183012000Y-57918000D03*
X185912000Y-57918000D03*
D10*
G36*
X167297218Y-67226208D02*
X165847126Y-66550019D01*
X166768434Y-64574268D01*
X168218526Y-65250457D01*
X167297218Y-67226208D01*
X167297218Y-67226208D01*
G37*
G36*
X171191566Y-58885732D02*
X169741474Y-58209543D01*
X170662782Y-56233792D01*
X172112874Y-56909981D01*
X171191566Y-58885732D01*
X171191566Y-58885732D01*
G37*
D18*
X190770000Y-72960000D03*
X190770000Y-73910000D03*
X190770000Y-74860000D03*
X192970000Y-74860000D03*
X192970000Y-72960000D03*
X192970000Y-73910000D03*
D21*
X184990000Y-76410000D03*
X185940000Y-76410000D03*
X186890000Y-76410000D03*
X186890000Y-74210000D03*
X184990000Y-74210000D03*
X185940000Y-74210000D03*
D20*
X181780000Y-54845000D03*
X181780000Y-54195000D03*
X181780000Y-53545000D03*
X181780000Y-52895000D03*
X177380000Y-52895000D03*
X177380000Y-53545000D03*
X177380000Y-54195000D03*
X177380000Y-54845000D03*
D17*
X174220000Y-56460000D03*
X174220000Y-59460000D03*
D19*
X171590000Y-61770000D03*
X174590000Y-61770000D03*
D10*
G36*
X195716194Y-69803452D02*
X193453452Y-72066194D01*
X192039238Y-70651980D01*
X194301980Y-68389238D01*
X195716194Y-69803452D01*
X195716194Y-69803452D01*
G37*
G36*
X190200762Y-64288020D02*
X187938020Y-66550762D01*
X186523806Y-65136548D01*
X188786548Y-62873806D01*
X190200762Y-64288020D01*
X190200762Y-64288020D01*
G37*
G36*
X195408194Y-61013452D02*
X193145452Y-63276194D01*
X191731238Y-61861980D01*
X193993980Y-59599238D01*
X195408194Y-61013452D01*
X195408194Y-61013452D01*
G37*
G36*
X189892762Y-55498020D02*
X187630020Y-57760762D01*
X186215806Y-56346548D01*
X188478548Y-54083806D01*
X189892762Y-55498020D01*
X189892762Y-55498020D01*
G37*
D18*
X176060000Y-79440000D03*
X176060000Y-78490000D03*
X176060000Y-77540000D03*
X173860000Y-77540000D03*
X173860000Y-79440000D03*
X173860000Y-78490000D03*
D17*
X172100000Y-67170000D03*
X172100000Y-64170000D03*
D12*
X196666000Y-68840000D03*
X198166000Y-68840000D03*
X177850000Y-80510000D03*
X176350000Y-80510000D03*
X170120000Y-66460000D03*
X168620000Y-66460000D03*
X174070000Y-65900000D03*
X175570000Y-65900000D03*
X179920000Y-77710000D03*
X181420000Y-77710000D03*
X190220000Y-76150000D03*
X188720000Y-76150000D03*
D10*
G36*
X173069905Y-54143527D02*
X173551996Y-54718061D01*
X172939161Y-55232291D01*
X172457070Y-54657757D01*
X173069905Y-54143527D01*
X173069905Y-54143527D01*
G37*
G36*
X171920839Y-55107709D02*
X172402930Y-55682243D01*
X171790095Y-56196473D01*
X171308004Y-55621939D01*
X171920839Y-55107709D01*
X171920839Y-55107709D01*
G37*
D16*
X179270000Y-78790000D03*
X179270000Y-80290000D03*
D15*
X178720000Y-81750000D03*
X177220000Y-81750000D03*
D16*
X179800000Y-82650000D03*
X179800000Y-81150000D03*
X176930000Y-64430000D03*
X176930000Y-65930000D03*
D15*
X173930000Y-67180000D03*
X175430000Y-67180000D03*
X178320000Y-59360000D03*
X176820000Y-59360000D03*
X178510000Y-75290000D03*
X180010000Y-75290000D03*
X179980000Y-76470000D03*
X181480000Y-76470000D03*
D16*
X180830000Y-80230000D03*
X180830000Y-78730000D03*
X176300000Y-61990000D03*
X176300000Y-60490000D03*
D15*
X175670000Y-64070000D03*
X174170000Y-64070000D03*
X170210000Y-68990000D03*
X168710000Y-68990000D03*
X170230000Y-67750000D03*
X168730000Y-67750000D03*
X181950000Y-51800000D03*
X183450000Y-51800000D03*
D16*
X183450000Y-54270000D03*
X183450000Y-52770000D03*
X175760000Y-54510000D03*
X175760000Y-53010000D03*
D15*
X182350000Y-56130000D03*
X180850000Y-56130000D03*
D16*
X182190000Y-81070000D03*
X182190000Y-79570000D03*
X181400000Y-59600000D03*
X181400000Y-58100000D03*
D15*
X184490000Y-78200000D03*
X182990000Y-78200000D03*
X196800000Y-75040000D03*
X195300000Y-75040000D03*
X189450000Y-74230000D03*
X187950000Y-74230000D03*
D14*
X184630000Y-62260000D03*
X187030000Y-62260000D03*
D10*
G36*
X185098249Y-56755965D02*
X183684035Y-55341751D01*
X184744695Y-54281091D01*
X186158909Y-55695305D01*
X185098249Y-56755965D01*
X185098249Y-56755965D01*
G37*
G36*
X186795305Y-55058909D02*
X185381091Y-53644695D01*
X186441751Y-52584035D01*
X187855965Y-53998249D01*
X186795305Y-55058909D01*
X186795305Y-55058909D01*
G37*
D13*
X196654000Y-64846000D03*
X196654000Y-67246000D03*
D12*
X183420000Y-82630000D03*
X181920000Y-82630000D03*
D11*
X192260000Y-78380000D03*
X179430000Y-62340000D03*
D10*
G36*
X181387097Y-72502602D02*
X182294088Y-72832720D01*
X181859723Y-74026130D01*
X180952732Y-73696012D01*
X181387097Y-72502602D01*
X181387097Y-72502602D01*
G37*
G36*
X180193687Y-72068236D02*
X181100678Y-72398354D01*
X180666313Y-73591764D01*
X179759322Y-73261646D01*
X180193687Y-72068236D01*
X180193687Y-72068236D01*
G37*
G36*
X179000277Y-71633870D02*
X179907268Y-71963988D01*
X179472903Y-73157398D01*
X178565912Y-72827280D01*
X179000277Y-71633870D01*
X179000277Y-71633870D01*
G37*
G36*
X139927097Y-72502602D02*
X140834088Y-72832720D01*
X140399723Y-74026130D01*
X139492732Y-73696012D01*
X139927097Y-72502602D01*
X139927097Y-72502602D01*
G37*
G36*
X138733687Y-72068236D02*
X139640678Y-72398354D01*
X139206313Y-73591764D01*
X138299322Y-73261646D01*
X138733687Y-72068236D01*
X138733687Y-72068236D01*
G37*
G36*
X137540277Y-71633870D02*
X138447268Y-71963988D01*
X138012903Y-73157398D01*
X137105912Y-72827280D01*
X137540277Y-71633870D01*
X137540277Y-71633870D01*
G37*
D11*
X137970000Y-62340000D03*
X150800000Y-78380000D03*
D12*
X141960000Y-82630000D03*
X140460000Y-82630000D03*
D13*
X155194000Y-64846000D03*
X155194000Y-67246000D03*
D10*
G36*
X143638249Y-56755965D02*
X142224035Y-55341751D01*
X143284695Y-54281091D01*
X144698909Y-55695305D01*
X143638249Y-56755965D01*
X143638249Y-56755965D01*
G37*
G36*
X145335305Y-55058909D02*
X143921091Y-53644695D01*
X144981751Y-52584035D01*
X146395965Y-53998249D01*
X145335305Y-55058909D01*
X145335305Y-55058909D01*
G37*
D14*
X143170000Y-62260000D03*
X145570000Y-62260000D03*
D15*
X147990000Y-74230000D03*
X146490000Y-74230000D03*
X155340000Y-75040000D03*
X153840000Y-75040000D03*
X143030000Y-78200000D03*
X141530000Y-78200000D03*
D16*
X139940000Y-59600000D03*
X139940000Y-58100000D03*
X140730000Y-81070000D03*
X140730000Y-79570000D03*
D15*
X140890000Y-56130000D03*
X139390000Y-56130000D03*
D16*
X134300000Y-54510000D03*
X134300000Y-53010000D03*
X141990000Y-54270000D03*
X141990000Y-52770000D03*
D15*
X140490000Y-51800000D03*
X141990000Y-51800000D03*
X128770000Y-67750000D03*
X127270000Y-67750000D03*
X128750000Y-68990000D03*
X127250000Y-68990000D03*
X134210000Y-64070000D03*
X132710000Y-64070000D03*
D16*
X134840000Y-61990000D03*
X134840000Y-60490000D03*
X139370000Y-80230000D03*
X139370000Y-78730000D03*
D15*
X138520000Y-76470000D03*
X140020000Y-76470000D03*
X137050000Y-75290000D03*
X138550000Y-75290000D03*
X136860000Y-59360000D03*
X135360000Y-59360000D03*
X132470000Y-67180000D03*
X133970000Y-67180000D03*
D16*
X135470000Y-64430000D03*
X135470000Y-65930000D03*
X138340000Y-82650000D03*
X138340000Y-81150000D03*
D15*
X137260000Y-81750000D03*
X135760000Y-81750000D03*
D16*
X137810000Y-78790000D03*
X137810000Y-80290000D03*
D10*
G36*
X131609905Y-54143527D02*
X132091996Y-54718061D01*
X131479161Y-55232291D01*
X130997070Y-54657757D01*
X131609905Y-54143527D01*
X131609905Y-54143527D01*
G37*
G36*
X130460839Y-55107709D02*
X130942930Y-55682243D01*
X130330095Y-56196473D01*
X129848004Y-55621939D01*
X130460839Y-55107709D01*
X130460839Y-55107709D01*
G37*
D12*
X148760000Y-76150000D03*
X147260000Y-76150000D03*
X138460000Y-77710000D03*
X139960000Y-77710000D03*
X132610000Y-65900000D03*
X134110000Y-65900000D03*
X128660000Y-66460000D03*
X127160000Y-66460000D03*
X136390000Y-80510000D03*
X134890000Y-80510000D03*
X155206000Y-68840000D03*
X156706000Y-68840000D03*
D17*
X130640000Y-67170000D03*
X130640000Y-64170000D03*
D18*
X134600000Y-79440000D03*
X134600000Y-78490000D03*
X134600000Y-77540000D03*
X132400000Y-77540000D03*
X132400000Y-79440000D03*
X132400000Y-78490000D03*
D10*
G36*
X153948194Y-61013452D02*
X151685452Y-63276194D01*
X150271238Y-61861980D01*
X152533980Y-59599238D01*
X153948194Y-61013452D01*
X153948194Y-61013452D01*
G37*
G36*
X148432762Y-55498020D02*
X146170020Y-57760762D01*
X144755806Y-56346548D01*
X147018548Y-54083806D01*
X148432762Y-55498020D01*
X148432762Y-55498020D01*
G37*
G36*
X154256194Y-69803452D02*
X151993452Y-72066194D01*
X150579238Y-70651980D01*
X152841980Y-68389238D01*
X154256194Y-69803452D01*
X154256194Y-69803452D01*
G37*
G36*
X148740762Y-64288020D02*
X146478020Y-66550762D01*
X145063806Y-65136548D01*
X147326548Y-62873806D01*
X148740762Y-64288020D01*
X148740762Y-64288020D01*
G37*
D19*
X130130000Y-61770000D03*
X133130000Y-61770000D03*
D17*
X132760000Y-56460000D03*
X132760000Y-59460000D03*
D20*
X140320000Y-54845000D03*
X140320000Y-54195000D03*
X140320000Y-53545000D03*
X140320000Y-52895000D03*
X135920000Y-52895000D03*
X135920000Y-53545000D03*
X135920000Y-54195000D03*
X135920000Y-54845000D03*
D21*
X143530000Y-76410000D03*
X144480000Y-76410000D03*
X145430000Y-76410000D03*
X145430000Y-74210000D03*
X143530000Y-74210000D03*
X144480000Y-74210000D03*
D18*
X149310000Y-72960000D03*
X149310000Y-73910000D03*
X149310000Y-74860000D03*
X151510000Y-74860000D03*
X151510000Y-72960000D03*
X151510000Y-73910000D03*
D10*
G36*
X125837218Y-67226208D02*
X124387126Y-66550019D01*
X125308434Y-64574268D01*
X126758526Y-65250457D01*
X125837218Y-67226208D01*
X125837218Y-67226208D01*
G37*
G36*
X129731566Y-58885732D02*
X128281474Y-58209543D01*
X129202782Y-56233792D01*
X130652874Y-56909981D01*
X129731566Y-58885732D01*
X129731566Y-58885732D01*
G37*
D22*
X141552000Y-57918000D03*
X144452000Y-57918000D03*
X141530000Y-60120000D03*
X144430000Y-60120000D03*
D23*
X145060000Y-72980000D03*
X146960000Y-72980000D03*
X146010000Y-70980000D03*
X152974000Y-73650000D03*
X154874000Y-73650000D03*
X153924000Y-71650000D03*
D24*
X130340000Y-68580000D03*
X130340000Y-69850000D03*
X130340000Y-71120000D03*
X130340000Y-72390000D03*
X130340000Y-73660000D03*
X130340000Y-74930000D03*
X130340000Y-76200000D03*
X135740000Y-76200000D03*
X135740000Y-74930000D03*
X135740000Y-73660000D03*
X135740000Y-72390000D03*
X135740000Y-71120000D03*
X135740000Y-69850000D03*
X135740000Y-68580000D03*
D10*
G36*
X152620505Y-64365694D02*
X152302306Y-64047495D01*
X152719499Y-63630302D01*
X153037698Y-63948501D01*
X152620505Y-64365694D01*
X152620505Y-64365694D01*
G37*
G36*
X154112501Y-62873698D02*
X153794302Y-62555499D01*
X154211495Y-62138306D01*
X154529694Y-62456505D01*
X154112501Y-62873698D01*
X154112501Y-62873698D01*
G37*
D25*
X154647000Y-70364000D03*
X156757000Y-70364000D03*
D10*
G36*
X153584505Y-78013694D02*
X153266306Y-77695495D01*
X153683499Y-77278302D01*
X154001698Y-77596501D01*
X153584505Y-78013694D01*
X153584505Y-78013694D01*
G37*
G36*
X155076501Y-76521698D02*
X154758302Y-76203499D01*
X155175495Y-75786306D01*
X155493694Y-76104505D01*
X155076501Y-76521698D01*
X155076501Y-76521698D01*
G37*
D16*
X148350000Y-81720000D03*
X148350000Y-80220000D03*
D12*
X145650000Y-77970000D03*
X144150000Y-77970000D03*
D23*
X135080000Y-58200000D03*
X136980000Y-58200000D03*
X136030000Y-56200000D03*
D10*
G36*
X124513500Y-68133688D02*
X126017008Y-67586456D01*
X126762612Y-69634986D01*
X125259104Y-70182218D01*
X124513500Y-68133688D01*
X124513500Y-68133688D01*
G37*
G36*
X127657388Y-76785014D02*
X129160896Y-76237782D01*
X129906500Y-78286312D01*
X128402992Y-78833544D01*
X127657388Y-76785014D01*
X127657388Y-76785014D01*
G37*
D20*
X146790000Y-81665000D03*
X146790000Y-81015000D03*
X146790000Y-80365000D03*
X146790000Y-79715000D03*
X142390000Y-79715000D03*
X142390000Y-80365000D03*
X142390000Y-81015000D03*
X142390000Y-81665000D03*
X146790000Y-123315000D03*
X146790000Y-122665000D03*
X146790000Y-122015000D03*
X146790000Y-121365000D03*
X142390000Y-121365000D03*
X142390000Y-122015000D03*
X142390000Y-122665000D03*
X142390000Y-123315000D03*
D10*
G36*
X124513500Y-109783688D02*
X126017008Y-109236456D01*
X126762612Y-111284986D01*
X125259104Y-111832218D01*
X124513500Y-109783688D01*
X124513500Y-109783688D01*
G37*
G36*
X127657388Y-118435014D02*
X129160896Y-117887782D01*
X129906500Y-119936312D01*
X128402992Y-120483544D01*
X127657388Y-118435014D01*
X127657388Y-118435014D01*
G37*
D23*
X135080000Y-99850000D03*
X136980000Y-99850000D03*
X136030000Y-97850000D03*
D12*
X145650000Y-119620000D03*
X144150000Y-119620000D03*
D16*
X148350000Y-123370000D03*
X148350000Y-121870000D03*
D10*
G36*
X153584505Y-119663694D02*
X153266306Y-119345495D01*
X153683499Y-118928302D01*
X154001698Y-119246501D01*
X153584505Y-119663694D01*
X153584505Y-119663694D01*
G37*
G36*
X155076501Y-118171698D02*
X154758302Y-117853499D01*
X155175495Y-117436306D01*
X155493694Y-117754505D01*
X155076501Y-118171698D01*
X155076501Y-118171698D01*
G37*
D25*
X154647000Y-112014000D03*
X156757000Y-112014000D03*
D10*
G36*
X152620505Y-106015694D02*
X152302306Y-105697495D01*
X152719499Y-105280302D01*
X153037698Y-105598501D01*
X152620505Y-106015694D01*
X152620505Y-106015694D01*
G37*
G36*
X154112501Y-104523698D02*
X153794302Y-104205499D01*
X154211495Y-103788306D01*
X154529694Y-104106505D01*
X154112501Y-104523698D01*
X154112501Y-104523698D01*
G37*
D24*
X130340000Y-110230000D03*
X130340000Y-111500000D03*
X130340000Y-112770000D03*
X130340000Y-114040000D03*
X130340000Y-115310000D03*
X130340000Y-116580000D03*
X130340000Y-117850000D03*
X135740000Y-117850000D03*
X135740000Y-116580000D03*
X135740000Y-115310000D03*
X135740000Y-114040000D03*
X135740000Y-112770000D03*
X135740000Y-111500000D03*
X135740000Y-110230000D03*
D23*
X152974000Y-115300000D03*
X154874000Y-115300000D03*
X153924000Y-113300000D03*
X145060000Y-114630000D03*
X146960000Y-114630000D03*
X146010000Y-112630000D03*
D22*
X141530000Y-101770000D03*
X144430000Y-101770000D03*
X141552000Y-99568000D03*
X144452000Y-99568000D03*
D10*
G36*
X125837218Y-108876208D02*
X124387126Y-108200019D01*
X125308434Y-106224268D01*
X126758526Y-106900457D01*
X125837218Y-108876208D01*
X125837218Y-108876208D01*
G37*
G36*
X129731566Y-100535732D02*
X128281474Y-99859543D01*
X129202782Y-97883792D01*
X130652874Y-98559981D01*
X129731566Y-100535732D01*
X129731566Y-100535732D01*
G37*
D18*
X149310000Y-114610000D03*
X149310000Y-115560000D03*
X149310000Y-116510000D03*
X151510000Y-116510000D03*
X151510000Y-114610000D03*
X151510000Y-115560000D03*
D21*
X143530000Y-118060000D03*
X144480000Y-118060000D03*
X145430000Y-118060000D03*
X145430000Y-115860000D03*
X143530000Y-115860000D03*
X144480000Y-115860000D03*
D20*
X140320000Y-96495000D03*
X140320000Y-95845000D03*
X140320000Y-95195000D03*
X140320000Y-94545000D03*
X135920000Y-94545000D03*
X135920000Y-95195000D03*
X135920000Y-95845000D03*
X135920000Y-96495000D03*
D17*
X132760000Y-98110000D03*
X132760000Y-101110000D03*
D19*
X130130000Y-103420000D03*
X133130000Y-103420000D03*
D10*
G36*
X154256194Y-111453452D02*
X151993452Y-113716194D01*
X150579238Y-112301980D01*
X152841980Y-110039238D01*
X154256194Y-111453452D01*
X154256194Y-111453452D01*
G37*
G36*
X148740762Y-105938020D02*
X146478020Y-108200762D01*
X145063806Y-106786548D01*
X147326548Y-104523806D01*
X148740762Y-105938020D01*
X148740762Y-105938020D01*
G37*
G36*
X153948194Y-102663452D02*
X151685452Y-104926194D01*
X150271238Y-103511980D01*
X152533980Y-101249238D01*
X153948194Y-102663452D01*
X153948194Y-102663452D01*
G37*
G36*
X148432762Y-97148020D02*
X146170020Y-99410762D01*
X144755806Y-97996548D01*
X147018548Y-95733806D01*
X148432762Y-97148020D01*
X148432762Y-97148020D01*
G37*
D18*
X134600000Y-121090000D03*
X134600000Y-120140000D03*
X134600000Y-119190000D03*
X132400000Y-119190000D03*
X132400000Y-121090000D03*
X132400000Y-120140000D03*
D17*
X130640000Y-108820000D03*
X130640000Y-105820000D03*
D12*
X155206000Y-110490000D03*
X156706000Y-110490000D03*
X136390000Y-122160000D03*
X134890000Y-122160000D03*
X128660000Y-108110000D03*
X127160000Y-108110000D03*
X132610000Y-107550000D03*
X134110000Y-107550000D03*
X138460000Y-119360000D03*
X139960000Y-119360000D03*
X148760000Y-117800000D03*
X147260000Y-117800000D03*
D10*
G36*
X131609905Y-95793527D02*
X132091996Y-96368061D01*
X131479161Y-96882291D01*
X130997070Y-96307757D01*
X131609905Y-95793527D01*
X131609905Y-95793527D01*
G37*
G36*
X130460839Y-96757709D02*
X130942930Y-97332243D01*
X130330095Y-97846473D01*
X129848004Y-97271939D01*
X130460839Y-96757709D01*
X130460839Y-96757709D01*
G37*
D16*
X137810000Y-120440000D03*
X137810000Y-121940000D03*
D15*
X137260000Y-123400000D03*
X135760000Y-123400000D03*
D16*
X138340000Y-124300000D03*
X138340000Y-122800000D03*
X135470000Y-106080000D03*
X135470000Y-107580000D03*
D15*
X132470000Y-108830000D03*
X133970000Y-108830000D03*
X136860000Y-101010000D03*
X135360000Y-101010000D03*
X137050000Y-116940000D03*
X138550000Y-116940000D03*
X138520000Y-118120000D03*
X140020000Y-118120000D03*
D16*
X139370000Y-121880000D03*
X139370000Y-120380000D03*
X134840000Y-103640000D03*
X134840000Y-102140000D03*
D15*
X134210000Y-105720000D03*
X132710000Y-105720000D03*
X128750000Y-110640000D03*
X127250000Y-110640000D03*
X128770000Y-109400000D03*
X127270000Y-109400000D03*
X140490000Y-93450000D03*
X141990000Y-93450000D03*
D16*
X141990000Y-95920000D03*
X141990000Y-94420000D03*
X134300000Y-96160000D03*
X134300000Y-94660000D03*
D15*
X140890000Y-97780000D03*
X139390000Y-97780000D03*
D16*
X140730000Y-122720000D03*
X140730000Y-121220000D03*
X139940000Y-101250000D03*
X139940000Y-99750000D03*
D15*
X143030000Y-119850000D03*
X141530000Y-119850000D03*
X155340000Y-116690000D03*
X153840000Y-116690000D03*
X147990000Y-115880000D03*
X146490000Y-115880000D03*
D14*
X143170000Y-103910000D03*
X145570000Y-103910000D03*
D10*
G36*
X143638249Y-98405965D02*
X142224035Y-96991751D01*
X143284695Y-95931091D01*
X144698909Y-97345305D01*
X143638249Y-98405965D01*
X143638249Y-98405965D01*
G37*
G36*
X145335305Y-96708909D02*
X143921091Y-95294695D01*
X144981751Y-94234035D01*
X146395965Y-95648249D01*
X145335305Y-96708909D01*
X145335305Y-96708909D01*
G37*
D13*
X155194000Y-106496000D03*
X155194000Y-108896000D03*
D12*
X141960000Y-124280000D03*
X140460000Y-124280000D03*
D11*
X150800000Y-120030000D03*
X137970000Y-103990000D03*
D10*
G36*
X139927097Y-114152602D02*
X140834088Y-114482720D01*
X140399723Y-115676130D01*
X139492732Y-115346012D01*
X139927097Y-114152602D01*
X139927097Y-114152602D01*
G37*
G36*
X138733687Y-113718236D02*
X139640678Y-114048354D01*
X139206313Y-115241764D01*
X138299322Y-114911646D01*
X138733687Y-113718236D01*
X138733687Y-113718236D01*
G37*
G36*
X137540277Y-113283870D02*
X138447268Y-113613988D01*
X138012903Y-114807398D01*
X137105912Y-114477280D01*
X137540277Y-113283870D01*
X137540277Y-113283870D01*
G37*
M02*
