G04 #@! TF.FileFunction,Profile,NP*
%FSLAX46Y46*%
G04 Gerber Fmt 4.6, Leading zero omitted, Abs format (unit mm)*
G04 Created by KiCad (PCBNEW 4.0.5) date Thu Dec 29 13:42:12 2016*
%MOMM*%
%LPD*%
G01*
G04 APERTURE LIST*
%ADD10C,0.100000*%
G04 APERTURE END LIST*
D10*
X143670000Y-127630000D02*
X180130000Y-127630000D01*
X117630000Y-127630000D02*
X138670000Y-127630000D01*
X117630000Y-133130000D02*
X117630000Y-127630000D01*
X205170000Y-133130000D02*
X117630000Y-133130000D01*
X205170000Y-127630000D02*
X205170000Y-133130000D01*
X185130000Y-127630000D02*
X205170000Y-127630000D01*
X206170000Y-49010000D02*
X185130000Y-49010000D01*
X206170000Y-43510000D02*
X206170000Y-49010000D01*
X117620000Y-43510000D02*
X206170000Y-43510000D01*
X117620000Y-49010000D02*
X117620000Y-43510000D01*
X138670000Y-49010000D02*
X117620000Y-49010000D01*
X143670000Y-49010000D02*
X180140000Y-49010000D01*
X186633700Y-109499400D02*
G75*
G03X186633700Y-109499400I-4000500J0D01*
G01*
X185130000Y-126340000D02*
X185130000Y-127630000D01*
X180130000Y-126340000D02*
X180130000Y-127630000D01*
X185130484Y-126339928D02*
G75*
G03X185130000Y-92680000I-2500484J16829928D01*
G01*
X180129516Y-92680072D02*
G75*
G03X180130000Y-126340000I2500484J-16829928D01*
G01*
X185130000Y-51030000D02*
X185130000Y-49010000D01*
X180129516Y-51030072D02*
G75*
G03X180130000Y-84690000I2500484J-16829928D01*
G01*
X185130484Y-84689928D02*
G75*
G03X185130000Y-51030000I-2500484J16829928D01*
G01*
X180130000Y-51030000D02*
X180130000Y-49010000D01*
X186633700Y-67849400D02*
G75*
G03X186633700Y-67849400I-4000500J0D01*
G01*
X185130000Y-84690000D02*
X185130000Y-92680000D01*
X180130000Y-92680000D02*
X180130000Y-84690000D01*
X138670000Y-92680000D02*
X138670000Y-84690000D01*
X143670000Y-84690000D02*
X143670000Y-92680000D01*
X145173700Y-67849400D02*
G75*
G03X145173700Y-67849400I-4000500J0D01*
G01*
X138670000Y-51030000D02*
X138670000Y-49010000D01*
X143670484Y-84689928D02*
G75*
G03X143670000Y-51030000I-2500484J16829928D01*
G01*
X138669516Y-51030072D02*
G75*
G03X138670000Y-84690000I2500484J-16829928D01*
G01*
X143670000Y-51030000D02*
X143670000Y-49010000D01*
X138669516Y-92680072D02*
G75*
G03X138670000Y-126340000I2500484J-16829928D01*
G01*
X143670484Y-126339928D02*
G75*
G03X143670000Y-92680000I-2500484J16829928D01*
G01*
X138670000Y-126340000D02*
X138670000Y-127630000D01*
X143670000Y-126340000D02*
X143670000Y-127630000D01*
X145173700Y-109499400D02*
G75*
G03X145173700Y-109499400I-4000500J0D01*
G01*
M02*
