G04 #@! TF.FileFunction,Copper,L1,Top,Signal*
%FSLAX46Y46*%
G04 Gerber Fmt 4.6, Leading zero omitted, Abs format (unit mm)*
G04 Created by KiCad (PCBNEW 4.0.6) date Mon May 22 20:15:38 2017*
%MOMM*%
%LPD*%
G01*
G04 APERTURE LIST*
%ADD10C,0.100000*%
%ADD11R,1.450000X0.450000*%
%ADD12R,0.800000X0.900000*%
%ADD13R,0.800000X0.750000*%
%ADD14R,0.900000X0.500000*%
%ADD15R,0.590000X0.450000*%
%ADD16R,1.500000X0.600000*%
%ADD17R,0.900000X1.700000*%
%ADD18R,1.060000X0.650000*%
%ADD19R,0.650000X1.060000*%
%ADD20R,2.600000X1.500000*%
%ADD21R,1.500000X2.600000*%
%ADD22R,0.500000X0.900000*%
%ADD23R,1.500000X2.000000*%
%ADD24R,2.000000X1.500000*%
%ADD25C,0.800000*%
%ADD26C,0.600000*%
%ADD27C,0.400000*%
%ADD28C,0.700000*%
%ADD29C,1.000000*%
%ADD30C,1.500000*%
%ADD31C,0.500000*%
%ADD32C,2.100000*%
G04 APERTURE END LIST*
D10*
D11*
X146790000Y-123315000D03*
X146790000Y-122665000D03*
X146790000Y-122015000D03*
X146790000Y-121365000D03*
X142390000Y-121365000D03*
X142390000Y-122015000D03*
X142390000Y-122665000D03*
X142390000Y-123315000D03*
D10*
G36*
X124513500Y-109783688D02*
X126017008Y-109236456D01*
X126762612Y-111284986D01*
X125259104Y-111832218D01*
X124513500Y-109783688D01*
X124513500Y-109783688D01*
G37*
G36*
X127657388Y-118435014D02*
X129160896Y-117887782D01*
X129906500Y-119936312D01*
X128402992Y-120483544D01*
X127657388Y-118435014D01*
X127657388Y-118435014D01*
G37*
D12*
X135080000Y-99850000D03*
X136980000Y-99850000D03*
X136030000Y-97850000D03*
D13*
X145650000Y-119620000D03*
X144150000Y-119620000D03*
D14*
X148350000Y-123370000D03*
X148350000Y-121870000D03*
D15*
X154647000Y-112014000D03*
X156757000Y-112014000D03*
D10*
G36*
X152620505Y-106015694D02*
X152302306Y-105697495D01*
X152719499Y-105280302D01*
X153037698Y-105598501D01*
X152620505Y-106015694D01*
X152620505Y-106015694D01*
G37*
G36*
X154112501Y-104523698D02*
X153794302Y-104205499D01*
X154211495Y-103788306D01*
X154529694Y-104106505D01*
X154112501Y-104523698D01*
X154112501Y-104523698D01*
G37*
D16*
X130340000Y-110230000D03*
X130340000Y-111500000D03*
X130340000Y-112770000D03*
X130340000Y-114040000D03*
X130340000Y-115310000D03*
X130340000Y-116580000D03*
X130340000Y-117850000D03*
X135740000Y-117850000D03*
X135740000Y-116580000D03*
X135740000Y-115310000D03*
X135740000Y-114040000D03*
X135740000Y-112770000D03*
X135740000Y-111500000D03*
X135740000Y-110230000D03*
D12*
X152974000Y-115300000D03*
X154874000Y-115300000D03*
X153924000Y-113300000D03*
X145060000Y-114630000D03*
X146960000Y-114630000D03*
X146010000Y-112630000D03*
D17*
X141530000Y-101770000D03*
X144430000Y-101770000D03*
X141552000Y-99568000D03*
X144452000Y-99568000D03*
D10*
G36*
X125837218Y-108876208D02*
X124387126Y-108200019D01*
X125308434Y-106224268D01*
X126758526Y-106900457D01*
X125837218Y-108876208D01*
X125837218Y-108876208D01*
G37*
G36*
X129731566Y-100535732D02*
X128281474Y-99859543D01*
X129202782Y-97883792D01*
X130652874Y-98559981D01*
X129731566Y-100535732D01*
X129731566Y-100535732D01*
G37*
D18*
X149310000Y-114610000D03*
X149310000Y-115560000D03*
X149310000Y-116510000D03*
X151510000Y-116510000D03*
X151510000Y-114610000D03*
X151510000Y-115560000D03*
D19*
X143530000Y-118060000D03*
X144480000Y-118060000D03*
X145430000Y-118060000D03*
X145430000Y-115860000D03*
X143530000Y-115860000D03*
X144480000Y-115860000D03*
D11*
X140320000Y-96495000D03*
X140320000Y-95845000D03*
X140320000Y-95195000D03*
X140320000Y-94545000D03*
X135920000Y-94545000D03*
X135920000Y-95195000D03*
X135920000Y-95845000D03*
X135920000Y-96495000D03*
D20*
X132760000Y-98110000D03*
X132760000Y-101110000D03*
D21*
X130130000Y-103420000D03*
X133130000Y-103420000D03*
D10*
G36*
X154256194Y-111453452D02*
X151993452Y-113716194D01*
X150579238Y-112301980D01*
X152841980Y-110039238D01*
X154256194Y-111453452D01*
X154256194Y-111453452D01*
G37*
G36*
X148740762Y-105938020D02*
X146478020Y-108200762D01*
X145063806Y-106786548D01*
X147326548Y-104523806D01*
X148740762Y-105938020D01*
X148740762Y-105938020D01*
G37*
G36*
X153948194Y-102663452D02*
X151685452Y-104926194D01*
X150271238Y-103511980D01*
X152533980Y-101249238D01*
X153948194Y-102663452D01*
X153948194Y-102663452D01*
G37*
G36*
X148432762Y-97148020D02*
X146170020Y-99410762D01*
X144755806Y-97996548D01*
X147018548Y-95733806D01*
X148432762Y-97148020D01*
X148432762Y-97148020D01*
G37*
D18*
X134600000Y-121090000D03*
X134600000Y-120140000D03*
X134600000Y-119190000D03*
X132400000Y-119190000D03*
X132400000Y-121090000D03*
X132400000Y-120140000D03*
D20*
X130640000Y-108820000D03*
X130640000Y-105820000D03*
D13*
X155206000Y-110490000D03*
X156706000Y-110490000D03*
X136390000Y-122160000D03*
X134890000Y-122160000D03*
X128660000Y-108110000D03*
X127160000Y-108110000D03*
X132610000Y-107550000D03*
X134110000Y-107550000D03*
X138460000Y-119360000D03*
X139960000Y-119360000D03*
X148760000Y-117800000D03*
X147260000Y-117800000D03*
D10*
G36*
X131609905Y-95793527D02*
X132091996Y-96368061D01*
X131479161Y-96882291D01*
X130997070Y-96307757D01*
X131609905Y-95793527D01*
X131609905Y-95793527D01*
G37*
G36*
X130460839Y-96757709D02*
X130942930Y-97332243D01*
X130330095Y-97846473D01*
X129848004Y-97271939D01*
X130460839Y-96757709D01*
X130460839Y-96757709D01*
G37*
D14*
X137810000Y-120440000D03*
X137810000Y-121940000D03*
D22*
X137260000Y-123400000D03*
X135760000Y-123400000D03*
D14*
X138340000Y-124300000D03*
X138340000Y-122800000D03*
X135470000Y-106080000D03*
X135470000Y-107580000D03*
D22*
X132470000Y-108830000D03*
X133970000Y-108830000D03*
X136860000Y-101010000D03*
X135360000Y-101010000D03*
X137050000Y-116940000D03*
X138550000Y-116940000D03*
X138520000Y-118120000D03*
X140020000Y-118120000D03*
D14*
X139370000Y-121880000D03*
X139370000Y-120380000D03*
X134840000Y-103640000D03*
X134840000Y-102140000D03*
D22*
X134210000Y-105720000D03*
X132710000Y-105720000D03*
X128750000Y-110640000D03*
X127250000Y-110640000D03*
X128770000Y-109400000D03*
X127270000Y-109400000D03*
X140490000Y-93450000D03*
X141990000Y-93450000D03*
D14*
X141990000Y-95920000D03*
X141990000Y-94420000D03*
X134300000Y-96160000D03*
X134300000Y-94660000D03*
D22*
X140890000Y-97780000D03*
X139390000Y-97780000D03*
D14*
X140730000Y-122720000D03*
X140730000Y-121220000D03*
X139940000Y-101250000D03*
X139940000Y-99750000D03*
D22*
X143030000Y-119850000D03*
X141530000Y-119850000D03*
X155340000Y-116690000D03*
X153840000Y-116690000D03*
X147990000Y-115880000D03*
X146490000Y-115880000D03*
D23*
X143170000Y-103910000D03*
X145570000Y-103910000D03*
D10*
G36*
X143638249Y-98405965D02*
X142224035Y-96991751D01*
X143284695Y-95931091D01*
X144698909Y-97345305D01*
X143638249Y-98405965D01*
X143638249Y-98405965D01*
G37*
G36*
X145335305Y-96708909D02*
X143921091Y-95294695D01*
X144981751Y-94234035D01*
X146395965Y-95648249D01*
X145335305Y-96708909D01*
X145335305Y-96708909D01*
G37*
D24*
X155194000Y-106496000D03*
X155194000Y-108896000D03*
D13*
X141960000Y-124280000D03*
X140460000Y-124280000D03*
D10*
G36*
X139927097Y-114152602D02*
X140834088Y-114482720D01*
X140399723Y-115676130D01*
X139492732Y-115346012D01*
X139927097Y-114152602D01*
X139927097Y-114152602D01*
G37*
G36*
X138733687Y-113718236D02*
X139640678Y-114048354D01*
X139206313Y-115241764D01*
X138299322Y-114911646D01*
X138733687Y-113718236D01*
X138733687Y-113718236D01*
G37*
G36*
X137540277Y-113283870D02*
X138447268Y-113613988D01*
X138012903Y-114807398D01*
X137105912Y-114477280D01*
X137540277Y-113283870D01*
X137540277Y-113283870D01*
G37*
G36*
X154093891Y-119577265D02*
X153457495Y-118940869D01*
X153811049Y-118587315D01*
X154447445Y-119223711D01*
X154093891Y-119577265D01*
X154093891Y-119577265D01*
G37*
G36*
X155154551Y-118516605D02*
X154518155Y-117880209D01*
X154871709Y-117526655D01*
X155508105Y-118163051D01*
X155154551Y-118516605D01*
X155154551Y-118516605D01*
G37*
D25*
X151384000Y-107950000D03*
X134440000Y-104960000D03*
X153020000Y-107300000D03*
X140060000Y-123560000D03*
X144730000Y-121510000D03*
X128300000Y-104830000D03*
X128240000Y-117040000D03*
X148020000Y-120420000D03*
X146650000Y-118890000D03*
X139750000Y-116750000D03*
X134820000Y-123120000D03*
X136000000Y-108830000D03*
X153680000Y-106650000D03*
X152200000Y-118660000D03*
X137620000Y-101400000D03*
X135940000Y-120090000D03*
X130620000Y-107320000D03*
X128930000Y-113930000D03*
X130790000Y-119860000D03*
X144050000Y-123280000D03*
X134830000Y-98760000D03*
X133480000Y-111460000D03*
X133890000Y-99740000D03*
X131670000Y-103480000D03*
X128670000Y-115860000D03*
D26*
X155974701Y-117067228D02*
X155967532Y-117067228D01*
X155967532Y-117067228D02*
X155013130Y-118021630D01*
D27*
X134840000Y-105090000D02*
X134570000Y-105090000D01*
D28*
X151384000Y-107950000D02*
X151892000Y-108458000D01*
X151892000Y-108458000D02*
X151892000Y-108896000D01*
D27*
X134570000Y-105090000D02*
X134440000Y-104960000D01*
X134840000Y-103640000D02*
X134840000Y-105090000D01*
X134840000Y-105090000D02*
X134210000Y-105720000D01*
X134210000Y-105720000D02*
X134290000Y-105720000D01*
D29*
X146960000Y-114630000D02*
X146970000Y-114630000D01*
X146970000Y-114630000D02*
X147390000Y-114210000D01*
D30*
X149960000Y-110770000D02*
X149960000Y-110780000D01*
X148710000Y-112890000D02*
X147390000Y-114210000D01*
X148710000Y-112030000D02*
X148710000Y-112890000D01*
X149960000Y-110780000D02*
X148710000Y-112030000D01*
D26*
X155340000Y-116690000D02*
X155597473Y-116690000D01*
X155597473Y-116690000D02*
X155974701Y-117067228D01*
X155702000Y-112930000D02*
X156310000Y-112930000D01*
X156517521Y-115868135D02*
X155974701Y-117067228D01*
X156910000Y-114690000D02*
X156517521Y-115868135D01*
X156910000Y-113530000D02*
X156910000Y-114690000D01*
X156310000Y-112930000D02*
X156910000Y-113530000D01*
X149310000Y-114610000D02*
X149315000Y-114155000D01*
X150020000Y-111270000D02*
X150020000Y-110710000D01*
X150020000Y-110830000D02*
X150020000Y-111270000D01*
X149960000Y-110770000D02*
X150020000Y-110830000D01*
D30*
X151834000Y-108896000D02*
X151892000Y-108896000D01*
X150020000Y-110710000D02*
X151834000Y-108896000D01*
D26*
X149965000Y-113505000D02*
X149960000Y-110770000D01*
X149315000Y-114155000D02*
X149965000Y-113505000D01*
X147260000Y-117800000D02*
X147260000Y-117450000D01*
X147260000Y-117450000D02*
X147990000Y-116720000D01*
X147990000Y-116720000D02*
X147990000Y-115880000D01*
X146490000Y-120600000D02*
X146490000Y-120590000D01*
X146490000Y-120600000D02*
X144870000Y-120600000D01*
X144150000Y-119880000D02*
X144870000Y-120600000D01*
X147560000Y-119520000D02*
X147560000Y-118100000D01*
X146490000Y-120590000D02*
X147560000Y-119520000D01*
X147560000Y-118100000D02*
X147260000Y-117800000D01*
X144150000Y-119880000D02*
X144150000Y-119620000D01*
X143530000Y-118060000D02*
X143530000Y-118690000D01*
X143530000Y-118690000D02*
X144150000Y-119310000D01*
X144150000Y-119310000D02*
X144150000Y-119620000D01*
X147990000Y-115880000D02*
X147990000Y-115200000D01*
X147990000Y-115200000D02*
X148580000Y-114610000D01*
X147350000Y-117710000D02*
X147260000Y-117800000D01*
X149310000Y-114610000D02*
X148580000Y-114610000D01*
D28*
X147314000Y-117746000D02*
X147260000Y-117800000D01*
D30*
X151892000Y-108896000D02*
X152094000Y-108896000D01*
X155194000Y-108896000D02*
X152094000Y-108896000D01*
D29*
X155206000Y-110756000D02*
X155702000Y-111252000D01*
X154874000Y-114620000D02*
X154874000Y-115300000D01*
X155702000Y-113792000D02*
X154874000Y-114620000D01*
X155702000Y-111252000D02*
X155702000Y-112930000D01*
X155702000Y-112930000D02*
X155702000Y-113792000D01*
X155206000Y-110490000D02*
X155206000Y-108908000D01*
X155206000Y-110490000D02*
X155206000Y-110756000D01*
X155206000Y-108908000D02*
X155194000Y-108896000D01*
X153680000Y-106650000D02*
X155040000Y-106650000D01*
X155040000Y-106650000D02*
X155194000Y-106496000D01*
D30*
X156972000Y-106426000D02*
X157226000Y-107442000D01*
X154860000Y-106510000D02*
X156989500Y-106496000D01*
X156972000Y-106478500D02*
X156972000Y-106426000D01*
X156989500Y-106496000D02*
X156972000Y-106478500D01*
X157226000Y-111760000D02*
X157304387Y-109591086D01*
X157304387Y-109591086D02*
X157226000Y-107442000D01*
D27*
X140260000Y-123560000D02*
X140460000Y-123760000D01*
X140060000Y-123560000D02*
X140260000Y-123560000D01*
X140460000Y-123760000D02*
X140460000Y-123820000D01*
X144875000Y-121365000D02*
X144730000Y-121510000D01*
X146790000Y-121365000D02*
X144875000Y-121365000D01*
D26*
X127450000Y-104930000D02*
X128200000Y-104930000D01*
X128200000Y-104930000D02*
X128300000Y-104830000D01*
X127160000Y-108110000D02*
X127160000Y-107620000D01*
X127450000Y-101226936D02*
X129467174Y-99209762D01*
X127450000Y-107330000D02*
X127450000Y-104930000D01*
X127450000Y-104930000D02*
X127450000Y-101226936D01*
X127160000Y-107620000D02*
X127450000Y-107330000D01*
X128240000Y-118210000D02*
X128240000Y-117040000D01*
X128781944Y-118751944D02*
X128240000Y-118210000D01*
X127160000Y-107820000D02*
X127160000Y-108110000D01*
X128781944Y-119185663D02*
X128781944Y-118751944D01*
D31*
X148760000Y-117800000D02*
X148760000Y-118420000D01*
X148360000Y-120080000D02*
X148020000Y-120420000D01*
X148360000Y-118820000D02*
X148360000Y-120080000D01*
X148760000Y-118420000D02*
X148360000Y-118820000D01*
D26*
X145790000Y-118870000D02*
X146650000Y-118890000D01*
X145783814Y-118856082D02*
X145790000Y-118870000D01*
D29*
X153680000Y-106650000D02*
X153454000Y-106650000D01*
X153454000Y-106650000D02*
X153020000Y-107300000D01*
D27*
X140163410Y-114914366D02*
X140163410Y-116876590D01*
X140163410Y-116876590D02*
X140020000Y-117020000D01*
X140020000Y-118120000D02*
X140020000Y-117020000D01*
X140020000Y-117020000D02*
X139750000Y-116750000D01*
X139960000Y-119360000D02*
X139960000Y-118180000D01*
X139960000Y-118180000D02*
X140020000Y-118120000D01*
X135055000Y-123155000D02*
X134665000Y-123155000D01*
X134665000Y-123155000D02*
X134820000Y-123120000D01*
X135760000Y-123400000D02*
X135300000Y-123400000D01*
X134890000Y-122990000D02*
X134890000Y-122160000D01*
X135300000Y-123400000D02*
X135055000Y-123155000D01*
X135055000Y-123155000D02*
X134890000Y-122990000D01*
X140460000Y-124280000D02*
X140460000Y-123760000D01*
X134890000Y-122160000D02*
X134890000Y-122310000D01*
X140460000Y-124190000D02*
X140460000Y-124280000D01*
X132400000Y-121090000D02*
X130780000Y-121090000D01*
X130780000Y-121090000D02*
X128875663Y-119185663D01*
X128875663Y-119185663D02*
X128781944Y-119185663D01*
X135740000Y-110230000D02*
X135740000Y-109090000D01*
X135740000Y-109090000D02*
X136000000Y-108830000D01*
X128781944Y-119185663D02*
X128781944Y-118851944D01*
D31*
X129467174Y-99209762D02*
X129467174Y-98420384D01*
X129467174Y-98420384D02*
X130395467Y-97302091D01*
X129467174Y-99207174D02*
X129467174Y-99209762D01*
D26*
X145430000Y-118060000D02*
X145430000Y-118502268D01*
X145430000Y-118502268D02*
X145783814Y-118856082D01*
D31*
X145783814Y-118856082D02*
X145783814Y-119486186D01*
X145783814Y-119486186D02*
X145650000Y-119620000D01*
D27*
X147165000Y-121365000D02*
X146790000Y-121365000D01*
D26*
X148760000Y-117800000D02*
X148760000Y-117260000D01*
X148760000Y-117260000D02*
X149310000Y-116710000D01*
X149310000Y-116710000D02*
X149310000Y-116510000D01*
D27*
X146790000Y-121365000D02*
X146925000Y-121365000D01*
D26*
X141990000Y-94420000D02*
X141990000Y-93450000D01*
D28*
X144920000Y-93432621D02*
X142007379Y-93432621D01*
D26*
X142007379Y-93432621D02*
X141990000Y-93450000D01*
D27*
X140320000Y-94545000D02*
X141865000Y-94545000D01*
X141865000Y-94545000D02*
X141990000Y-94420000D01*
D26*
X145430000Y-118060000D02*
X145430000Y-118200000D01*
X148670000Y-117710000D02*
X148760000Y-117800000D01*
X148760000Y-117800000D02*
X148850000Y-117800000D01*
X146050000Y-101092000D02*
X146050000Y-100770000D01*
X146410000Y-94080000D02*
X144920000Y-93432621D01*
X144920000Y-93432621D02*
X144960000Y-93450000D01*
X147775947Y-94936435D02*
X146410000Y-94080000D01*
X149650000Y-96780000D02*
X147775947Y-94936435D01*
X149650000Y-97170000D02*
X149650000Y-96780000D01*
X146050000Y-100770000D02*
X149650000Y-97170000D01*
D32*
X153162000Y-99822000D02*
X146050000Y-101092000D01*
X155702000Y-103428800D02*
X154940000Y-101600000D01*
X154940000Y-101600000D02*
X154432000Y-100838000D01*
X154432000Y-100838000D02*
X153162000Y-99822000D01*
X146050000Y-101092000D02*
X146304000Y-101092000D01*
D30*
X144430000Y-101770000D02*
X145214000Y-101854000D01*
X145214000Y-101854000D02*
X145976000Y-101092000D01*
X146304000Y-101092000D02*
X145976000Y-101092000D01*
D32*
X146304000Y-101092000D02*
X146558000Y-101092000D01*
D30*
X145976000Y-101092000D02*
X144452000Y-99568000D01*
D32*
X156324000Y-106426000D02*
X156648000Y-106102000D01*
X156648000Y-106102000D02*
X156210000Y-104648000D01*
D30*
X157302200Y-111226600D02*
X157226000Y-111760000D01*
D28*
X156706000Y-110490000D02*
X157231816Y-110099086D01*
X157231816Y-110099086D02*
X157050387Y-110099086D01*
X157050387Y-110099086D02*
X157226000Y-111760000D01*
X156757000Y-112014000D02*
X157048200Y-111480600D01*
D32*
X156210000Y-104648000D02*
X155702000Y-103428800D01*
D29*
X155892500Y-103886000D02*
X155702000Y-103695500D01*
X155702000Y-103695500D02*
X155702000Y-103378000D01*
X155702000Y-103378000D02*
X155702000Y-103428800D01*
X154161998Y-104156002D02*
X154432000Y-103886000D01*
X154432000Y-103886000D02*
X155892500Y-103886000D01*
D27*
X138340000Y-122800000D02*
X137490000Y-122800000D01*
X137490000Y-122800000D02*
X137260000Y-122570000D01*
X137260000Y-123400000D02*
X137260000Y-122570000D01*
X137260000Y-122570000D02*
X137260000Y-122450000D01*
X137260000Y-122450000D02*
X136970000Y-122160000D01*
X137950000Y-122080000D02*
X137810000Y-121940000D01*
X137200000Y-123460000D02*
X137260000Y-123400000D01*
X136390000Y-122160000D02*
X136970000Y-122160000D01*
X136970000Y-122160000D02*
X137590000Y-122160000D01*
X137590000Y-122160000D02*
X137810000Y-121940000D01*
D26*
X152835998Y-119295998D02*
X153738762Y-119295998D01*
X152200000Y-118660000D02*
X152835998Y-119295998D01*
X153738762Y-119295998D02*
X153952470Y-119082290D01*
X136860000Y-101010000D02*
X137576000Y-101318000D01*
X137576000Y-101318000D02*
X137620000Y-101400000D01*
X136980000Y-99850000D02*
X136980000Y-100890000D01*
X136980000Y-100890000D02*
X136860000Y-101010000D01*
D27*
X135890000Y-120140000D02*
X135940000Y-120090000D01*
X134600000Y-120140000D02*
X135890000Y-120140000D01*
D26*
X130640000Y-108820000D02*
X130640000Y-107340000D01*
X130640000Y-107340000D02*
X130620000Y-107320000D01*
D27*
X130640000Y-108820000D02*
X130580000Y-109990000D01*
X130580000Y-109990000D02*
X130340000Y-110230000D01*
X130340000Y-110230000D02*
X129240000Y-110230000D01*
X129240000Y-110230000D02*
X128750000Y-109740000D01*
X128750000Y-109740000D02*
X128770000Y-109400000D01*
X128770000Y-109400000D02*
X128770000Y-108220000D01*
X128770000Y-108220000D02*
X128660000Y-108110000D01*
X128750000Y-110640000D02*
X128750000Y-109420000D01*
X128750000Y-109420000D02*
X128770000Y-109400000D01*
X128760000Y-110630000D02*
X128750000Y-110640000D01*
D31*
X130640000Y-108820000D02*
X130170000Y-108820000D01*
X128700000Y-108150000D02*
X128660000Y-108110000D01*
X128750000Y-110640000D02*
X128750000Y-110560000D01*
X128660000Y-108060000D02*
X128660000Y-108110000D01*
X136860000Y-101010000D02*
X136860000Y-100790000D01*
D27*
X132400000Y-120140000D02*
X131070000Y-120140000D01*
X129030000Y-114030000D02*
X130340000Y-114040000D01*
X128930000Y-113930000D02*
X129030000Y-114030000D01*
X131070000Y-120140000D02*
X130790000Y-119860000D01*
X130640000Y-105820000D02*
X131470000Y-105820000D01*
X131470000Y-105820000D02*
X132610000Y-106960000D01*
X132610000Y-106960000D02*
X132610000Y-107550000D01*
X131000000Y-106180000D02*
X130640000Y-105820000D01*
X132470000Y-108830000D02*
X132470000Y-107690000D01*
X132470000Y-107690000D02*
X132610000Y-107550000D01*
X130340000Y-114040000D02*
X131220000Y-114040000D01*
X132480000Y-109770000D02*
X132470000Y-108830000D01*
X131820000Y-110430000D02*
X132480000Y-109770000D01*
X131820000Y-113440000D02*
X131820000Y-110430000D01*
X131220000Y-114040000D02*
X131820000Y-113440000D01*
X130640000Y-105820000D02*
X131360000Y-105820000D01*
X130980000Y-114040000D02*
X130340000Y-114040000D01*
X130340000Y-114040000D02*
X131020000Y-114040000D01*
D31*
X130640000Y-105820000D02*
X129780000Y-105820000D01*
D27*
X130340000Y-115310000D02*
X131740000Y-115310000D01*
X133970000Y-109650000D02*
X133970000Y-108830000D01*
X132630000Y-110990000D02*
X133970000Y-109650000D01*
X132630000Y-114420000D02*
X132630000Y-110990000D01*
X131740000Y-115310000D02*
X132630000Y-114420000D01*
X134110000Y-107550000D02*
X135440000Y-107550000D01*
X135440000Y-107550000D02*
X135470000Y-107580000D01*
X133970000Y-108830000D02*
X133970000Y-107690000D01*
X133970000Y-107690000D02*
X134110000Y-107550000D01*
X138460000Y-119360000D02*
X138460000Y-119450000D01*
X138460000Y-119450000D02*
X139370000Y-120360000D01*
X139370000Y-120360000D02*
X139370000Y-120380000D01*
X138520000Y-118120000D02*
X138520000Y-119300000D01*
X138520000Y-119300000D02*
X138460000Y-119360000D01*
X138560000Y-118080000D02*
X138520000Y-118120000D01*
X139370000Y-120380000D02*
X139390000Y-120380000D01*
X138550000Y-116940000D02*
X138560000Y-118080000D01*
X144015000Y-123315000D02*
X144050000Y-123280000D01*
X142390000Y-123315000D02*
X144015000Y-123315000D01*
D26*
X134830000Y-98760000D02*
X134830000Y-97050000D01*
X134830000Y-97050000D02*
X135000000Y-96880000D01*
X134830000Y-98670000D02*
X134830000Y-98760000D01*
X134850000Y-98650000D02*
X134830000Y-98670000D01*
D27*
X141960000Y-124280000D02*
X142400000Y-123325000D01*
X142400000Y-123325000D02*
X142390000Y-123315000D01*
X135920000Y-96495000D02*
X135355000Y-96495000D01*
X135355000Y-96495000D02*
X135000000Y-96880000D01*
X132670000Y-96080000D02*
X131802442Y-96080000D01*
X135000000Y-96880000D02*
X133470000Y-96880000D01*
X133470000Y-96880000D02*
X132670000Y-96080000D01*
X131802442Y-96080000D02*
X131544533Y-96337909D01*
X136030000Y-97850000D02*
X136030000Y-96605000D01*
X136030000Y-96605000D02*
X135920000Y-96495000D01*
X131544533Y-96337909D02*
X131544533Y-96374533D01*
D30*
X152501716Y-111877716D02*
X153924000Y-113300000D01*
D26*
X154647000Y-112014000D02*
X154178000Y-112014000D01*
D29*
X154178000Y-112014000D02*
X154041716Y-111877716D01*
X154041716Y-111877716D02*
X152417716Y-111877716D01*
D26*
X154647000Y-112014000D02*
X154701998Y-112014000D01*
D30*
X152417716Y-111877716D02*
X152501716Y-111877716D01*
X152417716Y-111877716D02*
X152536284Y-111877716D01*
D29*
X152670002Y-105647998D02*
X151638000Y-106680000D01*
X150622000Y-106680000D02*
X150114000Y-107188000D01*
X151638000Y-106680000D02*
X150622000Y-106680000D01*
D30*
X146010000Y-112630000D02*
X146010000Y-112562000D01*
X146010000Y-112562000D02*
X146812000Y-111760000D01*
X146812000Y-111760000D02*
X146812000Y-110490000D01*
X146812000Y-110490000D02*
X150114000Y-107188000D01*
X150114000Y-107188000D02*
X150114000Y-105083432D01*
X150114000Y-105083432D02*
X152109716Y-103087716D01*
X151384000Y-103813432D02*
X152109716Y-103087716D01*
D27*
X127270000Y-109400000D02*
X127000000Y-109400000D01*
X127000000Y-109400000D02*
X125572826Y-107972826D01*
X125572826Y-107972826D02*
X125572826Y-107550238D01*
X130340000Y-111500000D02*
X129410000Y-111500000D01*
X127620000Y-109400000D02*
X127270000Y-109400000D01*
X127980000Y-109760000D02*
X127620000Y-109400000D01*
X127980000Y-111380000D02*
X127980000Y-109760000D01*
X128340000Y-111740000D02*
X127980000Y-111380000D01*
X129170000Y-111740000D02*
X128340000Y-111740000D01*
X129410000Y-111500000D02*
X129170000Y-111740000D01*
X127250000Y-110640000D02*
X125743719Y-110640000D01*
X125743719Y-110640000D02*
X125638056Y-110534337D01*
X130340000Y-112770000D02*
X127873719Y-112770000D01*
X127873719Y-112770000D02*
X125638056Y-110534337D01*
X138340000Y-124300000D02*
X138340000Y-125500000D01*
X138340000Y-125500000D02*
X138062151Y-125777849D01*
X145080000Y-124820000D02*
X144100000Y-125800000D01*
X145845000Y-122665000D02*
X145610000Y-122900000D01*
X145610000Y-122900000D02*
X145610000Y-124290000D01*
X145610000Y-124290000D02*
X145080000Y-124820000D01*
X146790000Y-122665000D02*
X145845000Y-122665000D01*
X133280000Y-119190000D02*
X133500000Y-119410000D01*
X133500000Y-119410000D02*
X133510000Y-123850000D01*
X133510000Y-123850000D02*
X134410000Y-124750000D01*
X134410000Y-124750000D02*
X135470000Y-125150000D01*
X135470000Y-125150000D02*
X136042998Y-125377223D01*
X133280000Y-119190000D02*
X132400000Y-119190000D01*
X136042998Y-125377223D02*
X136042998Y-125377223D01*
X137554396Y-125743543D02*
X136042998Y-125377223D01*
X138390000Y-125800000D02*
X138062151Y-125777849D01*
X138062151Y-125777849D02*
X137554396Y-125743543D01*
X144100000Y-125800000D02*
X139310000Y-125800000D01*
X139310000Y-125800000D02*
X138390000Y-125800000D01*
X132400000Y-119190000D02*
X131400000Y-119190000D01*
X131400000Y-119190000D02*
X130340000Y-118130000D01*
X130340000Y-118130000D02*
X130340000Y-117850000D01*
X135740000Y-116580000D02*
X136690000Y-116580000D01*
X136690000Y-116580000D02*
X137050000Y-116940000D01*
X134600000Y-119190000D02*
X134600000Y-118690000D01*
X134460000Y-117120000D02*
X135000000Y-116580000D01*
X134460000Y-118550000D02*
X134460000Y-117120000D01*
X134600000Y-118690000D02*
X134460000Y-118550000D01*
X135000000Y-116580000D02*
X135740000Y-116580000D01*
X134600000Y-119190000D02*
X134600000Y-119070000D01*
X135130000Y-116580000D02*
X135740000Y-116580000D01*
X137820000Y-116030000D02*
X137820000Y-117700000D01*
X137540000Y-117980000D02*
X137540000Y-119530000D01*
X137820000Y-117700000D02*
X137540000Y-117980000D01*
X135740000Y-115310000D02*
X136380000Y-115310000D01*
X136380000Y-115310000D02*
X136920000Y-115850000D01*
X136920000Y-115850000D02*
X137640000Y-115850000D01*
X137640000Y-115850000D02*
X137820000Y-116030000D01*
X137820000Y-116030000D02*
X137780000Y-115990000D01*
X137540000Y-120170000D02*
X137810000Y-120440000D01*
X137540000Y-119530000D02*
X137540000Y-120170000D01*
X135360000Y-101010000D02*
X135360000Y-101150000D01*
X135360000Y-101150000D02*
X136140000Y-101930000D01*
X135470000Y-105890000D02*
X136140000Y-105220000D01*
X136140000Y-101930000D02*
X136140000Y-105220000D01*
D26*
X135080000Y-99850000D02*
X135080000Y-100730000D01*
X135080000Y-100730000D02*
X135360000Y-101010000D01*
D27*
X135470000Y-106080000D02*
X135470000Y-105890000D01*
D26*
X151510000Y-114610000D02*
X152530000Y-114610000D01*
X152530000Y-114610000D02*
X152974000Y-115054000D01*
X152974000Y-115054000D02*
X152974000Y-115300000D01*
X151510000Y-116510000D02*
X152870000Y-116510000D01*
X152974000Y-116406000D02*
X152974000Y-115300000D01*
X152870000Y-116510000D02*
X152974000Y-116406000D01*
X145430000Y-115860000D02*
X145430000Y-115000000D01*
X145430000Y-115000000D02*
X145060000Y-114630000D01*
X143530000Y-115860000D02*
X143530000Y-114810000D01*
X143710000Y-114630000D02*
X145060000Y-114630000D01*
X143530000Y-114810000D02*
X143710000Y-114630000D01*
D27*
X139370000Y-121880000D02*
X139370000Y-121680000D01*
X139370000Y-121680000D02*
X138860000Y-121170000D01*
X136380000Y-121170000D02*
X136300000Y-121090000D01*
X138860000Y-121170000D02*
X136380000Y-121170000D01*
X134600000Y-121090000D02*
X136300000Y-121090000D01*
X135740000Y-118660000D02*
X135740000Y-117850000D01*
X136830000Y-119750000D02*
X135740000Y-118660000D01*
X136830000Y-120560000D02*
X136830000Y-119750000D01*
X136300000Y-121090000D02*
X136830000Y-120560000D01*
X142390000Y-122015000D02*
X141395000Y-122015000D01*
X141350000Y-121970000D02*
X139460000Y-121970000D01*
X141395000Y-122015000D02*
X141350000Y-121970000D01*
X139460000Y-121970000D02*
X139370000Y-121880000D01*
X139405000Y-121915000D02*
X139370000Y-121880000D01*
X135670000Y-117920000D02*
X135740000Y-117850000D01*
X135920000Y-94545000D02*
X136995000Y-94545000D01*
X140560000Y-100490000D02*
X141530000Y-101398000D01*
X139190000Y-100490000D02*
X140560000Y-100490000D01*
X138790000Y-100090000D02*
X139190000Y-100490000D01*
X138790000Y-99050000D02*
X138790000Y-100090000D01*
X138160000Y-98420000D02*
X138790000Y-99050000D01*
X138160000Y-95710000D02*
X138160000Y-98420000D01*
X136995000Y-94545000D02*
X138160000Y-95710000D01*
X141530000Y-101398000D02*
X141530000Y-101770000D01*
D30*
X141530000Y-101770000D02*
X141552000Y-103558000D01*
X141552000Y-103558000D02*
X142486000Y-103910000D01*
X142486000Y-103910000D02*
X143170000Y-103910000D01*
D27*
X140320000Y-95195000D02*
X142845000Y-95195000D01*
X143461472Y-95811472D02*
X143461472Y-97168528D01*
X142845000Y-95195000D02*
X143461472Y-95811472D01*
D30*
X141552000Y-99568000D02*
X141552000Y-99318000D01*
X141552000Y-99318000D02*
X143461472Y-97408528D01*
X143461472Y-97408528D02*
X143461472Y-97168528D01*
D27*
X135920000Y-95195000D02*
X134835000Y-95195000D01*
X134835000Y-95195000D02*
X134300000Y-94660000D01*
X134300000Y-94660000D02*
X134300000Y-94620000D01*
X134300000Y-94620000D02*
X134670000Y-94060000D01*
X134670000Y-94060000D02*
X136020000Y-93580000D01*
X136020000Y-93580000D02*
X136960000Y-93350000D01*
X136960000Y-93350000D02*
X140130000Y-93350000D01*
X140130000Y-93350000D02*
X140490000Y-93450000D01*
X140320000Y-95845000D02*
X139155000Y-95845000D01*
X138900000Y-97290000D02*
X139390000Y-97780000D01*
X138900000Y-96100000D02*
X138900000Y-97290000D01*
X139155000Y-95845000D02*
X138900000Y-96100000D01*
X140320000Y-95845000D02*
X141915000Y-95845000D01*
X141915000Y-95845000D02*
X141990000Y-95920000D01*
X135920000Y-95845000D02*
X137205000Y-95845000D01*
X135920000Y-95845000D02*
X134615000Y-95845000D01*
X134615000Y-95845000D02*
X134300000Y-96160000D01*
X141200000Y-113870000D02*
X140487895Y-113870000D01*
X141710000Y-114380000D02*
X141200000Y-113870000D01*
X141710000Y-115910000D02*
X141710000Y-114380000D01*
X141180000Y-116440000D02*
X141710000Y-115910000D01*
X141180000Y-118650000D02*
X141180000Y-116440000D01*
X137300000Y-111470000D02*
X138050000Y-112520000D01*
X138050000Y-112520000D02*
X139110000Y-113320000D01*
X139110000Y-113320000D02*
X140410000Y-113790000D01*
X140410000Y-113790000D02*
X140487895Y-113870000D01*
X136860000Y-108810000D02*
X136900000Y-110170000D01*
X136900000Y-110170000D02*
X137300000Y-111470000D01*
X139370000Y-105460000D02*
X138180000Y-106340000D01*
X138180000Y-106340000D02*
X137140000Y-107670000D01*
X137140000Y-107670000D02*
X136860000Y-108810000D01*
X140825574Y-119004426D02*
X141180000Y-118650000D01*
X140825574Y-120440000D02*
X140825574Y-119004426D01*
X139230000Y-102470000D02*
X139240000Y-102470000D01*
X139240000Y-102470000D02*
X139600000Y-102830000D01*
X139600000Y-102830000D02*
X139600000Y-105230000D01*
X139600000Y-105230000D02*
X139370000Y-105460000D01*
X137205000Y-95845000D02*
X137460000Y-96100000D01*
X137460000Y-96100000D02*
X137460000Y-98750000D01*
X137460000Y-98750000D02*
X138070000Y-99360000D01*
X138070000Y-99360000D02*
X138070000Y-100630000D01*
X138070000Y-100630000D02*
X138830000Y-101390000D01*
X138830000Y-101390000D02*
X138830000Y-102070000D01*
X138830000Y-102070000D02*
X139230000Y-102470000D01*
X140825574Y-120440000D02*
X140825574Y-121124426D01*
X140825574Y-121124426D02*
X140730000Y-121220000D01*
X140825574Y-120440000D02*
X140825702Y-120484298D01*
X140825702Y-120484298D02*
X140820000Y-120490000D01*
X139940000Y-99750000D02*
X139940000Y-99200000D01*
X140410000Y-98260000D02*
X140890000Y-97780000D01*
X140410000Y-98730000D02*
X140410000Y-98260000D01*
X139940000Y-99200000D02*
X140410000Y-98730000D01*
X140320000Y-96495000D02*
X140325000Y-96495000D01*
X140325000Y-96495000D02*
X140890000Y-97060000D01*
X140890000Y-97060000D02*
X140890000Y-97780000D01*
X139620000Y-122720000D02*
X140730000Y-122720000D01*
X139240000Y-123100000D02*
X139620000Y-122720000D01*
X139240000Y-124730000D02*
X139240000Y-123100000D01*
X139620000Y-125110000D02*
X139240000Y-124730000D01*
X139870000Y-125110000D02*
X139620000Y-125110000D01*
X144890000Y-124010000D02*
X144890000Y-123730000D01*
X143790000Y-125110000D02*
X144890000Y-124010000D01*
X142880000Y-125110000D02*
X143790000Y-125110000D01*
X141450000Y-125110000D02*
X139870000Y-125110000D01*
X145465000Y-122015000D02*
X144890000Y-122590000D01*
X144890000Y-122590000D02*
X144890000Y-123730000D01*
X146790000Y-122015000D02*
X145465000Y-122015000D01*
X142880000Y-125110000D02*
X141450000Y-125110000D01*
X141450000Y-125110000D02*
X141260000Y-125110000D01*
X140700000Y-122750000D02*
X140730000Y-122720000D01*
X146790000Y-122015000D02*
X148235000Y-121985000D01*
X148235000Y-121985000D02*
X148350000Y-121870000D01*
X141530000Y-119850000D02*
X141530000Y-120505000D01*
X141530000Y-120505000D02*
X142390000Y-121365000D01*
X141530000Y-119850000D02*
X141530000Y-119304998D01*
X143790000Y-113070000D02*
X144810000Y-112030000D01*
X144810000Y-112030000D02*
X145710000Y-109750000D01*
X145710000Y-109750000D02*
X145290000Y-108070000D01*
X145290000Y-108070000D02*
X144500000Y-106720000D01*
X144500000Y-106720000D02*
X143640000Y-105908864D01*
X142420000Y-114440000D02*
X143790000Y-113070000D01*
X142420000Y-116200000D02*
X142420000Y-114440000D01*
X141870000Y-116750000D02*
X142420000Y-116200000D01*
X141870000Y-118964998D02*
X141870000Y-116750000D01*
X141530000Y-119304998D02*
X141870000Y-118964998D01*
X140420000Y-104950000D02*
X140400000Y-104950000D01*
X140310000Y-101620000D02*
X139940000Y-101250000D01*
X140310000Y-104860000D02*
X140310000Y-101620000D01*
X140400000Y-104950000D02*
X140310000Y-104860000D01*
X143640000Y-105908864D02*
X142830000Y-105480000D01*
X142830000Y-105480000D02*
X141590000Y-105200000D01*
X141590000Y-105200000D02*
X140420000Y-104950000D01*
X140420000Y-104950000D02*
X140420000Y-104950000D01*
X143640000Y-105908864D02*
X143620000Y-105890000D01*
X148350000Y-123370000D02*
X148610000Y-123370000D01*
X148610000Y-123370000D02*
X149320000Y-122660000D01*
X150670000Y-117720000D02*
X150670000Y-117700000D01*
X149050000Y-119340000D02*
X150670000Y-117720000D01*
X149050000Y-120840000D02*
X149050000Y-119340000D01*
X149320000Y-121110000D02*
X149050000Y-120840000D01*
X149320000Y-122660000D02*
X149320000Y-121110000D01*
X146790000Y-123315000D02*
X148265000Y-123285000D01*
X148265000Y-123285000D02*
X148350000Y-123370000D01*
D26*
X153840000Y-116690000D02*
X153840000Y-117100000D01*
X153840000Y-117100000D02*
X153240000Y-117700000D01*
X153240000Y-117700000D02*
X150670000Y-117700000D01*
X150670000Y-117700000D02*
X150430000Y-117460000D01*
X150430000Y-117460000D02*
X150430000Y-115560000D01*
X150430000Y-115560000D02*
X150430000Y-115730000D01*
X150430000Y-115730000D02*
X150430000Y-115560000D01*
D27*
X148325000Y-123395000D02*
X148350000Y-123370000D01*
D26*
X149310000Y-115560000D02*
X150070000Y-115560000D01*
X150070000Y-115560000D02*
X150430000Y-115560000D01*
X150430000Y-115560000D02*
X151510000Y-115560000D01*
D27*
X142390000Y-122665000D02*
X143455000Y-122665000D01*
X143840000Y-120840000D02*
X143030000Y-120030000D01*
X143840000Y-122280000D02*
X143840000Y-120840000D01*
X143455000Y-122665000D02*
X143840000Y-122280000D01*
X143030000Y-120030000D02*
X143030000Y-119850000D01*
X142535000Y-117135000D02*
X142535000Y-118915000D01*
X142535000Y-118915000D02*
X143030000Y-119410000D01*
X143030000Y-119410000D02*
X143030000Y-119850000D01*
X142700000Y-116970000D02*
X144480000Y-116970000D01*
X142500000Y-117170000D02*
X142535000Y-117135000D01*
X142535000Y-117135000D02*
X142700000Y-116970000D01*
X142955000Y-119775000D02*
X143030000Y-119850000D01*
D26*
X144480000Y-116970000D02*
X144480000Y-116950000D01*
X146490000Y-115880000D02*
X146490000Y-116860000D01*
X146380000Y-116970000D02*
X144480000Y-116970000D01*
X146490000Y-116860000D02*
X146380000Y-116970000D01*
X144480000Y-116950000D02*
X144480000Y-118060000D01*
X144480000Y-115860000D02*
X144480000Y-116950000D01*
X133520000Y-111500000D02*
X133480000Y-111460000D01*
X133520000Y-111500000D02*
X135740000Y-111500000D01*
X133740000Y-99590000D02*
X132760000Y-98110000D01*
X133890000Y-99740000D02*
X133740000Y-99590000D01*
D27*
X134840000Y-102140000D02*
X134840000Y-102100000D01*
X134840000Y-102100000D02*
X133850000Y-101110000D01*
X133850000Y-101110000D02*
X132760000Y-101110000D01*
D26*
X132760000Y-101110000D02*
X133910000Y-101110000D01*
X130340000Y-116580000D02*
X129390000Y-116580000D01*
X131540000Y-103430000D02*
X130130000Y-103420000D01*
X131670000Y-103480000D02*
X131540000Y-103430000D01*
X129390000Y-116580000D02*
X128670000Y-115860000D01*
D27*
X132710000Y-105720000D02*
X132710000Y-103840000D01*
X132710000Y-103840000D02*
X133130000Y-103420000D01*
D30*
X145570000Y-103910000D02*
X146050000Y-104170000D01*
X146050000Y-104170000D02*
X146430000Y-105240000D01*
X146430000Y-105240000D02*
X146902284Y-106362284D01*
X145158528Y-95471472D02*
X145421472Y-95471472D01*
X145421472Y-95471472D02*
X146594284Y-96644284D01*
X146594284Y-96644284D02*
X146594284Y-97572284D01*
D27*
X135740000Y-114040000D02*
X136090000Y-114040000D01*
X136090000Y-114040000D02*
X137270000Y-115220000D01*
X138230000Y-115220000D02*
X138970000Y-114480000D01*
X137270000Y-115220000D02*
X138230000Y-115220000D01*
X135740000Y-114040000D02*
X136150000Y-114040000D01*
X137776590Y-114045634D02*
X137776590Y-113656590D01*
X137776590Y-113656590D02*
X136890000Y-112770000D01*
X136890000Y-112770000D02*
X135740000Y-112770000D01*
M02*
